<?xml version="1.0" standalone="no"?>
<!DOCTYPE svg PUBLIC "-//W3C//DTD SVG 1.1//EN" "http://www.w3.org/Graphics/SVG/1.1/DTD/svg11.dtd" >
<svg xmlns="http://www.w3.org/2000/svg">
<metadata>
Created by FontPrep 20130207 at Sun Apr  5 22:22:40 2015
 By Tina Kumar
Copyright (C) 2000, 2007 Hoefler &#38; Frere-Jones. http://www.typography.com
</metadata>
<defs>
<font id="f2f444a78f50e012278d28f7f0f873bc" horiz-adv-x='1024' >
  <font-face 
    font-family="Archer-SemiboldItalic"
    font-weight="375"
    font-style="italic"
    font-stretch="normal"
    units-per-em="2048"
    panose-1="0 0 0 0 0 0 0 0 0 0"
    ascent="1638"
    descent="-410"
    x-height="883"
    cap-height="1348"
    bbox="-223 -592 2220 2236"
    underline-thickness="102"
    underline-position="-102"
    slope="-13"
    unicode-range="U+0020-FB04"
  />
<missing-glyph horiz-adv-x="1024" 
d="M512 492l-367 -799h734zM922 1384l-353 -770l353 -770v1540zM102 -156l353 770l-353 770v-1540zM145 1536l367 -799l367 799h-734zM0 -410v2048h1024v-2048h-1024z" />
    <glyph glyph-name="f_f" unicode="ff" horiz-adv-x="1232" 
d="M756 1229q-84 0 -107 76q-88 -21 -139 -240l-43 -182h399l60 254q86 374 383 374q84 1 133 -37t49 -92t-34 -87q-34 -31 -80 -31t-79 26t-34 68q-45 -6 -76 -41q-59 -55 -92 -199l-56 -235h234l-39 -152h-229l-166 -731h-176l167 731h-399l-166 -731h-176l168 731h-156
l39 152h152l49 213q43 186 137 280t221 94q76 0 120 -36t44 -88t-32 -84t-76 -33z" />
    <glyph glyph-name="fi" unicode="fi" horiz-adv-x="1175" 
d="M768 1511q100 0 160 -46t61 -104q0 -58 -32 -91q-33 -33 -81 -33t-79 32t-31 77v8q-8 2 -21 2q-84 0 -139 -72q-59 -63 -90 -199l-47 -202h571l-163 -625q-14 -61 -15 -90q0 -61 56 -62q66 0 120 144l78 -29q-72 -236 -246 -235q-88 0 -137 48t-49 130q0 43 14 96
l123 471h-387l-168 -731h-176l168 731h-156l39 152h152l55 235q35 152 125 254q117 139 295 139z" />
    <glyph glyph-name="fl" unicode="fl" horiz-adv-x="1177" 
d="M735 1358q-86 0 -143 -70q-41 -47 -57 -125l-66 -280h371l53 225q-69 26 -71 118q0 46 42 79q-43 53 -129 53zM758 1511q147 0 231 -106l60 94h112l-287 -1239q-14 -61 -14 -88q0 -66 53 -66q68 0 119 144l80 -29q-72 -236 -246 -235q-88 0 -136 48t-48 132q0 27 12 92
l111 473h-371l-168 -731h-176l170 731h-158l39 152h154l72 307q23 102 82 178q113 143 309 143z" />
    <glyph glyph-name="f_f_i" unicode="ffi" horiz-adv-x="1748" 
d="M745 1468q76 0 127 -34q52 -34 52 -90q0 -54 -33 -87t-78 -32q-88 0 -108 92q-72 -13 -118 -65t-63 -130l-55 -239h397l56 235q35 152 125 254q117 139 292 139q103 0 163 -46t60 -104t-32 -91q-33 -33 -82 -33t-79 32t-30 77v8q-8 2 -22 2q-82 0 -137 -72
q-59 -63 -90 -199l-48 -202h572l-164 -625q-14 -49 -14 -90q0 -61 55 -62q68 0 119 144l80 -29q-72 -236 -246 -235q-88 0 -137 48t-50 130q0 43 15 96l123 471h-387l-168 -731h-176l167 731h-397l-168 -731h-176l168 731h-156l39 152h152l59 256q23 106 84 184
q113 145 309 145z" />
    <glyph glyph-name="f_f_l" unicode="ffl" horiz-adv-x="1748" 
d="M1309 1358q-86 0 -144 -70q-39 -45 -59 -125l-66 -280h373l53 223q-72 29 -71 108q0 57 43 91q-43 53 -129 53zM745 1468q76 0 127 -34q52 -34 52 -90q0 -54 -33 -87t-78 -32q-88 0 -108 92q-72 -13 -118 -65t-63 -130l-55 -239h397l72 307q25 104 84 178
q113 143 309 143q147 0 232 -106l59 94h113l-289 -1239q-14 -82 -14 -88q0 -66 55 -66q63 0 119 144l80 -29q-72 -236 -248 -235q-88 0 -135 48t-48 132q0 43 13 92l110 473h-372l-166 -731h-176l167 731h-397l-168 -731h-176l168 731h-156l39 152h152l59 256q23 106 84 184
q113 145 309 145z" />
    <glyph glyph-name="f_b" unicode="fb" horiz-adv-x="1681" 
d="M821 1225q0 46 43 80q-43 53 -129 53t-143 -70q-41 -47 -57 -125l-66 -280h373l51 225q-72 26 -72 117zM895 356q-1 -98 55 -156t170 -59q114 0 204 114q89 114 89 263q0 102 -52 164t-144 63q-129 0 -226 -119q-96 -120 -96 -270zM758 1511q147 0 231 -106l60 94h112
l-182 -782q55 80 134 131t163 51q152 0 238 -97t85 -259q0 -229 -138 -395t-331 -164q-98 0 -173 56t-97 146l-53 -186h-168l168 731h-373l-168 -731h-176l170 731h-158l39 152h154l72 307q23 102 82 178q113 143 309 143z" />
    <glyph glyph-name="f_h" unicode="fh" horiz-adv-x="1685" 
d="M821 1225q0 46 43 80q-43 53 -129 53t-143 -70q-41 -47 -57 -125l-66 -280h371l53 225q-72 26 -72 117zM758 1511q147 0 231 -106l60 94h110l-184 -788q51 80 127 133t169 53t163 -68t69 -182q0 -70 -20 -143l-74 -262q-10 -45 -10 -70q0 -66 53 -66q61 0 117 144l78 -29
q-70 -236 -238 -235q-88 0 -138 49t-50 115t14 110l72 268q36 126 -25 185q-36 35 -110 35t-145 -71t-99 -202l-111 -475h-180l168 731h-371l-168 -731h-176l170 731h-158l39 152h154l72 307q23 102 82 178q113 143 309 143z" />
    <glyph glyph-name="f_j" unicode="fj" horiz-adv-x="1095" 
d="M297 -283q0 49 31 81q32 32 72 32t70 -23t36 -55q47 10 84 72t84 256l147 651h-387l-168 -731h-176l168 731h-156l39 152h152l55 235q35 152 125 254q117 139 295 139q100 0 160 -46t61 -104q0 -58 -32 -91q-33 -33 -81 -33t-79 32t-31 77v8q-8 2 -21 2q-84 0 -139 -72
q-59 -63 -90 -199l-47 -202h565l-188 -815q-68 -285 -162 -379t-221 -95q-76 0 -121 37t-45 86z" />
    <glyph glyph-name="f_k" unicode="fk" horiz-adv-x="1585" 
d="M821 1225q0 46 43 80q-43 53 -129 53t-143 -70q-41 -47 -57 -125l-66 -280h371l53 225q-72 26 -72 117zM758 1511q147 0 231 -106l60 94h110l-241 -1036q336 121 403 225q-55 33 -55 87t33 89q34 35 84 35t85 -36t35 -95q0 -193 -346 -356l86 -201q27 -63 45 -83t41 -19
q51 0 94 163l82 -26q-33 -148 -87 -204t-126 -56q-132 0 -194 151l-97 230l-106 -41l-78 -326h-180l168 731h-371l-168 -731h-176l170 731h-158l39 152h154l72 307q23 102 82 178q113 143 309 143z" />
    <glyph glyph-name="f_f_b" unicode="ffb" horiz-adv-x="2254" 
d="M1319 1358q-164 0 -213 -195l-66 -280h375l53 231q4 16 9 49q-16 -6 -25 -3q-8 3 -10 35t26 52q-16 53 -57 82t-92 29zM1679 141q129 0 218 114t90 263q-1 102 -53 164t-144 63q-129 1 -225 -119t-97 -270q0 -98 56 -156t155 -59zM745 1468q76 0 127 -34q52 -34 52 -90
q0 -54 -33 -87t-78 -32q-88 0 -108 92q-72 -13 -118 -65t-63 -130l-55 -239h397l72 307q25 104 84 178q113 143 309 143q147 0 232 -106l59 94h111l-181 -778q129 178 289 178t246 -97t86 -259q0 -229 -138 -395t-331 -164q-98 0 -173 56t-97 146l-54 -186h-168l168 731
h-374l-166 -731h-176l167 731h-397l-168 -731h-176l168 731h-156l39 152h152l59 256q23 106 84 184q113 145 309 145z" />
    <glyph glyph-name="f_f_h" unicode="ffh" horiz-adv-x="2258" 
d="M1395 1214q0 57 43 91q-43 53 -129 53t-144 -70q-39 -45 -59 -125l-66 -280h373l53 223q-71 28 -71 108zM745 1468q76 0 127 -34q52 -34 52 -90q0 -54 -33 -87t-78 -32q-88 0 -108 92q-72 -13 -118 -65t-63 -130l-55 -239h397l72 307q25 104 84 178q113 143 309 143
q147 0 232 -106l59 94h111l-185 -788q51 80 127 133t169 53t163 -68t70 -182q0 -74 -23 -143l-72 -262q-10 -45 -10 -70q0 -66 53 -66q63 0 115 144l80 -29q-70 -236 -240 -235q-88 0 -138 49t-50 127q0 41 14 98l74 268q12 41 12 94q0 54 -38 90t-110 36t-144 -71
q-70 -71 -99 -202l-110 -475h-181l168 731h-372l-166 -731h-176l167 731h-397l-168 -731h-176l168 731h-156l39 152h152l59 256q23 106 84 184q113 145 309 145z" />
    <glyph glyph-name="f_f_j" unicode="ffj" horiz-adv-x="1669" 
d="M745 1468q76 0 127 -34q52 -34 52 -90q0 -54 -33 -87t-78 -32q-88 0 -108 92q-72 -13 -118 -65t-63 -130l-55 -239h397l56 235q35 152 125 254q117 139 292 139q103 0 163 -46t60 -104t-32 -91q-33 -33 -82 -33t-79 32t-30 77v8q-8 2 -22 2q-82 0 -137 -72
q-59 -63 -90 -199l-48 -202h566l-189 -815q-68 -285 -162 -379t-223 -95q-74 0 -120 37t-46 86t32 81t73 32t71 -23t35 -55q43 10 74 60q49 80 92 268l150 651h-387l-168 -731h-176l167 731h-397l-168 -731h-176l168 731h-156l39 152h152l59 256q23 106 84 184
q113 145 309 145z" />
    <glyph glyph-name="f_f_k" unicode="ffk" horiz-adv-x="2158" 
d="M1395 1214q0 57 43 91q-43 53 -129 53t-144 -70q-39 -45 -59 -125l-66 -280h373l53 223q-71 28 -71 108zM745 1468q76 0 127 -34q52 -34 52 -90q0 -54 -33 -87t-78 -32q-88 0 -108 92q-72 -13 -118 -65t-63 -130l-55 -239h397l72 307q25 104 84 178q113 143 309 143
q147 0 232 -106l59 94h111l-242 -1036q336 121 403 225q-55 33 -55 87t34 89t84 35t85 -36t35 -95q0 -193 -346 -356l86 -201q27 -63 45 -83t41 -19q51 0 94 163l82 -26q-33 -148 -87 -204t-126 -56q-133 0 -195 151l-96 230q-20 -7 -59 -21t-48 -18l-77 -328h-181l168 731
h-372l-166 -731h-176l167 731h-397l-168 -731h-176l168 731h-156l39 152h152l59 256q23 106 84 184q113 145 309 145z" />
    <glyph glyph-name=".notdef" horiz-adv-x="1024" 
d="M512 492l-367 -799h734zM922 1384l-353 -770l353 -770v1540zM102 -156l353 770l-353 770v-1540zM145 1536l367 -799l367 799h-734zM0 -410v2048h1024v-2048h-1024z" />
    <glyph glyph-name=".null" 
 />
    <glyph glyph-name="nonmarkingreturn" horiz-adv-x="681" 
 />
    <glyph glyph-name="space" unicode=" " horiz-adv-x="425" 
 />
    <glyph glyph-name="exclam" unicode="!" horiz-adv-x="520" 
d="M215 -16q-55 0 -93 39t-38 94t38 95t93 40t93 -40t38 -95t-38 -94t-93 -39zM219 379l143 967h226l-281 -967h-88z" />
    <glyph glyph-name="quotedbl" unicode="&#x22;" horiz-adv-x="768" 
d="M359 1372q48 0 82 -34t34 -72t-14 -70l-182 -377h-74l33 428q4 57 38 91q35 34 83 34zM727 1372q49 0 83 -34t34 -70t-17 -72l-180 -377h-74l33 428q4 57 38 91t83 34z" />
    <glyph glyph-name="numbersign" unicode="#" horiz-adv-x="1173" 
d="M516 672l-78 -273h254l76 273h-252zM164 666l35 145h200l68 244h162l-68 -244h240l67 244h162l-67 -244h184l-35 -145h-190l-72 -260h197l-35 -146h-203l-72 -260h-162l74 260h-243l-70 -260h-162l72 260h-183l35 146h189l71 260h-194z" />
    <glyph glyph-name="dollar" unicode="$" horiz-adv-x="1032" 
d="M397 776q0 -68 131 -133l86 279q-104 0 -160 -38q-56 -40 -57 -108zM727 281q0 84 -147 149l-93 -297h9q104 0 168 39q63 39 63 109zM59 259q0 66 31 103t79 37q48 -1 78 -31q29 -30 29 -75t-34 -76q31 -43 133 -70l102 326q-116 53 -170 97q-98 80 -97 197
q1 118 114 205t290 87q25 0 37 -2l45 139l125 -35l-41 -127q100 -29 164 -90q64 -60 64 -126t-32 -100t-79 -34t-77 30t-30 74t33 78q-27 27 -94 43l-98 -315q211 -97 260 -193q23 -45 22 -100q-1 -133 -111 -219t-292 -86q-20 0 -57 4l-68 -217l-125 35q27 98 64 205
q-115 35 -190 103t-75 133z" />
    <glyph glyph-name="percent" unicode="%" horiz-adv-x="1335" 
d="M1002 502q108 0 170 -64t62 -172q0 -110 -80 -196t-190 -86t-172 63t-62 171t81 196q83 88 191 88zM362 555q-108 0 -171 63q-62 63 -62 171t81 196q80 88 190 88q110 -1 172 -65t62 -172t-81 -194q-83 -87 -191 -87zM398 965q-52 1 -98 -55t-46 -118t28 -96t82 -34
q53 0 99 56q45 56 45 118t-29 96q-29 33 -81 33zM145 -4l-69 80q451 366 1171 1009l70 -79q-430 -351 -793 -674q-363 -322 -379 -336zM966 92q52 0 98 55t46 117t-29 96q-29 33 -81 33t-98 -55q-46 -56 -46 -118t29 -95t81 -33z" />
    <glyph glyph-name="ampersand" unicode="&#x26;" horiz-adv-x="1296" 
d="M666 1165q-74 1 -128 -63t-53 -157q0 -93 56 -181q139 62 208 122t68 146q0 53 -39 93q-38 40 -112 40zM408 129q154 0 309 178l-156 187q-55 68 -86 106q-133 -61 -195 -129t-62 -156t50 -137q52 -49 140 -49zM31 297q0 266 362 416q-78 129 -78 260q1 131 107 232
t252 101t232 -80q85 -81 85 -199t-96 -209t-272 -165l196 -231q98 133 171 189q74 57 150 57t117 -39t41 -88t-34 -83t-92 -34t-87 61q-39 -12 -149 -161q-8 -12 -12 -19l198 -227l-116 -107l-189 224q-197 -221 -426 -222q-166 1 -263 91t-97 233z" />
    <glyph glyph-name="quotesingle" unicode="'" horiz-adv-x="399" 
d="M359 1372q48 0 82 -34t34 -72t-14 -70l-182 -377h-74l33 428q4 57 38 91q35 34 83 34z" />
    <glyph glyph-name="parenleft" unicode="(" horiz-adv-x="794" 
d="M143 393q0 385 216 686t571 457l67 -131q-321 -156 -495 -422t-174 -594q0 -219 99 -407t257 -328l-98 -113q-190 152 -317 369q-126 217 -126 483z" />
    <glyph glyph-name="parenright" unicode=")" horiz-adv-x="831" 
d="M569 686q0 220 -99 408t-257 329l98 113q191 -152 317 -369t126 -483q0 -385 -216 -686t-571 -457l-67 131q322 156 496 421t173 593z" />
    <glyph glyph-name="asterisk" unicode="*" horiz-adv-x="876" 
d="M674 705q-31 -1 -57 27t-31 71l-33 211l-121 -174q-37 -56 -83 -56q-45 0 -67 25t-22 57q0 55 70 90l192 101l-209 63q-84 27 -84 90q0 35 25 60q24 24 62 24t79 -41l154 -153l-2 219q-2 49 20 81q23 32 69 32t70 -40t-10 -110l-100 -192l207 67q23 8 55 8q32 1 58 -23
q24 -24 24 -65t-35 -63t-92 -10l-213 34l129 -176q29 -39 29 -77t-26 -59t-58 -21z" />
    <glyph glyph-name="plus" unicode="+" horiz-adv-x="897" 
d="M641 913l-63 -272h276l-37 -152h-274l-68 -288h-153l67 288h-276l37 152h274l63 272h154z" />
    <glyph glyph-name="comma" unicode="," horiz-adv-x="464" 
d="M49 144q0 46 42 88q43 42 103 42t103 -45t43 -114q0 -115 -116 -235t-306 -189l-39 73q127 68 193 136t71 108q-43 16 -69 53t-25 83z" />
    <glyph glyph-name="hyphen" unicode="-" horiz-adv-x="692" 
d="M100 483l41 181h504l-41 -181h-504z" />
    <glyph glyph-name="period" unicode="." horiz-adv-x="464" 
d="M193 -16q-59 0 -102 43q-42 43 -42 102t42 102q41 43 101 43t102 -43t42 -102t-42 -102t-101 -43z" />
    <glyph glyph-name="slash" unicode="/" horiz-adv-x="815" 
d="M-53 -430l-137 78l1073 1874l137 -80z" />
    <glyph glyph-name="zero" unicode="0" horiz-adv-x="1185" 
d="M571 135q158 0 265 137q106 137 106 322q0 141 -77 232t-195 92q-158 0 -266 -136t-107 -321q1 -141 77 -233t197 -93zM580 -16q-224 0 -346 135t-121 340q0 240 161 426q162 186 386 186t346 -136q123 -136 122 -339q0 -240 -162 -426t-386 -186z" />
    <glyph glyph-name="one" unicode="1" horiz-adv-x="837" 
d="M18 2l35 148h242l168 727l-225 -56l-7 154l367 92l80 -37l-205 -880h244l-33 -148h-666z" />
    <glyph glyph-name="two" unicode="2" horiz-adv-x="1069" 
d="M592 918q-117 0 -186 -66q32 -29 32 -76t-32 -80q-32 -32 -81 -32q-48 0 -84 34t-36 88q0 109 119 197t297 88q179 0 287 -81q108 -80 108 -208t-127 -218t-292 -161q-165 -72 -246 -127t-132 -131h529l40 174h152l-74 -319h-837l-21 98q66 142 197 242t302 178t247 132
t76 122t-61 108q-60 38 -177 38z" />
    <glyph glyph-name="three" unicode="3" horiz-adv-x="1021" 
d="M872 123q0 -161 -130 -271t-322 -110q-190 0 -317 90q-126 90 -126 211q0 61 33 99t82 38t80 -30t31 -86q0 -54 -51 -76q16 -35 87 -66t185 -31t192 70t78 170t-83 165t-222 64h-51l37 146h47q166 0 272 64t107 173q0 82 -65 130q-66 49 -184 49t-177 -52q35 -26 35 -72
t-31 -77t-78 -31t-81 32t-34 89q0 106 113 183t287 77t286 -89q113 -89 113 -220t-93 -220t-265 -116q123 -45 184 -126t61 -177z" />
    <glyph glyph-name="four" unicode="4" horiz-adv-x="1148" 
d="M913 590l-77 -334h215l-33 -147h-215l-82 -355h-176l82 355h-592l-19 81l871 895l112 -104l-706 -725h369l61 266z" />
    <glyph glyph-name="five" unicode="5" horiz-adv-x="1024" 
d="M387 -254q-167 0 -279 74t-112 172q0 57 36 94t84 37t82 -33t34 -78t-21 -63q47 -47 188 -47t235 87q93 87 93 201t-71 174q-72 58 -188 58t-222 -51l-103 63l209 621h664l-37 -168h-530l-115 -350q88 39 188 38q166 0 275 -97t109 -274t-148 -318q-148 -140 -371 -140z
" />
    <glyph glyph-name="six" unicode="6" horiz-adv-x="1114" 
d="M289 388q1 -112 65 -182q64 -69 188 -69t216 94t92 210q0 117 -62 179t-186 62q-125 0 -219 -91t-94 -203zM788 1317q138 -1 232 -63t94 -150q0 -53 -33 -89t-82 -36t-81 32t-31 72q0 40 18 56q-39 35 -125 35q-150 0 -272 -115q-72 -67 -132 -181t-83 -233
q51 76 146 131t212 55q169 0 275 -102t106 -262q0 -199 -142 -341t-341 -142t-317 119t-118 333t78 412q76 198 231 334q155 135 365 135z" />
    <glyph glyph-name="seven" unicode="7" horiz-adv-x="1032" 
d="M227 -252l-141 96l756 1065h-506l-51 -215h-160l84 361h835l37 -78z" />
    <glyph glyph-name="eight" unicode="8" horiz-adv-x="1087" 
d="M270 354q0 -98 75 -160t193 -61q118 0 198 72q81 72 81 172q0 101 -75 163q-74 62 -190 62t-199 -75t-83 -173zM670 1165q-107 -1 -181 -67q-73 -66 -73 -155t64 -147t168 -59q104 0 180 66t75 157q0 91 -63 148t-170 57zM995 365q0 -157 -134 -269q-133 -112 -331 -112
t-316 103t-118 239t83 230q83 93 229 132q-164 96 -164 254t126 267q126 108 306 108t292 -99q112 -100 112 -230t-76 -216q-74 -86 -203 -121q92 -45 143 -122t51 -164z" />
    <glyph glyph-name="nine" unicode="9" horiz-adv-x="1114" 
d="M868 670q0 112 -66 181t-188 69t-214 -96t-93 -210q1 -116 63 -178t186 -61q124 0 218 91q94 92 94 204zM371 -260q-139 0 -234 62q-94 62 -94 151q0 53 33 89t82 36t82 -32q32 -32 32 -70t-20 -58q53 -33 133 -33q141 0 262 113q76 68 135 182t82 232q-51 -76 -145 -132
t-213 -57q-170 1 -276 103t-105 262q0 199 143 341t341 142t316 -120q117 -120 117 -331t-70 -396t-192 -308q-176 -176 -409 -176z" />
    <glyph glyph-name="colon" unicode=":" horiz-adv-x="526" 
d="M223 -16q-59 0 -100 42t-41 100t41 100t100 42t101 -41t41 -100q1 -59 -41 -101t-101 -42zM346 524q-59 0 -100 41t-41 101t41 101q41 42 100 42t100 -42t41 -101q0 -58 -41 -100t-100 -42z" />
    <glyph glyph-name="semicolon" unicode=";" horiz-adv-x="526" 
d="M223 268q59 0 101 -44t43 -113q0 -111 -113 -229t-301 -185l-37 74q125 67 187 131t69 106q-43 16 -67 52q-23 36 -23 82t41 86t100 40zM346 524q-59 0 -100 41t-41 101t41 101q41 42 100 42t100 -42t41 -101q0 -58 -41 -100t-100 -42z" />
    <glyph glyph-name="less" unicode="&#x3c;" horiz-adv-x="923" 
d="M559 152l-438 362l20 90l598 359l76 -115l-504 -301l342 -285z" />
    <glyph glyph-name="equal" unicode="=" horiz-adv-x="897" 
d="M106 305l35 154h652l-35 -154h-652zM188 655l35 154h649l-34 -154h-650z" />
    <glyph glyph-name="greater" unicode="&#x3e;" horiz-adv-x="856" 
d="M178 156l-74 116l504 301l-344 283l96 111l439 -363l-23 -90z" />
    <glyph glyph-name="question" unicode="?" horiz-adv-x="948" 
d="M287 -16q-55 0 -94 39t-39 94t39 95t94 40t93 -40t38 -95t-38 -94t-93 -39zM821 1016q0 92 -62 144q-61 52 -149 52t-139 -22t-65 -49q45 -31 45 -80t-33 -82t-81 -33t-82 37t-34 94q0 127 119 211q120 84 282 84t276 -93t114 -260t-136 -295t-399 -157l-74 -188h-118
l49 319q246 12 366 100t121 218z" />
    <glyph glyph-name="at" unicode="@" horiz-adv-x="1656" 
d="M995 500q-1 151 -157 151q-80 0 -145 -83t-64 -195q0 -68 35 -111t98 -43q92 0 163 83t70 198zM702 -362q-270 0 -442 181t-172 466q0 401 255 686t613 284q276 0 447 -165q170 -166 170 -422t-118 -428t-294 -172q-98 0 -153 49t-60 125q-100 -174 -266 -174
q-102 0 -170 78t-68 204q0 184 110 322t262 137q152 0 212 -162l47 150h164l-117 -463q-41 -152 76 -152q109 0 191 142q81 142 81 346t-139 348t-373 143q-319 0 -543 -258t-225 -622q0 -238 144 -395t373 -156q170 0 325 84l43 -82q-176 -94 -373 -94z" />
    <glyph glyph-name="A" unicode="A" horiz-adv-x="1441" 
d="M549 606h424l-74 592zM-55 0l39 166h122l603 1018h-160l37 164h678l-39 -164h-152l131 -1018h142l-39 -166h-467l37 164h151l-35 285h-536l-166 -285h178l-39 -164h-485z" />
    <glyph glyph-name="B" unicode="B" horiz-adv-x="1220" 
d="M575 162q203 0 291 90q62 60 62 156t-81 151t-222 55h-144l-106 -452h200zM1016 1004q0 182 -291 182h-113l-98 -422h131q174 0 273 62q98 62 98 178zM750 1348q188 0 279 -48q179 -95 179 -276q0 -133 -94 -225t-235 -113q104 -30 173 -108t68 -177q0 -168 -121 -272
q-96 -84 -260 -113q-76 -16 -190 -16h-551l39 166h153l236 1016h-174l37 166h461z" />
    <glyph glyph-name="C" unicode="C" horiz-adv-x="1390" 
d="M721 -23q-248 0 -414 159t-166 431q1 328 227 567t541 238q211 0 347 -105t137 -233q0 -68 -40 -114q-41 -46 -95 -46t-90 35t-36 89t52 92q-20 44 -96 78t-185 34q-237 0 -403 -187t-166 -433q0 -199 110 -317t293 -118q215 0 400 181l112 -113q-219 -238 -528 -238z
" />
    <glyph glyph-name="D" unicode="D" horiz-adv-x="1435" 
d="M526 166q338 0 523 188q164 164 163 412q0 176 -104 281q-135 135 -403 135h-93l-237 -1016h151zM723 1348q350 0 539 -189q145 -145 145 -383q0 -311 -213 -528q-250 -248 -696 -248h-500l39 166h153l236 1016h-174l37 166h434z" />
    <glyph glyph-name="E" unicode="E" horiz-adv-x="1183" 
d="M-2 0l39 166h153l236 1016h-174l37 166h993l-86 -355h-176l45 191h-453l-98 -418h420l-37 -160h-418l-104 -442h454l48 190h176l-82 -354h-973z" />
    <glyph glyph-name="F" unicode="F" horiz-adv-x="1142" 
d="M-2 0l39 166h153l236 1016h-174l37 166h975l-86 -355h-177l46 191h-435l-104 -443h407l-36 -161h-406l-98 -414h194l-39 -166h-532z" />
    <glyph glyph-name="G" unicode="G" horiz-adv-x="1464" 
d="M658 -23q-218 0 -368 156t-149 402q1 341 235 589t572 248q268 0 408 -139q80 -78 80 -158t-40 -121t-93 -41t-89 34q-34 34 -34 83t41 86l-15 17q-74 70 -260 69q-258 0 -435 -194t-177 -463q0 -182 103 -290t263 -108q223 0 377 117l60 252h-361l37 158h547l-160 -674
h-156l21 137q-189 -160 -407 -160z" />
    <glyph glyph-name="H" unicode="H" horiz-adv-x="1554" 
d="M-2 0l39 166h153l236 1016h-174l37 166h524l-39 -166h-162l-96 -414h680l96 414h-184l39 166h522l-37 -166h-155l-236 -1016h174l-37 -166h-522l37 166h164l102 440h-680l-104 -440h184l-39 -166h-522z" />
    <glyph glyph-name="I" unicode="I" horiz-adv-x="731" 
d="M4 0l39 166h168l235 1016h-182l39 166h537l-37 -166h-170l-236 -1016h183l-39 -166h-537z" />
    <glyph glyph-name="J" unicode="J" horiz-adv-x="1148" 
d="M420 -23q-154 1 -266 93t-113 231q0 82 44 133q45 51 101 51q56 1 88 -31t33 -75t-23 -72t-65 -37q3 -53 61 -89t152 -36q141 0 219 101q63 80 101 239l161 697h-225l39 166h557l-39 -166h-151l-166 -719q-49 -219 -148 -334q-124 -152 -360 -152z" />
    <glyph glyph-name="K" unicode="K" horiz-adv-x="1355" 
d="M1315 1182l-514 -432l276 -584h189l-39 -166h-283l-287 637l-215 -180l-67 -291h182l-39 -166h-520l39 166h153l236 1016h-174l37 166h508l-37 -162h-148l-123 -522l596 522h-155l35 162h528l-37 -166h-141z" />
    <glyph glyph-name="L" unicode="L" horiz-adv-x="1120" 
d="M-2 0l39 166h153l236 1016h-174l37 166h536l-39 -166h-174l-237 -1018h420l47 198h178l-84 -362h-938z" />
    <glyph glyph-name="M" unicode="M" horiz-adv-x="1755" 
d="M-6 0l37 166h155l283 1016h-176l37 166h327l234 -852l608 852h342l-39 -166h-155l-191 -1016h178l-37 -166h-520l37 166h160l162 838l-586 -807h-29l-229 807l-223 -838h182l-39 -166h-518z" />
    <glyph glyph-name="N" unicode="N" horiz-adv-x="1523" 
d="M1102 -4l-531 1036l-200 -866h184l-39 -166h-518l39 166h153l236 1016h-174l37 166h329l486 -955l182 789h-182l39 166h514l-37 -166h-152l-276 -1186h-90z" />
    <glyph glyph-name="O" unicode="O" horiz-adv-x="1497" 
d="M733 145q225 0 382 196t157 441q0 182 -104 301t-296 119q-225 0 -383 -196t-157 -441q0 -182 104 -301t297 -119zM717 -25q-266 0 -421 165t-155 425q1 147 57 291q121 310 392 446q141 71 299 70q266 0 421 -165t154 -425q0 -199 -95 -383t-269 -304t-383 -120z" />
    <glyph glyph-name="P" unicode="P" horiz-adv-x="1159" 
d="M659 633q170 0 266 91q95 91 95 228q0 166 -174 215q-51 14 -123 15h-111l-127 -545q94 -4 174 -4zM741 1348q269 0 392 -155q76 -97 75 -230q0 -209 -154 -352q-155 -142 -417 -142q-117 0 -191 4l-71 -307h184l-39 -166h-522l39 166h153l236 1016h-174l37 166h452z" />
    <glyph glyph-name="Q" unicode="Q" horiz-adv-x="1497" 
d="M733 145q225 0 382 196t157 441q0 182 -104 301t-296 119q-225 0 -383 -196t-157 -441q0 -182 104 -301t297 -119zM1464 776q0 -266 -176 -500t-442 -286q80 -150 256 -150q74 0 149 39l56 -139q-111 -55 -233 -55q-122 -1 -239 77q-118 78 -188 218q-236 20 -371 182
t-135 403q1 147 57 291q121 310 392 446q141 71 299 70q267 0 421 -165t154 -431z" />
    <glyph glyph-name="R" unicode="R" horiz-adv-x="1236" 
d="M1020 967q0 215 -311 215h-99l-112 -488q69 -6 161 -6q166 0 264 78q97 78 97 201zM715 1348q274 0 397 -125q96 -92 96 -245q0 -152 -99 -266t-273 -159l180 -387h160l-39 -166h-252l-230 530h-51q-51 0 -141 5l-88 -369h178l-39 -166h-516l39 166h153l236 1016h-174
l37 166h426z" />
    <glyph glyph-name="S" unicode="S" horiz-adv-x="1142" 
d="M1026 360q0 -166 -131 -276t-336 -109t-345 99t-140 221q0 70 39 114t93 44t89 -35q35 -36 35 -92t-51 -93q78 -96 282 -96q115 1 192 57t77 140t-56 140q-54 56 -190 133t-220 167t-83 234q0 144 127 255q127 109 319 109t315 -88t123 -197q0 -69 -38 -113t-92 -44
t-88 35t-34 87t45 91q-55 68 -221 67q-119 0 -191 -55t-71 -136t59 -138t193 -134t217 -167t82 -220z" />
    <glyph glyph-name="T" unicode="T" horiz-adv-x="1271" 
d="M279 0l38 166h166l238 1020h-299l-47 -213h-178l86 375h1134l-86 -375h-176l47 213h-297l-235 -1020h186l-37 -166h-540z" />
    <glyph glyph-name="U" unicode="U" horiz-adv-x="1441" 
d="M233 377q0 74 25 178l145 627h-172l39 166h516l-36 -166h-162l-146 -635q-23 -102 -22 -154q0 -119 68 -183t206 -65q137 0 226 84q88 84 120 236l164 717h-182l39 166h516l-39 -166h-152l-169 -736q-109 -469 -534 -469q-218 0 -334 109t-116 291z" />
    <glyph glyph-name="V" unicode="V" horiz-adv-x="1398" 
d="M539 -18l-207 1200h-139l36 166h480l-37 -166h-140l132 -881l528 881h-154l37 166h490l-37 -166h-121l-762 -1200h-106z" />
    <glyph glyph-name="W" unicode="W" horiz-adv-x="1968" 
d="M446 -16l-86 1198h-145l39 166h496l-37 -166h-170l41 -848l499 866h88l150 -870l414 852h-164l37 166h497l-39 -166h-129l-612 -1196h-100l-162 858l-518 -858z" />
    <glyph glyph-name="X" unicode="X" horiz-adv-x="1460" 
d="M-33 0l37 166h139l545 536l-272 480h-162l39 166h524l-37 -166h-149l182 -379l356 379h-153l37 166h532l-37 -166h-145l-510 -502l295 -514h158l-37 -166h-516l38 166h154l-213 416l-395 -416h164l-39 -166h-535z" />
    <glyph glyph-name="Y" unicode="Y" horiz-adv-x="1308" 
d="M256 0l39 166h172l88 369l-233 647h-136l39 166h475l-36 -166h-150l168 -512l414 512h-148l39 166h494l-37 -166h-129l-584 -682l-78 -334h185l-37 -166h-545z" />
    <glyph glyph-name="Z" unicode="Z" horiz-adv-x="1269" 
d="M39 0l-12 98l1040 1094h-592l-51 -219h-172l88 375h999l13 -99l-1043 -1093h625l51 219h172l-88 -375h-1030z" />
    <glyph glyph-name="bracketleft" unicode="[" horiz-adv-x="718" 
d="M2 -410l442 1909h496l-35 -153h-321l-373 -1600h321l-34 -156h-496z" />
    <glyph glyph-name="backslash" unicode="\" horiz-adv-x="677" 
d="M375 -416l-135 1911l155 14l135 -1910z" />
    <glyph glyph-name="bracketright" unicode="]" horiz-adv-x="718" 
d="M-176 -410l37 154h321l371 1599h-322l37 156h496l-442 -1909h-498z" />
    <glyph glyph-name="asciicircum" unicode="^" horiz-adv-x="917" 
d="M262 702l-74 93l412 327l248 -338l-90 -77l-195 180z" />
    <glyph glyph-name="underscore" unicode="_" horiz-adv-x="1085" 
d="M-152 -319l41 167h1149l-39 -167h-1151z" />
    <glyph glyph-name="grave" unicode="`" horiz-adv-x="1230" 
d="M516 1298q0 48 28 76t64 27q61 0 105 -74l149 -276l-59 -45l-238 202q-49 42 -49 90z" />
    <glyph glyph-name="a" unicode="a" horiz-adv-x="1163" 
d="M453 137q131 0 223 119t92 268q0 100 -51 158t-150 59q-127 1 -214 -115t-87 -270q0 -100 48 -160t139 -59zM381 -16q-133 0 -217 96t-84 256q0 227 137 395t328 168q96 0 168 -60t96 -149l57 197h168l-155 -629q-16 -59 -17 -90q0 -61 53 -62q63 0 115 144l80 -29
q-72 -236 -244 -235q-78 0 -124 49t-46 129v10q-137 -190 -315 -190z" />
    <glyph glyph-name="b" unicode="b" horiz-adv-x="1089" 
d="M516 141q127 0 217 114t90 263q0 102 -52 164t-146 63q-129 0 -226 -119q-96 -120 -96 -270q1 -98 57 -156t156 -59zM684 899q152 0 238 -97t86 -259q0 -229 -138 -395t-331 -164q-98 0 -173 56t-98 146l-53 -186h-168l311 1348h-165l38 151h338l-182 -782q55 80 134 131
t163 51z" />
    <glyph glyph-name="c" unicode="c" horiz-adv-x="970" 
d="M491 -16q-177 0 -295 105t-118 301t152 352t362 157q141 0 232 -74t91 -174q1 -59 -33 -99t-82 -40t-79 31t-31 78t37 77q-43 50 -155 50t-214 -102q-100 -102 -100 -261q0 -115 70 -183t182 -69q154 0 297 111l-4 -164q-135 -96 -312 -96z" />
    <glyph glyph-name="d" unicode="d" horiz-adv-x="1165" 
d="M457 137q129 0 222 117t93 268q0 102 -53 160t-152 59q-127 1 -214 -115t-87 -270q0 -98 50 -158t141 -61zM80 336q0 229 137 396t326 167q94 0 167 -59t99 -144l149 652h-163l36 151h340l-290 -1241q-14 -68 -15 -90q0 -61 52 -62q61 0 116 144l80 -29
q-72 -236 -244 -235q-80 0 -126 49t-46 131v8q-131 -190 -313 -190q-133 0 -219 97t-86 255z" />
    <glyph glyph-name="e" unicode="e" horiz-adv-x="987" 
d="M558 750q-93 0 -170 -65t-112 -171h459q41 123 -35 192q-48 44 -142 44zM252 385v-31q0 -100 73 -160t203 -60t281 79l-35 -168q-125 -61 -293 -61q-169 0 -287 100t-118 274q0 223 143 382t340 159q164 0 260 -88t96 -242q1 -86 -32 -184h-631z" />
    <glyph glyph-name="f" unicode="f" horiz-adv-x="661" 
d="M743 1511q84 -1 130 -39q47 -38 47 -92t-34 -85t-80 -31t-78 26t-36 68q-114 -22 -170 -250l-51 -225h231l-38 -152h-228l-168 -731h-178l168 731h-154l37 152h152l57 243q42 186 142 286t251 99z" />
    <glyph glyph-name="g" unicode="g" horiz-adv-x="1087" 
d="M477 164q129 0 218 110t89 256q0 98 -58 154t-155 57q-129 0 -216 -106t-87 -258q0 -97 58 -155t151 -58zM379 -410q-90 0 -179 31q-180 63 -182 186q0 53 32 87t80 34t79 -32t31 -71q0 -38 -13 -61q53 -32 161 -32t175 66t105 220l39 166q-123 -174 -304 -174
q-147 0 -234 96t-87 259q0 219 134 377t333 157q106 0 176 -59t96 -142l56 189h165l-211 -910q-41 -184 -129 -274q-114 -113 -323 -113z" />
    <glyph glyph-name="h" unicode="h" horiz-adv-x="1095" 
d="M681 897q93 0 163 -68t69 -182q0 -74 -22 -143l-72 -262q-10 -45 -10 -70q0 -66 53 -66q63 0 115 144l80 -29q-70 -236 -240 -235q-88 0 -138 49t-50 127q0 41 14 98l74 268q12 41 12 94q0 54 -38 90q-39 36 -111 36t-143 -71t-99 -202l-111 -475h-180l311 1348h-165
l38 151h338l-184 -788q51 80 127 133t169 53z" />
    <glyph glyph-name="i" unicode="i" horiz-adv-x="628" 
d="M317 -14q-88 0 -136 48t-48 130q0 43 14 96l123 471h-166l39 152h346l-163 -625q-14 -49 -15 -90q0 -61 54 -62q66 0 120 144l80 -29q-72 -235 -248 -235zM423 1032q-48 0 -83 35t-35 84t35 84t83 35t84 -35t36 -84t-36 -84t-84 -35z" />
    <glyph glyph-name="j" unicode="j" horiz-adv-x="577" 
d="M451 1032q-49 0 -84 35t-35 84t35 84t84 35t84 -35t35 -84t-36 -84q-34 -35 -83 -35zM-57 -406q-76 0 -121 37t-45 86t32 81q33 32 73 32t69 -23t37 -55q46 12 84 76t82 252l149 651h-172l39 152h344l-186 -815q-66 -281 -170 -385q-84 -89 -215 -89z" />
    <glyph glyph-name="k" unicode="k" horiz-adv-x="995" 
d="M676 775q0 54 34 89t84 35t85 -36t34 -95q0 -193 -346 -356l86 -201q27 -63 45 -83t41 -19q51 0 95 163l81 -26q-33 -148 -87 -204t-126 -56q-132 0 -194 151l-96 230l-60 -21t-47 -18l-78 -328h-180l311 1348h-165l38 151h338l-241 -1036q336 121 403 225q-55 33 -55 87
z" />
    <glyph glyph-name="l" unicode="l" horiz-adv-x="595" 
d="M285 -14q-88 0 -137 48q-48 48 -48 132q0 27 13 92l254 1090h-166l39 151h340l-287 -1239q-14 -61 -14 -88q0 -66 53 -66q66 0 121 144l77 -29q-71 -235 -245 -235z" />
    <glyph glyph-name="m" unicode="m" horiz-adv-x="1638" 
d="M711 897q90 0 149 -59t68 -160q59 102 139 160t170 59q90 0 155 -68t64 -182q0 -63 -22 -143l-76 -260q-12 -53 -12 -72q0 -66 55 -66q63 0 115 144l79 -29q-70 -236 -239 -235q-88 0 -138 49t-50 109t14 118l73 258q43 131 -18 193q-35 35 -86 35q-81 0 -147 -73
t-101 -208l-119 -467h-180l133 518q15 68 15 113t-34 81t-100 36t-136 -73q-69 -73 -101 -206l-117 -469h-180l184 731h-164l39 152h316l-49 -207q57 98 134 160t167 61z" />
    <glyph glyph-name="n" unicode="n" horiz-adv-x="1138" 
d="M856 -14q-88 0 -138 49t-50 127q0 43 14 100l76 266q14 49 14 98q0 50 -37 86t-109 36t-141 -70q-70 -70 -102 -199l-119 -479h-180l184 731h-164l39 152h316l-47 -207q55 96 137 158t177 63q95 0 163 -68t67 -182q0 -63 -22 -143l-76 -260q-12 -53 -12 -72q0 -66 55 -66
q63 0 115 144l80 -29q-70 -235 -240 -235z" />
    <glyph glyph-name="o" unicode="o" horiz-adv-x="1052" 
d="M483 133q129 0 220 110t92 265q1 112 -63 176t-163 64q-129 0 -220 -109t-91 -264q0 -113 64 -177t161 -65zM488 -16q-198 0 -304 113q-106 114 -106 278q0 209 144 367t342 157q198 0 304 -114t107 -279q-1 -206 -145 -364t-342 -158z" />
    <glyph glyph-name="p" unicode="p" horiz-adv-x="1132" 
d="M557 141q127 0 217 114t90 263q0 102 -52 164t-144 63q-129 0 -226 -119q-96 -120 -96 -270q0 -98 56 -156t155 -59zM731 899q147 0 233 -97t87 -259q-1 -229 -139 -395t-332 -164q-94 0 -165 55t-108 139l-100 -432h172l-39 -147h-479l39 147h131l231 985h-166l39 152
h320l-45 -193q139 209 321 209z" />
    <glyph glyph-name="q" unicode="q" horiz-adv-x="1087" 
d="M463 137q133 0 226 119t93 268q0 100 -53 158t-151 59q-129 0 -221 -115q-91 -116 -91 -268q0 -98 52 -160t145 -61zM395 -16q-147 0 -231 96t-84 260q0 227 139 393t334 166q96 0 168 -57t98 -140l53 181h166l-260 -1133h180l-38 -151h-353l129 557q-129 -172 -301 -172
z" />
    <glyph glyph-name="r" unicode="r" horiz-adv-x="821" 
d="M709 897q55 0 93 -35t38 -87t-37 -89t-84 -37t-80 26t-41 64q-59 -27 -131 -121t-105 -223l-98 -395h-180l184 731h-164l39 152h316l-58 -248q164 262 308 262z" />
    <glyph glyph-name="s" unicode="s" horiz-adv-x="886" 
d="M340 674q0 -38 31 -69q31 -30 61 -46t120 -57q92 -40 154 -98t62 -150q0 -130 -95 -200t-255 -70q-211 0 -320 112q-55 54 -55 110t30 89q29 33 73 33t72 -29t28 -66t-21 -61q7 -8 55 -32t132 -25q84 1 132 29t48 71t-31 73t-61 45t-90 42q-187 83 -228 169
q-18 40 -18 91q0 111 91 187t263 77q172 0 266 -98q52 -51 52 -107t-30 -89q-30 -32 -72 -32t-72 29t-29 63q0 34 18 64q-57 36 -138 36q-81 1 -127 -26t-46 -65z" />
    <glyph glyph-name="t" unicode="t" horiz-adv-x="720" 
d="M389 125q59 0 176 78l64 -86q-150 -131 -297 -131q-86 0 -141 48q-54 48 -54 138q0 35 15 107l112 452h-160l35 152h162l51 200l197 68l-68 -268h271l-39 -152h-269l-112 -452q-12 -45 -13 -78q0 -76 70 -76z" />
    <glyph glyph-name="u" unicode="u" horiz-adv-x="1140" 
d="M332 247q0 -44 33 -78t90 -34q87 0 157 70t103 198l119 480h180l-158 -625q-14 -66 -14 -90q0 -61 51 -62q61 0 117 144l80 -29q-72 -236 -244 -235q-78 0 -124 49t-46 133v18q-55 -94 -134 -148t-170 -54t-158 64t-67 169q0 61 21 148l94 366h-164l39 152h342l-135 -535
q-12 -57 -12 -101z" />
    <glyph glyph-name="v" unicode="v" horiz-adv-x="989" 
d="M678 776q0 51 36 87t91 36t93 -43t38 -115q0 -137 -130 -343t-349 -423h-117l-141 756h-154l39 152h270l103 -703q254 274 307 479q-86 31 -86 117z" />
    <glyph glyph-name="w" unicode="w" horiz-adv-x="1402" 
d="M1081 782q0 46 34 82q34 35 90 35t94 -42t38 -114q0 -221 -393 -768h-106l-117 539l-318 -539h-118l-76 756h-162l39 152h276l39 -670l314 569h102l119 -585q219 336 235 471q-37 8 -63 38t-27 76z" />
    <glyph glyph-name="x" unicode="x" horiz-adv-x="1087" 
d="M152 -14q-66 0 -106 36t-40 85t32 81t77 31q68 0 96 -65q49 10 145 147l97 137l-117 293h-174l39 152h252l108 -305l74 114q129 207 274 207q63 0 105 -37t41 -85q0 -48 -32 -80t-77 -31q-72 0 -96 61q-51 -14 -133 -137l-88 -129l98 -238q31 -72 47 -92t35 -20
q47 0 92 141l80 -25q-57 -242 -209 -241q-66 0 -110 38t-78 128l-64 170l-88 -136q-126 -200 -280 -200z" />
    <glyph glyph-name="y" unicode="y" horiz-adv-x="1003" 
d="M-23 -410q-65 0 -109 38t-44 89t32 84t74 33t73 -24q30 -24 38 -64q80 4 315 289l-143 696h-156l39 152h271l118 -705q262 346 297 484q-86 31 -86 118q0 49 35 84t92 35t95 -43t36 -117q0 -203 -407 -706q-219 -267 -339 -355t-231 -88z" />
    <glyph glyph-name="z" unicode="z" horiz-adv-x="972" 
d="M400 168q52 0 130 -18t126 -18t80 35q32 36 67 136l76 -16q-33 -145 -85 -225t-167 -78q-41 0 -163 26t-171 27q-115 0 -221 -53l-66 96l703 661h-375l-41 -166h-154l76 308h686l49 -105l-674 -633q72 23 124 23z" />
    <glyph glyph-name="braceleft" unicode="{" horiz-adv-x="724" 
d="M377 352q0 43 -50 78t-147 35h-63l39 160h65q121 0 182 48t61 111t-74 181q-75 118 -75 215q1 150 143 246t414 102l-12 -121q-190 -13 -283 -75t-93 -137t78 -200q79 -125 79 -213t-73 -154q-73 -67 -212 -85q96 -19 148 -71t51 -126q0 -98 -168 -233
q-164 -127 -164 -219q0 -158 271 -216l-29 -118q-201 26 -305 114t-105 215q0 154 187 297q135 104 135 166z" />
    <glyph glyph-name="bar" unicode="|" horiz-adv-x="565" 
d="M205 -410v1909h155v-1909h-155z" />
    <glyph glyph-name="braceright" unicode="}" horiz-adv-x="724" 
d="M289 -106q0 76 -79 200t-79 213q0 88 73 154t212 86q-96 16 -148 69q-51 53 -51 125q0 101 166 231t166 222q0 160 -270 215l28 121q201 -25 305 -115t105 -217q0 -156 -187 -295q-135 -104 -135 -166q0 -45 50 -79t147 -33h63l-39 -160h-65q-121 0 -182 -48
q-61 -47 -61 -111t67 -169q82 -135 82 -227q-1 -150 -143 -246t-414 -104l12 123q190 14 284 74q93 61 93 137z" />
    <glyph glyph-name="asciitilde" unicode="~" horiz-adv-x="966" 
d="M636 379q-83 0 -167 84q-63 61 -100 61q-74 0 -136 -133l-108 41q31 121 101 195q149 155 325 -13q61 -61 99 -61t69 31t63 104l111 -43q-35 -125 -105 -195t-152 -71z" />
    <glyph glyph-name="uni00A0" unicode="&#xa0;" horiz-adv-x="425" 
 />
    <glyph glyph-name="exclamdown" unicode="&#xa1;" horiz-adv-x="520" 
d="M45 0l279 967h90l-144 -967h-225zM418 1094q-55 0 -94 40t-39 95t39 94t94 39t93 -39t38 -94t-38 -95t-93 -40z" />
    <glyph glyph-name="cent" unicode="&#xa2;" horiz-adv-x="991" 
d="M279 472q0 -144 114 -216l176 584q-121 -24 -205 -124t-85 -244zM530 74q-45 0 -67 4l-88 -295l-123 33l86 293q-112 45 -176 137t-64 217q0 207 150 361t360 163l66 209l121 -33l-56 -188q104 -23 170 -87t66 -132t-34 -108t-82 -40t-80 31q-31 31 -31 79t38 77
q-29 31 -98 45l-186 -621q14 -2 43 -2q182 0 319 109l-4 -158q-129 -94 -330 -94z" />
    <glyph glyph-name="sterling" unicode="&#xa3;" horiz-adv-x="1067" 
d="M1047 821q0 -61 -35 -98t-79 -37t-75 30t-31 75t31 75q-12 20 -59 36t-92 18q-125 0 -190 -84t-64 -228q0 -45 10 -120t12 -109h356l-32 -139h-328q-25 -172 -156 -279q57 2 167 -35t174 -37q64 1 112 21t109 76l81 -90q-125 -160 -311 -160q-94 0 -231 52t-209 54
q-88 -102 -193 -102q-47 0 -79 28t-31 64q0 63 77 103t185 30q119 115 141 275h-229l33 139h200q-2 35 -13 111t-11 122q0 199 115 329q116 130 305 130q147 0 243 -75t97 -175z" />
    <glyph glyph-name="yen" unicode="&#xa5;" horiz-adv-x="1038" 
d="M160 487l30 136h201l-133 295h-123l33 137h403l-30 -135h-131l143 -334l299 334h-139l32 135h416l-33 -137h-114l-273 -295h193l-31 -136h-297l-20 -98h295l-31 -137h-295l-25 -119h170l-28 -133h-494l31 133h164l26 119h-293l33 137h293l23 98h-295z" />
    <glyph glyph-name="section" unicode="&#xa7;" horiz-adv-x="872" 
d="M639 512q0 51 -162 121l-39 16q-160 -37 -159 -104q-1 -55 163 -123l31 -14q90 20 128 43t38 61zM564 952q-142 0 -142 -67q0 -21 9 -30l15 -15q19 -19 50 -34q32 -14 44 -20t31 -16q21 -10 79 -38t110 -74q52 -48 53 -113q0 -152 -229 -195q82 -61 82 -151
q0 -91 -79 -153t-218 -62t-216 55t-77 127q0 38 26 64t65 26t63 -25t24 -55t-12 -45q49 -27 112 -27q64 0 102 18t38 49t-42 59t-144 74t-153 93q-52 47 -53 119q0 150 236 191q-86 63 -86 150t79 151t216 63q137 0 215 -56t78 -126q0 -39 -26 -65t-64 -26t-64 26
q-24 24 -24 55t12 45q-46 28 -110 28z" />
    <glyph glyph-name="dieresis" unicode="&#xa8;" horiz-adv-x="1024" 
d="M496 1059q-53 0 -92 38q-38 38 -37 91q0 53 39 92t92 39t91 -39t38 -92t-39 -91t-92 -38zM881 1059q-53 0 -91 38t-38 91t39 92t92 39t91 -39t38 -92t-39 -91t-92 -38z" />
    <glyph glyph-name="copyright" unicode="&#xa9;" horiz-adv-x="1251" 
d="M650 262q-126 0 -204 77t-78 195t82 196q81 78 181 79q100 0 157 -40q58 -40 58 -78q1 -71 -58 -73q-24 0 -38 16t-14 36t7 28q-33 33 -107 33t-125 -55q-52 -55 -52 -137q0 -83 52 -139t136 -56t154 66l49 -56q-74 -92 -200 -92zM182 528q0 -194 128 -328t315 -134
q186 0 315 135t129 329t-128 326q-128 133 -315 133q-188 0 -316 -133t-128 -328zM626 -16q-226 0 -382 158t-156 384q0 227 156 386t383 159t382 -158t155 -385t-156 -386q-156 -158 -382 -158z" />
    <glyph glyph-name="ordfeminine" unicode="&#xaa;" horiz-adv-x="743" 
d="M76 596l24 104h584l-25 -104h-583zM258 1047q0 -127 120 -127q64 0 116 68q53 68 53 140q0 140 -115 140q-72 0 -123 -67t-51 -154zM322 819q-80 1 -132 59t-51 154q0 136 84 238t197 102q57 0 99 -35t56 -86l33 111h107l-92 -373q-26 -88 18 -88q39 0 72 86l51 -22
q-45 -143 -150 -144q-102 0 -106 109q-71 -111 -186 -111z" />
    <glyph glyph-name="guillemotleft" unicode="&#xab;" horiz-adv-x="1054" 
d="M387 205l-307 366l461 363l86 -100l-324 -285l184 -258zM825 205l-309 366l463 363l86 -100l-324 -285l185 -258z" />
    <glyph glyph-name="registered" unicode="&#xae;" horiz-adv-x="815" 
d="M520 1071h31q70 0 70 50t-70 50h-31v-100zM416 887v59h37v225h-37v60h137q61 0 100 -27q39 -28 39 -86t-61 -86l45 -86h39v-59h-86l-64 127h-45v-68h39v-59h-143zM555 1350q-121 0 -206 -86t-85 -211t85 -210t205 -85t205 85t85 210t-84 211t-205 86zM554 688
q-152 0 -260 106t-108 259q0 154 108 260t262 106t259 -106q107 -106 107 -259q0 -154 -108 -260t-260 -106z" />
    <glyph glyph-name="macron" unicode="&#xaf;" horiz-adv-x="1024" 
d="M342 1087l37 150h639l-33 -150h-643z" />
    <glyph glyph-name="degree" unicode="&#xb0;" horiz-adv-x="669" 
d="M426 942q58 0 106 60t50 127q0 67 -32 102t-90 35t-107 -62q-50 -62 -50 -128t33 -100q32 -34 90 -34zM422 834q-117 0 -180 68q-64 68 -64 176t85 201t202 93t179 -66t62 -176t-83 -203q-84 -93 -201 -93z" />
    <glyph glyph-name="plusminus" unicode="&#xb1;" horiz-adv-x="897" 
d="M16 35l35 151h703l-35 -151h-703zM682 1057l-66 -277h277l-35 -151h-276l-64 -277h-153l63 277h-274l34 151h275l63 277h156z" />
    <glyph glyph-name="two.sup" unicode="&#xb2;" horiz-adv-x="722" 
d="M723 1436q1 90 -141 90q-74 0 -105 -39q19 -23 19 -53t-22 -51t-54 -21t-54 24t-22 58q0 76 80 134t185 58t174 -53t69 -139t-62 -141t-184 -117q-190 -98 -250 -203h299l29 119h104l-51 -221h-512l-24 57q78 193 358 338q86 45 125 81t39 79z" />
    <glyph glyph-name="three.sup" unicode="&#xb3;" horiz-adv-x="722" 
d="M508 868q-108 0 -190 48q-81 48 -80 131q0 35 22 59t54 24t53 -21q20 -23 20 -51t-18 -46q29 -37 119 -37t133 33t43 80q0 46 -44 82t-120 36h-49l26 113h47q84 0 138 31q53 31 53 78q0 48 -40 74q-39 26 -93 26t-90 -19q12 -17 12 -39t-23 -44t-53 -22t-54 24
q-22 22 -22 55q0 57 65 103t177 46t182 -56t70 -135t-58 -128t-159 -58q160 -39 159 -170q0 -101 -86 -159t-194 -58z" />
    <glyph glyph-name="acute" unicode="&#xb4;" horiz-adv-x="1024" 
d="M813 1401q45 0 71 -27t25 -63q0 -66 -75 -107l-351 -178l-47 59l289 269q43 47 88 47z" />
    <glyph glyph-name="paragraph" unicode="&#xb6;" horiz-adv-x="1206" 
d="M610 147h117l180 732h-114zM596 1026h655l-37 -154h-161l-179 -718h168l-36 -154h-742l37 150h164q59 242 61 241q-131 -2 -219 41q-98 12 -150 76t-53 151q0 171 140 269t352 98z" />
    <glyph glyph-name="periodcentered" unicode="&#xb7;" horiz-adv-x="464" 
d="M262 401q-59 0 -101 43q-42 42 -42 102t42 103t101 43q60 0 102 -43t42 -102t-42 -103q-43 -43 -102 -43z" />
    <glyph glyph-name="cedilla" unicode="&#xb8;" horiz-adv-x="1024" 
d="M330 -410q-116 0 -230 88l41 62q92 -57 195 -57q36 0 60 17t24 44t-34 44t-99 9l-31 41l123 207l61 -16l-34 -129q82 -10 126 -52t46 -106q0 -66 -66 -109t-182 -43z" />
    <glyph glyph-name="one.sup" unicode="&#xb9;" horiz-adv-x="722" 
d="M229 881l25 110h197l116 508l-190 -43l-6 111l282 67l62 -28l-142 -615h193l-25 -110h-512z" />
    <glyph glyph-name="ordmasculine" unicode="&#xba;" horiz-adv-x="700" 
d="M458 1276q-66 0 -119 -62q-52 -62 -52 -140q0 -76 37 -114q36 -38 104 -38t120 62t52 139t-38 115t-104 38zM92 596l25 104h504l-25 -104h-504zM465 1372q121 0 184 -68t63 -180t-84 -206q-85 -94 -206 -95q-121 0 -184 68q-64 67 -64 181t85 207t206 93z" />
    <glyph glyph-name="guillemotright" unicode="&#xbb;" horiz-adv-x="1054" 
d="M143 205l-86 100l324 285l-184 258l102 86l307 -367zM582 205l-86 100l323 285l-184 258l100 86l309 -367z" />
    <glyph glyph-name="onequarter" unicode="&#xbc;" horiz-adv-x="1628" 
d="M303 31q657 757 1096 1308l71 -61q-348 -401 -557 -647q-157 -189 -538 -660zM133 573l25 111h196l117 508l-190 -43l-7 111l283 67l61 -29l-141 -614h193l-25 -111h-512zM1221 96l30 123h-333l-17 57l481 492l76 -72l-391 -385h207l31 123l125 47l-39 -164h118l-24 -98
h-119l-29 -123h93l-23 -96h-336l23 96h127z" />
    <glyph glyph-name="onehalf" unicode="&#xbd;" horiz-adv-x="1628" 
d="M272 31q657 757 1096 1308l72 -61q-348 -400 -532 -618t-564 -689zM111 573l24 111h197l117 508l-191 -43l-6 111l283 67l61 -29l-141 -614h192l-24 -111h-512zM1409 555q1 91 -141 91q-74 0 -105 -40q19 -22 19 -52t-22 -52t-54 -21q-32 0 -54 24t-22 58q0 76 80 134
q80 59 185 59t174 -54t69 -139q0 -86 -62 -141t-184 -117q-190 -98 -250 -203h299l29 119h105l-52 -221h-512l-24 57q78 193 358 338q86 45 125 81t39 79z" />
    <glyph glyph-name="threequarters" unicode="&#xbe;" horiz-adv-x="1628" 
d="M305 31q657 757 1096 1308l72 -61q-348 -401 -558 -647q-157 -189 -538 -660zM1221 96l30 123h-333l-17 57l481 492l76 -72l-391 -385h207l31 123l125 47l-39 -164h118l-24 -98h-119l-29 -123h93l-23 -96h-336l23 96h127zM713 778q0 -102 -86 -160q-87 -58 -195 -57
q-108 0 -189 48t-81 130q0 35 21 60q22 25 55 25t53 -22t20 -50t-18 -47q29 -37 119 -37t133 32t43 80q0 47 -44 83t-120 36h-49l26 113h48q84 0 137 30t53 78q0 47 -40 74t-93 27t-90 -19q12 -16 12 -39t-22 -45t-54 -20q-32 0 -54 22t-22 56q0 57 65 103t177 46t182 -56
t70 -135t-58 -128t-159 -58q160 -39 160 -170z" />
    <glyph glyph-name="questiondown" unicode="&#xbf;" horiz-adv-x="948" 
d="M840 272q0 -124 -120 -208t-282 -84t-276 92t-113 260q0 168 136 296t399 156l75 193h119l-51 -326q-246 -10 -367 -99t-120 -218q0 -92 62 -144t150 -51q165 0 203 70q-45 33 -45 82t33 81t81 32t82 -36t34 -96zM774 1100q-55 0 -93 40t-38 95t38 94t93 39t93 -39
t38 -94t-38 -95t-93 -40z" />
    <glyph glyph-name="Agrave" unicode="&#xc0;" horiz-adv-x="1441" 
d="M721 1746q0 48 28 76t64 27q61 0 105 -73l149 -277l-59 -45l-238 203q-49 41 -49 89zM549 606h424l-74 592zM-55 0l39 166h122l603 1018h-160l37 164h678l-39 -164h-152l131 -1018h142l-39 -166h-467l37 164h151l-35 285h-536l-166 -285h178l-39 -164h-485z" />
    <glyph glyph-name="Aacute" unicode="&#xc1;" horiz-adv-x="1441" 
d="M1260 1849q46 -1 70 -27q26 -26 26 -63q0 -66 -76 -106l-350 -178l-47 59l288 268q43 47 89 47zM549 606h424l-74 592zM-55 0l39 166h122l603 1018h-160l37 164h678l-39 -164h-152l131 -1018h142l-39 -166h-467l37 164h151l-35 285h-536l-166 -285h178l-39 -164h-485z
" />
    <glyph glyph-name="Acircumflex" unicode="&#xc2;" horiz-adv-x="1441" 
d="M717 1470l-70 91l408 323l243 -336l-86 -75l-192 194zM549 606h424l-74 592zM-55 0l39 166h122l603 1018h-160l37 164h678l-39 -164h-152l131 -1018h142l-39 -166h-467l37 164h151l-35 285h-536l-166 -285h178l-39 -164h-485z" />
    <glyph glyph-name="Atilde" unicode="&#xc3;" horiz-adv-x="1441" 
d="M1128 1477q-83 0 -167 84q-63 61 -105 61q-74 0 -135 -133l-105 39q31 120 103 194q73 74 155 74t154 -72t115 -73q76 0 135 133l106 -41q-31 -121 -102 -193t-154 -73zM549 606h424l-74 592zM-55 0l39 166h122l603 1018h-160l37 164h678l-39 -164h-152l131 -1018h142
l-39 -166h-467l37 164h151l-35 285h-536l-166 -285h178l-39 -164h-485z" />
    <glyph glyph-name="Adieresis" unicode="&#xc4;" horiz-adv-x="1441" 
d="M811 1507q-53 0 -91 38t-38 91q0 52 39 92t92 40t91 -40q38 -38 38 -92t-39 -91q-39 -38 -92 -38zM1196 1507q-53 0 -91 38t-38 91q0 52 39 92t92 40t91 -40q38 -38 38 -92t-39 -91q-39 -38 -92 -38zM549 606h424l-74 592zM-55 0l39 166h122l603 1018h-160l37 164h678
l-39 -164h-152l131 -1018h142l-39 -166h-467l37 164h151l-35 285h-536l-166 -285h178l-39 -164h-485z" />
    <glyph glyph-name="Aring" unicode="&#xc5;" horiz-adv-x="1441" 
d="M549 606h424l-74 592zM842 1494q0 -112 93 -112q46 0 83 45t37 97t-25 83q-24 29 -70 29t-82 -45t-36 -97zM972 1753q104 0 160 -59t56 -132q0 -146 -121 -214h197l-39 -164h-152l131 -1018h142l-39 -166h-467l37 164h151l-35 285h-536l-166 -285h178l-39 -164h-485
l39 166h122l603 1018h-160l37 164h198q-70 51 -70 150t78 177q77 78 180 78z" />
    <glyph glyph-name="AE" unicode="&#xc6;" horiz-adv-x="1888" 
d="M653 604h353l137 586h-64zM-45 0l39 166h156l745 1016h-170l37 166h1227l-86 -355h-177l46 191h-447l-96 -418h411l-36 -160h-412l-102 -442h444l47 190h178l-82 -354h-970l38 166h158l68 283h-426l-209 -285h174l-39 -164h-516z" />
    <glyph glyph-name="Ccedilla" unicode="&#xc7;" horiz-adv-x="1390" 
d="M721 -23q-29 0 -53 3l-21 -80q82 -10 127 -52t45 -106q1 -66 -65 -109t-182 -43t-230 88l41 62q94 -57 195 -57q36 0 60 17t24 44t-34 44t-100 9l-30 41l90 154q-199 40 -323 190t-124 385q1 328 227 567t541 238q211 0 347 -105t137 -233q0 -68 -40 -114
q-41 -46 -95 -46t-90 35t-36 89t52 92q-20 44 -96 78t-185 34q-237 0 -403 -187t-166 -433q0 -199 110 -317t293 -118q215 0 400 181l112 -113q-219 -238 -528 -238z" />
    <glyph glyph-name="Egrave" unicode="&#xc8;" horiz-adv-x="1183" 
d="M580 1746q0 48 27 76q28 28 65 27q61 0 104 -73l150 -277l-60 -45l-237 203q-49 41 -49 89zM-2 0l39 166h153l236 1016h-174l37 166h993l-86 -355h-176l45 191h-453l-98 -418h420l-37 -160h-418l-104 -442h454l48 190h176l-82 -354h-973z" />
    <glyph glyph-name="Eacute" unicode="&#xc9;" horiz-adv-x="1183" 
d="M-2 0l39 166h153l236 1016h-174l37 166h993l-86 -355h-176l45 191h-453l-98 -418h420l-37 -160h-418l-104 -442h454l48 190h176l-82 -354h-973zM1118 1849q45 -1 71 -27t25 -63q0 -66 -75 -106l-351 -178l-47 59l289 268q43 47 88 47z" />
    <glyph glyph-name="Ecircumflex" unicode="&#xca;" horiz-adv-x="1183" 
d="M-2 0l39 166h153l236 1016h-174l37 166h993l-86 -355h-176l45 191h-453l-98 -418h420l-37 -160h-418l-104 -442h454l48 190h176l-82 -354h-973zM575 1470l-69 91l407 323l244 -336l-86 -75l-192 194z" />
    <glyph glyph-name="Edieresis" unicode="&#xcb;" horiz-adv-x="1183" 
d="M-2 0l39 166h153l236 1016h-174l37 166h993l-86 -355h-176l45 191h-453l-98 -418h420l-37 -160h-418l-104 -442h454l48 190h176l-82 -354h-973zM670 1507q-53 0 -91 38t-38 91q0 52 39 92t92 40t91 -40q38 -38 38 -92t-39 -91q-39 -38 -92 -38zM1055 1507q-53 0 -91 38
t-38 91q0 52 39 92t92 40t91 -40q38 -38 38 -92t-39 -91q-39 -38 -92 -38z" />
    <glyph glyph-name="Igrave" unicode="&#xcc;" horiz-adv-x="731" 
d="M645 1454l-237 203q-50 41 -50 89t28 76t65 27q61 0 104 -73l150 -277zM4 0l39 166h168l235 1016h-182l39 166h537l-37 -166h-170l-236 -1016h183l-39 -166h-537z" />
    <glyph glyph-name="Iacute" unicode="&#xcd;" horiz-adv-x="731" 
d="M897 1849q45 -1 71 -27t25 -63q0 -66 -75 -106l-351 -178l-47 59l289 268q43 47 88 47zM4 0l39 166h168l235 1016h-182l39 166h537l-37 -166h-170l-236 -1016h183l-39 -166h-537z" />
    <glyph glyph-name="Icircumflex" unicode="&#xce;" horiz-adv-x="731" 
d="M354 1470l-69 91l407 323l244 -336l-86 -75l-193 194zM4 0l39 166h168l235 1016h-182l39 166h537l-37 -166h-170l-236 -1016h183l-39 -166h-537z" />
    <glyph glyph-name="Idieresis" unicode="&#xcf;" horiz-adv-x="731" 
d="M449 1507q-53 0 -92 38q-38 38 -38 91q0 52 39 92q38 40 92 40t92 -40q38 -38 38 -92t-39 -91q-39 -38 -92 -38zM834 1507q-53 0 -92 38q-38 38 -37 91q0 53 38 93q39 39 93 39t91 -40q38 -38 38 -92t-39 -91q-39 -38 -92 -38zM4 0l39 166h168l235 1016h-182l39 166h537
l-37 -166h-170l-236 -1016h183l-39 -166h-537z" />
    <glyph glyph-name="Eth" unicode="&#xd0;" horiz-adv-x="1435" 
d="M526 166q338 0 523 188q164 164 163 412q0 176 -104 281q-135 135 -403 135h-93l-98 -416h283l-37 -154h-281l-104 -446h151zM723 1348q350 0 539 -189q145 -145 145 -383q0 -311 -213 -528q-250 -248 -696 -248h-500l39 166h153l103 446h-172l35 154h174l96 416h-174
l37 166h434z" />
    <glyph glyph-name="Ntilde" unicode="&#xd1;" horiz-adv-x="1523" 
d="M1166 1477q-83 0 -167 84q-63 61 -104 61q-74 0 -135 -133l-105 39q31 120 103 194t154 74t156 -72q72 -72 114 -73q76 0 135 133l106 -41q-31 -121 -102 -194q-72 -72 -155 -72zM1102 -4l-531 1036l-200 -866h184l-39 -166h-518l39 166h153l236 1016h-174l37 166h329
l486 -955l182 789h-182l39 166h514l-37 -166h-152l-276 -1186h-90z" />
    <glyph glyph-name="Ograve" unicode="&#xd2;" horiz-adv-x="1497" 
d="M737 1746q0 48 28 76t64 27q61 0 105 -73l149 -277l-59 -45l-238 203q-49 41 -49 89zM733 145q225 0 382 196t157 441q0 182 -104 301t-296 119q-225 0 -383 -196t-157 -441q0 -182 104 -301t297 -119zM717 -25q-266 0 -421 165t-155 425q1 147 57 291q121 310 392 446
q141 71 299 70q266 0 421 -165t154 -425q0 -199 -95 -383t-269 -304t-383 -120z" />
    <glyph glyph-name="Oacute" unicode="&#xd3;" horiz-adv-x="1497" 
d="M733 145q225 0 382 196t157 441q0 182 -104 301t-296 119q-225 0 -383 -196t-157 -441q0 -182 104 -301t297 -119zM717 -25q-266 0 -421 165t-155 425q1 147 57 291q121 310 392 446q141 71 299 70q266 0 421 -165t154 -425q0 -199 -95 -383t-269 -304t-383 -120z
M1276 1849q45 -1 71 -27t25 -63q0 -66 -76 -106l-350 -178l-47 59l289 268q43 47 88 47z" />
    <glyph glyph-name="Ocircumflex" unicode="&#xd4;" horiz-adv-x="1497" 
d="M733 145q225 0 382 196t157 441q0 182 -104 301t-296 119q-225 0 -383 -196t-157 -441q0 -182 104 -301t297 -119zM717 -25q-266 0 -421 165t-155 425q1 147 57 291q121 310 392 446q141 71 299 70q266 0 421 -165t154 -425q0 -199 -95 -383t-269 -304t-383 -120z
M733 1470l-69 91l407 323l244 -336l-86 -75l-193 194z" />
    <glyph glyph-name="Otilde" unicode="&#xd5;" horiz-adv-x="1497" 
d="M1144 1477q-83 0 -167 84q-63 61 -105 61q-74 0 -135 -133l-104 39q31 120 103 194t154 74q84 0 156 -72t113 -73q76 0 135 133l107 -41q-31 -121 -103 -193t-154 -73zM733 145q225 0 382 196t157 441q0 182 -104 301t-296 119q-225 0 -383 -196t-157 -441
q0 -182 104 -301t297 -119zM717 -25q-266 0 -421 165t-155 425q1 147 57 291q121 310 392 446q141 71 299 70q266 0 421 -165t154 -425q0 -199 -95 -383t-269 -304t-383 -120z" />
    <glyph glyph-name="Odieresis" unicode="&#xd6;" horiz-adv-x="1497" 
d="M733 145q225 0 382 196t157 441q0 182 -104 301t-296 119q-225 0 -383 -196t-157 -441q0 -182 104 -301t297 -119zM717 -25q-266 0 -421 165t-155 425q1 147 57 291q121 310 392 446q141 71 299 70q266 0 421 -165t154 -425q0 -199 -95 -383t-269 -304t-383 -120z
M827 1507q-53 0 -91 38t-38 91q0 52 39 92t92 40t92 -39q37 -39 37 -93t-39 -91q-39 -38 -92 -38zM1212 1507q-53 0 -91 38t-38 91q0 52 39 92t92 40t92 -39q38 -39 38 -93t-40 -91q-39 -38 -92 -38z" />
    <glyph glyph-name="multiply" unicode="&#xd7;" horiz-adv-x="897" 
d="M342 901l164 -225l256 215l92 -117l-260 -217l168 -229l-125 -99l-166 226l-256 -215l-92 116l260 217l-166 230z" />
    <glyph glyph-name="Oslash" unicode="&#xd8;" horiz-adv-x="1497" 
d="M739 143q225 0 383 197t158 442q0 98 -35 187l-801 -709q111 -117 295 -117zM338 565q0 -109 37 -194l803 710q-106 123 -299 123q-225 0 -383 -196t-158 -443zM727 -25q-258 0 -418 160l-180 -160l-96 111l188 170q-74 134 -74 322t95 371q94 183 268 303t381 120
q264 0 420 -166l188 168l98 -112l-198 -177q71 -143 71 -323t-94 -365q-94 -184 -268 -303t-381 -119z" />
    <glyph glyph-name="Ugrave" unicode="&#xd9;" horiz-adv-x="1441" 
d="M705 1746q0 48 27 76q28 28 65 27q61 0 104 -73l150 -277l-60 -45l-237 203q-49 41 -49 89zM233 377q0 74 25 178l145 627h-172l39 166h516l-36 -166h-162l-146 -635q-23 -102 -22 -154q0 -119 68 -183t206 -65q137 0 226 84q88 84 120 236l164 717h-182l39 166h516
l-39 -166h-152l-169 -736q-109 -469 -534 -469q-218 0 -334 109t-116 291z" />
    <glyph glyph-name="Uacute" unicode="&#xda;" horiz-adv-x="1441" 
d="M233 377q0 74 25 178l145 627h-172l39 166h516l-36 -166h-162l-146 -635q-23 -102 -22 -154q0 -119 68 -183t206 -65q137 0 226 84q88 84 120 236l164 717h-182l39 166h516l-39 -166h-152l-169 -736q-109 -469 -534 -469q-218 0 -334 109t-116 291zM1245 1849
q45 -1 71 -27t25 -63q0 -66 -75 -106l-351 -178l-47 59l289 268q43 47 88 47z" />
    <glyph glyph-name="Ucircumflex" unicode="&#xdb;" horiz-adv-x="1441" 
d="M233 377q0 74 25 178l145 627h-172l39 166h516l-36 -166h-162l-146 -635q-23 -102 -22 -154q0 -119 68 -183t206 -65q137 0 226 84q88 84 120 236l164 717h-182l39 166h516l-39 -166h-152l-169 -736q-109 -469 -534 -469q-218 0 -334 109t-116 291zM702 1470l-69 91
l407 323l244 -336l-86 -75l-192 194z" />
    <glyph glyph-name="Udieresis" unicode="&#xdc;" horiz-adv-x="1441" 
d="M233 377q0 74 25 178l145 627h-172l39 166h516l-36 -166h-162l-146 -635q-23 -102 -22 -154q0 -119 68 -183t206 -65q137 0 226 84q88 84 120 236l164 717h-182l39 166h516l-39 -166h-152l-169 -736q-109 -469 -534 -469q-218 0 -334 109t-116 291zM797 1507
q-53 0 -91 38t-38 91q0 52 39 92t92 40t91 -40q38 -38 38 -92t-39 -91q-39 -38 -92 -38zM1182 1507q-53 0 -91 38t-38 91q0 52 39 92t92 40t91 -40q38 -38 38 -92t-39 -91q-39 -38 -92 -38z" />
    <glyph glyph-name="Yacute" unicode="&#xdd;" horiz-adv-x="1308" 
d="M1155 1849q45 -1 71 -27t25 -63q0 -66 -75 -106l-351 -178l-47 59l289 268q43 47 88 47zM256 0l39 166h172l88 369l-233 647h-136l39 166h475l-36 -166h-150l168 -512l414 512h-148l39 166h494l-37 -166h-129l-584 -682l-78 -334h185l-37 -166h-545z" />
    <glyph glyph-name="Thorn" unicode="&#xde;" horiz-adv-x="1173" 
d="M967 709q0 190 -271 190h-151l-99 -428q84 -6 222 -6q138 1 218 67q81 66 81 177zM733 1053q229 0 338 -113q84 -84 84 -219q0 -188 -139 -300t-383 -112q-145 0 -223 6l-35 -153h182l-37 -162h-522l39 166h153l236 1016h-174l37 166h524l-37 -162h-164l-30 -133h151z
" />
    <glyph glyph-name="germandbls" unicode="&#xdf;" horiz-adv-x="1153" 
d="M729 -12q-111 0 -189 57t-79 137q0 47 32 80q33 33 75 33t71 -30q29 -29 29 -63t-19 -61q27 -20 93 -20t112 45q45 45 45 121t-127 188q-74 70 -112 127q-38 58 -38 124q1 112 80 185q29 27 82 65t80 62t54 67q26 44 26 102q0 57 -52 103t-134 46t-147 -66t-91 -188
l-252 -1102h-176l168 731h-156l37 152h154l53 237q42 182 148 286t269 105q163 0 257 -87t94 -212q0 -126 -53 -196t-145 -133q-125 -82 -125 -146q1 -35 27 -69t93 -99q158 -145 158 -278t-89 -218t-253 -85z" />
    <glyph glyph-name="agrave" unicode="&#xe0;" horiz-adv-x="1163" 
d="M434 1298q0 48 28 76t64 27q61 0 105 -74l149 -276l-59 -45l-238 202q-49 42 -49 90zM453 137q131 0 223 119t92 268q0 100 -51 158t-150 59q-127 1 -214 -115t-87 -270q0 -100 48 -160t139 -59zM381 -16q-133 0 -217 96t-84 256q0 227 137 395t328 168q96 0 168 -60
t96 -149l57 197h168l-155 -629q-16 -59 -17 -90q0 -61 53 -62q63 0 115 144l80 -29q-72 -236 -244 -235q-78 0 -124 49t-46 129v10q-137 -190 -315 -190z" />
    <glyph glyph-name="aacute" unicode="&#xe1;" horiz-adv-x="1163" 
d="M973 1401q45 0 71 -27t25 -63q0 -66 -76 -107l-350 -178l-47 59l289 269q43 47 88 47zM453 137q131 0 223 119t92 268q0 100 -51 158t-150 59q-127 1 -214 -115t-87 -270q0 -100 48 -160t139 -59zM381 -16q-133 0 -217 96t-84 256q0 227 137 395t328 168q96 0 168 -60
t96 -149l57 197h168l-155 -629q-16 -59 -17 -90q0 -61 53 -62q63 0 115 144l80 -29q-72 -236 -244 -235q-78 0 -124 49t-46 129v10q-137 -190 -315 -190z" />
    <glyph glyph-name="acircumflex" unicode="&#xe2;" horiz-adv-x="1163" 
d="M430 1022l-70 90l408 324l244 -336l-86 -76l-193 195zM453 137q131 0 223 119t92 268q0 100 -51 158t-150 59q-127 1 -214 -115t-87 -270q0 -100 48 -160t139 -59zM381 -16q-133 0 -217 96t-84 256q0 227 137 395t328 168q96 0 168 -60t96 -149l57 197h168l-155 -629
q-16 -59 -17 -90q0 -61 53 -62q63 0 115 144l80 -29q-72 -236 -244 -235q-78 0 -124 49t-46 129v10q-137 -190 -315 -190z" />
    <glyph glyph-name="atilde" unicode="&#xe3;" horiz-adv-x="1163" 
d="M841 1028q-83 0 -167 84q-63 61 -105 62q-74 0 -135 -134l-104 39q31 121 102 195q72 74 155 74t155 -72t114 -74q76 0 135 133l107 -41q-30 -122 -102 -194t-155 -72zM453 137q131 0 223 119t92 268q0 100 -51 158t-150 59q-127 1 -214 -115t-87 -270q0 -100 48 -160
t139 -59zM381 -16q-133 0 -217 96t-84 256q0 227 137 395t328 168q96 0 168 -60t96 -149l57 197h168l-155 -629q-16 -59 -17 -90q0 -61 53 -62q63 0 115 144l80 -29q-72 -236 -244 -235q-78 0 -124 49t-46 129v10q-137 -190 -315 -190z" />
    <glyph glyph-name="adieresis" unicode="&#xe4;" horiz-adv-x="1163" 
d="M522 1059q-53 0 -91 38t-38 91t39 92t92 39t91 -39t38 -92t-39 -91t-92 -38zM907 1059q-53 0 -91 38t-38 91t39 92t92 39t91 -39t38 -92t-39 -91t-92 -38zM453 137q131 0 223 119t92 268q0 100 -51 158t-150 59q-127 1 -214 -115t-87 -270q0 -100 48 -160t139 -59z
M381 -16q-133 0 -217 96t-84 256q0 227 137 395t328 168q96 0 168 -60t96 -149l57 197h168l-155 -629q-16 -59 -17 -90q0 -61 53 -62q63 0 115 144l80 -29q-72 -236 -244 -235q-78 0 -124 49t-46 129v10q-137 -190 -315 -190z" />
    <glyph glyph-name="aring" unicode="&#xe5;" horiz-adv-x="1163" 
d="M726 1143q46 0 83 45t37 97t-25 81t-69 29t-82 -45q-37 -46 -37 -98q0 -110 93 -109zM979 1292q-1 -100 -79 -184t-182 -84t-161 60t-57 161t78 185t182 84t162 -61t57 -161zM453 137q131 0 223 119t92 268q0 100 -51 158t-150 59q-127 1 -214 -115t-87 -270
q0 -100 48 -160t139 -59zM381 -16q-133 0 -217 96t-84 256q0 227 137 395t328 168q96 0 168 -60t96 -149l57 197h168l-155 -629q-16 -59 -17 -90q0 -61 53 -62q63 0 115 144l80 -29q-72 -236 -244 -235q-78 0 -124 49t-46 129v10q-137 -190 -315 -190z" />
    <glyph glyph-name="ae" unicode="&#xe6;" horiz-adv-x="1636" 
d="M1210 750q-94 0 -170 -65t-112 -171h461q10 32 10 90t-47 102q-48 44 -142 44zM365 133q119 0 225 71t141 187h-166q-338 0 -338 -162q0 -43 36 -69t102 -27zM903 385v-31q0 -100 74 -160q75 -60 205 -60t280 79l-35 -168q-125 -61 -273 -61t-243 68q-94 69 -127 186
q-63 -117 -181 -186q-118 -68 -252 -68t-213 66t-79 157q0 149 124 229t335 80h223q-11 110 -79 180t-175 70q-61 0 -77 -16q10 -20 10 -50t-30 -61t-74 -31t-74 33t-29 80q0 92 106 145q69 33 187 33t210 -68t120 -188q53 115 159 185t245 71q139 0 234 -88t95 -242
q0 -86 -33 -184h-633z" />
    <glyph glyph-name="ccedilla" unicode="&#xe7;" horiz-adv-x="970" 
d="M338 -410q-116 0 -229 88l41 62q94 -57 194 -57q36 0 60 17t24 44t-34 44t-99 9l-31 41l96 162q-130 35 -206 133t-76 242q0 211 152 367t362 157q141 0 232 -74t91 -174q1 -59 -33 -99t-82 -40t-79 31t-31 78t37 77q-43 50 -155 50t-214 -102q-100 -102 -100 -261
q0 -115 70 -183t182 -69q154 0 297 111l-4 -164q-135 -96 -309 -96q-20 0 -58 4l-22 -88q82 -10 127 -52t45 -106q0 -66 -66 -109t-182 -43z" />
    <glyph glyph-name="egrave" unicode="&#xe8;" horiz-adv-x="987" 
d="M383 1298q0 48 28 76t64 27q61 0 105 -74l149 -276l-59 -45l-238 202q-49 42 -49 90zM558 750q-93 0 -170 -65t-112 -171h459q41 123 -35 192q-48 44 -142 44zM252 385v-31q0 -100 73 -160t203 -60t281 79l-35 -168q-125 -61 -293 -61q-169 0 -287 100t-118 274
q0 223 143 382t340 159q164 0 260 -88t96 -242q1 -86 -32 -184h-631z" />
    <glyph glyph-name="eacute" unicode="&#xe9;" horiz-adv-x="987" 
d="M922 1401q44 0 70 -27t26 -63q0 -66 -76 -107l-350 -178l-47 59l289 269q43 47 88 47zM558 750q-93 0 -170 -65t-112 -171h459q41 123 -35 192q-48 44 -142 44zM252 385v-31q0 -100 73 -160t203 -60t281 79l-35 -168q-125 -61 -293 -61q-169 0 -287 100t-118 274
q0 223 143 382t340 159q164 0 260 -88t96 -242q1 -86 -32 -184h-631z" />
    <glyph glyph-name="ecircumflex" unicode="&#xea;" horiz-adv-x="987" 
d="M558 750q-93 0 -170 -65t-112 -171h459q41 123 -35 192q-48 44 -142 44zM381 1022l-70 90l408 324l244 -336l-86 -76l-193 195zM252 385v-31q0 -100 73 -160t203 -60t281 79l-35 -168q-125 -61 -293 -61q-169 0 -287 100t-118 274q0 223 143 382t340 159q164 0 260 -88
t96 -242q1 -86 -32 -184h-631z" />
    <glyph glyph-name="edieresis" unicode="&#xeb;" horiz-adv-x="987" 
d="M473 1059q-53 0 -91 38t-38 91t39 92t92 39t91 -39t38 -92t-39 -91t-92 -38zM858 1059q-53 0 -91 38t-38 91t39 92t92 39t91 -39t38 -92t-39 -91t-92 -38zM558 750q-93 0 -170 -65t-112 -171h459q41 123 -35 192q-48 44 -142 44zM252 385v-31q0 -100 73 -160t203 -60
t281 79l-35 -168q-125 -61 -293 -61q-169 0 -287 100t-118 274q0 223 143 382t340 159q164 0 260 -88t96 -242q1 -86 -32 -184h-631z" />
    <glyph glyph-name="igrave" unicode="&#xec;" horiz-adv-x="628" 
d="M174 1298q0 48 28 76t64 27q61 0 105 -74l149 -276l-59 -45l-238 202q-49 42 -49 90zM317 -14q-88 0 -136 48t-48 130q0 43 14 96l123 471h-166l39 152h346l-163 -625q-14 -49 -15 -90q0 -61 54 -62q66 0 120 144l80 -29q-72 -235 -248 -235z" />
    <glyph glyph-name="iacute" unicode="&#xed;" horiz-adv-x="628" 
d="M317 -14q-88 0 -136 48t-48 130q0 43 14 96l123 471h-166l39 152h346l-163 -625q-14 -49 -15 -90q0 -61 54 -62q66 0 120 144l80 -29q-72 -235 -248 -235zM713 1401q45 0 71 -27t25 -63q0 -66 -76 -107l-350 -178l-47 59l289 269q43 47 88 47z" />
    <glyph glyph-name="icircumflex" unicode="&#xee;" horiz-adv-x="628" 
d="M317 -14q-88 0 -136 48t-48 130q0 43 14 96l123 471h-166l39 152h346l-163 -625q-14 -49 -15 -90q0 -61 54 -62q66 0 120 144l80 -29q-72 -235 -248 -235zM170 1022l-70 90l408 324l244 -336l-86 -76l-193 195z" />
    <glyph glyph-name="idieresis" unicode="&#xef;" horiz-adv-x="628" 
d="M317 -14q-88 0 -136 48t-48 130q0 43 14 96l123 471h-166l39 152h346l-163 -625q-14 -49 -15 -90q0 -61 54 -62q66 0 120 144l80 -29q-72 -235 -248 -235zM264 1059q-53 0 -91 38t-38 91t39 92t92 39t91 -39t38 -92t-39 -91t-92 -38zM649 1059q-53 0 -91 38t-38 91t39 92
t92 39t91 -39t38 -92t-39 -91t-92 -38z" />
    <glyph glyph-name="eth" unicode="&#xf0;" horiz-adv-x="1085" 
d="M248 382q0 -118 62 -182q62 -65 172 -65t207 93t97 239q0 106 -63 171q-63 64 -179 64t-206 -101t-90 -219zM478 -16q-186 0 -297 108q-109 108 -109 287q0 178 139 328t319 149q227 0 304 -205q6 55 6 119q0 209 -90 375l-211 -189l-90 99l221 198q-74 80 -160 103
q-27 -82 -107 -82q-47 0 -79 32t-33 80q0 48 41 86q41 40 117 39q178 0 333 -157l181 159l90 -98l-187 -166q129 -211 129 -510q0 -420 -198 -618q-133 -137 -319 -137z" />
    <glyph glyph-name="ntilde" unicode="&#xf1;" horiz-adv-x="1138" 
d="M861 1028q-83 0 -167 84q-63 61 -104 62q-74 0 -135 -134l-105 39q31 121 103 195q73 74 155 74t154 -72t115 -74q76 0 135 133l106 -41q-30 -122 -102 -194t-155 -72zM856 -14q-88 0 -138 49t-50 127q0 43 14 100l76 266q14 49 14 98q0 50 -37 86t-109 36t-141 -70
q-70 -70 -102 -199l-119 -479h-180l184 731h-164l39 152h316l-47 -207q55 96 137 158t177 63q95 0 163 -68t67 -182q0 -63 -22 -143l-76 -260q-12 -53 -12 -72q0 -66 55 -66q63 0 115 144l80 -29q-70 -235 -240 -235z" />
    <glyph glyph-name="ograve" unicode="&#xf2;" horiz-adv-x="1052" 
d="M414 1298q0 48 28 76t64 27q61 0 104 -74l150 -276l-60 -45l-237 202q-49 42 -49 90zM483 133q129 0 220 110t92 265q1 112 -63 176t-163 64q-129 0 -220 -109t-91 -264q0 -113 64 -177t161 -65zM488 -16q-198 0 -304 113q-106 114 -106 278q0 209 144 367t342 157
q198 0 304 -114t107 -279q-1 -206 -145 -364t-342 -158z" />
    <glyph glyph-name="oacute" unicode="&#xf3;" horiz-adv-x="1052" 
d="M483 133q129 0 220 110t92 265q1 112 -63 176t-163 64q-129 0 -220 -109t-91 -264q0 -113 64 -177t161 -65zM488 -16q-198 0 -304 113q-106 114 -106 278q0 209 144 367t342 157q198 0 304 -114t107 -279q-1 -206 -145 -364t-342 -158zM952 1401q46 0 72 -27t25 -63
q0 -66 -76 -107l-350 -178l-48 59l289 269q42 47 88 47z" />
    <glyph glyph-name="ocircumflex" unicode="&#xf4;" horiz-adv-x="1052" 
d="M483 133q129 0 220 110t92 265q1 112 -63 176t-163 64q-129 0 -220 -109t-91 -264q0 -113 64 -177t161 -65zM488 -16q-198 0 -304 113q-106 114 -106 278q0 209 144 367t342 157q198 0 304 -114t107 -279q-1 -206 -145 -364t-342 -158zM410 1022l-70 90l408 324l243 -336
l-86 -76l-192 195z" />
    <glyph glyph-name="otilde" unicode="&#xf5;" horiz-adv-x="1052" 
d="M820 1028q-83 0 -167 84q-63 61 -104 62q-74 0 -135 -134l-105 39q31 121 103 195t154 74t156 -72q72 -72 114 -74q76 0 135 133l106 -41q-31 -122 -103 -194t-154 -72zM483 133q129 0 220 110t92 265q1 112 -63 176t-163 64q-129 0 -220 -109t-91 -264q0 -113 64 -177
t161 -65zM488 -16q-198 0 -304 113q-106 114 -106 278q0 209 144 367t342 157q198 0 304 -114t107 -279q-1 -206 -145 -364t-342 -158z" />
    <glyph glyph-name="odieresis" unicode="&#xf6;" horiz-adv-x="1052" 
d="M483 133q129 0 220 110t92 265q1 112 -63 176t-163 64q-129 0 -220 -109t-91 -264q0 -113 64 -177t161 -65zM488 -16q-198 0 -304 113q-106 114 -106 278q0 209 144 367t342 157q198 0 304 -114t107 -279q-1 -206 -145 -364t-342 -158zM502 1059q-53 0 -91 38t-38 91
t39 92t92 39t91 -39t38 -92t-39 -91t-92 -38zM887 1059q-53 0 -91 38t-38 91t39 92t92 39t91 -39t38 -92t-39 -91t-92 -38z" />
    <glyph glyph-name="divide" unicode="&#xf7;" horiz-adv-x="897" 
d="M417 158q-46 0 -80 34t-34 80q0 47 35 81t82 34t80 -34q32 -34 32 -81t-34 -81q-35 -33 -81 -33zM551 743q-47 0 -80 34t-33 81t35 81t81 34t80 -34t34 -81t-35 -81t-82 -34zM113 489l37 152h704l-37 -152h-704z" />
    <glyph glyph-name="oslash" unicode="&#xf8;" horiz-adv-x="1081" 
d="M502 133q129 0 222 109t93 264q0 33 -12 86l-449 -412q60 -47 146 -47zM274 375q0 -61 17 -103l454 418q-61 57 -155 58q-132 0 -224 -108t-92 -265zM496 -16q-158 0 -260 84l-136 -127l-90 96l142 127q-57 96 -58 213q0 209 144 365t356 157q164 0 270 -94l146 135
l90 -96l-154 -142q49 -86 49 -196q0 -210 -144 -366t-355 -156z" />
    <glyph glyph-name="ugrave" unicode="&#xf9;" horiz-adv-x="1140" 
d="M440 1298q0 48 28 76t64 27q61 0 105 -74l149 -276l-59 -45l-238 202q-49 42 -49 90zM332 247q0 -44 33 -78t90 -34q87 0 157 70t103 198l119 480h180l-158 -625q-14 -66 -14 -90q0 -61 51 -62q61 0 117 144l80 -29q-72 -236 -244 -235q-78 0 -124 49t-46 133v18
q-55 -94 -134 -148t-170 -54t-158 64t-67 169q0 61 21 148l94 366h-164l39 152h342l-135 -535q-12 -57 -12 -101z" />
    <glyph glyph-name="uacute" unicode="&#xfa;" horiz-adv-x="1140" 
d="M977 1401q45 0 71 -27t25 -63q0 -66 -76 -107l-350 -178l-47 59l289 269q43 47 88 47zM332 247q0 -44 33 -78t90 -34q87 0 157 70t103 198l119 480h180l-158 -625q-14 -66 -14 -90q0 -61 51 -62q61 0 117 144l80 -29q-72 -236 -244 -235q-78 0 -124 49t-46 133v18
q-55 -94 -134 -148t-170 -54t-158 64t-67 169q0 61 21 148l94 366h-164l39 152h342l-135 -535q-12 -57 -12 -101z" />
    <glyph glyph-name="ucircumflex" unicode="&#xfb;" horiz-adv-x="1140" 
d="M434 1022l-69 90l407 324l244 -336l-86 -76l-193 195zM332 247q0 -44 33 -78t90 -34q87 0 157 70t103 198l119 480h180l-158 -625q-14 -66 -14 -90q0 -61 51 -62q61 0 117 144l80 -29q-72 -236 -244 -235q-78 0 -124 49t-46 133v18q-55 -94 -134 -148t-170 -54t-158 64
t-67 169q0 61 21 148l94 366h-164l39 152h342l-135 -535q-12 -57 -12 -101z" />
    <glyph glyph-name="udieresis" unicode="&#xfc;" horiz-adv-x="1140" 
d="M528 1059q-53 0 -91 38t-38 91t39 92t92 39q54 0 92 -39t38 -92t-40 -91q-39 -38 -92 -38zM913 1059q-53 0 -91 38t-38 91t39 92t92 39t91 -39t38 -92t-39 -91t-92 -38zM332 247q0 -44 33 -78t90 -34q87 0 157 70t103 198l119 480h180l-158 -625q-14 -66 -14 -90
q0 -61 51 -62q61 0 117 144l80 -29q-72 -236 -244 -235q-78 0 -124 49t-46 133v18q-55 -94 -134 -148t-170 -54t-158 64t-67 169q0 61 21 148l94 366h-164l39 152h342l-135 -535q-12 -57 -12 -101z" />
    <glyph glyph-name="yacute" unicode="&#xfd;" horiz-adv-x="1003" 
d="M905 1401q45 0 71 -27t25 -63q0 -66 -75 -107l-351 -178l-47 59l289 269q43 47 88 47zM-23 -410q-65 0 -109 38t-44 89t32 84t74 33t73 -24q30 -24 38 -64q80 4 315 289l-143 696h-156l39 152h271l118 -705q262 346 297 484q-86 31 -86 118q0 49 35 84t92 35t95 -43
t36 -117q0 -203 -407 -706q-219 -267 -339 -355t-231 -88z" />
    <glyph glyph-name="thorn" unicode="&#xfe;" horiz-adv-x="1089" 
d="M514 141q127 0 217 114t90 263q0 102 -52 164t-144 63q-129 0 -226 -119q-96 -120 -96 -270q-1 -98 55 -156t156 -59zM688 899q148 0 234 -97t86 -259q0 -229 -138 -395t-333 -164q-96 0 -171 56t-102 138l-100 -432h172l-39 -147h-479l39 147h131l372 1602h-165l38 151
h338l-182 -776q127 176 299 176z" />
    <glyph glyph-name="ydieresis" unicode="&#xff;" horiz-adv-x="1003" 
d="M459 1059q-53 0 -91 38t-38 91t39 92t92 39t91 -39t38 -92t-39 -91t-92 -38zM844 1059q-53 0 -91 38t-38 91t39 92t92 39t91 -39t38 -92t-39 -91t-92 -38zM-23 -410q-65 0 -109 38t-44 89t32 84t74 33t73 -24q30 -24 38 -64q80 4 315 289l-143 696h-156l39 152h271
l118 -705q262 346 297 484q-86 31 -86 118q0 49 35 84t92 35t95 -43t36 -117q0 -203 -407 -706q-219 -267 -339 -355t-231 -88z" />
    <glyph glyph-name="Amacron" unicode="&#x100;" horiz-adv-x="1441" 
d="M662 1536l36 150h639l-32 -150h-643zM549 606h424l-74 592zM-55 0l39 166h122l603 1018h-160l37 164h678l-39 -164h-152l131 -1018h142l-39 -166h-467l37 164h151l-35 285h-536l-166 -285h178l-39 -164h-485z" />
    <glyph glyph-name="amacron" unicode="&#x101;" horiz-adv-x="1163" 
d="M373 1087l37 150h639l-33 -150h-643zM453 137q131 0 223 119t92 268q0 100 -51 158t-150 59q-127 1 -214 -115t-87 -270q0 -100 48 -160t139 -59zM381 -16q-133 0 -217 96t-84 256q0 227 137 395t328 168q96 0 168 -60t96 -149l57 197h168l-155 -629q-16 -59 -17 -90
q0 -61 53 -62q63 0 115 144l80 -29q-72 -236 -244 -235q-78 0 -124 49t-46 129v10q-137 -190 -315 -190z" />
    <glyph glyph-name="Abreve" unicode="&#x102;" horiz-adv-x="1441" 
d="M978 1483q-118 0 -194 86t-84 239l113 35q47 -199 197 -198q143 0 264 196l100 -49q-68 -150 -173 -230t-223 -79zM549 606h424l-74 592zM-55 0l39 166h122l603 1018h-160l37 164h678l-39 -164h-152l131 -1018h142l-39 -166h-467l37 164h151l-35 285h-536l-166 -285h178
l-39 -164h-485z" />
    <glyph glyph-name="abreve" unicode="&#x103;" horiz-adv-x="1163" 
d="M689 1034q-117 0 -193 86t-84 240l112 35q47 -199 197 -199q143 0 264 197l100 -50q-68 -149 -173 -229t-223 -80zM453 137q131 0 223 119t92 268q0 100 -51 158t-150 59q-127 1 -214 -115t-87 -270q0 -100 48 -160t139 -59zM381 -16q-133 0 -217 96t-84 256
q0 227 137 395t328 168q96 0 168 -60t96 -149l57 197h168l-155 -629q-16 -59 -17 -90q0 -61 53 -62q63 0 115 144l80 -29q-72 -236 -244 -235q-78 0 -124 49t-46 129v10q-137 -190 -315 -190z" />
    <glyph glyph-name="Aogonek" unicode="&#x104;" horiz-adv-x="1441" 
d="M549 606h424l-74 592zM1024 -412q-84 0 -133 43t-49 117q0 129 159 252h-161l37 164h151l-35 285h-536l-166 -285h178l-39 -164h-485l39 166h122l603 1018h-160l37 164h678l-39 -164h-152l131 -1018h142l-39 -166h-162q-143 -109 -144 -199q0 -72 86 -71q61 0 109 18
l-29 -117q-59 -43 -143 -43z" />
    <glyph glyph-name="aogonek" unicode="&#x105;" horiz-adv-x="1163" 
d="M453 137q131 0 223 119t92 268q0 100 -51 158t-150 59q-127 1 -214 -115t-87 -270q0 -100 48 -160t139 -59zM696 168v6q-137 -190 -315 -190q-133 0 -217 96t-84 256q0 227 137 395t328 168q96 0 168 -60t96 -149l57 197h168l-155 -629q-16 -59 -17 -90q0 -57 49 -57
q68 0 119 139l80 -29q-35 -117 -115 -190q-20 -19 -62 -55t-65 -56t-42 -53t-19 -66q0 -72 86 -71q57 0 108 18l-28 -117q-59 -43 -143 -43t-134 43q-49 43 -49 117q0 135 162 248q-68 18 -94 80q-19 39 -19 92z" />
    <glyph glyph-name="Cacute" unicode="&#x106;" horiz-adv-x="1390" 
d="M721 -23q-248 0 -414 159t-166 431q1 328 227 567t541 238q211 0 347 -105t137 -233q0 -68 -40 -114q-41 -46 -95 -46t-90 35t-36 89t52 92q-20 44 -96 78t-185 34q-237 0 -403 -187t-166 -433q0 -199 110 -317t293 -118q215 0 400 181l112 -113q-219 -238 -528 -238z
M1241 1849q45 -1 71 -27t25 -63q0 -66 -75 -106l-351 -178l-47 59l289 268q43 47 88 47z" />
    <glyph glyph-name="cacute" unicode="&#x107;" horiz-adv-x="970" 
d="M491 -16q-177 0 -295 105t-118 301t152 352t362 157q141 0 232 -74t91 -174q1 -59 -33 -99t-82 -40t-79 31t-31 78t37 77q-43 50 -155 50t-214 -102q-100 -102 -100 -261q0 -115 70 -183t182 -69q154 0 297 111l-4 -164q-135 -96 -312 -96zM942 1401q45 0 71 -27t25 -63
q0 -66 -75 -107l-351 -178l-47 59l289 269q43 47 88 47z" />
    <glyph glyph-name="Cdotaccent" unicode="&#x10a;" horiz-adv-x="1390" 
d="M987 1505q-53 0 -92 39t-39 93q0 53 40 93t93 40t91 -40q38 -38 38 -92t-39 -94q-39 -39 -92 -39zM721 -23q-248 0 -414 159t-166 431q1 328 227 567t541 238q211 0 347 -105t137 -233q0 -68 -40 -114q-41 -46 -95 -46t-90 35t-36 89t52 92q-20 44 -96 78t-185 34
q-237 0 -403 -187t-166 -433q0 -199 110 -317t293 -118q215 0 400 181l112 -113q-219 -238 -528 -238z" />
    <glyph glyph-name="cdotaccent" unicode="&#x10b;" horiz-adv-x="970" 
d="M686 1057q-53 0 -92 39t-39 93t40 93t93 39t91 -39t38 -93t-39 -93t-92 -39zM491 -16q-177 0 -295 105t-118 301t152 352t362 157q141 0 232 -74t91 -174q1 -59 -33 -99t-82 -40t-79 31t-31 78t37 77q-43 50 -155 50t-214 -102q-100 -102 -100 -261q0 -115 70 -183
t182 -69q154 0 297 111l-4 -164q-135 -96 -312 -96z" />
    <glyph glyph-name="Ccaron" unicode="&#x10c;" horiz-adv-x="1390" 
d="M721 -23q-248 0 -414 159t-166 431q1 328 227 567t541 238q211 0 347 -105t137 -233q0 -68 -40 -114q-41 -46 -95 -46t-90 35t-36 89t52 92q-20 44 -96 78t-185 34q-237 0 -403 -187t-166 -433q0 -199 110 -317t293 -118q215 0 400 181l112 -113q-219 -238 -528 -238z
M950 1462l-243 334l86 76l192 -193l303 197l70 -92z" />
    <glyph glyph-name="ccaron" unicode="&#x10d;" horiz-adv-x="970" 
d="M491 -16q-177 0 -295 105t-118 301t152 352t362 157q141 0 232 -74t91 -174q1 -59 -33 -99t-82 -40t-79 31t-31 78t37 77q-43 50 -155 50t-214 -102q-100 -102 -100 -261q0 -115 70 -183t182 -69q154 0 297 111l-4 -164q-135 -96 -312 -96zM649 1014l-243 334l86 75
l192 -192l303 196l70 -92z" />
    <glyph glyph-name="Dcaron" unicode="&#x10e;" horiz-adv-x="1435" 
d="M526 166q338 0 523 188q164 164 163 412q0 176 -104 281q-135 135 -403 135h-93l-237 -1016h151zM723 1348q350 0 539 -189q145 -145 145 -383q0 -311 -213 -528q-250 -248 -696 -248h-500l39 166h153l236 1016h-174l37 166h434zM885 1462l-244 334l86 76l193 -193
l303 197l69 -92z" />
    <glyph glyph-name="dcaron" unicode="&#x10f;" horiz-adv-x="1165" 
d="M1389 1540q45 0 71 -28t27 -74q0 -168 -299 -428l-47 43q98 113 121 213q6 29 8 90t12 96q25 88 107 88zM457 137q129 0 222 117t93 268q0 102 -53 160t-152 59q-127 1 -214 -115t-87 -270q0 -98 50 -158t141 -61zM80 336q0 229 137 396t326 167q94 0 167 -59t99 -144
l149 652h-163l36 151h340l-290 -1241q-14 -68 -15 -90q0 -61 52 -62q61 0 116 144l80 -29q-72 -236 -244 -235q-80 0 -126 49t-46 131v8q-131 -190 -313 -190q-133 0 -219 97t-86 255z" />
    <glyph glyph-name="Dcroat" unicode="&#x110;" horiz-adv-x="1435" 
d="M526 166q338 0 523 188q164 164 163 412q0 176 -104 281q-135 135 -403 135h-93l-98 -416h283l-37 -154h-281l-104 -446h151zM723 1348q350 0 539 -189q145 -145 145 -383q0 -311 -213 -528q-250 -248 -696 -248h-500l39 166h153l103 446h-172l35 154h174l96 416h-174
l37 166h434z" />
    <glyph glyph-name="dcroat" unicode="&#x111;" horiz-adv-x="1165" 
d="M457 137q129 0 222 117t93 268q0 102 -53 160t-152 59q-127 1 -214 -115t-87 -270q0 -98 50 -158t141 -61zM698 166v8q-131 -190 -313 -190q-133 0 -219 97t-86 255q0 229 137 396t326 167q94 0 167 -59t99 -144l78 344h-307l34 152h308l36 156h-163l36 151h340l-71 -307
h155l-32 -152h-160l-182 -782q-14 -68 -15 -90q0 -61 52 -62q61 0 116 144l80 -29q-72 -236 -244 -235q-80 0 -126 49t-46 131z" />
    <glyph glyph-name="Emacron" unicode="&#x112;" horiz-adv-x="1183" 
d="M518 1536l37 150h639l-33 -150h-643zM-2 0l39 166h153l236 1016h-174l37 166h993l-86 -355h-176l45 191h-453l-98 -418h420l-37 -160h-418l-104 -442h454l48 190h176l-82 -354h-973z" />
    <glyph glyph-name="emacron" unicode="&#x113;" horiz-adv-x="987" 
d="M558 750q-93 0 -170 -65t-112 -171h459q41 123 -35 192q-48 44 -142 44zM324 1087l36 150h639l-32 -150h-643zM252 385v-31q0 -100 73 -160t203 -60t281 79l-35 -168q-125 -61 -293 -61q-169 0 -287 100t-118 274q0 223 143 382t340 159q164 0 260 -88t96 -242
q1 -86 -32 -184h-631z" />
    <glyph glyph-name="Ebreve" unicode="&#x114;" horiz-adv-x="1183" 
d="M835 1483q-118 0 -194 86t-84 239l113 35q47 -199 196 -198q143 0 264 196l101 -49q-68 -150 -173 -230t-223 -79zM-2 0l39 166h153l236 1016h-174l37 166h993l-86 -355h-176l45 191h-453l-98 -418h420l-37 -160h-418l-104 -442h454l48 190h176l-82 -354h-973z" />
    <glyph glyph-name="ebreve" unicode="&#x115;" horiz-adv-x="987" 
d="M558 750q-93 0 -170 -65t-112 -171h459q41 123 -35 192q-48 44 -142 44zM640 1034q-118 0 -194 86t-84 240l113 35q47 -199 197 -199q143 0 264 197l100 -50q-68 -149 -173 -229t-223 -80zM252 385v-31q0 -100 73 -160t203 -60t281 79l-35 -168q-125 -61 -293 -61
q-169 0 -287 100t-118 274q0 223 143 382t340 159q164 0 260 -88t96 -242q1 -86 -32 -184h-631z" />
    <glyph glyph-name="Edotaccent" unicode="&#x116;" horiz-adv-x="1183" 
d="M864 1505q-53 0 -92 39t-39 93q0 53 40 93t93 40t91 -40q38 -38 38 -92t-39 -94q-39 -39 -92 -39zM-2 0l39 166h153l236 1016h-174l37 166h993l-86 -355h-176l45 191h-453l-98 -418h420l-37 -160h-418l-104 -442h454l48 190h176l-82 -354h-973z" />
    <glyph glyph-name="edotaccent" unicode="&#x117;" horiz-adv-x="987" 
d="M668 1057q-53 0 -93 39q-39 39 -39 93t41 93q40 39 93 39t91 -39t38 -93t-39 -93t-92 -39zM558 750q-93 0 -170 -65t-112 -171h459q41 123 -35 192q-48 44 -142 44zM252 385v-31q0 -100 73 -160t203 -60t281 79l-35 -168q-125 -61 -293 -61q-169 0 -287 100t-118 274
q0 223 143 382t340 159q164 0 260 -88t96 -242q1 -86 -32 -184h-631z" />
    <glyph glyph-name="Eogonek" unicode="&#x118;" horiz-adv-x="1183" 
d="M723 -199q0 -72 86 -71q61 0 109 18l-29 -117q-59 -43 -143 -43t-134 43q-49 43 -49 117q0 129 160 252h-725l39 166h153l236 1016h-174l37 166h993l-86 -355h-176l45 191h-453l-98 -418h420l-37 -160h-418l-104 -442h454l48 190h176l-82 -354h-105q-143 -109 -143 -199z
" />
    <glyph glyph-name="eogonek" unicode="&#x119;" horiz-adv-x="987" 
d="M558 750q-93 0 -170 -65t-112 -171h459q41 123 -35 192q-48 44 -142 44zM540 -412q-84 0 -132 43t-50 117q0 125 152 236h-29q-169 0 -287 100t-118 274q0 223 143 382t340 159q164 0 260 -88t96 -242q0 -86 -32 -184h-631v-31q0 -100 73 -160t203 -60t281 79l-35 -166
q-106 -51 -181 -116t-75 -130q0 -72 86 -71q61 0 109 18l-29 -117q-60 -43 -144 -43z" />
    <glyph glyph-name="Ecaron" unicode="&#x11a;" horiz-adv-x="1183" 
d="M-2 0l39 166h153l236 1016h-174l37 166h993l-86 -355h-176l45 191h-453l-98 -418h420l-37 -160h-418l-104 -442h454l48 190h176l-82 -354h-973zM827 1462l-243 334l86 76l192 -193l303 197l70 -92z" />
    <glyph glyph-name="ecaron" unicode="&#x11b;" horiz-adv-x="987" 
d="M558 750q-93 0 -170 -65t-112 -171h459q41 123 -35 192q-48 44 -142 44zM631 1014l-244 334l86 75l193 -192l303 196l69 -92zM252 385v-31q0 -100 73 -160t203 -60t281 79l-35 -168q-125 -61 -293 -61q-169 0 -287 100t-118 274q0 223 143 382t340 159q164 0 260 -88
t96 -242q1 -86 -32 -184h-631z" />
    <glyph glyph-name="Gbreve" unicode="&#x11e;" horiz-adv-x="1464" 
d="M980 1483q-118 0 -194 86t-84 239l113 35q47 -199 197 -198q143 0 264 196l100 -49q-68 -150 -173 -230t-223 -79zM658 -23q-218 0 -368 156t-149 402q1 341 235 589t572 248q268 0 408 -139q80 -78 80 -158t-40 -121t-93 -41t-89 34q-34 34 -34 83t41 86l-15 17
q-74 70 -260 69q-258 0 -435 -194t-177 -463q0 -182 103 -290t263 -108q223 0 377 117l60 252h-361l37 158h547l-160 -674h-156l21 137q-189 -160 -407 -160z" />
    <glyph glyph-name="gbreve" unicode="&#x11f;" horiz-adv-x="1087" 
d="M693 1034q-117 0 -193 86t-84 240l112 35q47 -199 197 -199q143 0 264 197l101 -50q-68 -149 -174 -229t-223 -80zM477 164q129 0 218 110t89 256q0 98 -58 154t-155 57q-129 0 -216 -106t-87 -258q0 -97 58 -155t151 -58zM379 -410q-90 0 -179 31q-180 63 -182 186
q0 53 32 87t80 34t79 -32t31 -71q0 -38 -13 -61q53 -32 161 -32t175 66t105 220l39 166q-123 -174 -304 -174q-147 0 -234 96t-87 259q0 219 134 377t333 157q106 0 176 -59t96 -142l56 189h165l-211 -910q-41 -184 -129 -274q-114 -113 -323 -113z" />
    <glyph glyph-name="Gdotaccent" unicode="&#x120;" horiz-adv-x="1464" 
d="M1010 1505q-53 0 -92 39t-39 93q0 53 40 93t93 40t91 -40q38 -38 38 -92t-39 -94q-39 -39 -92 -39zM658 -23q-218 0 -368 156t-149 402q1 341 235 589t572 248q268 0 408 -139q80 -78 80 -158t-40 -121t-93 -41t-89 34q-34 34 -34 83t41 86l-15 17q-74 70 -260 69
q-258 0 -435 -194t-177 -463q0 -182 103 -290t263 -108q223 0 377 117l60 252h-361l37 158h547l-160 -674h-156l21 137q-189 -160 -407 -160z" />
    <glyph glyph-name="gdotaccent" unicode="&#x121;" horiz-adv-x="1087" 
d="M721 1057q-53 0 -92 39t-39 93t40 93t93 39t91 -39t38 -93t-39 -93t-92 -39zM477 164q129 0 218 110t89 256q0 98 -58 154t-155 57q-129 0 -216 -106t-87 -258q0 -97 58 -155t151 -58zM379 -410q-90 0 -179 31q-180 63 -182 186q0 53 32 87t80 34t79 -32t31 -71
q0 -38 -13 -61q53 -32 161 -32t175 66t105 220l39 166q-123 -174 -304 -174q-147 0 -234 96t-87 259q0 219 134 377t333 157q106 0 176 -59t96 -142l56 189h165l-211 -910q-41 -184 -129 -274q-114 -113 -323 -113z" />
    <glyph glyph-name="Gcommaaccent" unicode="&#x122;" horiz-adv-x="1464" 
d="M604 -100q51 0 88 -38t37 -98q0 -96 -96 -198t-258 -158l-33 62q106 55 161 112q54 57 60 92q-75 29 -77 116q0 40 33 75q34 35 85 35zM658 -23q-218 0 -368 156t-149 402q1 341 235 589t572 248q268 0 408 -139q80 -78 80 -158t-40 -121t-93 -41t-89 34q-34 34 -34 83
t41 86l-15 17q-74 70 -260 69q-258 0 -435 -194t-177 -463q0 -182 103 -290t263 -108q223 0 377 117l60 252h-361l37 158h547l-160 -674h-156l21 137q-189 -160 -407 -160z" />
    <glyph glyph-name="gcommaaccent" unicode="&#x123;" horiz-adv-x="1087" 
d="M831 1160q1 -40 -33 -75t-85 -35t-88 39q-37 38 -37 97q0 96 96 198t258 158l33 -61q-107 -55 -161 -113t-60 -92q77 -29 77 -116zM477 164q129 0 218 110t89 256q0 98 -58 154t-155 57q-129 0 -216 -106t-87 -258q0 -97 58 -155t151 -58zM379 -410q-90 0 -179 31
q-180 63 -182 186q0 53 32 87t80 34t79 -32t31 -71q0 -38 -13 -61q53 -32 161 -32t175 66t105 220l39 166q-123 -174 -304 -174q-147 0 -234 96t-87 259q0 219 134 377t333 157q106 0 176 -59t96 -142l56 189h165l-211 -910q-41 -184 -129 -274q-114 -113 -323 -113z" />
    <glyph glyph-name="Hbar" unicode="&#x126;" horiz-adv-x="1554" 
d="M510 743h680l35 156h-680zM1573 1040l-33 -141h-129l-170 -733h174l-37 -166h-522l37 166h164l96 414h-680l-98 -414h184l-39 -166h-522l39 166h153l170 733h-127l33 141h127l35 148h-176l37 160h524l-37 -160h-164l-34 -148h679l35 148h-182l37 160h522l-37 -160h-153
l-35 -148h129z" />
    <glyph glyph-name="hbar" unicode="&#x127;" horiz-adv-x="1095" 
d="M681 897q93 0 163 -68t69 -182q0 -74 -22 -143l-72 -262q-10 -45 -10 -70q0 -66 53 -66q63 0 115 144l80 -29q-70 -236 -240 -235q-88 0 -138 49t-50 127q0 41 14 98l74 268q12 41 12 94q0 54 -38 90q-39 36 -111 36t-143 -71t-99 -202l-111 -475h-180l240 1040h-162
l35 152h162l36 156h-165l38 151h338l-71 -307h309l-33 -152h-311l-78 -329q51 80 127 133t169 53z" />
    <glyph glyph-name="Imacron" unicode="&#x12a;" horiz-adv-x="731" 
d="M299 1536l37 150h639l-33 -150h-643zM4 0l39 166h168l235 1016h-182l39 166h537l-37 -166h-170l-236 -1016h183l-39 -166h-537z" />
    <glyph glyph-name="imacron" unicode="&#x12b;" horiz-adv-x="628" 
d="M113 1087l37 150h638l-32 -150h-643zM317 -14q-88 0 -136 48t-48 130q0 43 14 96l123 471h-166l39 152h346l-163 -625q-14 -49 -15 -90q0 -61 54 -62q66 0 120 144l80 -29q-72 -235 -248 -235z" />
    <glyph glyph-name="Ibreve" unicode="&#x12c;" horiz-adv-x="731" 
d="M616 1483q-118 0 -194 86t-84 239l113 35q47 -199 196 -198q143 0 264 196l101 -49q-68 -150 -173 -230t-223 -79zM4 0l39 166h168l235 1016h-182l39 166h537l-37 -166h-170l-236 -1016h183l-39 -166h-537z" />
    <glyph glyph-name="ibreve" unicode="&#x12d;" horiz-adv-x="628" 
d="M431 1034q-117 0 -193 86t-84 240l112 35q47 -199 197 -199q143 0 264 197l100 -50q-68 -149 -173 -229t-223 -80zM317 -14q-88 0 -136 48t-48 130q0 43 14 96l123 471h-166l39 152h346l-163 -625q-14 -49 -15 -90q0 -61 54 -62q66 0 120 144l80 -29q-72 -235 -248 -235z
" />
    <glyph glyph-name="Iogonek" unicode="&#x12e;" horiz-adv-x="731" 
d="M197 -199q0 -72 86 -71q61 0 108 18l-29 -117q-59 -43 -143 -43t-133 43t-49 117q0 129 160 252h-193l39 166h168l235 1016h-182l39 166h537l-37 -166h-170l-236 -1016h183l-39 -166h-201q-143 -109 -143 -199z" />
    <glyph glyph-name="iogonek" unicode="&#x12f;" horiz-adv-x="628" 
d="M423 1032q-48 0 -83 35t-35 84t35 84t83 35t84 -35t36 -84t-36 -84t-84 -35zM284 -412q-84 0 -134 43t-50 117q0 133 158 244q-125 31 -125 172q0 43 14 96l123 471h-166l39 152h346l-163 -625q-14 -49 -15 -90q0 -59 54 -59q67 0 120 141l80 -29q-39 -119 -114 -190
q-21 -19 -63 -55t-64 -56q-59 -53 -62 -119q0 -72 84 -71q59 0 111 18l-29 -117q-60 -43 -144 -43z" />
    <glyph glyph-name="Idotaccent" unicode="&#x130;" horiz-adv-x="731" 
d="M645 1505q-53 0 -92 39t-39 93q0 53 40 93t93 40t91 -40q38 -38 38 -92t-39 -94q-39 -39 -92 -39zM4 0l39 166h168l235 1016h-182l39 166h537l-37 -166h-170l-236 -1016h183l-39 -166h-537z" />
    <glyph glyph-name="dotlessi" unicode="&#x131;" horiz-adv-x="628" 
d="M317 -14q-88 0 -136 48t-48 130q0 43 14 96l123 471h-166l39 152h346l-163 -625q-14 -49 -15 -90q0 -61 54 -62q66 0 120 144l80 -29q-72 -235 -248 -235z" />
    <glyph glyph-name="Kcommaaccent" unicode="&#x136;" horiz-adv-x="1355" 
d="M420 -210q0 40 34 75t85 35t88 -38t37 -98q0 -96 -96 -198t-259 -158l-33 62q106 55 161 112q54 57 61 92q-78 30 -78 116zM1315 1182l-514 -432l276 -584h189l-39 -166h-283l-287 637l-215 -180l-67 -291h182l-39 -166h-520l39 166h153l236 1016h-174l37 166h508
l-37 -162h-148l-123 -522l596 522h-155l35 162h528l-37 -166h-141z" />
    <glyph glyph-name="kcommaaccent" unicode="&#x137;" horiz-adv-x="995" 
d="M201 -210q0 40 33 75q34 35 85 35t89 -38t36 -98q0 -96 -96 -198t-258 -158l-33 62q106 55 161 112q54 57 61 92q-78 30 -78 116zM676 775q0 54 34 89t84 35t85 -36t34 -95q0 -193 -346 -356l86 -201q27 -63 45 -83t41 -19q51 0 95 163l81 -26q-33 -148 -87 -204
t-126 -56q-132 0 -194 151l-96 230l-60 -21t-47 -18l-78 -328h-180l311 1348h-165l38 151h338l-241 -1036q336 121 403 225q-55 33 -55 87z" />
    <glyph glyph-name="Lacute" unicode="&#x139;" horiz-adv-x="1120" 
d="M-2 0l39 166h153l236 1016h-174l37 166h536l-39 -166h-174l-237 -1018h420l47 198h178l-84 -362h-938zM891 1862q45 0 71 -27t25 -63q0 -66 -76 -107l-350 -178l-47 59l289 269q43 47 88 47z" />
    <glyph glyph-name="lacute" unicode="&#x13a;" horiz-adv-x="595" 
d="M285 -14q-88 0 -137 48q-48 48 -48 132q0 27 13 92l254 1090h-166l39 151h340l-287 -1239q-14 -61 -14 -88q0 -66 53 -66q66 0 121 144l77 -29q-71 -235 -245 -235zM832 1960q46 0 70 -27q26 -27 26 -63q0 -66 -76 -107l-350 -178l-47 60l288 268q43 47 89 47z" />
    <glyph glyph-name="Lcommaaccent" unicode="&#x13b;" horiz-adv-x="1120" 
d="M-2 0l39 166h153l236 1016h-174l37 166h536l-39 -166h-174l-237 -1018h420l47 198h178l-84 -362h-938zM293 -210q0 40 34 75t85 35t88 -38t37 -98q-1 -96 -97 -198t-258 -158l-32 62q106 55 160 112t61 92q-78 30 -78 116z" />
    <glyph glyph-name="lcommaaccent" unicode="&#x13c;" horiz-adv-x="595" 
d="M285 -14q-88 0 -137 48q-48 48 -48 132q0 27 13 92l254 1090h-166l39 151h340l-287 -1239q-14 -61 -14 -88q0 -66 53 -66q66 0 121 144l77 -29q-71 -235 -245 -235zM86 -210q0 40 34 75t85 35t88 -38t37 -98q0 -96 -96 -198t-259 -158l-32 62q106 55 160 112t61 92
q-78 30 -78 116z" />
    <glyph glyph-name="Lcaron" unicode="&#x13d;" horiz-adv-x="1120" 
d="M-2 0l39 166h153l236 1016h-174l37 166h536l-39 -166h-174l-237 -1018h420l47 198h178l-84 -362h-938zM1049 1348q45 0 71 -28t27 -75q0 -168 -299 -428l-47 43q98 113 121 213q6 29 8 90t12 97q25 88 107 88z" />
    <glyph glyph-name="lcaron" unicode="&#x13e;" horiz-adv-x="595" 
d="M285 -14q-88 0 -137 48q-48 48 -48 132q0 27 13 92l254 1090h-166l39 151h340l-287 -1239q-14 -61 -14 -88q0 -66 53 -66q66 0 121 144l77 -29q-71 -235 -245 -235zM797 1540q45 0 71 -28t27 -74q0 -96 -100 -228q-62 -81 -199 -200l-47 43q98 113 121 213q6 29 8 90
t12 96q25 88 107 88z" />
    <glyph glyph-name="Ldot" unicode="&#x13f;" horiz-adv-x="1120" 
d="M983 610q-53 0 -92 39t-39 93t40 94t93 38q53 0 91 -38t38 -94q0 -54 -39 -93t-92 -39zM-2 0l39 166h153l236 1016h-174l37 166h536l-39 -166h-174l-237 -1018h420l47 198h178l-84 -362h-938z" />
    <glyph glyph-name="ldot" unicode="&#x140;" horiz-adv-x="694" 
d="M657 567q-53 0 -92 39t-39 93q0 53 40 93t93 40t92 -39q37 -39 37 -93t-39 -94q-39 -39 -92 -39zM285 -14q-88 0 -137 48q-48 48 -48 132q0 27 13 92l254 1090h-166l39 151h340l-287 -1239q-14 -61 -14 -88q0 -66 53 -66q66 0 121 144l77 -29q-71 -235 -245 -235z" />
    <glyph glyph-name="Lslash" unicode="&#x141;" horiz-adv-x="1157" 
d="M33 0l39 166h153l86 377l-184 -80l-55 125l278 123l111 471h-174l37 166h536l-39 -166h-174l-90 -387l258 114l55 -127l-352 -155l-108 -463h419l48 198h178l-84 -362h-938z" />
    <glyph glyph-name="lslash" unicode="&#x142;" horiz-adv-x="675" 
d="M324 -14q-88 0 -137 48q-48 48 -48 132q0 27 13 92l106 457l-166 -72l-53 121l256 115l111 469h-166l39 151h339l-124 -536l204 94l56 -125l-297 -133l-125 -539q-14 -61 -15 -88q0 -66 54 -66q66 0 121 144l77 -29q-71 -235 -245 -235z" />
    <glyph glyph-name="Nacute" unicode="&#x143;" horiz-adv-x="1523" 
d="M1102 -4l-531 1036l-200 -866h184l-39 -166h-518l39 166h153l236 1016h-174l37 166h329l486 -955l182 789h-182l39 166h514l-37 -166h-152l-276 -1186h-90zM1300 1849q46 -1 72 -27t25 -63q0 -66 -76 -106l-350 -178l-47 59l288 268q42 47 88 47z" />
    <glyph glyph-name="nacute" unicode="&#x144;" horiz-adv-x="1138" 
d="M856 -14q-88 0 -138 49t-50 127q0 43 14 100l76 266q14 49 14 98q0 50 -37 86t-109 36t-141 -70q-70 -70 -102 -199l-119 -479h-180l184 731h-164l39 152h316l-47 -207q55 96 137 158t177 63q95 0 163 -68t67 -182q0 -63 -22 -143l-76 -260q-12 -53 -12 -72q0 -66 55 -66
q63 0 115 144l80 -29q-70 -235 -240 -235zM996 1401q46 0 70 -27q26 -27 26 -63q0 -66 -76 -107l-350 -178l-48 59l289 269q43 47 89 47z" />
    <glyph glyph-name="Ncommaaccent" unicode="&#x145;" horiz-adv-x="1523" 
d="M1102 -4l-531 1036l-200 -866h184l-39 -166h-518l39 166h153l236 1016h-174l37 166h329l486 -955l182 789h-182l39 166h514l-37 -166h-152l-276 -1186h-90zM506 -210q0 40 34 75t85 35t88 -38t37 -98q0 -96 -96 -198t-259 -158l-33 62q106 55 161 112q54 57 61 92
q-78 30 -78 116z" />
    <glyph glyph-name="ncommaaccent" unicode="&#x146;" horiz-adv-x="1138" 
d="M856 -14q-88 0 -138 49t-50 127q0 43 14 100l76 266q14 49 14 98q0 50 -37 86t-109 36t-141 -70q-70 -70 -102 -199l-119 -479h-180l184 731h-164l39 152h316l-47 -207q55 96 137 158t177 63q95 0 163 -68t67 -182q0 -63 -22 -143l-76 -260q-12 -53 -12 -72q0 -66 55 -66
q63 0 115 144l80 -29q-70 -235 -240 -235zM297 -210q0 40 34 75t85 35t88 -38t37 -98q-1 -96 -97 -198t-258 -158l-32 62q106 55 160 112t61 92q-78 30 -78 116z" />
    <glyph glyph-name="Ncaron" unicode="&#x147;" horiz-adv-x="1523" 
d="M1102 -4l-531 1036l-200 -866h184l-39 -166h-518l39 166h153l236 1016h-174l37 166h329l486 -955l182 789h-182l39 166h514l-37 -166h-152l-276 -1186h-90zM1010 1462l-244 334l86 76l192 -193l304 197l69 -92z" />
    <glyph glyph-name="ncaron" unicode="&#x148;" horiz-adv-x="1138" 
d="M856 -14q-88 0 -138 49t-50 127q0 43 14 100l76 266q14 49 14 98q0 50 -37 86t-109 36t-141 -70q-70 -70 -102 -199l-119 -479h-180l184 731h-164l39 152h316l-47 -207q55 96 137 158t177 63q95 0 163 -68t67 -182q0 -63 -22 -143l-76 -260q-12 -53 -12 -72q0 -66 55 -66
q63 0 115 144l80 -29q-70 -235 -240 -235zM702 1014l-243 334l86 75l192 -192l303 196l70 -92z" />
    <glyph glyph-name="Omacron" unicode="&#x14c;" horiz-adv-x="1497" 
d="M733 145q225 0 382 196t157 441q0 182 -104 301t-296 119q-225 0 -383 -196t-157 -441q0 -182 104 -301t297 -119zM717 -25q-266 0 -421 165t-155 425q1 147 57 291q121 310 392 446q141 71 299 70q266 0 421 -165t154 -425q0 -199 -95 -383t-269 -304t-383 -120z
M678 1536l37 150h639l-33 -150h-643z" />
    <glyph glyph-name="omacron" unicode="&#x14d;" horiz-adv-x="1052" 
d="M483 133q129 0 220 110t92 265q1 112 -63 176t-163 64q-129 0 -220 -109t-91 -264q0 -113 64 -177t161 -65zM488 -16q-198 0 -304 113q-106 114 -106 278q0 209 144 367t342 157q198 0 304 -114t107 -279q-1 -206 -145 -364t-342 -158zM352 1087l37 150h639l-33 -150
h-643z" />
    <glyph glyph-name="Obreve" unicode="&#x14e;" horiz-adv-x="1497" 
d="M992 1483q-118 0 -194 86t-83 239l112 35q47 -199 197 -198q143 0 264 196l101 -49q-67 -150 -173 -230t-224 -79zM733 145q225 0 382 196t157 441q0 182 -104 301t-296 119q-225 0 -383 -196t-157 -441q0 -182 104 -301t297 -119zM717 -25q-266 0 -421 165t-155 425
q1 147 57 291q121 310 392 446q141 71 299 70q266 0 421 -165t154 -425q0 -199 -95 -383t-269 -304t-383 -120z" />
    <glyph glyph-name="obreve" unicode="&#x14f;" horiz-adv-x="1052" 
d="M669 1034q-118 0 -194 86t-84 240l113 35q47 -199 196 -199q143 0 265 197l100 -50q-68 -149 -173 -229t-223 -80zM483 133q129 0 220 110t92 265q1 112 -63 176t-163 64q-129 0 -220 -109t-91 -264q0 -113 64 -177t161 -65zM488 -16q-198 0 -304 113q-106 114 -106 278
q0 209 144 367t342 157q198 0 304 -114t107 -279q-1 -206 -145 -364t-342 -158z" />
    <glyph glyph-name="Ohungarumlaut" unicode="&#x150;" horiz-adv-x="1497" 
d="M733 145q225 0 382 196t157 441q0 182 -104 301t-296 119q-225 0 -383 -196t-157 -441q0 -182 104 -301t297 -119zM717 -25q-266 0 -421 165t-155 425q1 147 57 291q121 310 392 446q141 71 299 70q266 0 421 -165t154 -425q0 -199 -95 -383t-269 -304t-383 -120z
M1462 1845q45 -1 70 -27t24 -63q0 -61 -75 -104l-322 -170l-47 59l262 258q43 47 88 47zM1051 1849q45 1 69 -25t25 -65q0 -61 -74 -102l-317 -180l-47 59l254 264q45 49 90 49z" />
    <glyph glyph-name="ohungarumlaut" unicode="&#x151;" horiz-adv-x="1052" 
d="M483 133q129 0 220 110t92 265q1 112 -63 176t-163 64q-129 0 -220 -109t-91 -264q0 -113 64 -177t161 -65zM488 -16q-198 0 -304 113q-106 114 -106 278q0 209 144 367t342 157q198 0 304 -114t107 -279q-1 -206 -145 -364t-342 -158zM1139 1397q45 0 69 -27t25 -63
q0 -61 -76 -105l-321 -170l-48 60l263 258q43 47 88 47zM727 1401q45 0 70 -26t24 -64q0 -61 -73 -103l-318 -180l-47 59l254 265q45 49 90 49z" />
    <glyph glyph-name="OE" unicode="&#x152;" horiz-adv-x="1902" 
d="M840 166h69l236 1016h-127q-338 0 -522 -189q-164 -164 -164 -411q0 -176 104 -281q136 -135 404 -135zM821 0q-350 0 -538 188q-145 145 -146 383q0 315 213 529q250 248 697 248h954l-84 -355h-176l43 191h-453l-96 -418h418l-35 -160h-420l-102 -442h452l47 190h177
l-82 -354h-869z" />
    <glyph glyph-name="oe" unicode="&#x153;" horiz-adv-x="1693" 
d="M1267 750q-93 0 -170 -65t-112 -171h459q12 37 12 76q0 72 -48 116t-141 44zM485 133q131 0 224 110q92 110 92 265q0 112 -66 176t-162 64q-131 0 -223 -109t-92 -264q0 -113 64 -177t163 -65zM1218 -16q-140 0 -233 58q-92 58 -131 159q-143 -217 -383 -217
q-180 0 -287 113q-106 114 -106 278q0 209 142 367t347 157q260 0 342 -225q129 225 373 225q154 0 249 -89t95 -241q0 -80 -35 -184h-630v-31q-1 -100 73 -160t204 -60t282 79l-37 -168q-125 -61 -265 -61z" />
    <glyph glyph-name="Racute" unicode="&#x154;" horiz-adv-x="1236" 
d="M1116 1849q45 -1 71 -27t25 -63q0 -66 -75 -106l-351 -178l-47 59l289 268q43 47 88 47zM1020 967q0 215 -311 215h-99l-112 -488q69 -6 161 -6q166 0 264 78q97 78 97 201zM715 1348q274 0 397 -125q96 -92 96 -245q0 -152 -99 -266t-273 -159l180 -387h160l-39 -166
h-252l-230 530h-51q-51 0 -141 5l-88 -369h178l-39 -166h-516l39 166h153l236 1016h-174l37 166h426z" />
    <glyph glyph-name="racute" unicode="&#x155;" horiz-adv-x="821" 
d="M872 1401q46 0 72 -27t25 -63q0 -66 -76 -107l-350 -178l-47 59l288 269q42 47 88 47zM709 897q55 0 93 -35t38 -87t-37 -89t-84 -37t-80 26t-41 64q-59 -27 -131 -121t-105 -223l-98 -395h-180l184 731h-164l39 152h316l-58 -248q164 262 308 262z" />
    <glyph glyph-name="Rcommaaccent" unicode="&#x156;" horiz-adv-x="1236" 
d="M506 -100q51 0 88 -38t37 -98q-1 -96 -97 -198t-258 -158l-32 62q106 55 160 112t61 92q-75 29 -77 116q0 40 33 75q34 35 85 35zM1020 967q0 215 -311 215h-99l-112 -488q69 -6 161 -6q166 0 264 78q97 78 97 201zM715 1348q274 0 397 -125q96 -92 96 -245
q0 -152 -99 -266t-273 -159l180 -387h160l-39 -166h-252l-230 530h-51q-51 0 -141 5l-88 -369h178l-39 -166h-516l39 166h153l236 1016h-174l37 166h426z" />
    <glyph glyph-name="rcommaaccent" unicode="&#x157;" horiz-adv-x="821" 
d="M135 -100q51 0 88 -38t37 -98q0 -96 -96 -198t-258 -158l-33 62q106 55 161 112q54 57 60 92q-76 29 -78 116q0 40 34 75t85 35zM709 897q55 0 93 -35t38 -87t-37 -89t-84 -37t-80 26t-41 64q-59 -27 -131 -121t-105 -223l-98 -395h-180l184 731h-164l39 152h316
l-58 -248q164 262 308 262z" />
    <glyph glyph-name="Rcaron" unicode="&#x158;" horiz-adv-x="1236" 
d="M825 1462l-243 334l86 76l192 -193l303 197l70 -92zM1020 967q0 215 -311 215h-99l-112 -488q69 -6 161 -6q166 0 264 78q97 78 97 201zM715 1348q274 0 397 -125q96 -92 96 -245q0 -152 -99 -266t-273 -159l180 -387h160l-39 -166h-252l-230 530h-51q-51 0 -141 5
l-88 -369h178l-39 -166h-516l39 166h153l236 1016h-174l37 166h426z" />
    <glyph glyph-name="rcaron" unicode="&#x159;" horiz-adv-x="821" 
d="M584 1014l-244 334l86 75l192 -192l304 196l69 -92zM709 897q55 0 93 -35t38 -87t-37 -89t-84 -37t-80 26t-41 64q-59 -27 -131 -121t-105 -223l-98 -395h-180l184 731h-164l39 152h316l-58 -248q164 262 308 262z" />
    <glyph glyph-name="Sacute" unicode="&#x15a;" horiz-adv-x="1142" 
d="M1026 360q0 -166 -131 -276t-336 -109t-345 99t-140 221q0 70 39 114t93 44t89 -35q35 -36 35 -92t-51 -93q78 -96 282 -96q115 1 192 57t77 140t-56 140q-54 56 -190 133t-220 167t-83 234q0 144 127 255q127 109 319 109t315 -88t123 -197q0 -69 -38 -113t-92 -44
t-88 35t-34 87t45 91q-55 68 -221 67q-119 0 -191 -55t-71 -136t59 -138t193 -134t217 -167t82 -220zM1116 1849q45 -1 71 -27t25 -63q0 -66 -75 -106l-351 -178l-47 59l289 268q43 47 88 47z" />
    <glyph glyph-name="sacute" unicode="&#x15b;" horiz-adv-x="886" 
d="M340 674q0 -38 31 -69q31 -30 61 -46t120 -57q92 -40 154 -98t62 -150q0 -130 -95 -200t-255 -70q-211 0 -320 112q-55 54 -55 110t30 89q29 33 73 33t72 -29t28 -66t-21 -61q7 -8 55 -32t132 -25q84 1 132 29t48 71t-31 73t-61 45t-90 42q-187 83 -228 169
q-18 40 -18 91q0 111 91 187t263 77q172 0 266 -98q52 -51 52 -107t-30 -89q-30 -32 -72 -32t-72 29t-29 63q0 34 18 64q-57 36 -138 36q-81 1 -127 -26t-46 -65zM883 1401q45 0 71 -27t25 -63q0 -66 -76 -107l-350 -178l-47 59l289 269q43 47 88 47z" />
    <glyph glyph-name="Scedilla" unicode="&#x15e;" horiz-adv-x="1142" 
d="M702 -258q0 -66 -66 -109t-182 -43t-229 88l41 62q94 -57 195 -57q37 0 61 17t23 44q0 27 -34 44t-99 9l-31 41l84 144q-168 20 -280 112t-111 201q0 70 39 114t93 44t89 -35q35 -36 35 -92t-51 -93q78 -96 282 -96q115 1 192 57t77 140t-56 140q-54 56 -190 133
t-220 167t-83 234q0 144 127 255q127 109 319 109t315 -88t123 -197q0 -69 -38 -113t-92 -44t-88 35t-34 87t45 91q-55 68 -221 67q-119 0 -191 -55t-71 -136t59 -138t193 -134t217 -167t82 -220q0 -166 -131 -276t-344 -109l-21 -75q82 -10 127 -52q45 -40 45 -106z" />
    <glyph glyph-name="scedilla" unicode="&#x15f;" horiz-adv-x="886" 
d="M340 674q0 -38 31 -69q31 -30 61 -46t120 -57q92 -40 154 -98t62 -150q0 -129 -95 -200t-255 -70h-8l-23 -84q82 -10 127 -52t45 -106q1 -66 -65 -109t-182 -43t-230 88l41 62q94 -57 194 -57q37 0 61 17t24 44t-34 44t-100 9l-30 41l90 152q-152 23 -230 106
q-55 54 -55 110t30 89q29 33 73 33t72 -29t28 -66t-21 -61q7 -8 55 -32t132 -25q84 1 132 29t48 71t-31 73t-61 45t-90 42q-187 83 -228 169q-18 40 -18 91q0 111 91 187t263 77q172 0 266 -98q52 -51 52 -107t-30 -89q-30 -32 -72 -32t-72 29t-29 63q0 34 18 64
q-57 36 -138 36q-81 1 -127 -26t-46 -65z" />
    <glyph glyph-name="Scaron" unicode="&#x160;" horiz-adv-x="1142" 
d="M1026 360q0 -166 -131 -276t-336 -109t-345 99t-140 221q0 70 39 114t93 44t89 -35q35 -36 35 -92t-51 -93q78 -96 282 -96q115 1 192 57t77 140t-56 140q-54 56 -190 133t-220 167t-83 234q0 144 127 255q127 109 319 109t315 -88t123 -197q0 -69 -38 -113t-92 -44
t-88 35t-34 87t45 91q-55 68 -221 67q-119 0 -191 -55t-71 -136t59 -138t193 -134t217 -167t82 -220zM825 1462l-243 334l86 76l192 -193l303 197l70 -92z" />
    <glyph glyph-name="scaron" unicode="&#x161;" horiz-adv-x="886" 
d="M340 674q0 -38 31 -69q31 -30 61 -46t120 -57q92 -40 154 -98t62 -150q0 -130 -95 -200t-255 -70q-211 0 -320 112q-55 54 -55 110t30 89q29 33 73 33t72 -29t28 -66t-21 -61q7 -8 55 -32t132 -25q84 1 132 29t48 71t-31 73t-61 45t-90 42q-187 83 -228 169
q-18 40 -18 91q0 111 91 187t263 77q172 0 266 -98q52 -51 52 -107t-30 -89q-30 -32 -72 -32t-72 29t-29 63q0 34 18 64q-57 36 -138 36q-81 1 -127 -26t-46 -65zM594 1014l-244 334l86 75l193 -192l303 196l69 -92z" />
    <glyph glyph-name="Tcommaaccent" unicode="&#x162;" horiz-adv-x="1271" 
d="M279 0l38 166h166l238 1020h-299l-47 -213h-178l86 375h1134l-86 -375h-176l47 213h-297l-235 -1020h186l-37 -166h-540zM367 -210q0 40 33 75q34 35 85 35t88 -38t37 -98q0 -96 -96 -198t-258 -158l-33 62q106 55 161 112q54 57 60 92q-77 29 -77 116z" />
    <glyph glyph-name="tcommaaccent" unicode="&#x163;" horiz-adv-x="720" 
d="M127 -210q0 40 34 75t85 35t88 -38t37 -98q-1 -96 -97 -198t-258 -158l-32 62q106 55 160 112t61 92q-78 30 -78 116zM389 125q59 0 176 78l64 -86q-150 -131 -297 -131q-86 0 -141 48q-54 48 -54 138q0 35 15 107l112 452h-160l35 152h162l51 200l197 68l-68 -268h271
l-39 -152h-269l-112 -452q-12 -45 -13 -78q0 -76 70 -76z" />
    <glyph glyph-name="Tcaron" unicode="&#x164;" horiz-adv-x="1271" 
d="M279 0l38 166h166l238 1020h-299l-47 -213h-178l86 375h1134l-86 -375h-176l47 213h-297l-235 -1020h186l-37 -166h-540zM879 1462l-244 334l86 76l192 -193l304 197l69 -92z" />
    <glyph glyph-name="tcaron" unicode="&#x165;" horiz-adv-x="720" 
d="M838 1497q46 0 72 -28t26 -74q0 -96 -100 -228q-62 -81 -199 -200l-47 43q98 113 121 213q6 29 8 90t12 96q25 88 107 88zM389 125q59 0 176 78l64 -86q-150 -131 -297 -131q-86 0 -141 48q-54 48 -54 138q0 35 15 107l112 452h-160l35 152h162l51 200l197 68l-68 -268
h271l-39 -152h-269l-112 -452q-12 -45 -13 -78q0 -76 70 -76z" />
    <glyph glyph-name="Umacron" unicode="&#x16a;" horiz-adv-x="1441" 
d="M645 1536l37 150h639l-33 -150h-643zM233 377q0 74 25 178l145 627h-172l39 166h516l-36 -166h-162l-146 -635q-23 -102 -22 -154q0 -119 68 -183t206 -65q137 0 226 84q88 84 120 236l164 717h-182l39 166h516l-39 -166h-152l-169 -736q-109 -469 -534 -469
q-218 0 -334 109t-116 291z" />
    <glyph glyph-name="umacron" unicode="&#x16b;" horiz-adv-x="1140" 
d="M377 1087l37 150h639l-33 -150h-643zM332 247q0 -44 33 -78t90 -34q87 0 157 70t103 198l119 480h180l-158 -625q-14 -66 -14 -90q0 -61 51 -62q61 0 117 144l80 -29q-72 -236 -244 -235q-78 0 -124 49t-46 133v18q-55 -94 -134 -148t-170 -54t-158 64t-67 169
q0 61 21 148l94 366h-164l39 152h342l-135 -535q-12 -57 -12 -101z" />
    <glyph glyph-name="Ubreve" unicode="&#x16c;" horiz-adv-x="1441" 
d="M962 1483q-118 0 -194 86t-84 239l113 35q47 -199 196 -198q143 0 264 196l101 -49q-68 -150 -173 -230t-223 -79zM233 377q0 74 25 178l145 627h-172l39 166h516l-36 -166h-162l-146 -635q-23 -102 -22 -154q0 -119 68 -183t206 -65q137 0 226 84q88 84 120 236l164 717
h-182l39 166h516l-39 -166h-152l-169 -736q-109 -469 -534 -469q-218 0 -334 109t-116 291z" />
    <glyph glyph-name="ubreve" unicode="&#x16d;" horiz-adv-x="1140" 
d="M695 1034q-117 0 -193 86t-84 240l112 35q47 -199 197 -199q143 0 264 197l101 -50q-68 -149 -174 -229t-223 -80zM332 247q0 -44 33 -78t90 -34q87 0 157 70t103 198l119 480h180l-158 -625q-14 -66 -14 -90q0 -61 51 -62q61 0 117 144l80 -29q-72 -236 -244 -235
q-78 0 -124 49t-46 133v18q-55 -94 -134 -148t-170 -54t-158 64t-67 169q0 61 21 148l94 366h-164l39 152h342l-135 -535q-12 -57 -12 -101z" />
    <glyph glyph-name="Uring" unicode="&#x16e;" horiz-adv-x="1441" 
d="M233 377q0 74 25 178l145 627h-172l39 166h516l-36 -166h-162l-146 -635q-23 -102 -22 -154q0 -119 68 -183t206 -65q137 0 226 84q88 84 120 236l164 717h-182l39 166h516l-39 -166h-152l-169 -736q-109 -469 -534 -469q-218 0 -334 109t-116 291zM903 1701
q0 -110 93 -110q46 0 83 45q37 46 37 98t-24 81q-25 29 -70 29t-82 -46q-37 -45 -37 -97zM1030 1962q104 0 162 -60t57 -161t-79 -185t-182 -83q-104 0 -161 60q-57 61 -57 161t78 184t182 84z" />
    <glyph glyph-name="uring" unicode="&#x16f;" horiz-adv-x="1140" 
d="M730 1143q46 0 83 45t37 97t-25 81t-69 29t-82 -45q-37 -46 -37 -98q0 -110 93 -109zM983 1292q-1 -100 -79 -184t-182 -84t-161 60t-57 161t78 185t182 84t162 -61t57 -161zM332 247q0 -44 33 -78t90 -34q87 0 157 70t103 198l119 480h180l-158 -625q-14 -66 -14 -90
q0 -61 51 -62q61 0 117 144l80 -29q-72 -236 -244 -235q-78 0 -124 49t-46 133v18q-55 -94 -134 -148t-170 -54t-158 64t-67 169q0 61 21 148l94 366h-164l39 152h342l-135 -535q-12 -57 -12 -101z" />
    <glyph glyph-name="Uhungarumlaut" unicode="&#x170;" horiz-adv-x="1441" 
d="M1432 1845q46 -1 70 -27t24 -63q0 -61 -76 -104l-322 -170l-47 59l262 258q43 47 89 47zM1020 1849q45 1 70 -25t24 -65q0 -61 -74 -102l-317 -180l-47 59l254 264q45 49 90 49zM233 377q0 74 25 178l145 627h-172l39 166h516l-36 -166h-162l-146 -635q-23 -102 -22 -154
q0 -119 68 -183t206 -65q137 0 226 84q88 84 120 236l164 717h-182l39 166h516l-39 -166h-152l-169 -736q-109 -469 -534 -469q-218 0 -334 109t-116 291z" />
    <glyph glyph-name="uhungarumlaut" unicode="&#x171;" horiz-adv-x="1140" 
d="M752 1401q46 0 70 -26t24 -64q0 -61 -74 -103l-317 -180l-47 59l254 265q45 49 90 49zM1163 1397q45 0 70 -27t24 -63q0 -61 -75 -105l-322 -170l-47 60l262 258q43 47 88 47zM332 247q0 -44 33 -78t90 -34q87 0 157 70t103 198l119 480h180l-158 -625q-14 -66 -14 -90
q0 -61 51 -62q61 0 117 144l80 -29q-72 -236 -244 -235q-78 0 -124 49t-46 133v18q-55 -94 -134 -148t-170 -54t-158 64t-67 169q0 61 21 148l94 366h-164l39 152h342l-135 -535q-12 -57 -12 -101z" />
    <glyph glyph-name="Uogonek" unicode="&#x172;" horiz-adv-x="1441" 
d="M467 -252q0 119 135 234q-174 16 -271 121t-98 274q0 74 25 178l145 627h-172l39 166h516l-36 -166h-162l-146 -635q-23 -102 -22 -154q0 -119 68 -183t206 -65q137 0 226 84q88 84 120 236l164 717h-182l39 166h516l-39 -166h-152l-169 -736q-98 -428 -469 -464
q-119 -98 -119 -181q0 -72 84 -71q59 0 110 18l-28 -117q-59 -43 -143 -43t-135 43q-50 43 -50 117z" />
    <glyph glyph-name="uogonek" unicode="&#x173;" horiz-adv-x="1140" 
d="M809 -412q-84 0 -134 43t-50 117q0 131 161 246q-111 35 -110 174v18q-55 -94 -134 -148t-170 -54t-158 64t-67 169q0 61 21 148l94 366h-164l39 152h342l-135 -535q-12 -57 -12 -101t33 -78t90 -34q87 0 157 70t103 198l119 480h180l-158 -625q-14 -66 -14 -90
q0 -59 51 -59q64 0 117 141l80 -29q-39 -119 -115 -190q-21 -19 -63 -55t-64 -56q-59 -53 -62 -119q0 -72 86 -71q57 0 109 18l-29 -117q-59 -43 -143 -43z" />
    <glyph glyph-name="Wcircumflex" unicode="&#x174;" horiz-adv-x="1968" 
d="M446 -16l-86 1198h-145l39 166h496l-37 -166h-170l41 -848l499 866h88l150 -870l414 852h-164l37 166h497l-39 -166h-129l-612 -1196h-100l-162 858l-518 -858zM958 1470l-69 91l407 323l244 -336l-86 -75l-192 194z" />
    <glyph glyph-name="wcircumflex" unicode="&#x175;" horiz-adv-x="1402" 
d="M588 1022l-70 90l408 324l243 -336l-86 -76l-192 195zM1081 782q0 46 34 82q34 35 90 35t94 -42t38 -114q0 -221 -393 -768h-106l-117 539l-318 -539h-118l-76 756h-162l39 152h276l39 -670l314 569h102l119 -585q219 336 235 471q-37 8 -63 38t-27 76z" />
    <glyph glyph-name="Ycircumflex" unicode="&#x176;" horiz-adv-x="1308" 
d="M612 1470l-69 91l407 323l244 -336l-86 -75l-193 194zM256 0l39 166h172l88 369l-233 647h-136l39 166h475l-36 -166h-150l168 -512l414 512h-148l39 166h494l-37 -166h-129l-584 -682l-78 -334h185l-37 -166h-545z" />
    <glyph glyph-name="ycircumflex" unicode="&#x177;" horiz-adv-x="1003" 
d="M365 1022l-70 90l407 324l244 -336l-86 -76l-192 195zM-23 -410q-65 0 -109 38t-44 89t32 84t74 33t73 -24q30 -24 38 -64q80 4 315 289l-143 696h-156l39 152h271l118 -705q262 346 297 484q-86 31 -86 118q0 49 35 84t92 35t95 -43t36 -117q0 -203 -407 -706
q-219 -267 -339 -355t-231 -88z" />
    <glyph glyph-name="Ydieresis" unicode="&#x178;" horiz-adv-x="1308" 
d="M707 1507q-53 0 -92 38q-38 38 -37 91q0 53 38 93q38 39 92 39t92 -40q38 -38 38 -92t-39 -91q-39 -38 -92 -38zM1092 1507q-53 0 -92 38q-38 38 -37 91q0 53 38 93q39 39 93 39t91 -40q38 -38 38 -92t-39 -91q-39 -38 -92 -38zM256 0l39 166h172l88 369l-233 647h-136
l39 166h475l-36 -166h-150l168 -512l414 512h-148l39 166h494l-37 -166h-129l-584 -682l-78 -334h185l-37 -166h-545z" />
    <glyph glyph-name="Zacute" unicode="&#x179;" horiz-adv-x="1269" 
d="M39 0l-12 98l1040 1094h-592l-51 -219h-172l88 375h999l13 -99l-1043 -1093h625l51 219h172l-88 -375h-1030zM1163 1849q45 -1 71 -27t26 -63q0 -66 -76 -106l-350 -178l-48 59l289 268q43 47 88 47z" />
    <glyph glyph-name="zacute" unicode="&#x17a;" horiz-adv-x="972" 
d="M400 168q52 0 130 -18t126 -18t80 35q32 36 67 136l76 -16q-33 -145 -85 -225t-167 -78q-41 0 -163 26t-171 27q-115 0 -221 -53l-66 96l703 661h-375l-41 -166h-154l76 308h686l49 -105l-674 -633q72 23 124 23zM905 1401q45 0 71 -27t25 -63q0 -66 -75 -107l-351 -178
l-47 59l289 269q43 47 88 47z" />
    <glyph glyph-name="Zdotaccent" unicode="&#x17b;" horiz-adv-x="1269" 
d="M909 1505q-53 0 -92 39t-39 93q0 53 40 93t93 40t91 -40q38 -38 38 -92t-39 -94q-39 -39 -92 -39zM39 0l-12 98l1040 1094h-592l-51 -219h-172l88 375h999l13 -99l-1043 -1093h625l51 219h172l-88 -375h-1030z" />
    <glyph glyph-name="zdotaccent" unicode="&#x17c;" horiz-adv-x="972" 
d="M653 1057q-53 0 -92 39t-39 93t40 93t93 39t91 -39t38 -93t-39 -93t-92 -39zM400 168q52 0 130 -18t126 -18t80 35q32 36 67 136l76 -16q-33 -145 -85 -225t-167 -78q-41 0 -163 26t-171 27q-115 0 -221 -53l-66 96l703 661h-375l-41 -166h-154l76 308h686l49 -105
l-674 -633q72 23 124 23z" />
    <glyph glyph-name="Zcaron" unicode="&#x17d;" horiz-adv-x="1269" 
d="M39 0l-12 98l1040 1094h-592l-51 -219h-172l88 375h999l13 -99l-1043 -1093h625l51 219h172l-88 -375h-1030zM872 1462l-243 334l86 76l192 -193l303 197l70 -92z" />
    <glyph glyph-name="zcaron" unicode="&#x17e;" horiz-adv-x="972" 
d="M400 168q52 0 130 -18t126 -18t80 35q32 36 67 136l76 -16q-33 -145 -85 -225t-167 -78q-41 0 -163 26t-171 27q-115 0 -221 -53l-66 96l703 661h-375l-41 -166h-154l76 308h686l49 -105l-674 -633q72 23 124 23zM616 1014l-243 334l86 75l192 -192l303 196l70 -92z" />
    <glyph glyph-name="Aringacute" unicode="&#x1fa;" horiz-adv-x="1441" 
d="M549 606h424l-74 592zM842 1494q0 -112 93 -112q46 0 83 45t37 97t-25 83q-24 29 -70 29t-82 -45t-36 -97zM972 1753q104 0 160 -59t56 -132q0 -146 -121 -214h197l-39 -164h-152l131 -1018h142l-39 -166h-467l37 164h151l-35 285h-536l-166 -285h178l-39 -164h-485
l39 166h122l603 1018h-160l37 164h198q-70 51 -70 150t78 177q77 78 180 78zM1354 2236q44 0 70 -26t26 -64q0 -66 -76 -106l-350 -178l-47 59l289 268q43 47 88 47z" />
    <glyph glyph-name="aringacute" unicode="&#x1fb;" horiz-adv-x="1163" 
d="M726 1143q46 0 83 45t37 97t-25 81t-69 29t-82 -45q-37 -46 -37 -98q0 -110 93 -109zM1145 2005q45 0 71 -27t25 -63q0 -66 -76 -107l-350 -178l-47 60l289 268q43 47 88 47zM979 1292q-1 -100 -79 -184t-182 -84t-161 60t-57 161t78 185t182 84t162 -61t57 -161z
M453 137q131 0 223 119t92 268q0 100 -51 158t-150 59q-127 1 -214 -115t-87 -270q0 -100 48 -160t139 -59zM381 -16q-133 0 -217 96t-84 256q0 227 137 395t328 168q96 0 168 -60t96 -149l57 197h168l-155 -629q-16 -59 -17 -90q0 -61 53 -62q63 0 115 144l80 -29
q-72 -236 -244 -235q-78 0 -124 49t-46 129v10q-137 -190 -315 -190z" />
    <glyph glyph-name="AEacute" unicode="&#x1fc;" horiz-adv-x="1888" 
d="M653 604h353l137 586h-64zM-45 0l39 166h156l745 1016h-170l37 166h1227l-86 -355h-177l46 191h-447l-96 -418h411l-36 -160h-412l-102 -442h444l47 190h178l-82 -354h-970l38 166h158l68 283h-426l-209 -285h174l-39 -164h-516zM1616 1849q45 -1 71 -27t25 -63
q0 -66 -76 -106l-350 -178l-47 59l289 268q43 47 88 47z" />
    <glyph glyph-name="aeacute" unicode="&#x1fd;" horiz-adv-x="1636" 
d="M1247 1401q45 0 71 -27t25 -63q0 -66 -75 -107l-350 -178l-48 59l289 269q43 47 88 47zM1210 750q-94 0 -170 -65t-112 -171h461q10 32 10 90t-47 102q-48 44 -142 44zM365 133q119 0 225 71t141 187h-166q-338 0 -338 -162q0 -43 36 -69t102 -27zM903 385v-31
q0 -100 74 -160q75 -60 205 -60t280 79l-35 -168q-125 -61 -273 -61t-243 68q-94 69 -127 186q-63 -117 -181 -186q-118 -68 -252 -68t-213 66t-79 157q0 149 124 229t335 80h223q-11 110 -79 180t-175 70q-61 0 -77 -16q10 -20 10 -50t-30 -61t-74 -31t-74 33t-29 80
q0 92 106 145q69 33 187 33t210 -68t120 -188q53 115 159 185t245 71q139 0 234 -88t95 -242q0 -86 -33 -184h-633z" />
    <glyph glyph-name="Oslashacute" unicode="&#x1fe;" horiz-adv-x="1497" 
d="M1290 1849q45 -1 71 -27t25 -63q0 -66 -75 -106l-350 -178l-48 59l289 268q43 47 88 47zM739 143q225 0 383 197t158 442q0 98 -35 187l-801 -709q111 -117 295 -117zM338 565q0 -109 37 -194l803 710q-106 123 -299 123q-225 0 -383 -196t-158 -443zM727 -25
q-258 0 -418 160l-180 -160l-96 111l188 170q-74 134 -74 322t95 371q94 183 268 303t381 120q264 0 420 -166l188 168l98 -112l-198 -177q71 -143 71 -323t-94 -365q-94 -184 -268 -303t-381 -119z" />
    <glyph glyph-name="oslashacute" unicode="&#x1ff;" horiz-adv-x="1081" 
d="M981 1401q45 0 71 -27t25 -63q0 -66 -76 -107l-350 -178l-47 59l289 269q43 47 88 47zM502 133q129 0 222 109t93 264q0 33 -12 86l-449 -412q60 -47 146 -47zM274 375q0 -61 17 -103l454 418q-61 57 -155 58q-132 0 -224 -108t-92 -265zM496 -16q-158 0 -260 84
l-136 -127l-90 96l142 127q-57 96 -58 213q0 209 144 365t356 157q164 0 270 -94l146 135l90 -96l-154 -142q49 -86 49 -196q0 -210 -144 -366t-355 -156z" />
    <glyph glyph-name="Scommaaccent" unicode="&#x218;" horiz-adv-x="1142" 
d="M1026 360q0 -166 -131 -276t-336 -109t-345 99t-140 221q0 70 39 114t93 44t89 -35q35 -36 35 -92t-51 -93q78 -96 282 -96q115 1 192 57t77 140t-56 140q-54 56 -190 133t-220 167t-83 234q0 144 127 255q127 109 319 109t315 -88t123 -197q0 -69 -38 -113t-92 -44
t-88 35t-34 87t45 91q-55 68 -221 67q-119 0 -191 -55t-71 -136t59 -138t193 -134t217 -167t82 -220zM432 -100q51 0 88 -38t37 -98q0 -96 -96 -198t-258 -158l-33 62q106 55 161 112q54 57 60 92q-75 29 -77 116q0 40 33 75q34 35 85 35z" />
    <glyph glyph-name="scommaaccent" unicode="&#x219;" horiz-adv-x="886" 
d="M340 674q0 -38 31 -69q31 -30 61 -46t120 -57q92 -40 154 -98t62 -150q0 -130 -95 -200t-255 -70q-211 0 -320 112q-55 54 -55 110t30 89q29 33 73 33t72 -29t28 -66t-21 -61q7 -8 55 -32t132 -25q84 1 132 29t48 71t-31 73t-61 45t-90 42q-187 83 -228 169
q-18 40 -18 91q0 111 91 187t263 77q172 0 266 -98q52 -51 52 -107t-30 -89q-30 -32 -72 -32t-72 29t-29 63q0 34 18 64q-57 36 -138 36q-81 1 -127 -26t-46 -65zM303 -100q51 0 88 -38t37 -98q0 -96 -96 -198t-258 -158l-33 62q106 55 161 112q54 57 60 92q-76 29 -78 116
q0 40 34 75t85 35z" />
    <glyph glyph-name="schwa" unicode="&#x259;" horiz-adv-x="987" 
d="M429 133q93 0 168 65t112 171h-457q-12 -41 -12 -76q0 -72 48 -116t141 -44zM72 313q0 86 32 185h629q2 10 2 30q0 98 -73 160q-74 62 -204 62t-280 -80l35 166q129 63 295 63t285 -101t118 -274q0 -225 -142 -383t-341 -157q-164 0 -260 88t-96 241z" />
    <glyph glyph-name="circumflex" unicode="&#x2c6;" horiz-adv-x="1024" 
d="M401 1022l-69 90l407 324l244 -336l-86 -76l-192 195z" />
    <glyph glyph-name="caron" unicode="&#x2c7;" horiz-adv-x="1024" 
d="M645 1014l-244 334l86 75l193 -192l303 196l70 -92z" />
    <glyph glyph-name="breve" unicode="&#x2d8;" horiz-adv-x="1024" 
d="M650 1034q-118 0 -194 86t-83 240l112 35q47 -199 197 -199q143 0 264 197l101 -50q-67 -149 -173 -229t-224 -80z" />
    <glyph glyph-name="dotaccent" unicode="&#x2d9;" horiz-adv-x="1024" 
d="M680 1057q-53 0 -92 39t-39 93t40 93t93 39t91 -39t38 -93t-39 -93t-92 -39z" />
    <glyph glyph-name="ring" unicode="&#x2da;" horiz-adv-x="1024" 
d="M596 1252q0 -110 93 -109q46 0 83 45t37 97t-25 81q-26 29 -70 29t-81 -45q-37 -46 -37 -98zM942 1292q0 -100 -78 -184t-182 -84t-162 60q-57 60 -57 161t78 185t182 84q103 0 161 -61t58 -161z" />
    <glyph glyph-name="ogonek" unicode="&#x2db;" horiz-adv-x="1026" 
d="M375 -199q0 -72 86 -71q61 0 108 18l-28 -117q-59 -43 -143 -43t-134 43q-49 43 -49 117q0 104 100 200t260 173l52 -47q-252 -156 -252 -273z" />
    <glyph glyph-name="tilde" unicode="&#x2dc;" horiz-adv-x="1024" 
d="M816 1028q-83 0 -167 84q-63 61 -104 62q-74 0 -135 -134l-105 39q31 121 103 195t154 74t156 -72q72 -72 113 -74q76 0 136 133l106 -41q-31 -122 -103 -194t-154 -72z" />
    <glyph glyph-name="hungarumlaut" unicode="&#x2dd;" horiz-adv-x="1024" 
d="M1016 1397q46 0 70 -27t24 -63q0 -61 -76 -105l-321 -170l-47 60l262 258q43 47 88 47zM604 1401q45 0 70 -26t24 -64q0 -61 -73 -103l-318 -180l-47 59l254 265q45 49 90 49z" />
    <glyph glyph-name="commaaccent" unicode="&#x326;" horiz-adv-x="425" 
d="M264 -100q51 0 88 -38t37 -98q0 -96 -96 -198t-258 -158l-33 62q106 55 161 112q54 57 60 92q-75 29 -77 116q0 40 33 75q34 35 85 35z" />
    <glyph glyph-name="Wgrave" unicode="&#x1e80;" horiz-adv-x="1968" 
d="M961 1746q0 48 27 76q28 28 65 27q61 0 104 -73l150 -277l-60 -45l-237 203q-49 41 -49 89zM446 -16l-86 1198h-145l39 166h496l-37 -166h-170l41 -848l499 866h88l150 -870l414 852h-164l37 166h497l-39 -166h-129l-612 -1196h-100l-162 858l-518 -858z" />
    <glyph glyph-name="wgrave" unicode="&#x1e81;" horiz-adv-x="1402" 
d="M590 1298q0 48 28 76t64 27q61 0 104 -74l150 -276l-59 -45l-238 202q-49 42 -49 90zM1081 782q0 46 34 82q34 35 90 35t94 -42t38 -114q0 -221 -393 -768h-106l-117 539l-318 -539h-118l-76 756h-162l39 152h276l39 -670l314 569h102l119 -585q219 336 235 471
q-37 8 -63 38t-27 76z" />
    <glyph glyph-name="Wacute" unicode="&#x1e82;" horiz-adv-x="1968" 
d="M446 -16l-86 1198h-145l39 166h496l-37 -166h-170l41 -848l499 866h88l150 -870l414 852h-164l37 166h497l-39 -166h-129l-612 -1196h-100l-162 858l-518 -858zM1499 1849q45 -1 71 -27t25 -63q0 -66 -75 -106l-351 -178l-47 59l289 268q43 47 88 47z" />
    <glyph glyph-name="wacute" unicode="&#x1e83;" horiz-adv-x="1402" 
d="M1130 1401q46 0 72 -27t25 -63q0 -66 -76 -107l-350 -178l-47 59l288 269q42 47 88 47zM1081 782q0 46 34 82q34 35 90 35t94 -42t38 -114q0 -221 -393 -768h-106l-117 539l-318 -539h-118l-76 756h-162l39 152h276l39 -670l314 569h102l119 -585q219 336 235 471
q-37 8 -63 38t-27 76z" />
    <glyph glyph-name="Wdieresis" unicode="&#x1e84;" horiz-adv-x="1968" 
d="M446 -16l-86 1198h-145l39 166h496l-37 -166h-170l41 -848l499 866h88l150 -870l414 852h-164l37 166h497l-39 -166h-129l-612 -1196h-100l-162 858l-518 -858zM1051 1507q-53 0 -92 38q-38 38 -37 91q0 52 39 92t92 40t91 -40q38 -38 38 -92t-39 -91q-39 -38 -92 -38z
M1436 1507q-53 0 -91 38t-38 91q0 52 39 92t92 40t91 -40q38 -38 38 -92t-39 -91q-39 -38 -92 -38z" />
    <glyph glyph-name="wdieresis" unicode="&#x1e85;" horiz-adv-x="1402" 
d="M680 1059q-53 0 -91 38t-38 91t39 92t92 39t91 -39t38 -92t-39 -91t-92 -38zM1065 1059q-53 0 -91 38t-38 91t39 92t92 39t91 -39t38 -92t-39 -91t-92 -38zM1081 782q0 46 34 82q34 35 90 35t94 -42t38 -114q0 -221 -393 -768h-106l-117 539l-318 -539h-118l-76 756h-162
l39 152h276l39 -670l314 569h102l119 -585q219 336 235 471q-37 8 -63 38t-27 76z" />
    <glyph glyph-name="Ygrave" unicode="&#x1ef2;" horiz-adv-x="1308" 
d="M903 1454l-237 203q-50 41 -50 89t28 76t65 27q61 0 104 -73l150 -277zM256 0l39 166h172l88 369l-233 647h-136l39 166h475l-36 -166h-150l168 -512l414 512h-148l39 166h494l-37 -166h-129l-584 -682l-78 -334h185l-37 -166h-545z" />
    <glyph glyph-name="ygrave" unicode="&#x1ef3;" horiz-adv-x="1003" 
d="M369 1298q-1 48 27 76t65 27q61 0 104 -74l150 -276l-60 -45l-237 202q-49 42 -49 90zM-23 -410q-65 0 -109 38t-44 89t32 84t74 33t73 -24q30 -24 38 -64q80 4 315 289l-143 696h-156l39 152h271l118 -705q262 346 297 484q-86 31 -86 118q0 49 35 84t92 35t95 -43
t36 -117q0 -203 -407 -706q-219 -267 -339 -355t-231 -88z" />
    <glyph glyph-name="enspace" unicode="&#x2002;" horiz-adv-x="1024" 
 />
    <glyph glyph-name="emspace" unicode="&#x2003;" horiz-adv-x="2048" 
 />
    <glyph glyph-name="threeperemspace" unicode="&#x2004;" horiz-adv-x="681" 
 />
    <glyph glyph-name="fourperemspace" unicode="&#x2005;" horiz-adv-x="512" 
 />
    <glyph glyph-name="figurespace" unicode="&#x2007;" horiz-adv-x="1085" 
 />
    <glyph glyph-name="thinspace" unicode="&#x2009;" horiz-adv-x="272" 
 />
    <glyph glyph-name="hairspace" unicode="&#x200a;" horiz-adv-x="153" 
 />
    <glyph glyph-name="endash" unicode="&#x2013;" horiz-adv-x="1075" 
d="M78 489l41 168h932l-39 -168h-934z" />
    <glyph glyph-name="emdash" unicode="&#x2014;" horiz-adv-x="1607" 
d="M78 489l41 168h1464l-39 -168h-1466z" />
    <glyph glyph-name="quoteleft" unicode="&#x2018;" horiz-adv-x="501" 
d="M334 786q-61 0 -105 45q-43 45 -43 117q0 113 121 237t307 197l37 -73q-127 -72 -189 -141t-71 -111q41 -19 65 -55t24 -82t-43 -90q-42 -44 -103 -44z" />
    <glyph glyph-name="quoteright" unicode="&#x2019;" horiz-adv-x="501" 
d="M299 1242q0 48 42 91t103 43q60 0 104 -45t44 -117q0 -114 -121 -238t-307 -198l-37 76q127 74 189 142t71 108q-88 39 -88 138z" />
    <glyph glyph-name="quotesinglbase" unicode="&#x201a;" horiz-adv-x="485" 
d="M59 144q0 46 42 88q43 42 103 42t103 -45t43 -114q0 -115 -116 -235t-306 -189l-39 73q127 68 193 136t72 108q-43 16 -69 53t-26 83z" />
    <glyph glyph-name="quotedblleft" unicode="&#x201c;" horiz-adv-x="931" 
d="M331 795q-60 0 -103 44q-42 44 -42 115q0 113 118 234t300 192l39 -73q-123 -72 -185 -139t-71 -107q86 -41 86 -123q0 -59 -41 -101t-101 -42zM769 795q-60 0 -102 44t-42 115q0 113 117 234q118 121 300 192l39 -73q-125 -72 -186 -138t-72 -108q91 -39 89 -135
q0 -47 -42 -89q-41 -42 -101 -42z" />
    <glyph glyph-name="quotedblright" unicode="&#x201d;" horiz-adv-x="931" 
d="M297 1233q0 59 41 101t101 42q59 0 101 -44t42 -115q0 -113 -118 -233t-300 -193l-37 73q123 72 184 138t72 108q-86 41 -86 123zM733 1233q0 59 41 101t101 42q61 0 103 -44t42 -115q0 -113 -118 -233t-300 -193l-39 73q123 72 186 138q62 67 70 108q-86 41 -86 123z
" />
    <glyph glyph-name="quotedblbase" unicode="&#x201e;" horiz-adv-x="901" 
d="M53 139q0 45 41 85q42 40 100 40t99 -42t41 -111q0 -111 -112 -227t-296 -183l-37 72q123 66 186 130q62 65 68 105q-90 33 -90 131zM485 139q0 45 41 85q42 40 100 40t99 -42t41 -111q0 -111 -112 -227t-296 -183l-36 72q123 67 185 131t68 104q-90 33 -90 131z" />
    <glyph glyph-name="dagger" unicode="&#x2020;" horiz-adv-x="989" 
d="M209 680q-47 0 -80 33t-33 86t40 90t92 37t100 -11l204 -43l17 306q6 139 110 139q66 0 90 -50t-4 -108l-127 -295l203 47q49 8 66 9q63 0 101 -33t38 -86t-33 -87t-80 -34t-79 34t-31 83l-164 -21l-231 -780h-86l149 788l-152 15q1 -51 -31 -85t-79 -34z" />
    <glyph glyph-name="daggerdbl" unicode="&#x2021;" horiz-adv-x="1030" 
d="M362 -258q-58 0 -80 45t3 104l106 250l-166 -39q-41 -8 -81 -8t-79 31q-38 31 -38 79t30 79q31 31 75 31t75 -30t31 -75l139 14l110 312l29 305l-133 16q0 -47 -30 -78q-29 -30 -73 -30t-75 30t-31 77q0 48 39 83t86 35t92 -10l176 -39l15 264q6 129 102 129q59 0 82 -44
t-2 -104l-107 -249l166 38q41 8 81 8t78 -30q38 -31 38 -80t-30 -79q-30 -29 -75 -29t-75 30t-29 74l-139 -16l-111 -310l-29 -307l134 -14q-2 47 27 78q30 31 74 31t76 -32q31 -30 31 -78t-38 -82t-105 -34q-20 0 -74 8l-176 39l-16 -262q-6 -131 -103 -131z" />
    <glyph glyph-name="bullet" unicode="&#x2022;" horiz-adv-x="643" 
d="M360 332q-94 0 -160 68t-65 163q0 96 66 164q65 68 159 68t160 -68t66 -164q0 -95 -66 -163t-160 -68z" />
    <glyph glyph-name="ellipsis" unicode="&#x2026;" horiz-adv-x="1331" 
d="M162 -16q-57 0 -97 41t-40 98t40 98t97 41t97 -40t40 -99t-40 -99t-97 -40zM602 -16q-57 0 -97 40t-40 99t40 99t97 40t97 -40t40 -99t-40 -99t-97 -40zM1040 -16q-57 0 -97 40t-40 99t40 99t97 40q58 0 98 -40t40 -99t-40 -99t-98 -40z" />
    <glyph glyph-name="perthousand" unicode="&#x2030;" horiz-adv-x="1873" 
d="M1578 502q110 0 172 -64t62 -171t-82 -195t-190 -88q-110 0 -173 63q-62 63 -62 171t81 196q82 88 192 88zM1432 220q0 -62 28 -95t81 -33q52 0 98 55q47 55 47 117t-28 96q-28 33 -81 33t-99 -55q-46 -56 -46 -118zM1002 502q108 0 170 -64t62 -172q0 -110 -80 -196
t-190 -86t-172 63t-62 171t81 196q83 88 191 88zM966 92q52 0 98 55t46 117t-29 96q-29 33 -81 33t-98 -55q-46 -56 -46 -118t29 -95t81 -33zM362 555q-108 0 -171 63q-62 63 -62 171t81 196q80 88 190 88q110 -1 172 -65t62 -172t-81 -194q-83 -87 -191 -87zM398 965
q-52 1 -98 -55t-46 -118t28 -96t82 -34q53 0 99 56q45 56 45 118t-29 96q-29 33 -81 33zM145 -4l-69 80q451 366 1171 1009l70 -79q-430 -351 -793 -674q-363 -322 -379 -336z" />
    <glyph glyph-name="guilsinglleft" unicode="&#x2039;" horiz-adv-x="616" 
d="M387 205l-307 366l461 363l86 -100l-324 -285l184 -258z" />
    <glyph glyph-name="guilsinglright" unicode="&#x203a;" horiz-adv-x="616" 
d="M143 205l-86 100l324 285l-184 258l102 86l307 -367z" />
    <glyph glyph-name="fraction" unicode="&#x2044;" horiz-adv-x="1024" 
d="M-78 31q657 757 1096 1308l72 -61q-348 -401 -558 -647q-157 -189 -538 -660z" />
    <glyph glyph-name="zero.sup" unicode="&#x2070;" horiz-adv-x="722" 
d="M506 977q90 1 151 111t61 222q1 212 -124 212q-90 0 -152 -111t-61 -252q0 -182 125 -182zM500 866q-116 0 -180 79t-64 218q0 193 99 331t245 138q115 0 178 -79t64 -218q0 -193 -100 -331t-242 -138z" />
    <glyph glyph-name="four.sup" unicode="&#x2074;" horiz-adv-x="722" 
d="M543 977l30 123h-333l-17 57l482 492l75 -72l-391 -385h207l31 123l125 47l-39 -164h118l-24 -98h-119l-29 -123h93l-23 -96h-336l23 96h127z" />
    <glyph glyph-name="five.sup" unicode="&#x2075;" horiz-adv-x="722" 
d="M591 1352q79 0 141 -58t62 -162t-98 -185t-214 -81t-184 47q-69 47 -69 105q0 36 22 60q23 24 55 24t54 -22t23 -43q0 -21 -8 -42q37 -23 109 -23t131 48t59 110t-37 93t-107 31t-147 -33l-66 45l115 356h422l-25 -115h-323l-60 -180q66 25 145 25z" />
    <glyph glyph-name="six.sup" unicode="&#x2076;" horiz-adv-x="722" 
d="M381 1099q0 -56 34 -90q35 -34 103 -34t117 46q49 47 49 105t-35 92t-101 34t-116 -49q-51 -48 -51 -104zM260 1141q0 246 168 401q109 94 231 94q83 0 141 -41t58 -98q0 -33 -22 -57t-53 -23q-29 1 -51 21t-22 46t9 36q-23 14 -60 14q-90 0 -161 -70q-80 -74 -115 -211
q79 97 187 97t172 -60t65 -162q0 -102 -87 -182q-88 -80 -204 -80t-186 70t-70 205z" />
    <glyph glyph-name="seven.sup" unicode="&#x2077;" horiz-adv-x="722" 
d="M319 881l443 639h-295l-33 -138h-110l57 240h498l34 -68l-454 -673h-140z" />
    <glyph glyph-name="eight.sup" unicode="&#x2078;" horiz-adv-x="722" 
d="M369 1090q1 -52 41 -84t109 -33q69 0 114 35t45 85t-39 85q-39 34 -110 34t-115 -34q-44 -36 -45 -88zM453 1420q0 -48 39 -80t97 -31t98 33t40 79t-37 78t-96 31t-100 -31t-41 -79zM523 868q-127 0 -203 60t-76 141q0 82 51 135t141 74q-109 51 -108 154q0 78 73 139
q74 61 191 61q118 0 190 -57t72 -143q0 -137 -170 -181q119 -53 119 -153t-77 -165t-203 -65z" />
    <glyph glyph-name="nine.sup" unicode="&#x2079;" horiz-adv-x="722" 
d="M592 1528q-66 0 -115 -46t-49 -104t35 -93q35 -34 99 -34t117 48q52 49 52 103t-33 91q-40 35 -106 35zM540 1153q-106 -1 -172 59t-65 162q0 102 88 182t206 80t183 -69q72 -68 72 -194q0 -259 -170 -412q-104 -94 -231 -95q-82 0 -140 41q-57 41 -57 99q0 32 22 56
t53 24q29 0 51 -21q22 -19 22 -43t-11 -39q23 -14 60 -14q89 -1 167 73t109 207q-81 -96 -187 -96z" />
    <glyph glyph-name="zero.inf" unicode="&#x2080;" horiz-adv-x="722" 
d="M236 -190q90 0 151 110t61 224q1 210 -124 210q-90 0 -152 -110q-61 -111 -61 -252q0 -182 125 -182zM229 -301q-115 0 -179 79t-64 218q0 193 99 331t245 138q115 0 178 -79t63 -218q1 -193 -99 -331t-243 -138z" />
    <glyph glyph-name="one.inf" unicode="&#x2081;" horiz-adv-x="722" 
d="M-41 -287l25 111h196l117 508l-191 -43l-6 110l283 68l61 -29l-141 -614h193l-25 -111h-512z" />
    <glyph glyph-name="two.inf" unicode="&#x2082;" horiz-adv-x="722" 
d="M453 268q1 90 -141 90q-74 0 -105 -39q18 -23 18 -53q1 -30 -21 -50q-22 -22 -54 -22t-54 24q-23 24 -22 58q0 76 80 134t185 59q105 0 174 -53q69 -54 69 -140t-62 -141t-184 -117q-190 -98 -250 -202h299l29 118h104l-51 -221h-512l-25 58q78 193 359 338q86 45 125 81
t39 78z" />
    <glyph glyph-name="three.inf" unicode="&#x2083;" horiz-adv-x="722" 
d="M518 -82q0 -102 -86 -160t-194 -57q-108 0 -190 48q-81 48 -81 130q0 35 22 60q23 25 55 25t52 -22t20 -51t-18 -47q29 -37 119 -37t133 33t43 80t-44 83t-120 36h-49l27 113h47q84 0 137 30t53 78q0 47 -40 74q-40 26 -93 26t-90 -18q12 -16 12 -39q-1 -23 -23 -45
t-52 -20q-30 0 -54 22q-23 22 -22 55q0 57 64 104q65 46 178 46q112 0 182 -56t70 -135q0 -78 -59 -128q-58 -50 -159 -58q160 -39 160 -170z" />
    <glyph glyph-name="four.inf" unicode="&#x2084;" horiz-adv-x="722" 
d="M272 -190l31 122h-334l-16 58l481 491l76 -71l-391 -385h207l30 122l125 48l-39 -164h119l-24 -99h-119l-29 -122h92l-22 -97h-336l22 97h127z" />
    <glyph glyph-name="five.inf" unicode="&#x2085;" horiz-adv-x="722" 
d="M524 -35q0 -105 -98 -185t-214 -81q-116 0 -184 47q-69 47 -69 104q0 35 22 60q23 24 55 24t54 -22t23 -42q0 -21 -9 -42q37 -23 110 -23q73 -1 131 47t58 110q0 124 -139 124q-76 0 -151 -33l-66 45l115 357h422l-25 -115h-323l-60 -180q66 24 144 24t142 -57
q62 -57 62 -162z" />
    <glyph glyph-name="six.inf" unicode="&#x2086;" horiz-adv-x="722" 
d="M111 -68q0 -56 34 -91q35 -34 103 -34q68 1 117 47t49 104t-35 92t-101 34t-116 -48q-51 -48 -51 -104zM389 469q84 0 141 -41q58 -41 58 -86t-23 -69q-23 -23 -53 -23t-50 20q-22 20 -22 46t9 36q-23 14 -60 15q-90 0 -166 -72t-110 -209q80 96 187 96t172 -59t65 -162
t-87 -183t-204 -79q-117 0 -187 70t-69 204q0 246 168 402q109 94 231 94z" />
    <glyph glyph-name="seven.inf" unicode="&#x2087;" horiz-adv-x="722" 
d="M49 -287l443 639h-295l-33 -137h-111l58 240h497l35 -68l-455 -674h-139z" />
    <glyph glyph-name="eight.inf" unicode="&#x2088;" horiz-adv-x="722" 
d="M249 -195q69 0 113 35t46 85q0 50 -39 85t-110 35t-116 -35t-45 -87t41 -85t110 -33zM318 141q58 0 99 33q40 33 40 80t-37 78q-37 30 -96 30t-101 -30q-41 -31 -41 -79t39 -80t97 -32zM253 -299q-126 0 -203 59q-77 60 -77 142q-1 82 51 135t142 74q-109 51 -109 153
q0 78 74 139t191 61q118 0 190 -56q72 -57 72 -144q0 -137 -170 -180q118 -54 118 -154t-76 -164t-203 -65z" />
    <glyph glyph-name="nine.inf" unicode="&#x2089;" horiz-adv-x="722" 
d="M322 360q-66 0 -115 -46t-49 -104t35 -92t99 -34t117 48q52 48 52 102t-33 92q-40 34 -106 34zM33 208q0 102 88 182t206 79q118 0 183 -70q72 -67 72 -193q0 -259 -170 -413q-104 -94 -232 -94q-82 0 -139 41t-57 98q0 33 22 57q22 23 52 23t52 -20t22 -44t-11 -38
q23 -14 59 -15q90 0 169 76t108 205q-81 -96 -187 -96t-172 59q-65 61 -65 163z" />
    <glyph glyph-name="Euro" unicode="&#x20ac;" horiz-adv-x="1247" 
d="M215 465q0 53 18 131h-137l31 135h149q76 158 224 249t322 91q173 0 282 -88t108 -201q0 -63 -36 -104t-88 -41t-84 32t-33 84q0 52 45 83q-49 76 -193 75q-242 0 -362 -186h340l-31 -129h-364q-18 -74 -19 -131h371l-29 -131h-332q61 -195 314 -195q170 0 321 119
l88 -119q-188 -158 -424 -157q-172 0 -304 87t-169 259h-170l31 137h131z" />
    <glyph glyph-name="published" unicode="&#x2117;" horiz-adv-x="1251" 
d="M778 616q0 46 -34 75q-34 28 -87 28h-63v-207l65 -2q55 0 87 30t32 76zM446 254v74h64v391h-64v74h216q88 1 145 -47t57 -132t-57 -131t-154 -47q-47 0 -59 2v-110h70v-74h-218zM182 528q0 -194 128 -328t315 -134q186 0 315 135t129 329t-128 326q-128 133 -315 133
q-188 0 -316 -133t-128 -328zM626 -16q-226 0 -382 158t-156 384q0 227 156 386t383 159t382 -158t155 -385t-156 -386q-156 -158 -382 -158z" />
    <glyph glyph-name="servicemark" unicode="&#x2120;" horiz-adv-x="1318" 
d="M647 836l17 79h69l101 353h-76l18 80h180l66 -299l201 299h194l-18 -80h-76l-68 -353h72l-16 -79h-224l17 79h63l60 299l-213 -303h-41l-72 303l-82 -299h66l-19 -79h-219zM606 983q0 -72 -58 -116t-138 -44q-81 0 -134 38t-53 79q1 41 19 61t47 21q55 0 55 -51
q0 -29 -18 -39q25 -29 76 -29q104 0 104 70q0 29 -14 39t-23 18t-21 12t-26 12t-19 9q-104 53 -104 139q0 66 55 111q56 45 134 45t126 -36t50 -74q1 -75 -64 -77q-55 0 -55 50q0 20 14 34q-23 23 -68 23t-69 -17t-23 -44q-1 -27 17 -41q18 -15 26 -20t30 -14t28 -14
q106 -53 106 -145z" />
    <glyph glyph-name="trademark" unicode="&#x2122;" horiz-adv-x="1343" 
d="M250 836l16 79h74l84 357h-109l-20 -86h-84l39 162h475l-37 -162h-86l25 86h-109l-84 -357h72l-19 -79h-237zM672 836l16 79h70l100 353h-76l19 80h180l66 -299l200 299h195l-19 -80h-75l-68 -353h72l-17 -79h-223l16 79h64l59 299l-213 -303h-41l-71 303l-82 -299h65
l-18 -79h-219z" />
    <glyph glyph-name="onethird" unicode="&#x2153;" horiz-adv-x="1628" 
d="M1481 205q0 -101 -86 -159q-87 -58 -195 -58t-189 48t-81 130q0 36 22 60t54 24q33 0 53 -22t20 -50t-18 -47q29 -37 119 -37t133 33t43 80t-44 83t-120 36h-49l26 112h48q84 0 137 31t53 78t-40 74t-93 27t-90 -19q12 -16 12 -39q0 -22 -22 -44t-54 -22t-54 23t-22 55
q0 58 65 104t177 46t182 -56t70 -136q0 -79 -58 -128t-159 -57q160 -39 160 -170zM362 -29l-71 60q355 410 579 675t516 633l72 -61q-348 -400 -532 -618t-564 -689zM131 573l25 111h196l117 508l-190 -43l-7 111l283 67l61 -29l-141 -614h193l-25 -111h-512z" />
    <glyph glyph-name="twothirds" unicode="&#x2154;" horiz-adv-x="1628" 
d="M303 31q657 757 1096 1308l71 -61q-348 -401 -557 -647q-157 -189 -538 -660zM1491 205q0 -101 -86 -159q-87 -58 -195 -58t-189 48t-81 130q0 36 22 60t54 24t53 -22t21 -50t-19 -47q29 -37 119 -37t133 33t43 80t-44 83t-120 36h-49l27 112h47q84 0 137 31t53 78
t-40 74t-93 27t-90 -19q12 -16 12 -39q0 -22 -22 -44t-54 -22t-54 23t-21 55q0 57 64 104q65 46 177 46t183 -56q69 -56 69 -136q0 -79 -58 -128t-159 -57q160 -39 160 -170zM643 1128q1 90 -141 91q-74 0 -105 -39q19 -23 19 -53q0 -29 -22 -51t-54 -22t-54 24t-22 59
q0 76 80 134t185 58t174 -53t69 -139q0 -85 -62 -141t-184 -117q-190 -98 -250 -203h299l29 119h105l-52 -222h-512l-24 58q78 193 358 338q86 45 125 81t39 78z" />
    <glyph glyph-name="onefifth" unicode="&#x2155;" horiz-adv-x="1628" 
d="M356 -29l-71 60q355 410 579 675t516 633l72 -61q-348 -400 -532 -618t-564 -689zM131 573l25 111h196l117 508l-190 -43l-7 111l283 67l61 -29l-141 -614h193l-25 -111h-512zM1172 -14q-116 0 -184 47q-69 47 -68 104q0 35 21 60q23 25 55 25t61 -28q29 -27 8 -79
q37 -23 109 -23t132 47q58 47 58 109q0 124 -139 125q-76 0 -152 -33l-65 45l114 356h422l-24 -114h-324l-59 -181q67 25 145 25t140 -57t62 -162q0 -106 -98 -186t-214 -80z" />
    <glyph glyph-name="twofifths" unicode="&#x2156;" horiz-adv-x="1628" 
d="M317 31q657 757 1096 1308l72 -61q-347 -400 -531 -618t-565 -689zM1296 471q78 0 140 -57t63 -162q-1 -106 -99 -186t-214 -80t-184 47q-69 47 -68 104q0 35 21 60q22 25 55 25t61 -28q28 -27 8 -79q37 -23 110 -23t131 47t58 109q0 124 -139 125q-76 0 -152 -33l-65 45
l115 356h422l-25 -114h-324l-59 -181q67 25 145 25zM670 1128q0 90 -142 91q-74 0 -104 -39q18 -23 18 -53q0 -29 -22 -51t-52 -22q-32 0 -55 24t-22 59q0 76 80 134t185 58t174 -53t69 -139q-1 -85 -63 -141t-183 -117q-190 -98 -250 -203h299l29 119h104l-51 -222h-512
l-25 58q78 193 359 338q86 45 125 81t39 78z" />
    <glyph glyph-name="threefifths" unicode="&#x2157;" horiz-adv-x="1628" 
d="M719 778q0 -102 -86 -160q-87 -58 -195 -57q-108 0 -189 48t-81 130q0 35 21 60q22 25 55 25t53 -22t20 -50t-18 -47q29 -37 119 -37t133 32t43 80q0 47 -44 83t-120 36h-49l27 113h47q84 0 137 30t53 78q0 47 -40 74t-93 27t-90 -19q12 -16 12 -39t-22 -45t-54 -20
q-32 0 -54 22t-21 56q0 57 64 103q65 46 177 46t183 -56q69 -56 69 -135t-58 -128t-159 -58q160 -39 160 -170zM354 -29l-71 60q355 410 579 675t516 633l72 -61q-348 -400 -532 -618t-564 -689zM1174 -14q-116 0 -184 47q-69 47 -68 104q0 35 21 60q23 25 55 25t61 -28
q29 -27 8 -79q37 -23 109 -23t132 47q58 47 58 109q0 124 -139 125q-76 0 -152 -33l-65 45l114 356h422l-24 -114h-324l-59 -181q67 25 145 25t140 -57t62 -162q0 -106 -98 -186t-214 -80z" />
    <glyph glyph-name="fourfifths" unicode="&#x2158;" horiz-adv-x="1628" 
d="M297 31q657 757 1096 1308l71 -61q-348 -401 -557 -647q-157 -189 -538 -660zM475 670l31 123h-334l-16 57l481 491l76 -71l-391 -385h206l31 123l125 47l-39 -164h119l-25 -98h-118l-29 -123h92l-22 -97h-336l22 97h127zM1294 471q78 0 140 -57t63 -162
q-1 -106 -99 -186t-214 -80t-184 47q-69 47 -68 104q0 35 21 60q22 25 55 25t61 -28q28 -27 8 -79q37 -23 110 -23t131 47t58 109q0 124 -139 125q-76 0 -152 -33l-65 45l115 356h421l-24 -114h-324l-59 -181q67 25 145 25z" />
    <glyph glyph-name="onesixth" unicode="&#x2159;" horiz-adv-x="1628" 
d="M1051 218q0 -56 34 -90q35 -34 103 -34t117 46t49 104t-35 93q-35 34 -101 34t-116 -48q-51 -49 -51 -105zM274 31q657 757 1096 1308l72 -61q-348 -400 -532 -618t-564 -689zM121 573l24 111h197l117 508l-191 -43l-6 111l283 67l61 -29l-141 -614h192l-24 -111h-512z
M1329 756q84 0 141 -41q58 -41 58 -87t-23 -68q-23 -24 -53 -24t-50 21q-22 19 -22 45t9 37q-20 14 -60 14q-90 1 -166 -71t-110 -209q80 96 187 96t172 -59t65 -162q0 -102 -87 -182t-204 -80t-187 69q-70 70 -69 205q0 246 168 402q109 94 231 94z" />
    <glyph glyph-name="fivesixths" unicode="&#x215a;" horiz-adv-x="1628" 
d="M1049 218q0 -56 34 -90q35 -34 103 -34t117 46t49 104t-35 93q-35 34 -101 34t-116 -48q-51 -49 -51 -105zM268 31q657 757 1096 1308l72 -61q-348 -400 -532 -618t-564 -689zM408 559q-116 0 -184 47q-69 47 -68 105q0 35 22 59t54 25q32 0 60 -27t9 -80q37 -22 109 -22
t132 47q58 47 58 109q0 124 -139 124q-76 0 -152 -33l-65 45l114 357h422l-24 -115h-324l-59 -180q67 24 145 24t140 -57t62 -161t-98 -186q-98 -81 -214 -81zM1327 756q84 0 141 -41q58 -41 58 -87t-23 -68q-23 -24 -53 -24t-50 21q-22 19 -22 45t8 37q-23 14 -59 14
q-90 1 -166 -71t-110 -209q80 96 187 96t172 -59t65 -162q0 -102 -87 -182t-204 -80t-187 69q-70 70 -69 205q0 246 168 402q109 94 231 94z" />
    <glyph glyph-name="oneeighth" unicode="&#x215b;" horiz-adv-x="1628" 
d="M1207 332q-71 0 -115 -35t-45 -87q1 -52 41 -85t109 -33t114 35t45 85t-39 85t-110 35zM1405 541q0 47 -37 77t-96 31q-58 0 -100 -31q-42 -30 -42 -78t40 -80t97 -32q58 0 98 33t40 80zM1481 218q0 -100 -77 -166q-77 -64 -203 -64t-203 59q-76 59 -76 141t51 136
q51 53 141 73q-109 51 -108 154q0 78 73 139q74 62 191 62q118 0 190 -58t72 -143q0 -137 -170 -180q119 -53 119 -153zM266 31q657 757 1096 1308l72 -61q-348 -400 -532 -618t-564 -689zM125 573l25 111h196l117 508l-191 -43l-6 111l283 67l61 -29l-141 -614h193
l-25 -111h-512z" />
    <glyph glyph-name="threeeighths" unicode="&#x215c;" horiz-adv-x="1628" 
d="M715 778q0 -102 -86 -160q-87 -58 -195 -57q-108 0 -189 48t-81 130q0 35 21 60q22 25 55 25t53 -22t20 -50t-18 -47q29 -37 119 -37t133 32t43 80q0 47 -44 83t-120 36h-49l26 113h48q84 0 137 30t53 78q0 47 -40 74t-93 27t-90 -19q12 -16 12 -39t-22 -45t-54 -20
q-32 0 -54 22t-21 56q0 57 64 103q65 46 177 46t182 -56t70 -135t-58 -128t-159 -58q160 -39 160 -170zM268 31q657 757 1096 1308l72 -61q-348 -400 -532 -618t-564 -689zM1055 210q1 -52 41 -85t109 -33t114 35t45 85t-39 85t-109 35t-116 -35q-45 -35 -45 -87zM1275 428
q58 0 98 33t40 80t-37 77t-96 31q-59 0 -100 -31q-41 -30 -41 -78t39 -80t97 -32zM1489 218q0 -100 -77 -166q-77 -64 -203 -64q-127 0 -203 59t-76 141t51 136q51 53 141 73q-109 51 -108 154q0 78 73 139q74 62 191 62q118 0 190 -58t72 -143q0 -137 -170 -180
q119 -53 119 -153z" />
    <glyph glyph-name="fiveeighths" unicode="&#x215d;" horiz-adv-x="1628" 
d="M1185 92q69 0 113 35t45 85q0 50 -38 85q-39 35 -110 35t-116 -35t-45 -87t41 -85t110 -33zM1254 428q58 0 99 33q40 33 40 80t-37 77t-96 31q-58 0 -100 -31q-42 -30 -42 -78t39 -80t97 -32zM1189 -12q-126 0 -203 59t-77 141q-1 82 51 136q52 53 142 73
q-109 51 -109 154q0 78 74 139q74 62 191 62q118 0 190 -58t72 -143q0 -137 -170 -180q118 -53 118 -153t-76 -166q-77 -64 -203 -64zM250 31q657 757 1096 1308l71 -61q-348 -401 -557 -647q-157 -189 -538 -660zM408 559q-116 0 -184 47q-69 47 -68 105q0 35 22 59t54 25
q32 0 60 -27t9 -80q37 -22 109 -22t132 47q58 47 58 109q0 124 -139 124q-76 0 -152 -33l-65 45l114 357h422l-24 -115h-324l-59 -180q67 24 145 24t140 -57t62 -161t-98 -186q-98 -81 -214 -81z" />
    <glyph glyph-name="seveneighths" unicode="&#x215e;" horiz-adv-x="1628" 
d="M272 -29l-71 60q355 410 579 675t516 633l72 -61q-348 -400 -532 -618t-564 -689zM1177 92q69 0 113 35t45 85q0 50 -39 85q-40 35 -110 35t-115 -35t-45 -87t41 -85t110 -33zM1246 428q58 0 99 33q39 33 39 80t-36 77t-96 31q-60 0 -101 -31q-41 -30 -41 -78t39 -80
t97 -32zM1460 218q0 -100 -76 -166q-76 -64 -203 -64q-126 0 -203 59t-77 141t51 136q51 53 142 73q-109 51 -109 154q0 78 74 139q75 62 191 62t189 -58t72 -143q0 -137 -170 -180q119 -53 119 -153zM270 573l443 639h-295l-33 -137h-111l58 240h497l35 -68l-454 -674h-140
z" />
    <glyph glyph-name="minus" unicode="&#x2212;" horiz-adv-x="897" 
d="M113 489l37 152h704l-37 -152h-704z" />
    <glyph glyph-name="Q.alt" horiz-adv-x="1497" 
d="M733 145q78 0 146 25l-95 262l156 55l84 -235q115 90 181 233q67 143 67 311t-104 287t-296 119q-225 0 -383 -196t-157 -441q0 -182 104 -301t297 -119zM717 -25q-266 0 -421 165t-155 425q1 147 57 291q121 310 392 446q141 71 299 70q266 0 421 -165t154 -425
q0 -201 -101 -390t-269 -302l98 -266l-156 -53l-88 245q-118 -41 -231 -41z" />
    <glyph glyph-name="zero.lin" horiz-adv-x="1316" 
d="M338 516q0 -168 77 -270t208 -101t239 101t167 258q61 158 61 326t-77 270t-214 102q-189 0 -325 -211t-136 -475zM602 -25q-192 -1 -324 143t-133 386q0 352 197 610t467 258q209 0 341 -143t132 -379t-90 -437q-90 -200 -244 -319t-346 -119z" />
    <glyph glyph-name="one.lin" horiz-adv-x="899" 
d="M23 2l38 164h258l232 997l-250 -59l-10 168l393 96l90 -41l-268 -1161h254l-39 -164h-698z" />
    <glyph glyph-name="two.lin" horiz-adv-x="1161" 
d="M965 1018q0 86 -67 138t-175 52q-193 0 -258 -94q45 -45 45 -96t-35 -86t-89 -35t-89 39t-35 104q0 120 133 226t331 106t314 -95q117 -95 117 -247t-108 -254q-109 -100 -330 -219q-360 -190 -473 -399h575l49 217h164l-88 -375h-901l-35 84q84 205 240 344
q156 138 358 246t280 183q77 75 77 161z" />
    <glyph glyph-name="three.lin" horiz-adv-x="1112" 
d="M1012 373q0 -179 -152 -285t-355 -106q-204 0 -331 87t-127 205q0 64 36 106t88 42t85 -34t33 -85t-51 -84q70 -78 276 -78q139 0 223 68t84 172t-90 169t-235 64h-74l39 164h69q174 0 279 68q104 68 104 166t-76 147q-77 49 -195 49t-179 -51q31 -27 31 -72t-35 -77
t-85 -33q-50 0 -86 37t-36 96q0 100 115 180t308 80t313 -96t120 -240t-100 -232q-100 -87 -269 -112q125 -35 199 -118t74 -197z" />
    <glyph glyph-name="four.lin" horiz-adv-x="1165" 
d="M985 872l-76 -329h221l-34 -154h-222l-53 -231h172l-35 -158h-591l34 154h238l53 237h-614l-21 84l893 914l119 -111l-731 -737h389l59 256z" />
    <glyph glyph-name="five.lin" horiz-adv-x="1071" 
d="M444 -25q-166 0 -286 77t-119 177q0 59 37 99t87 39q50 0 85 -34t35 -77t-23 -66q53 -53 207 -53t254 92q100 91 100 215q-1 124 -73 188t-193 64t-250 -51l-94 66l207 637h706l-39 -172h-555l-122 -369q92 41 206 41q168 0 280 -104t112 -275q0 -211 -157 -353
t-405 -141z" />
    <glyph glyph-name="six.lin" horiz-adv-x="1167" 
d="M586 137q128 0 226 95q97 95 97 214t-68 186q-69 66 -197 66t-228 -97t-100 -211t70 -183q72 -70 200 -70zM129 487q0 199 84 403t236 333q172 150 393 149q145 0 245 -70t101 -172q0 -57 -35 -95t-83 -38t-84 34t-36 77t29 74q-45 37 -143 37q-154 0 -285 -119
q-82 -74 -147 -194t-85 -247q55 77 151 135t216 58q180 0 295 -109t115 -270q0 -203 -156 -350t-358 -147t-322 122q-131 129 -131 389z" />
    <glyph glyph-name="seven.lin" horiz-adv-x="1032" 
d="M117 0l815 1190h-537l-55 -236h-168l90 394h858l51 -93l-841 -1255h-213z" />
    <glyph glyph-name="eight.lin" horiz-adv-x="1165" 
d="M289 376q-1 -101 79 -168t211 -67t221 71q89 71 89 173t-80 169t-213 67t-220 -72t-87 -173zM977 994q0 94 -73 152q-72 60 -190 60t-200 -64t-82 -159q0 -93 76 -155t190 -62t197 67q82 67 82 161zM1079 377q0 -165 -138 -281t-353 -116t-354 107q-138 108 -138 257
q0 150 94 248t246 131q-92 45 -141 121t-49 157q0 145 129 256t332 111t333 -103t131 -243q0 -264 -305 -342q94 -39 154 -121t59 -182z" />
    <glyph glyph-name="nine.lin" horiz-adv-x="1167" 
d="M367 902q1 -118 69 -186q68 -67 194 -67q126 1 229 99q102 98 102 210t-72 183q-74 69 -201 69t-224 -95t-97 -213zM180 874q0 202 155 350t359 148t322 -123q131 -129 131 -389q0 -202 -85 -404t-237 -331q-172 -150 -391 -150q-145 0 -247 72q-101 72 -101 170
q0 57 36 95t84 38t83 -34t35 -76t-27 -74q45 -37 143 -37q152 0 285 121q82 74 145 194t84 244q-55 -78 -151 -135t-215 -57q-180 0 -294 107t-114 271z" />
    <glyph glyph-name="bullet.alt" horiz-adv-x="1300" 
d="M650 -98q-246 0 -398 158t-152 390q0 230 154 390t400 160t399 -160q153 -158 153 -387t-154 -391q-155 -160 -402 -160z" />
    <glyph glyph-name="hyphen.lin" horiz-adv-x="602" 
d="M131 608l41 164h449l-35 -164h-455z" />
    <glyph glyph-name="endash.lin" horiz-adv-x="952" 
d="M102 614l39 154h858l-32 -154h-865z" />
    <glyph glyph-name="emdash.lin" horiz-adv-x="1427" 
d="M102 614l39 154h1334l-33 -154h-1340z" />
    <glyph glyph-name="parenleft.lin" horiz-adv-x="794" 
d="M168 516q0 385 216 686t570 457l68 -131q-322 -156 -496 -422t-174 -594q0 -220 100 -408t257 -327l-99 -113q-190 152 -316 369t-126 483z" />
    <glyph glyph-name="parenright.lin" horiz-adv-x="794" 
d="M762 811q0 -385 -216 -686t-571 -457l-67 131q322 156 496 421t174 593q0 219 -100 407t-257 330l98 113q191 -152 317 -369t126 -483z" />
    <glyph glyph-name="bracketleft.lin" horiz-adv-x="718" 
d="M63 -287l445 1909h483l-33 -139h-323l-379 -1630h322l-33 -140h-482z" />
    <glyph glyph-name="bracketright.lin" horiz-adv-x="718" 
d="M-133 -287l33 140h323l381 1630h-323l32 139h482l-445 -1909h-483z" />
    <glyph glyph-name="braceleft.lin" horiz-adv-x="710" 
d="M428 477q0 43 -50 78t-147 35h-63l39 160h65q121 0 183 48q61 48 61 111t-74 181t-75 215q0 149 142 245t415 103l-13 -121q-190 -14 -283 -76t-93 -136q1 -75 79 -200q78 -124 78 -212t-72 -155t-212 -85q96 -18 147 -70t51 -127q0 -98 -168 -233q-164 -127 -164 -220
q0 -158 271 -215l-29 -118q-201 25 -305 113t-105 216q0 154 187 297q135 104 135 166z" />
    <glyph glyph-name="braceright.lin" horiz-adv-x="710" 
d="M309 18q0 76 -79 202q-78 124 -78 212t72 154q73 66 212 86q-96 16 -147 69t-51 125q0 102 166 232t165 221q0 160 -270 215l29 121q201 -25 305 -115t104 -217q0 -156 -186 -295q-135 -104 -135 -166q0 -45 50 -79t146 -33h64l-39 -160h-66q-121 0 -182 -48t-61 -112
t74 -183q74 -120 75 -212q-1 -150 -143 -246t-414 -104l12 122q190 15 284 75t93 136z" />
    <glyph glyph-name="registered.alt" horiz-adv-x="1251" 
d="M561 549h57q57 0 92 24q34 25 33 70q0 90 -125 90h-57v-184zM414 268v76h65v389h-65v74h209q94 0 151 -42t57 -120q0 -104 -106 -147l92 -154h62v-76h-119l-115 209h-84v-133h70v-76h-217zM182 528q0 -194 128 -328t315 -134q186 0 315 135t129 329t-128 326
q-128 133 -315 133q-188 0 -316 -133t-128 -328zM626 -16q-226 0 -382 158t-156 384q0 227 156 386t383 159t382 -158t155 -385t-156 -386q-156 -158 -382 -158z" />
    <glyph glyph-name="copyright.lin" horiz-adv-x="1601" 
d="M868 338q-162 0 -264 98t-102 248t105 250q105 102 235 102t205 -53q76 -53 75 -117q0 -36 -24 -60t-54 -24t-52 22t-22 50t13 33q-35 39 -130 39t-163 -69t-68 -170t66 -170t174 -69t191 87l73 -78q-96 -119 -258 -119zM838 63q250 1 418 179t167 432q0 254 -168 432
q-167 178 -417 178t-418 -178t-168 -432t168 -432t418 -179zM838 -25q-287 0 -486 204t-198 495q0 290 198 494t486 204t486 -204t198 -494t-198 -495q-198 -204 -486 -204z" />
    <glyph glyph-name="published.lin" horiz-adv-x="1601" 
d="M868 655q66 0 103 36t37 93t-39 90t-103 33h-73v-250l38 -2h37zM602 336v102h76v469h-76v103h270q111 0 183 -60q71 -60 71 -168q0 -107 -72 -164t-194 -57h-67v-123h84v-102h-275zM838 63q250 1 418 179t167 432q0 254 -168 432q-167 178 -417 178t-418 -178t-168 -432
t168 -432t418 -179zM838 -25q-287 0 -486 204t-198 495q0 290 198 494t486 204t486 -204t198 -494t-198 -495q-198 -204 -486 -204z" />
    <glyph glyph-name="registered.lin" horiz-adv-x="1601" 
d="M766 702h74q63 0 102 29t39 82q0 111 -143 111h-72v-222zM573 352v103h78v469h-78v102h263q120 0 192 -52t72 -151q0 -137 -127 -184l104 -184h76v-103h-152l-135 256h-100v-153h84v-103h-277zM838 63q250 1 418 179t167 432q0 254 -168 432q-167 178 -417 178t-418 -178
t-168 -432t168 -432t418 -179zM838 -25q-287 0 -486 204t-198 495q0 290 198 494t486 204t486 -204t198 -494t-198 -495q-198 -204 -486 -204z" />
    <glyph glyph-name="dollar.lin" horiz-adv-x="1136" 
d="M453 993q0 -109 159 -196l123 397h-8q-125 0 -200 -55q-74 -56 -74 -146zM854 345q0 83 -45 132t-137 94l-131 -417h26q125 0 206 54t81 137zM59 304q0 79 39 123q40 44 94 44t89 -35q35 -36 35 -92t-56 -96q47 -49 156 -78l141 455q-291 139 -291 358q0 154 129 259
t342 106q27 0 41 -2l58 190l137 -39l-53 -176q118 -35 192 -105t74 -143q0 -74 -38 -118t-92 -44t-89 35t-35 86t51 94q-39 33 -119 54l-137 -441q141 -69 205 -124q65 -56 89 -112t23 -128q0 -163 -133 -269t-354 -106q-39 0 -57 2l-66 -215l-137 39l61 203
q-131 39 -215 117t-84 158z" />
    <glyph glyph-name="sterling.lin" horiz-adv-x="1171" 
d="M776 137q100 0 213 94l88 -92q-125 -164 -321 -164q-78 1 -119 13t-58 17t-55 19q-138 53 -235 56q-35 -47 -91 -76t-104 -29t-82 27q-33 27 -32 68q0 63 72 106q73 43 190 37q141 125 157 289h-239l33 143h206q-2 35 -13 115t-11 127q0 211 123 348t323 137
q147 0 249 -76t104 -184q0 -63 -35 -101t-84 -38t-83 33q-34 32 -34 78t33 79q-6 19 -49 35t-99 16q-133 0 -205 -92t-71 -235q0 -47 12 -126t14 -116h363l-33 -143h-330q-25 -182 -165 -291q78 0 189 -37t179 -37z" />
    <glyph glyph-name="Euro.lin" horiz-adv-x="1482" 
d="M477 573h461l-35 -145h-416q29 -131 116 -206t224 -75q213 0 394 181l114 -111q-217 -240 -522 -240q-199 0 -339 120t-173 325h-240l35 153h195q4 92 24 179h-176l35 153h188q90 209 266 337t386 128q209 0 335 -103t126 -235q0 -68 -40 -114q-41 -46 -95 -46t-89 34
t-35 88t50 94q-20 44 -85 78t-187 34t-245 -82q-122 -82 -194 -219h459l-35 -145h-477q-25 -102 -25 -183z" />
    <glyph glyph-name="yen.lin" horiz-adv-x="1308" 
d="M225 555l33 141h260l-188 496h-140l37 156h478l-37 -156h-150l170 -487l397 487h-153l37 156h495l-37 -156h-127l-434 -496h244l-31 -141h-342l-28 -129h342l-31 -141h-344l-31 -142h191l-33 -143h-545l33 143h180l33 142h-336l31 141h338l28 129h-340z" />
    <glyph glyph-name="cent.lin" horiz-adv-x="995" 
d="M299 644q0 -144 115 -216l176 582q-121 -26 -206 -124t-85 -242zM551 244q-45 0 -66 2l-90 -291l-123 33l88 291q-114 45 -178 137t-63 219q1 205 151 359t361 165l65 215l123 -31l-59 -196q104 -25 170 -89t66 -132t-34 -107t-82 -39t-80 30q-30 30 -30 78t37 79
q-27 29 -98 43l-187 -619q14 -2 45 -2q180 0 318 109l-2 -158q-135 -96 -332 -96z" />
    <glyph glyph-name="numbersign.lin" horiz-adv-x="1230" 
d="M571 825l-92 -325h258l90 325h-256zM1133 1348l-103 -367h238l-41 -162h-242l-88 -313h240l-41 -160h-244l-96 -346h-166l96 346h-244l-94 -346h-166l97 346h-238l41 160h242l88 313h-240l41 162h244l102 367h166l-104 -367h243l103 367h166z" />
    <glyph glyph-name="paragraph.lin" horiz-adv-x="1441" 
d="M788 156h158l240 1036h-158zM627 467q-227 0 -354 107q-126 108 -126 302t166 332q166 139 435 140h821l-39 -166h-166l-234 -1016h164l-37 -166h-880l39 166h192l70 301h-51z" />
    <glyph glyph-name="section.lin" horiz-adv-x="1062" 
d="M852 659q0 47 -52 82t-165 80l-62 25q-244 -49 -243 -156q0 -47 54 -84t226 -104q242 51 242 157zM728 1237q-94 0 -152 -29q-58 -28 -58 -76t50 -83t146 -76q251 -108 298 -198q23 -44 22 -99q0 -180 -301 -242q111 -78 111 -190t-102 -189q-102 -78 -294 -78t-288 111
q-49 56 -49 110t30 86q31 32 75 32t74 -30t30 -69t-23 -63q8 -8 52 -25t123 -17t135 30q57 28 57 76t-48 81t-146 76t-138 65q-125 66 -162 134q-23 45 -23 98q0 90 81 152t218 89q-108 80 -108 192q0 111 101 189t292 78t289 -108q51 -54 51 -110t-30 -89q-31 -33 -75 -33
t-74 30t-30 68t23 66q-62 41 -157 41z" />
    <glyph glyph-name="ordfeminine.lin" horiz-adv-x="743" 
d="M100 719l25 104h584l-25 -104h-584zM283 1169q1 -127 119 -127q64 0 116 69q53 69 53 141q0 140 -114 139q-72 0 -123 -67t-51 -155zM346 942q-80 0 -131 58t-51 155q0 137 84 239t196 101q58 0 100 -35t56 -86l33 111h106l-92 -373q-8 -28 -8 -58t27 -30q39 0 71 86
l51 -23q-45 -143 -148 -143t-108 109q-69 -111 -186 -111z" />
    <glyph glyph-name="ordmasculine.lin" horiz-adv-x="700" 
d="M482 1399q-66 -1 -118 -63t-52 -138t36 -116q36 -38 104 -38t120 62t52 140q0 77 -37 115q-39 38 -105 38zM117 719l24 104h504l-24 -104h-504zM737 1247q0 -113 -85 -207t-206 -94t-184 68t-63 182t85 206q85 93 206 93t184 -68t63 -180z" />
    <glyph glyph-name="degree.lin" horiz-adv-x="669" 
d="M485 1389q-57 1 -107 -61t-50 -128t32 -101q32 -34 90 -34t107 60t49 127t-32 102t-89 35zM731 1252q0 -108 -84 -202t-201 -94t-180 68t-63 176t85 202q85 93 202 93t179 -67t62 -176z" />
    <glyph glyph-name="percent.lin" horiz-adv-x="1443" 
d="M1040 102q68 0 120 67t52 141t-36 119q-37 44 -106 44q-69 -1 -122 -67t-53 -143t38 -119q39 -42 107 -42zM472 868q68 0 121 67q52 67 52 143t-37 118q-38 43 -106 43t-121 -67q-53 -68 -53 -144t38 -118t106 -42zM1031 -16q-125 0 -195 74t-70 199q0 124 94 228
q94 105 218 105t194 -74t70 -200t-94 -228q-93 -104 -217 -104zM150 -8l-78 74q45 42 307 292t390 368t375 361q247 244 273 271l76 -76q-41 -37 -300 -285t-415 -390q-155 -142 -628 -615zM464 750q-124 0 -195 76t-71 199q0 124 95 228q94 105 218 105t194 -75
q69 -75 69 -201t-93 -228q-93 -104 -217 -104z" />
    <glyph glyph-name="perthousand.lin" horiz-adv-x="2136" 
d="M1725 -16q-125 0 -195 72t-70 196q0 123 93 225q93 103 217 103t196 -73q70 -73 70 -195t-93 -226q-94 -102 -218 -102zM1732 102q70 0 123 65t53 139t-37 114q-37 41 -107 41t-122 -65q-52 -64 -53 -138q0 -74 37 -115q36 -41 106 -41zM1031 -16q-123 0 -193 74t-70 195
q0 122 93 224q93 103 217 103t194 -74t70 -196t-94 -224q-93 -102 -217 -102zM1040 102q68 0 121 65t53 139t-37 114q-38 41 -107 41t-122 -65q-53 -64 -53 -138t38 -115q39 -41 107 -41zM464 750q-124 0 -195 72t-71 196q0 123 95 225q94 103 218 103t194 -73
q69 -73 69 -196t-93 -225t-217 -102zM472 868q68 0 121 66q52 66 52 138t-37 114q-38 41 -106 41t-121 -66q-53 -67 -53 -139t38 -113t106 -41zM150 -8l-78 74q45 42 307 292t390 368t375 361q247 244 273 271l76 -76q-41 -37 -300 -285t-415 -390q-155 -142 -628 -615z" />
    <glyph glyph-name="quotedbl.lin" horiz-adv-x="768" 
d="M384 1495q48 0 82 -34t34 -72t-15 -70l-182 -377h-74l33 428q4 57 39 91t83 34zM752 1495q49 0 83 -34q55 -55 17 -142l-180 -377h-74l33 428q4 57 38 91t83 34z" />
    <glyph glyph-name="quotesingle.lin" horiz-adv-x="399" 
d="M384 1495q48 0 82 -34t34 -72t-15 -70l-182 -377h-74l33 428q4 57 39 91t83 34z" />
    <glyph glyph-name="plus.lin" horiz-adv-x="880" 
d="M666 1036l-64 -272h277l-37 -152h-275l-67 -288h-154l68 288h-277l37 152h275l63 272h154z" />
    <glyph glyph-name="minus.lin" horiz-adv-x="897" 
d="M137 612l37 152h705l-37 -152h-705z" />
    <glyph glyph-name="divide.lin" horiz-adv-x="897" 
d="M557 395q0 -47 -35 -81t-81 -33q-46 -1 -80 33t-33 81q0 47 34 81q35 34 82 34t80 -34t33 -81zM575 866q-47 0 -79 34t-33 81q0 47 35 81t81 34q45 0 79 -34t34 -81t-35 -81t-82 -34zM137 612l37 152h705l-37 -152h-705z" />
    <glyph glyph-name="equal.lin" horiz-adv-x="880" 
d="M100 428l35 154h651l-34 -154h-652zM182 778l35 154h649l-35 -154h-649z" />
    <glyph glyph-name="multiply.lin" horiz-adv-x="897" 
d="M328 1024l164 -225l256 215l92 -117l-260 -217l168 -229l-125 -99l-166 226l-256 -216l-92 117l260 217l-166 230z" />
    <glyph glyph-name="less.lin" horiz-adv-x="856" 
d="M582 274l-439 363l21 90l598 358l76 -114l-504 -301l342 -285z" />
    <glyph glyph-name="greater.lin" horiz-adv-x="856" 
d="M201 279l-74 116l504 301l-344 283l96 111l438 -363l-22 -90z" />
    <glyph glyph-name="plusminus.lin" horiz-adv-x="897" 
d="M29 158l34 151h703l-35 -151h-702zM694 1180l-65 -277h276l-35 -151h-276l-64 -277h-153l63 277h-274l35 151h274l64 277h155z" />
    <glyph glyph-name="zero.tab" horiz-adv-x="1085" 
d="M309 475q0 -152 52 -241q53 -89 153 -89t188 110q88 111 138 277t51 329q0 163 -52 251t-151 88q-154 0 -266 -228t-113 -497zM1081 874q0 -236 -79 -445q-79 -208 -215 -331q-135 -123 -303 -123t-267 131q-98 131 -98 365q0 365 174 633t416 268q176 0 274 -131
t98 -367z" />
    <glyph glyph-name="one.tab" horiz-adv-x="1085" 
d="M55 2l39 164h320l233 997l-309 -73l-12 165l452 113l92 -41l-270 -1161h315l-38 -164h-822z" />
    <glyph glyph-name="two.tab" horiz-adv-x="1085" 
d="M682 1210q-164 0 -233 -98q47 -43 47 -95t-35 -87t-89 -35t-90 39t-36 104q0 122 125 228t312 106t298 -94t111 -246t-100 -254q-100 -104 -288 -212q-186 -108 -292 -201q-106 -92 -162 -207h514l49 217h164l-88 -375h-840l-35 84q78 205 224 344q146 138 334 246
q190 108 261 183t71 162t-62 139q-61 52 -160 52z" />
    <glyph glyph-name="three.tab" horiz-adv-x="1085" 
d="M985 373q0 -179 -145 -285t-342 -106t-320 87t-123 203q0 66 36 110t91 44t86 -32t31 -87t-53 -86q86 -82 238 -82t231 69q80 69 80 174q0 104 -82 168t-228 64h-69l37 164h67q166 0 262 67t96 166t-71 149q-73 50 -179 50t-167 -57q31 -27 31 -72t-35 -77t-85 -33
q-50 0 -86 38t-36 97q0 100 111 181t297 81t302 -94t115 -240q0 -146 -97 -232q-97 -87 -259 -114q123 -37 195 -119t71 -196z" />
    <glyph glyph-name="four.tab" horiz-adv-x="1085" 
d="M926 872l-76 -329h205l-35 -154h-207l-53 -235h160l-35 -154h-572l35 150h236l55 241h-565l-23 84l823 914l119 -111l-665 -737h346l59 256z" />
    <glyph glyph-name="five.tab" horiz-adv-x="1085" 
d="M453 -25q-166 0 -285 77t-119 179q0 61 36 99t88 39q52 0 85 -33t33 -79t-25 -69q72 -53 218 -53t245 94q100 94 100 234q0 106 -72 170q-73 63 -192 63t-252 -51l-94 66l207 637h704l-38 -172h-553l-123 -369q96 41 205 41q169 0 281 -102t112 -275q0 -211 -158 -353
t-403 -143z" />
    <glyph glyph-name="six.tab" horiz-adv-x="1085" 
d="M556 137q114 0 201 96t87 214t-60 185q-60 66 -174 66t-204 -97t-90 -209t61 -185q65 -70 179 -70zM784 1219q-139 0 -256 -119q-74 -72 -130 -190t-76 -242q51 76 138 130t193 54q167 0 273 -108t106 -271q0 -203 -145 -350t-333 -147t-307 124q-118 125 -118 387
q0 199 80 403t221 333q162 150 369 149q137 0 230 -70t93 -172q0 -57 -35 -95t-83 -38t-84 34t-36 77t29 74q-41 37 -129 37z" />
    <glyph glyph-name="seven.tab" horiz-adv-x="1085" 
d="M147 0l818 1190h-555l-56 -236h-168l90 394h879l49 -93l-846 -1255h-211z" />
    <glyph glyph-name="eight.tab" horiz-adv-x="1085" 
d="M541 141q115 0 193 72t79 173q0 101 -71 168q-72 67 -188 67t-193 -72t-77 -174t72 -168q70 -66 185 -66zM1004 377q0 -166 -130 -282q-130 -115 -330 -115t-325 105t-125 255t92 250t240 133q-88 45 -135 123t-47 160q0 145 120 254q120 108 306 108t305 -102t119 -242
t-79 -223q-79 -84 -214 -121q91 -39 147 -121t56 -182zM901 994q0 96 -62 154t-165 58q-104 0 -174 -64t-70 -159q0 -93 66 -155t165 -62t169 66t71 162z" />
    <glyph glyph-name="nine.tab" horiz-adv-x="1085" 
d="M654 1210q-114 0 -200 -96q-87 -96 -87 -214t61 -184q61 -67 175 -67q114 1 203 99t89 210t-61 183q-66 69 -180 69zM426 129q139 0 256 119q72 72 129 188t78 242q-53 -76 -139 -129t-193 -53q-168 0 -273 108t-106 270q0 202 146 350t334 148t306 -125t117 -387
q0 -198 -80 -402t-221 -333q-162 -150 -368 -150q-137 0 -231 71q-93 71 -93 171q0 57 35 95t83 38t84 -34t36 -76t-29 -74q41 -37 129 -37z" />
    <glyph glyph-name="period.tab" horiz-adv-x="542" 
d="M233 -18q-61 0 -103 43t-42 105t42 106t103 43q61 0 103 -43q42 -44 43 -106q-1 -62 -43 -105t-103 -43z" />
    <glyph glyph-name="comma.tab" horiz-adv-x="542" 
d="M88 145q0 47 42 89t103 42t105 -45t45 -116q0 -115 -117 -237t-307 -189l-39 73q127 68 192 136t70 108q-46 16 -70 54t-24 85z" />
    <glyph glyph-name="colon.tab" horiz-adv-x="542" 
d="M356 520q-59 0 -101 43t-42 103t42 102q42 43 101 43q60 0 102 -43t42 -102t-42 -103q-43 -43 -102 -43zM233 -18q-59 0 -101 43t-42 102t42 102t101 43t101 -43t43 -102q-1 -59 -43 -102t-101 -43z" />
    <glyph glyph-name="semicolon.tab" horiz-adv-x="542" 
d="M356 520q-59 0 -101 43t-42 103t42 102q42 43 101 43q60 0 102 -43t42 -102t-42 -103q-43 -43 -102 -43zM90 142q0 46 41 87t101 41t104 -44t43 -115q0 -111 -114 -229t-302 -187l-39 72q125 66 189 132q63 67 69 107q-44 16 -68 53t-24 83z" />
    <glyph glyph-name="twodotleader.tab" horiz-adv-x="1085" 
d="M776 -18q-61 0 -103 43t-42 105t42 106t103 43q62 0 104 -43q42 -44 42 -106t-42 -105t-104 -43zM233 -18q-61 0 -103 43t-42 105t42 106t103 43q61 0 103 -43q42 -44 43 -106q-1 -62 -43 -105t-103 -43z" />
    <glyph glyph-name="periodcentered.tab" horiz-adv-x="542" 
d="M303 399q-61 0 -103 43q-42 42 -42 104t42 105t103 43t103 -43t43 -104q0 -61 -42 -105q-43 -43 -104 -43z" />
    <glyph glyph-name="slash.tab" horiz-adv-x="1085" 
d="M-25 -434l-133 84l1284 1876l131 -88z" />
    <glyph glyph-name="bar.tab" horiz-adv-x="542" 
d="M195 -410v1909h155v-1909h-155z" />
    <glyph glyph-name="underscore.tab" horiz-adv-x="1085" 
d="M-152 -319l41 167h1151l-39 -167h-1153z" />
    <glyph glyph-name="dollar.tab" horiz-adv-x="1085" 
d="M444 989q0 -98 142 -188l119 397h-5q-116 -2 -186 -56t-70 -153zM543 150q117 0 193 55t75 138q0 83 -41 132t-125 94l-123 -419h21zM51 304q0 79 39 123t93 44t89 -35q35 -36 35 -92t-53 -96q39 -49 143 -78l138 455q-272 137 -273 362q0 152 123 256t328 105
q20 0 30 -2l58 192l137 -39l-53 -178q115 -35 187 -105t71 -143q0 -74 -38 -118t-92 -44t-89 35t-35 86t49 94q-37 33 -107 54l-133 -441q147 -76 224 -154q76 -79 75 -214q0 -163 -127 -267t-338 -104q-33 0 -49 2l-63 -217l-137 37l59 205q-129 39 -210 119t-81 158z" />
    <glyph glyph-name="sterling.tab" horiz-adv-x="1085" 
d="M518 911q0 -49 13 -141t16 -125h327l-32 -143h-295q-20 -188 -156 -291q68 0 171 -37q104 -37 161 -37q90 0 195 94l88 -92q-119 -164 -297 -164q-67 1 -120 17t-64 19t-43 17q-119 50 -201 52q-35 -47 -91 -76t-102 -29q-47 0 -79 27t-32 68q0 63 71 106t185 37
q129 115 144 289h-234l35 143h197q-2 35 -16 127q-13 92 -13 141q0 201 116 330t308 129q140 0 236 -76t96 -184q0 -63 -36 -101t-85 -38t-82 33q-33 34 -33 80t31 77q-4 19 -43 35t-88 16q-120 0 -184 -85t-64 -218z" />
    <glyph glyph-name="Euro.tab" horiz-adv-x="1085" 
d="M604 145q127 0 252 179l115 -109q-172 -240 -389 -240q-162 0 -260 119t-109 336h-154l37 154h121q6 82 25 161h-107l35 154h117q78 213 218 343q141 130 293 130t235 -90t83 -211q0 -78 -38 -126t-93 -48t-87 34q-32 35 -32 95t62 94q-43 86 -135 86q-91 0 -175 -86
t-139 -227h258l-35 -145h-270q-20 -92 -29 -166h259l-33 -146h-230q9 -137 63 -214t142 -77z" />
    <glyph glyph-name="yen.tab" horiz-adv-x="1085" 
d="M152 555l30 141h244l-139 496h-129l37 156h452l-37 -156h-145l123 -479l350 479h-154l37 156h469l-37 -156h-118l-387 -496h229l-31 -141h-311l-29 -129h312l-31 -141h-314l-32 -142h190l-33 -143h-544l32 143h181l32 142h-307l31 141h309l29 129h-309z" />
    <glyph glyph-name="cent.tab" horiz-adv-x="1085" 
d="M328 638q0 -150 133 -216l178 588q-129 -26 -220 -124t-91 -248zM602 244q-47 0 -70 2l-88 -291l-122 33l86 288q-121 42 -191 136t-70 223q0 205 157 359t376 163l65 217l123 -31l-59 -194q113 -23 185 -89t71 -134q0 -68 -34 -107t-82 -39t-79 30t-30 79q0 49 37 78
q-39 35 -119 45l-187 -621l43 -2q193 0 340 109l-4 -158q-137 -96 -348 -96z" />
    <glyph glyph-name="numbersign.tab" horiz-adv-x="1085" 
d="M516 825l-92 -325h223l90 325h-221zM1038 1348l-102 -367h199l-43 -162h-201l-88 -313h201l-43 -160h-203l-96 -346h-162l96 346h-209l-94 -346h-162l96 346h-198l43 160h200l88 313h-200l43 162h203l102 367h162l-105 -367h209l103 367h161z" />
    <glyph glyph-name="paragraph.tab" horiz-adv-x="1085" 
d="M575 156h97l239 1036h-98zM494 469q-162 0 -264 102q-101 102 -101 275q0 229 159 365t408 137h541l-37 -166h-141l-234 -1016h140l-37 -166h-701l37 166h168l72 303h-10z" />
    <glyph glyph-name="section.tab" horiz-adv-x="1085" 
d="M330 690q0 -47 53 -80q53 -34 119 -60t89 -34q22 -8 32 -14q252 51 251 157q0 47 -54 81t-173 81l-63 25q-254 -49 -254 -156zM150 672q0 90 80 151q81 61 223 90q-115 76 -115 190q0 113 105 191t302 78t297 -108q52 -54 52 -110t-31 -89t-75 -33t-74 30t-30 68t23 66
l-37 18q-72 23 -152 23t-138 -29q-60 -28 -60 -76t52 -83t152 -76q259 -106 309 -198q24 -44 24 -99q0 -176 -305 -242q114 -78 114 -190t-104 -189q-104 -78 -281 -78q-221 0 -319 109q-51 58 -51 112t30 86q31 32 76 32t74 -30t29 -68t-21 -64q7 -8 55 -25t130 -17t143 29
q59 29 59 77t-51 81t-151 75q-260 109 -304 189q-30 56 -30 109z" />
    <glyph glyph-name="degree.tab" horiz-adv-x="1085" 
d="M642 895q102 0 184 93q82 94 83 198q0 104 -54 160q-55 56 -155 57q-100 0 -183 -93q-83 -92 -83 -198t53 -162q53 -55 155 -55zM632 780q-156 0 -240 88q-83 88 -83 238t122 280q121 130 279 132q158 0 241 -88t83 -238t-123 -281t-279 -131z" />
    <glyph glyph-name="percent.tab" horiz-adv-x="1085" 
d="M774 100q57 0 94 94t37 190q0 95 -65 95q-58 0 -96 -94q-38 -93 -38 -189t68 -96zM764 -14q-82 0 -132 57t-50 158q0 161 78 277t194 116q80 0 129 -57t49 -158q0 -161 -78 -277t-190 -116zM371 864q55 0 93 93t38 189t-68 95q-55 0 -93 -93q-38 -92 -38 -188t68 -96z
M358 748q-82 0 -131 58t-49 159q0 161 78 277t193 116q80 0 130 -58t50 -159q0 -161 -79 -277t-192 -116zM117 -16l-78 65l532 656l523 661l75 -68l-528 -649z" />
    <glyph glyph-name="quotedbl.tab" horiz-adv-x="1085" 
d="M944 1495q49 0 83 -33t34 -73t-17 -76l-202 -475h-74l49 528q6 59 42 94t85 35zM528 1495q49 0 82 -33t33 -70t-14 -79l-203 -475h-74l49 528q6 59 42 94t85 35z" />
    <glyph glyph-name="quotesingle.tab" horiz-adv-x="542" 
d="M462 1495q50 0 83 -33t33 -73t-17 -76l-201 -475h-73l49 528q4 59 40 94t86 35z" />
    <glyph glyph-name="plus.tab" horiz-adv-x="1085" 
d="M780 1077l-73 -313h317l-35 -152h-317l-76 -329h-156l78 329h-315l35 152h315l74 313h153z" />
    <glyph glyph-name="minus.tab" horiz-adv-x="1085" 
d="M193 612l36 152h787l-37 -152h-786z" />
    <glyph glyph-name="divide.tab" horiz-adv-x="1085" 
d="M526 240q-47 0 -81 34t-33 80q0 47 34 81q35 34 82 34t81 -34t34 -81q0 -46 -35 -80t-82 -34zM682 907q-47 0 -81 34t-34 81t35 81t82 34t80 -34t33 -81t-34 -81t-81 -34zM193 612l36 152h787l-37 -152h-786z" />
    <glyph glyph-name="equal.tab" horiz-adv-x="1085" 
d="M158 408l35 153h733l-35 -153h-733zM248 799l35 153h731l-35 -153h-731z" />
    <glyph glyph-name="multiply.tab" horiz-adv-x="1085" 
d="M383 1079l205 -276l297 252l92 -119l-299 -254l203 -272l-125 -101l-201 271l-303 -256l-92 116l305 260l-207 281z" />
    <glyph glyph-name="less.tab" horiz-adv-x="1085" 
d="M725 227l-512 420l16 68l693 411l69 -108l-573 -348l403 -334z" />
    <glyph glyph-name="greater.tab" horiz-adv-x="1085" 
d="M477 1137l512 -418l-16 -70l-692 -411l-70 108l573 348l-403 334z" />
    <glyph glyph-name="plusminus.tab" horiz-adv-x="1085" 
d="M76 133l33 152h786l-35 -152h-784zM803 1241l-74 -317h318l-35 -152h-318l-73 -317h-154l74 317h-316l35 152h315l74 317h154z" />
    <glyph glyph-name="zero.idx_P2D" horiz-adv-x="2252" 
d="M1125 979q-109 0 -175 -98t-66 -252q0 -153 66 -253q65 -100 175 -100t177 98t66 253q0 154 -66 253q-67 99 -177 99zM1530 627q0 -217 -118 -357t-287 -139q-169 0 -287 140q-118 141 -117 357q0 216 119 356q118 140 286 140t286 -140t118 -357zM1126 1518
q-246 0 -448 -123t-314 -330q-114 -207 -114 -451t114 -450t316 -330q202 -123 446 -123q246 0 448 123t315 330q114 206 114 450t-114 451t-315 330q-202 123 -448 123zM1126 1634q281 0 513 -138q231 -138 363 -372t132 -510t-131 -510t-363 -371q-232 -139 -514 -139
q-281 0 -513 138t-363 372t-131 510t131 510t363 372t513 138z" />
    <glyph glyph-name="one.idx_P2D" horiz-adv-x="2252" 
d="M1421 152h-575v139h211v655l-199 -41l-31 135l310 70h77v-819h207v-139zM1126 1518q-246 0 -448 -123t-314 -330q-114 -207 -114 -451t114 -450t316 -330q202 -123 446 -123q246 0 448 123t315 330q114 206 114 450t-114 451t-315 330q-202 123 -448 123zM1126 1634
q281 0 513 -138q231 -138 363 -372t132 -510t-131 -510t-363 -371q-232 -139 -514 -139q-281 0 -513 138t-363 372t-131 510t131 510t363 372t513 138z" />
    <glyph glyph-name="two.idx_P2D" horiz-adv-x="2252" 
d="M991 855q1 -48 -27 -76q-28 -27 -75 -27t-74 35t-27 89t35 114t116 96q81 38 203 38t220 -78q96 -79 96 -202q0 -72 -39 -133t-79 -93t-113 -77q-207 -131 -275 -260h396v159h131v-290h-672l-47 71q40 101 110 189t124 131t124 90t99 70q79 66 79 153q0 51 -51 92
t-149 41t-150 -57q45 -27 45 -75zM1126 1518q-246 0 -448 -123t-314 -330q-114 -207 -114 -451t114 -450t316 -330q202 -123 446 -123q246 0 448 123t315 330q114 206 114 450t-114 451t-315 330q-202 123 -448 123zM1126 1634q281 0 513 -138q231 -138 363 -372t132 -510
t-131 -510t-363 -371q-232 -139 -514 -139q-281 0 -513 138t-363 372t-131 510t131 510t363 372t513 138z" />
    <glyph glyph-name="three.idx_P2D" horiz-adv-x="2252" 
d="M774 355q0 50 29 83t71 33t70 -28q29 -27 29 -65t-23 -65q52 -45 154 -45t161 40q58 40 58 106q0 96 -98 137q-59 27 -164 27h-47v129h53q96 1 165 41q68 40 68 108t-51 100q-51 31 -137 31t-125 -35q48 -70 -8 -124q-29 -28 -70 -28t-69 32q-28 30 -29 80q0 50 37 94
q88 115 282 114q141 0 237 -70q95 -71 95 -183t-104 -179q-43 -29 -92 -41q51 -14 88 -35q129 -74 129 -202q1 -128 -103 -201q-104 -74 -258 -74q-195 0 -301 113q-47 57 -47 107zM1126 1518q-246 0 -448 -123t-314 -330q-114 -207 -114 -451t114 -450t316 -330
q202 -123 446 -123q246 0 448 123t315 330q114 206 114 450t-114 451t-315 330q-202 123 -448 123zM1126 1634q281 0 513 -138q231 -138 363 -372t132 -510t-131 -510t-363 -371q-232 -139 -514 -139q-281 0 -513 138t-363 372t-131 510t131 510t363 372t513 138z" />
    <glyph glyph-name="four.idx_P2D" horiz-adv-x="2252" 
d="M997 150v124h170v154h-444l-37 70l518 641l115 -88l-416 -504h264v162l148 61v-221h151v-127h-151v-146h117v-126h-435zM1126 1518q-246 0 -448 -123t-314 -330q-114 -207 -114 -451t114 -450t316 -330q202 -123 446 -123q246 0 448 123t315 330q114 206 114 450
t-114 451t-315 330q-202 123 -448 123zM1126 1634q281 0 513 -138q231 -138 363 -372t132 -510t-131 -510t-363 -371q-232 -139 -514 -139q-281 0 -513 138t-363 372t-131 510t131 510t363 372t513 138z" />
    <glyph glyph-name="five.idx_P2D" horiz-adv-x="2252" 
d="M1126 772q142 0 238 -85t96 -228t-97 -235t-245 -93q-148 0 -239 58q-90 58 -91 133q0 42 29 72t73 30t71 -29t27 -59t-9 -47q45 -23 133 -23t141 54t53 136q0 81 -52 130t-160 49t-195 -45l-70 41l45 475h527v-143h-400l-18 -205q68 14 143 14zM1126 1518
q-246 0 -448 -123t-314 -330q-114 -207 -114 -451t114 -450t316 -330q202 -123 446 -123q246 0 448 123t315 330q114 206 114 450t-114 451t-315 330q-202 123 -448 123zM1126 1634q281 0 513 -138q231 -138 363 -372t132 -510t-131 -510t-363 -371q-232 -139 -514 -139
q-281 0 -513 138t-363 372t-131 510t131 510t363 372t513 138z" />
    <glyph glyph-name="six.idx_P2D" horiz-adv-x="2252" 
d="M1118 614q-88 0 -146 -46t-57 -121q1 -77 63 -129t146 -52t140 52q55 52 55 127t-57 122q-56 47 -144 47zM1434 948q0 -52 -28 -76t-72 -24t-68 28t-25 58q0 30 4 43q-45 12 -84 12q-106 0 -180 -94t-78 -242q93 97 237 97t240 -87t96 -219t-100 -222q-100 -91 -255 -91
q-155 -1 -263 107t-106 354q0 246 117 389q118 143 292 143q115 0 187 -47q86 -49 86 -129zM1126 1518q-246 0 -448 -123t-314 -330q-114 -207 -114 -451t114 -450t316 -330q202 -123 446 -123q246 0 448 123t315 330q114 206 114 450t-114 451t-315 330q-202 123 -448 123z
M1126 1634q281 0 513 -138q231 -138 363 -372t132 -510t-131 -510t-363 -371q-232 -139 -514 -139q-281 0 -513 138t-363 372t-131 510t131 510t363 372t513 138z" />
    <glyph glyph-name="seven.idx_P2D" horiz-adv-x="2252" 
d="M954 975v-180h-139v311h647l37 -84l-412 -872h-169l403 825h-367zM1126 1518q-246 0 -448 -123t-314 -330q-114 -207 -114 -451t114 -450t316 -330q202 -123 446 -123q246 0 448 123t315 330q114 206 114 450t-114 451t-315 330q-202 123 -448 123zM1126 1634
q281 0 513 -138q231 -138 363 -372t132 -510t-131 -510t-363 -371q-232 -139 -514 -139q-281 0 -513 138t-363 372t-131 510t131 510t363 372t513 138z" />
    <glyph glyph-name="eight.idx_P2D" horiz-adv-x="2252" 
d="M926 424q0 -64 56 -110t143 -46t144 45q56 45 56 110t-57 112q-58 47 -144 47t-142 -47t-56 -111zM948 845q0 -61 52 -105t125 -44t125 43t52 105t-50 104q-52 41 -128 41t-126 -41t-50 -103zM1124 135q-164 0 -262 79t-98 196q0 78 55 146t144 87q-84 25 -130 82
t-47 127q0 116 96 192t244 76t244 -77t96 -191q0 -70 -47 -127t-133 -82q90 -20 146 -87t55 -146q1 -117 -99 -196t-264 -79zM1126 1518q-246 0 -448 -123t-314 -330q-114 -207 -114 -451t114 -450t316 -330q202 -123 446 -123q246 0 448 123t315 330q114 206 114 450
t-114 451t-315 330q-202 123 -448 123zM1126 1634q281 0 513 -138q231 -138 363 -372t132 -510t-131 -510t-363 -371q-232 -139 -514 -139q-281 0 -513 138t-363 372t-131 510t131 510t363 372t513 138z" />
    <glyph glyph-name="nine.idx_P2D" horiz-adv-x="2252" 
d="M1339 809q0 76 -61 127q-58 55 -144 55t-142 -52t-56 -128t57 -124t145 -48t144 47q57 47 57 123zM821 306q0 52 28 77t71 25q42 0 68 -28t26 -56t-6 -43q33 -12 88 -13q104 0 178 92t76 240q-90 -94 -234 -94t-242 86q-96 86 -96 218t102 223t254 91q154 0 262 -108
t108 -354t-118 -388t-282 -143q-164 0 -242 82q-41 41 -41 93zM1126 1518q-246 0 -448 -123t-314 -330q-114 -207 -114 -451t114 -450t316 -330q202 -123 446 -123q246 0 448 123t315 330q114 206 114 450t-114 451t-315 330q-202 123 -448 123zM1126 1634q281 0 513 -138
q231 -138 363 -372t132 -510t-131 -510t-363 -371q-232 -139 -514 -139q-281 0 -513 138t-363 372t-131 510t131 510t363 372t513 138z" />
    <glyph glyph-name="space.tab" horiz-adv-x="542" 
 />
    <glyph glyph-name="NUL" 
 />
    <glyph glyph-name="hfjslug" horiz-adv-x="1421" 
d="M872 580q-33 0 -32 34q0 12 9 24t23 11q14 0 24 -11t9 -24q0 -34 -33 -34zM997 612h-22v35h22q20 0 21 -16q-1 -19 -21 -19zM659 823q-33 0 -33 45t33 78l41 -80q-16 -43 -41 -43zM645 1056q0 30 29 29q27 -1 27 -35t-31 -69q-25 45 -25 75zM494 662l28 -97h17l22 70h2
l23 -70h16l29 97h-17l-20 -72h-2l-23 72h-14l-23 -72h-2l-20 72h-16zM270 662v-95h17v66l51 -66h14v95h-16v-66l-51 66h-15zM395 662v-95h70v15h-53v26h47v15h-47v24h53v15h-70zM750 567h16v35l37 60h-19l-26 -46l-27 46h-18l37 -60v-35zM872 565q20 1 34 15q33 33 1 68
q-15 16 -35 16t-34 -16t-14 -34q0 -20 14 -34t34 -15zM1034 631q0 31 -35 31h-41v-95h17v31h24l21 -31h18l-24 35q20 8 20 29zM1071 662v-95h16v25l17 16l31 -41h20l-41 54l37 41h-21l-40 -50h-3v50h-16zM729 1038q0 72 -55 72q-25 0 -41 -19q-17 -19 -17 -45t29 -79
q-47 -37 -47 -83q0 -91 59 -89q39 0 60 49h2l24 -49l25 12l-35 65q13 29 27 80l-27 6q-8 -37 -16 -61h-2l-33 64q47 43 47 77zM985 799q63 0 64 73v281h-33v-281q0 -45 -33 -45q-16 0 -41 11v-31q20 -8 43 -8zM377 1153v-352h31v162h96v-162h31v352h-31v-162h-96v162h-31z
M819 1153v-352h31v160h78v28h-78v135h88v29h-119zM1319 -410h-426l-16 29h-334l-17 -29h-424v621q29 0 48 19q18 19 18 46q0 26 -20 46t-46 20v1135h205l62 161h684l59 -161h207v-1887z" />
    <glyph glyph-name="i.dot" horiz-adv-x="628" 
d="M317 -14q-88 0 -136 48t-48 130q0 43 14 96l123 471h-166l39 152h346l-163 -625q-14 -49 -15 -90q0 -61 54 -62q66 0 120 144l80 -29q-72 -235 -248 -235zM423 1032q-48 0 -83 35t-35 84t35 84t83 35t84 -35t36 -84t-36 -84t-84 -35z" />
    <glyph glyph-name="zero.num" horiz-adv-x="722" 
d="M379 670q90 0 151 110q62 110 62 224q1 210 -125 210q-90 0 -152 -110q-61 -111 -61 -252q0 -182 125 -182zM373 559q-115 0 -179 79t-65 218q0 193 99 331t245 138q115 0 178 -79t64 -218q1 -193 -99 -331t-243 -138z" />
    <glyph glyph-name="one.num" horiz-adv-x="722" 
d="M102 573l25 111h197l116 508l-190 -43l-6 111l282 67l62 -29l-142 -614h193l-25 -111h-512z" />
    <glyph glyph-name="two.num" horiz-adv-x="722" 
d="M596 1128q0 90 -142 91q-74 0 -104 -39q18 -23 18 -53q0 -29 -21 -51t-53 -22t-54 24t-23 59q0 76 80 134t185 58t174 -53t69 -139q0 -85 -62 -141t-184 -117q-190 -98 -250 -203h299l29 119h105l-52 -222h-512l-24 58q78 193 358 338q86 45 125 81t39 78z" />
    <glyph glyph-name="three.num" horiz-adv-x="722" 
d="M662 778q0 -102 -86 -160t-194 -57q-108 0 -191 48q-81 48 -80 130q0 35 21 60q22 25 54 25t54 -22q20 -22 20 -50t-18 -47q29 -37 119 -37t133 32t43 80q0 47 -44 83t-120 36h-49l26 113h47q84 0 138 30q53 31 53 78t-40 74t-93 27t-90 -19q12 -16 12 -39t-23 -45
q-24 -22 -54 -20q-30 0 -52 22t-23 56q0 57 65 103q66 46 178 46t182 -56t69 -135t-59 -128t-158 -58q160 -39 160 -170z" />
    <glyph glyph-name="four.num" horiz-adv-x="722" 
d="M416 670l30 123h-333l-17 57l482 491l75 -71l-391 -385h207l31 123l125 47l-39 -164h119l-25 -98h-119l-29 -123h93l-23 -97h-336l23 97h127z" />
    <glyph glyph-name="five.num" horiz-adv-x="722" 
d="M356 559q-116 0 -185 47t-69 105q0 35 22 59t54 25q32 0 56 -22q22 -22 22 -43t-8 -42q38 -22 110 -22t130 47t58 109t-36 93q-38 31 -108 31t-146 -33l-66 45l115 357h422l-25 -115h-323l-60 -180q66 24 145 24t141 -57q63 -57 63 -161t-98 -186q-98 -81 -214 -81z" />
    <glyph glyph-name="six.num" horiz-adv-x="722" 
d="M254 792q0 -56 34 -90t102 -34t118 46q49 46 49 104t-35 92q-34 34 -100 34t-117 -48t-51 -104zM133 834q0 246 168 401q109 94 231 94q84 0 142 -41t57 -98q-1 -32 -23 -56t-52 -24t-52 20t-20 46q0 26 8 36q-23 14 -60 15q-90 0 -161 -70q-80 -74 -115 -211
q80 96 188 96t172 -59t64 -161t-87 -183q-87 -80 -203 -80t-187 70q-70 70 -70 205z" />
    <glyph glyph-name="seven.num" horiz-adv-x="722" 
d="M193 573l442 639h-295l-33 -137h-110l57 240h498l34 -68l-454 -674h-139z" />
    <glyph glyph-name="eight.num" horiz-adv-x="722" 
d="M242 783q0 -53 40 -85t110 -32q69 0 114 34t45 85q0 50 -39 85q-40 35 -110 35t-115 -35t-45 -87zM462 1001q58 0 98 33t40 80t-37 78t-96 31t-100 -31t-41 -79t39 -80t97 -32zM676 790q0 -100 -77 -164t-203 -65t-202 59t-77 142q0 82 51 135t141 74q-109 51 -108 153
q0 78 73 140q74 61 191 61t189 -57t73 -144q0 -137 -170 -180q119 -54 119 -154z" />
    <glyph glyph-name="nine.num" horiz-adv-x="722" 
d="M466 1221q-66 0 -116 -46q-49 -47 -49 -105t35 -92q36 -34 100 -34t116 48t52 102t-33 92q-39 35 -105 35zM414 846q-106 0 -172 60t-66 162t88 182t206 79q118 0 183 -69q72 -68 72 -194q0 -258 -170 -413q-104 -94 -231 -94q-82 0 -140 41q-57 41 -57 98q0 33 23 57
q22 23 52 23t52 -20t20 -44q0 -24 -10 -38q23 -14 60 -14q90 0 168 74t108 206q-80 -96 -186 -96z" />
    <glyph glyph-name="zero.den" horiz-adv-x="722" 
d="M246 96q90 0 151 111t61 223q1 210 -124 211q-90 0 -152 -111t-61 -251q0 -183 125 -183zM240 -14q-115 0 -180 79t-64 218q0 193 99 331t245 138q115 0 178 -79t64 -218q0 -193 -100 -331t-242 -138z" />
    <glyph glyph-name="one.den" horiz-adv-x="722" 
d="M-31 0l25 111h196l117 507l-190 -43l-6 111l282 68l62 -29l-142 -614h193l-25 -111h-512z" />
    <glyph glyph-name="two.den" horiz-adv-x="722" 
d="M463 555q1 91 -141 91q-74 0 -105 -40q19 -22 19 -52t-22 -52t-54 -21q-32 0 -54 24q-23 24 -22 58q0 76 80 134q80 59 185 59t174 -54t69 -139q0 -86 -62 -141t-184 -117q-190 -98 -250 -203h299l29 119h104l-51 -221h-512l-24 57q78 193 358 338q86 45 125 81t39 79z
" />
    <glyph glyph-name="three.den" horiz-adv-x="722" 
d="M248 -12q-108 0 -190 48q-81 48 -81 130q0 36 22 60q23 24 55 24t52 -22t20 -50t-17 -47q29 -37 119 -37t132 33t43 80q0 47 -44 83t-119 36h-50l27 112h47q84 0 137 31t53 78t-39 74t-93 27t-91 -19q33 -44 -10 -83q-23 -22 -53 -22t-54 23q-22 23 -22 55q0 58 65 104
t177 46t182 -56t70 -136q0 -79 -58 -128t-159 -57q160 -39 159 -170q0 -101 -86 -159t-194 -58z" />
    <glyph glyph-name="four.den" horiz-adv-x="722" 
d="M283 96l30 123h-333l-17 57l481 492l76 -72l-391 -385h207l31 123l125 47l-39 -164h118l-24 -98h-119l-29 -123h93l-23 -96h-336l23 96h127z" />
    <glyph glyph-name="five.den" horiz-adv-x="722" 
d="M222 -14q-116 0 -184 47q-69 47 -69 104q0 35 22 60q23 25 55 25t54 -22t23 -44q0 -22 -8 -41q37 -23 109 -23t131 47t59 109q1 124 -140 125q-76 0 -151 -33l-66 45l115 356h422l-25 -114h-323l-60 -181q66 25 145 25t141 -57t62 -162q0 -106 -98 -186t-214 -80z" />
    <glyph glyph-name="six.den" horiz-adv-x="722" 
d="M121 218q0 -56 34 -90q35 -34 103 -34t117 46t49 104t-35 93q-35 34 -101 34t-116 -48q-51 -49 -51 -105zM0 260q0 246 168 402q109 94 231 94q83 0 141 -41t58 -99q0 -32 -23 -56t-53 -24t-50 21q-22 19 -22 45t9 37q-23 14 -60 14q-89 1 -165 -71t-111 -209
q80 96 187 96t172 -59t65 -162q0 -102 -87 -182q-88 -80 -204 -80t-186 69q-70 70 -70 205z" />
    <glyph glyph-name="seven.den" horiz-adv-x="722" 
d="M59 0l443 639h-295l-33 -137h-111l58 239h497l35 -67l-454 -674h-140z" />
    <glyph glyph-name="eight.den" horiz-adv-x="722" 
d="M269 332q-71 0 -115 -35t-45 -87q1 -52 41 -85t109 -33t114 35t45 85t-39 85t-110 35zM467 541q0 47 -37 77t-96 31q-58 0 -100 -31q-42 -30 -42 -78t40 -80q39 -32 97 -32t98 33t40 80zM543 218q0 -100 -77 -166q-77 -64 -203 -64t-203 59q-76 59 -76 141t51 136
q51 53 141 73q-109 51 -108 154q0 78 73 139q74 62 191 62q118 0 190 -58t72 -143q0 -137 -170 -180q119 -53 119 -153z" />
    <glyph glyph-name="nine.den" horiz-adv-x="722" 
d="M332 647q-66 0 -115 -46q-49 -47 -49 -105t35 -92t99 -34t117 49q52 48 52 102t-33 91q-40 35 -106 35zM43 494q0 102 88 182t206 80t183 -70q72 -68 72 -194q0 -259 -170 -412q-104 -94 -232 -94q-82 0 -139 41t-57 98q0 33 22 57t53 23q29 -1 51 -21t22 -44t-11 -38
q20 -14 59 -14q90 0 168 74t109 207q-81 -97 -187 -97t-172 60t-65 162z" />
    <glyph glyph-name="caron.alt" horiz-adv-x="1024" 
d="M551 1491q45 0 72 -28t26 -74q0 -96 -100 -228q-62 -81 -199 -200l-47 43q98 113 121 213q6 29 8 90t12 96q25 88 107 88z" />
    <glyph glyph-name="g.sc" 
 />
    <glyph glyph-name="gbreve.sc" 
 />
    <glyph glyph-name="i.sc" 
 />
    <glyph glyph-name="iacute.sc" 
 />
    <glyph glyph-name="ibreve.sc" 
 />
    <glyph glyph-name="icircumflex.sc" 
 />
    <glyph glyph-name="idieresis.sc" 
 />
    <glyph glyph-name="igrave.sc" 
 />
    <glyph glyph-name="imacron.sc" 
 />
    <glyph glyph-name="iogonek.sc" 
 />
    <glyph glyph-name="S.sc" 
 />
    <glyph glyph-name="Sacute.sc" 
 />
    <glyph glyph-name="Aring.sc" 
 />
    <glyph glyph-name="Aringacute.sc" 
 />
    <glyph glyph-name="E.sc" 
 />
    <glyph glyph-name="Eacute.sc" 
 />
    <glyph glyph-name="Ebreve.sc" 
 />
    <glyph glyph-name="Ecircumflex.sc" 
 />
    <glyph glyph-name="Edieresis.sc" 
 />
    <glyph glyph-name="Egrave.sc" 
 />
    <glyph glyph-name="Emacron.sc" 
 />
    <glyph glyph-name="Eogonek.sc" 
 />
    <glyph glyph-name="N.sc" 
 />
    <glyph glyph-name="Nacute.sc" 
 />
    <glyph glyph-name="Ntilde.sc" 
 />
    <glyph glyph-name="a.sc" 
 />
    <glyph glyph-name="aogonek.sc" 
 />
    <glyph glyph-name="L.sc" 
 />
    <glyph glyph-name="Lacute.sc" 
 />
    <glyph glyph-name="s.sc" 
 />
    <glyph glyph-name="sacute.sc" 
 />
    <glyph glyph-name="aring.sc" 
 />
    <glyph glyph-name="aringacute.sc" 
 />
    <glyph glyph-name="C.sc" 
 />
    <glyph glyph-name="Cacute.sc" 
 />
    <glyph glyph-name="e.sc" 
 />
    <glyph glyph-name="eacute.sc" 
 />
    <glyph glyph-name="ebreve.sc" 
 />
    <glyph glyph-name="ecircumflex.sc" 
 />
    <glyph glyph-name="edieresis.sc" 
 />
    <glyph glyph-name="egrave.sc" 
 />
    <glyph glyph-name="emacron.sc" 
 />
    <glyph glyph-name="eogonek.sc" 
 />
    <glyph glyph-name="n.sc" 
 />
    <glyph glyph-name="nacute.sc" 
 />
    <glyph glyph-name="ntilde.sc" 
 />
    <glyph glyph-name="l.sc" 
 />
    <glyph glyph-name="lacute.sc" 
 />
    <glyph glyph-name="c.sc" 
 />
    <glyph glyph-name="cacute.sc" 
 />
    <glyph glyph-name="R.sc" 
 />
    <glyph glyph-name="Racute.sc" 
 />
    <glyph glyph-name="G.sc" 
 />
    <glyph glyph-name="Gbreve.sc" 
 />
    <glyph glyph-name="I.sc" 
 />
    <glyph glyph-name="Iacute.sc" 
 />
    <glyph glyph-name="Ibreve.sc" 
 />
    <glyph glyph-name="Icircumflex.sc" 
 />
    <glyph glyph-name="Idieresis.sc" 
 />
    <glyph glyph-name="Igrave.sc" 
 />
    <glyph glyph-name="Imacron.sc" 
 />
    <glyph glyph-name="Iogonek.sc" 
 />
    <glyph glyph-name="r.sc" 
 />
    <glyph glyph-name="racute.sc" 
 />
    <glyph glyph-name="A.sc" 
 />
    <glyph glyph-name="Aogonek.sc" 
 />
    </font>
</defs>
</svg>
