<?xml version="1.0" standalone="no"?>
<!DOCTYPE svg PUBLIC "-//W3C//DTD SVG 1.1//EN" "http://www.w3.org/Graphics/SVG/1.1/DTD/svg11.dtd" >
<svg xmlns="http://www.w3.org/2000/svg">
<metadata>
Created by FontPrep 20130207 at Sun Apr  5 22:22:42 2015
 By Tina Kumar
Copyright (C) 2000, 2007 Hoefler &#38; Frere-Jones. http://www.typography.com
</metadata>
<defs>
<font id="94aa0765f2554c0516671b49ff0b6d10" horiz-adv-x='1024' >
  <font-face 
    font-family="Archer-MediumItalic"
    font-weight="350"
    font-style="italic"
    font-stretch="normal"
    units-per-em="2048"
    panose-1="0 0 0 0 0 0 0 0 0 0"
    ascent="1638"
    descent="-410"
    x-height="872"
    cap-height="1348"
    bbox="-227 -569 2171 2189.04"
    underline-thickness="102"
    underline-position="-102"
    slope="-12"
    unicode-range="U+0020-FB04"
  />
<missing-glyph horiz-adv-x="1024" 
d="M512 492l-367 -799h734zM922 1384l-353 -770l353 -770v1540zM102 -156l353 770l-353 770v-1540zM145 1536l367 -799l367 799h-734zM0 -410v2048h1024v-2048h-1024z" />
    <glyph glyph-name="f_f" unicode="ff" horiz-adv-x="1198" 
d="M696 1466q72 0 113 -32t41 -80q0 -47 -28 -75t-69 -28q-40 0 -68 23t-30 61q-33 -6 -67 -37q-59 -59 -90 -200l-52 -226h414l68 291q41 170 131 258t221 88q76 1 120 -33t44 -82t-31 -77t-71 -29t-66 27t-31 67q-51 -6 -99 -52t-81 -185l-64 -273h230l-31 -124h-227
l-172 -748h-142l172 748h-413l-172 -748h-142l172 748h-155l31 124h153l57 248q40 170 128 258t206 88z" />
    <glyph glyph-name="fi" unicode="fi" horiz-adv-x="1142" 
d="M850 -14q-78 0 -124 45t-46 103t14 110l137 504h-413l-172 -748h-142l172 748h-155l31 124h153l60 256q35 139 100 226q106 156 295 155q96 0 151 -42t55 -95t-27 -83q-28 -29 -72 -29q-45 0 -71 28t-26 56t2 36l-31 2q-102 0 -166 -96q-53 -74 -75 -184l-54 -230h564
l-172 -634q-14 -45 -15 -86q0 -63 60 -64q63 0 118 137l72 -24q-70 -215 -223 -215z" />
    <glyph glyph-name="fl" unicode="fl" horiz-adv-x="1140" 
d="M516 1174l-70 -302h396l61 258q0 6 2 9q-67 25 -67 86t41 92q-43 65 -141 65t-160 -75q-46 -51 -62 -133zM756 1509q147 0 223 -112l61 102h88l-294 -1259q-14 -76 -15 -86q-1 -66 61 -66t117 137l72 -24q-70 -215 -221 -215q-80 0 -126 45t-46 119q0 18 14 90l121 508
h-393l-172 -748h-142l172 748h-155l31 124h153l76 324q23 102 80 172q109 141 295 141z" />
    <glyph glyph-name="f_f_i" unicode="ffi" horiz-adv-x="1697" 
d="M1407 -14q-80 0 -126 45t-46 119q0 33 16 94l138 504h-416l-172 -748h-142l175 748h-416l-172 -748h-142l172 748h-155l31 124h153l64 275q20 100 80 178q111 139 294 139q70 0 123 -30q54 -30 54 -82t-29 -80t-70 -29q-41 0 -67 28t-31 70q-92 -6 -154 -77
q-47 -49 -63 -134l-60 -258h416l60 256q35 143 98 226q111 156 297 155q96 0 151 -42q56 -42 56 -95t-29 -83q-29 -29 -73 -29t-70 28t-27 56q0 28 4 36l-31 2q-102 0 -165 -96q-51 -72 -78 -184l-54 -230h564l-172 -634q-14 -57 -15 -86q0 -63 60 -64q66 0 121 137l71 -24
q-72 -215 -223 -215z" />
    <glyph glyph-name="f_f_l" unicode="ffl" horiz-adv-x="1697" 
d="M1071 1174l-70 -302h396l61 258v5q2 4 2 6q-66 25 -66 86t42 90q-50 65 -144 65t-157 -75q-46 -51 -64 -133zM743 1464q70 0 123 -30q54 -30 54 -82t-29 -80t-70 -29q-41 0 -67 28t-31 70q-92 -6 -154 -77q-47 -49 -63 -134l-60 -258h414l76 324q27 102 80 172
q113 141 295 141q147 0 225 -112l61 102h86l-292 -1259q-14 -76 -15 -86q0 -66 62 -66t116 137l72 -24q-70 -215 -223 -215q-78 0 -124 45t-46 119q0 18 14 90l119 508h-393l-172 -748h-142l172 748h-413l-172 -748h-142l172 748h-155l31 124h153l64 275q20 100 80 178
q111 139 294 139z" />
    <glyph glyph-name="f_b" unicode="fb" horiz-adv-x="1662" 
d="M838 1224q0 62 41 93q-43 65 -141 65t-160 -75q-45 -51 -62 -133l-70 -302h396l61 258q0 6 2 9q-67 23 -67 85zM1098 111q137 1 231 121t94 278q0 116 -57 184t-158 68q-139 0 -241 -131t-103 -285q0 -106 62 -170t172 -65zM756 1509q147 0 223 -112l61 102h90l-186 -794
q127 184 303 184q145 0 237 -99t91 -262q0 -225 -139 -386t-326 -160q-104 0 -181 58t-100 153l-51 -193h-139l174 748h-395l-172 -748h-142l172 748h-155l31 124h153l76 324q23 102 80 172q109 141 295 141z" />
    <glyph glyph-name="f_h" unicode="fh" horiz-adv-x="1660" 
d="M838 1224q0 62 41 93q-43 65 -141 65t-160 -75q-45 -51 -62 -133l-70 -302h396l61 258q0 6 2 9q-67 23 -67 85zM756 1509q147 0 223 -112l61 102h88l-188 -811q123 199 293 199q104 0 174 -67t72 -171q0 -59 -21 -137l-78 -283q-12 -43 -12 -75t16 -48q16 -18 43 -18
q61 0 117 137l72 -24q-66 -215 -217 -215q-80 0 -127 45t-47 100t14 113l78 286q14 56 13 108t-41 89t-103 37q-94 0 -180 -85t-119 -235l-103 -444h-145l174 748h-395l-172 -748h-142l172 748h-155l31 124h153l76 324q23 102 80 172q109 141 295 141z" />
    <glyph glyph-name="f_j" unicode="fj" horiz-adv-x="1064" 
d="M446 -408q-66 0 -108 33t-43 78q0 45 29 72q28 27 66 27t65 -26t26 -59q51 10 84 52q55 66 94 235l172 744h-413l-172 -748h-142l172 748h-155l31 124h153l60 256q35 139 100 226q106 156 295 155q96 0 151 -42t55 -95t-27 -83q-28 -29 -72 -29q-45 0 -71 28t-26 56t2 36
l-31 2q-102 0 -166 -96q-53 -74 -75 -184l-54 -230h555l-202 -884q-53 -223 -144 -314q-86 -82 -209 -82z" />
    <glyph glyph-name="f_k" unicode="fk" horiz-adv-x="1544" 
d="M838 1224q0 62 41 93q-43 65 -141 65t-160 -75q-45 -51 -62 -133l-70 -302h396l61 258q0 6 2 9q-67 23 -67 85zM756 1509q147 0 223 -112l61 102h88l-245 -1055q365 150 426 252q-51 27 -51 79t30 83q31 31 76 31t76 -32t30 -85q0 -170 -362 -348l92 -219q33 -78 49 -96
t47 -19q55 0 97 160l73 -23q-51 -242 -196 -241q-131 0 -189 157l-100 238q-106 -45 -121 -51l-76 -330h-145l174 748h-395l-172 -748h-142l172 748h-155l31 124h153l76 324q23 102 80 172q109 141 295 141z" />
    <glyph glyph-name="f_f_b" unicode="ffb" horiz-adv-x="2220" 
d="M1493 1219q-2 0 -6 -2h-4q-2 -4 -2 -11q2 9 12 13zM1300 1382q-102 0 -165 -75q-45 -51 -64 -133l-70 -302h396l61 258q8 47 10 66v10q-6 12 -2 23q-8 73 -54 113t-112 40zM1668 111q124 -1 218 121t94 278q0 116 -57 184t-160 68q-137 0 -239 -131t-103 -285
q-1 -106 61 -170t186 -65zM743 1464q70 0 123 -30q54 -30 54 -82t-29 -80t-70 -29q-41 0 -67 28t-31 70q-92 -6 -154 -77q-47 -49 -63 -134l-60 -258h414l76 324q27 102 80 172q113 141 295 141q147 0 225 -112l61 102h89l-185 -794q127 184 301 184q146 0 238 -99t92 -262
q0 -225 -139 -386t-326 -160q-106 0 -183 58t-100 155l-51 -195h-137l172 748h-395l-172 -748h-142l172 748h-413l-172 -748h-142l172 748h-155l31 124h153l64 275q20 100 80 178q111 139 294 139z" />
    <glyph glyph-name="f_f_h" unicode="ffh" horiz-adv-x="2215" 
d="M1395 1226q0 62 41 91q-50 65 -144 65t-157 -75q-45 -51 -64 -133l-70 -302h396l61 258v5q2 4 2 6q-65 23 -65 85zM743 1464q70 0 123 -30q54 -30 54 -82t-29 -80t-70 -29q-41 0 -67 28t-31 70q-92 -6 -154 -77q-47 -49 -63 -134l-60 -258h414l76 324q27 102 80 172
q113 141 295 141q147 0 225 -112l61 102h89l-189 -807q127 195 291 195q106 0 176 -67t72 -171q0 -63 -23 -137l-76 -283q-12 -43 -12 -75q1 -32 17 -48q16 -18 43 -18q63 0 114 137l72 -24q-66 -215 -215 -215q-80 0 -127 45t-47 100t14 113l78 286q14 56 13 108t-41 89
t-103 37q-94 0 -180 -85t-121 -235l-103 -444h-143l172 748h-395l-172 -748h-142l172 748h-413l-172 -748h-142l172 748h-155l31 124h153l64 275q20 100 80 178q111 139 294 139z" />
    <glyph glyph-name="f_f_j" unicode="ffj" horiz-adv-x="1622" 
d="M1004 -408q-66 0 -109 33t-43 78t28 72t66 27t65 -26q28 -26 27 -59q47 10 84 52q55 66 95 235l172 744h-416l-172 -748h-142l175 748h-416l-172 -748h-142l172 748h-155l31 124h153l64 275q20 100 80 178q111 139 294 139q70 0 123 -30q54 -30 54 -82t-29 -80t-70 -29
q-41 0 -67 28t-31 70q-92 -6 -154 -77q-47 -49 -63 -134l-60 -258h416l60 256q35 143 98 226q111 156 297 155q96 0 151 -42q56 -42 56 -95t-29 -83q-29 -29 -73 -29t-70 28t-27 56q0 28 4 36l-31 2q-102 0 -165 -96q-51 -72 -78 -184l-54 -230h558l-205 -884
q-50 -220 -138 -308t-212 -88z" />
    <glyph glyph-name="f_f_k" unicode="ffk" horiz-adv-x="2101" 
d="M1395 1226q0 62 41 91q-50 65 -144 65t-157 -75q-45 -51 -64 -133l-70 -302h396l61 258v5q2 4 2 6q-65 23 -65 85zM743 1464q70 0 123 -30q54 -30 54 -82t-29 -80t-70 -29q-41 0 -67 28t-31 70q-92 -6 -154 -77q-47 -49 -63 -134l-60 -258h414l76 324q27 102 80 172
q113 141 295 141q147 0 225 -112l61 102h89l-246 -1055q360 147 426 252q-51 27 -51 79t30 83q31 31 76 31t75 -32t29 -85q0 -90 -98 -180t-262 -168l92 -219q27 -70 46 -92t48 -23q57 0 97 160l75 -23q-53 -242 -196 -241q-68 0 -113 39t-78 118l-98 238l-121 -51l-78 -330
h-143l172 748h-395l-172 -748h-142l172 748h-413l-172 -748h-142l172 748h-155l31 124h153l64 275q20 100 80 178q111 139 294 139z" />
    <glyph glyph-name=".notdef" horiz-adv-x="1024" 
d="M512 492l-367 -799h734zM922 1384l-353 -770l353 -770v1540zM102 -156l353 770l-353 770v-1540zM145 1536l367 -799l367 799h-734zM0 -410v2048h1024v-2048h-1024z" />
    <glyph glyph-name=".null" 
 />
    <glyph glyph-name="nonmarkingreturn" horiz-adv-x="681" 
 />
    <glyph glyph-name="space" unicode=" " horiz-adv-x="428" 
 />
    <glyph glyph-name="exclam" unicode="!" horiz-adv-x="501" 
d="M201 -16q-49 0 -84 34t-35 84q0 49 35 85t84 36t83 -36t34 -85t-34 -84q-34 -34 -83 -34zM215 358l158 988h182l-270 -988h-70z" />
    <glyph glyph-name="quotedbl" unicode="&#x22;" horiz-adv-x="673" 
d="M340 1372q41 0 69 -28q47 -47 13 -125l-174 -359h-58l43 397q6 55 36 85t71 30zM658 1372q40 0 68 -28t28 -60q0 -33 -15 -65l-174 -359h-57l43 397q6 55 36 85q31 30 71 30z" />
    <glyph glyph-name="numbersign" unicode="#" horiz-adv-x="1120" 
d="M481 672l-80 -291h269l80 291h-269zM152 668l28 120h211l70 252h127l-70 -252h262l70 252h129l-70 -252h191l-31 -120h-195l-77 -285h207l-29 -121h-213l-72 -262h-129l72 262h-260l-72 -262h-129l72 262h-189l31 121h193l77 285h-204z" />
    <glyph glyph-name="dollar" unicode="$" horiz-adv-x="989" 
d="M362 770q0 -78 142 -149q14 51 52 172t42 137h-12q-98 0 -161 -41t-63 -119zM475 109q102 1 170 43t68 108t-42 106t-120 76l-100 -333h24zM59 239q0 60 29 94t72 34q44 0 70 -28t26 -68t-39 -74q35 -47 137 -74q57 197 109 360q-78 35 -124 64t-86 85t-40 128
q0 119 106 203t271 84q14 0 41 -3l41 142l106 -29l-41 -131q97 -29 159 -86q62 -58 62 -118t-28 -91t-70 -31t-68 27t-26 68t33 75q-25 29 -105 48l-102 -338q117 -59 172 -103q100 -79 98 -186q0 -133 -108 -216t-271 -83q-23 0 -63 4l-64 -213l-104 29l61 204
q-111 33 -183 98t-71 125z" />
    <glyph glyph-name="percent" unicode="%" horiz-adv-x="1288" 
d="M922 -16q-106 0 -162 60q-58 60 -58 165t79 193t185 87q106 0 162 -60q58 -60 58 -165q0 -104 -79 -192t-185 -88zM356 553q-104 0 -161 61t-57 165t78 192t184 88q106 -1 163 -61t57 -164t-79 -193q-81 -88 -185 -88zM244 780q0 -136 113 -135q57 1 107 61t50 126
t-30 101q-30 34 -84 34q-54 1 -106 -59q-50 -60 -50 -128zM143 -12l-63 73q410 357 751 671q340 314 361 333l63 -74q-133 -113 -511 -453t-601 -550zM809 210q0 -134 115 -134q55 0 105 60t50 126q0 136 -114 136q-55 0 -105 -61t-51 -127z" />
    <glyph glyph-name="ampersand" unicode="&#x26;" horiz-adv-x="1249" 
d="M510 748q297 129 297 268q0 71 -42 114q-42 44 -121 44t-134 -68t-55 -168t55 -190zM379 100q170 0 332 193l-172 211q-37 45 -84 106q-143 -68 -212 -140t-69 -166q0 -96 54 -150t151 -54zM23 283q0 264 368 422q-74 123 -74 255q-1 132 99 232q100 98 236 98t216 -76
t80 -192t-97 -201q-97 -86 -280 -166q4 -6 68 -84l154 -184q92 131 161 190q70 58 142 58t110 -34q37 -34 37 -78q0 -43 -30 -73t-70 -30q-70 0 -92 67q-37 -9 -89 -76l-21 -27q-26 -34 -42 -56t-25 -33l203 -238l-96 -84l-188 228q-199 -227 -428 -228q-156 1 -249 89
t-93 221z" />
    <glyph glyph-name="quotesingle" unicode="'" horiz-adv-x="358" 
d="M340 1372q41 0 69 -28q47 -47 13 -125l-174 -359h-58l43 397q6 55 36 85t71 30z" />
    <glyph glyph-name="parenleft" unicode="(" horiz-adv-x="747" 
d="M305 379q0 -217 91 -407t253 -332l-80 -93q-190 154 -303 366t-112 468q0 379 208 686q209 307 549 471l58 -106q-309 -162 -487 -443t-177 -610z" />
    <glyph glyph-name="parenright" unicode=")" horiz-adv-x="765" 
d="M688 702q0 -379 -209 -685t-549 -470l-59 105q311 162 487 442t177 611q0 434 -342 739l77 94q190 -154 304 -367t114 -469z" />
    <glyph glyph-name="asterisk" unicode="*" horiz-adv-x="829" 
d="M661 758q-28 0 -51 24t-28 58l-41 209l-117 -177q-35 -47 -73 -47q-38 1 -58 21q-21 20 -21 60t56 71l184 104l-203 62q-76 20 -76 80q0 31 22 53q52 51 124 -12l156 -142l-5 211q-2 45 20 73t60 28t60 -35q20 -35 -4 -94l-88 -191l200 66q18 8 48 8t52 -20t22 -57
q0 -36 -32 -56q-31 -20 -77 -13l-207 25l127 -170q25 -35 25 -67t-24 -52q-23 -20 -51 -20z" />
    <glyph glyph-name="plus" unicode="+" horiz-adv-x="858" 
d="M602 887l-63 -271h276l-29 -124h-276l-70 -299h-129l70 299h-277l31 124h275l63 271h129z" />
    <glyph glyph-name="comma" unicode="," horiz-adv-x="421" 
d="M41 126q0 42 36 79t90 37t91 -40t37 -104q1 -108 -101 -218t-282 -173l-31 60q115 57 178 125t70 112q-41 12 -65 46t-23 76z" />
    <glyph glyph-name="hyphen" unicode="-" horiz-adv-x="598" 
d="M84 498l35 143h436l-31 -143h-440z" />
    <glyph glyph-name="period" unicode="." horiz-adv-x="421" 
d="M167 -16q-52 0 -89 38t-37 91t37 91t89 38t89 -38t37 -91t-37 -91t-89 -38z" />
    <glyph glyph-name="slash" unicode="/" horiz-adv-x="772" 
d="M-82 -428l-117 66l1059 1880l117 -66z" />
    <glyph glyph-name="zero" unicode="0" horiz-adv-x="1163" 
d="M553 111q168 0 281 141t112 334q0 147 -83 244t-208 98q-169 0 -281 -142t-112 -335q0 -145 83 -243t208 -97zM551 -16q-201 0 -320 133t-118 332q1 241 157 423t389 183q199 0 319 -135t120 -332q0 -240 -157 -422t-390 -182z" />
    <glyph glyph-name="one" unicode="1" horiz-adv-x="800" 
d="M12 0l27 123h246l176 766l-232 -58l-4 130l353 90l59 -27l-209 -901h244l-29 -123h-631z" />
    <glyph glyph-name="two" unicode="2" horiz-adv-x="1021" 
d="M815 772q0 72 -62 116t-190 44t-205 -82q41 -23 41 -70q-1 -47 -29 -77q-28 -29 -70 -29t-74 32t-31 78q0 104 114 189q115 84 283 84t270 -79t102 -201t-119 -210q-120 -88 -287 -166q-167 -77 -250 -137t-132 -143h541l41 176h127l-70 -297h-797l-18 82q61 140 191 240
q131 100 303 182t246 139t75 129z" />
    <glyph glyph-name="three" unicode="3" horiz-adv-x="1001" 
d="M406 -258q-178 0 -301 82q-124 82 -123 199q0 53 30 88q31 35 75 35t71 -28q51 -50 10 -113q-16 -26 -41 -34q18 -39 90 -71q73 -32 193 -33q120 0 204 73q84 72 84 180t-89 178t-232 69h-45l28 120h48q176 0 286 70t111 182q0 89 -68 141q-67 52 -195 52t-198 -62
q47 -28 47 -70t-29 -70q-30 -28 -70 -28t-71 31t-31 80q0 98 112 171t274 73t270 -86q106 -86 106 -218t-95 -218t-261 -115q123 -41 186 -121t64 -180q0 -157 -131 -267t-309 -110z" />
    <glyph glyph-name="four" unicode="4" horiz-adv-x="1110" 
d="M860 586l-80 -346h228l-29 -121h-225l-84 -365h-144l84 365h-587l-15 61l850 883l94 -84l-710 -739h395l68 290z" />
    <glyph glyph-name="five" unicode="5" horiz-adv-x="1001" 
d="M367 -252q-154 0 -261 70q-106 70 -106 159q0 49 31 83t73 34t73 -28q30 -28 30 -69q0 -42 -31 -63q51 -59 200 -59t246 93q97 92 97 216t-75 185t-197 61t-232 -57l-74 49l205 618h635l-31 -135h-522l-125 -383q76 35 186 35q165 0 271 -95t106 -267q0 -171 -144 -309
t-355 -138z" />
    <glyph glyph-name="six" unicode="6" horiz-adv-x="1095" 
d="M260 376q0 -120 68 -188q72 -78 202 -78t228 101q96 100 96 223t-66 191q-66 67 -198 67t-230 -98q-100 -98 -100 -218zM988 991q-44 0 -73 27q-29 26 -29 66t29 63q-43 43 -145 43q-152 0 -278 -121q-78 -74 -142 -198t-88 -255q54 82 150 142t223 59q166 0 267 -102
q102 -102 102 -275q0 -172 -142 -314t-328 -142q-188 0 -304 115q-116 116 -116 327t79 409q78 198 219 328q164 147 368 148q129 -1 219 -61t91 -144q0 -49 -29 -82t-73 -33z" />
    <glyph glyph-name="seven" unicode="7" horiz-adv-x="999" 
d="M190 -252l-114 74l764 1100h-529l-51 -205h-133l76 323h803l32 -63z" />
    <glyph glyph-name="eight" unicode="8" horiz-adv-x="1044" 
d="M227 341q-1 -105 75 -169t199 -63q123 0 209 76q85 77 85 183t-76 174q-76 66 -198 66t-208 -81t-86 -186zM385 944q1 -98 65 -160t174 -63q110 0 189 72q80 72 80 171t-66 160q-65 62 -177 62t-188 -72t-77 -170zM494 -16q-184 0 -298 99q-112 99 -112 237t87 231
q87 94 232 133q-162 92 -161 268q0 141 122 249t292 108q170 -1 276 -95q104 -94 104 -225t-76 -219t-208 -125q190 -96 190 -285q0 -152 -132 -264t-316 -112z" />
    <glyph glyph-name="nine" unicode="9" horiz-adv-x="1095" 
d="M872 664q0 119 -65 190q-76 76 -205 76t-226 -100t-97 -223q-1 -121 65 -189t198 -68t231 97q99 98 99 217zM356 -258q-129 0 -219 60t-90 145q0 49 29 82t73 33q45 0 73 -28q28 -26 28 -66t-29 -62q47 -43 150 -43q141 0 270 117q80 74 143 198t86 250
q-51 -82 -148 -142q-98 -60 -244 -60t-248 100q-102 102 -101 258q0 192 141 332q140 140 330 140t304 -115q114 -116 114 -327t-72 -395t-192 -305q-173 -172 -398 -172z" />
    <glyph glyph-name="colon" unicode=":" horiz-adv-x="473" 
d="M193 -16q-51 0 -89 36q-36 36 -36 90t36 91t88 37t89 -37t37 -90t-37 -91q-37 -36 -88 -36zM315 522q-51 0 -88 37t-37 90t36 90t89 37t89 -37t36 -90t-37 -90t-88 -37z" />
    <glyph glyph-name="semicolon" unicode=";" horiz-adv-x="473" 
d="M191 238q53 0 91 -40t37 -102q0 -106 -100 -215t-280 -172l-31 60q115 57 178 123t70 112q-41 12 -65 46q-23 34 -23 75t35 77q36 36 88 36zM315 522q-51 0 -88 37t-37 90t36 90t89 37t89 -37t36 -90t-37 -90t-88 -37z" />
    <glyph glyph-name="less" unicode="&#x3c;" horiz-adv-x="872" 
d="M549 162l-436 348l16 68l586 342l61 -99l-493 -289l346 -276z" />
    <glyph glyph-name="equal" unicode="=" horiz-adv-x="858" 
d="M104 313l29 127h612l-28 -127h-613zM182 641l29 127h612l-28 -127h-613z" />
    <glyph glyph-name="greater" unicode="&#x3e;" horiz-adv-x="837" 
d="M178 168l-63 96l493 289l-346 278l80 95l436 -348l-16 -68z" />
    <glyph glyph-name="question" unicode="?" horiz-adv-x="925" 
d="M264 -16q-49 0 -84 34t-35 84q0 49 35 85t84 36t83 -36t34 -85q0 -50 -34 -84t-83 -34zM840 1030q0 100 -68 154t-161 55q-93 0 -151 -27t-73 -61q51 -31 51 -78t-30 -76t-74 -29q-43 0 -74 34t-31 85q0 117 118 201q117 84 273 84t265 -91t109 -254t-146 -294
q-145 -131 -404 -160l-77 -213h-97l58 324q254 10 383 110t129 236z" />
    <glyph glyph-name="at" unicode="@" horiz-adv-x="1648" 
d="M758 195q106 0 183 94q77 95 77 195q0 192 -170 192q-102 0 -174 -91t-72 -214q0 -80 40 -128t116 -48zM977 246q-97 -172 -285 -172q-96 0 -167 78t-70 206q0 178 111 311q112 132 263 132q89 0 145 -47t77 -121l45 160h131l-115 -459q-45 -162 72 -162q116 0 200 146
t84 352t-136 348t-365 141q-322 0 -551 -262t-230 -635q0 -229 140 -383t366 -153q174 0 328 81l39 -73q-170 -94 -369 -94q-266 0 -432 176t-166 448q0 408 259 694t616 287q270 0 433 -162t163 -416q0 -253 -116 -423t-282 -170q-94 0 -143 50t-45 122z" />
    <glyph glyph-name="A" unicode="A" horiz-adv-x="1443" 
d="M530 596h453l-80 629zM-55 0l32 135h123l643 1079h-159l30 134h619l-31 -134h-153l143 -1079h143l-32 -135h-441l31 133h149l-41 332h-548l-197 -332h178l-33 -133h-456z" />
    <glyph glyph-name="B" unicode="B" horiz-adv-x="1228" 
d="M590 133q199 0 299 100q65 63 65 165t-88 168q-88 65 -250 65h-149l-115 -498h238zM653 756q180 0 288 68t108 187q0 118 -105 169q-74 35 -192 34h-150l-106 -458h157zM774 1348q168 0 275 -58q156 -86 155 -260q0 -133 -96 -227t-244 -117q106 -28 177 -106t71 -183
q0 -160 -119 -266q-143 -131 -424 -131h-563l33 135h162l250 1077h-183l31 136h475z" />
    <glyph glyph-name="C" unicode="C" horiz-adv-x="1404" 
d="M725 -25q-246 0 -412 160t-166 434q-1 324 225 564t537 239q217 0 351 -107q133 -108 133 -223q0 -66 -36 -108t-86 -41q-50 0 -80 30q-30 29 -30 81t60 88q-17 55 -103 99t-215 44q-252 0 -425 -201t-173 -435t119 -359t315 -125q229 0 422 188l90 -94
q-227 -234 -526 -234z" />
    <glyph glyph-name="D" unicode="D" horiz-adv-x="1449" 
d="M514 135q365 0 561 201q176 174 176 444q0 182 -108 287q-141 145 -430 145h-111l-250 -1077h162zM727 1348q354 0 543 -189q141 -145 141 -373q0 -319 -211 -530q-254 -256 -711 -256h-483l33 135h162l250 1077h-183l31 136h428z" />
    <glyph glyph-name="E" unicode="E" horiz-adv-x="1193" 
d="M6 0l33 135h162l250 1077h-183l31 136h981l-80 -330h-145l45 196h-498l-106 -462h432l-29 -131h-434l-113 -488h500l47 197h145l-75 -330h-963z" />
    <glyph glyph-name="F" unicode="F" horiz-adv-x="1150" 
d="M6 0l33 135h162l250 1077h-183l31 136h963l-78 -330h-148l47 196h-481l-113 -487h422l-30 -131h-422l-107 -461h199l-33 -135h-512z" />
    <glyph glyph-name="G" unicode="G" horiz-adv-x="1470" 
d="M946 1370q258 0 404 -137q78 -77 78 -151t-36 -112t-85 -38t-79 29t-30 77t53 86q-6 10 -26 31q-99 78 -283 78t-332 -100q-148 -99 -226 -259q-79 -160 -79 -344t108 -300t287 -115q225 0 404 137l67 274h-376l30 129h527l-156 -655h-133l22 131q-188 -151 -415 -151
t-376 151q-148 152 -149 399q-1 338 233 589t568 251z" />
    <glyph glyph-name="H" unicode="H" horiz-adv-x="1570" 
d="M6 0l33 135h162l250 1077h-183l31 136h500l-31 -136h-166l-104 -454h731l102 454h-186l33 136h499l-30 -136h-162l-250 -1077h182l-33 -135h-499l30 135h166l117 488h-733l-113 -488h187l-31 -135h-502z" />
    <glyph glyph-name="I" unicode="I" horiz-adv-x="722" 
d="M6 0l33 135h180l248 1077h-186l30 136h518l-30 -136h-181l-247 -1077h186l-33 -135h-518z" />
    <glyph glyph-name="J" unicode="J" horiz-adv-x="1146" 
d="M418 -23q-152 1 -260 89t-109 231q0 76 43 125q44 49 96 49t80 -28q28 -27 29 -67q0 -40 -28 -69t-74 -28q-5 -72 61 -119t172 -47q145 0 229 106q68 84 105 248l170 745h-227l32 136h539l-33 -136h-160l-178 -768q-47 -207 -141 -321q-127 -146 -346 -146z" />
    <glyph glyph-name="K" unicode="K" horiz-adv-x="1345" 
d="M1313 1212l-539 -454l297 -623h184l-30 -135h-262l-308 666l-223 -189l-80 -342h187l-33 -135h-500l33 135h162l250 1077h-183l31 136h492l-31 -134h-158l-131 -567l655 567h-174l29 134h510l-31 -136h-147z" />
    <glyph glyph-name="L" unicode="L" horiz-adv-x="1124" 
d="M6 0l33 135h162l250 1077h-183l31 136h512l-31 -136h-178l-250 -1079h459l49 207h146l-78 -340h-922z" />
    <glyph glyph-name="M" unicode="M" horiz-adv-x="1771" 
d="M0 0l33 135h162l299 1077h-187l31 136h319l226 -922l641 922h323l-30 -136h-168l-201 -1077h186l-32 -135h-496l31 135h161l185 942l-635 -901h-27l-229 901l-248 -942h182l-30 -135h-496z" />
    <glyph glyph-name="N" unicode="N" horiz-adv-x="1540" 
d="M1122 -6l-553 1100l-221 -959h187l-31 -135h-498l33 135h162l250 1077h-183l31 136h309l518 -1031l207 895h-188l33 136h489l-31 -136h-157l-281 -1218h-76z" />
    <glyph glyph-name="O" unicode="O" horiz-adv-x="1499" 
d="M727 115q242 0 411 208t169 468q0 190 -110 316t-314 126q-242 0 -411 -208t-169 -468q-1 -190 109 -316t315 -126zM715 -25q-264 0 -417 163t-153 417q0 150 58 296q122 314 393 449q141 72 299 72q264 0 417 -163t152 -416q0 -150 -57 -296q-123 -314 -393 -450
q-141 -72 -299 -72z" />
    <glyph glyph-name="P" unicode="P" horiz-adv-x="1153" 
d="M657 618q183 0 285 100t102 245q0 184 -188 235q-55 14 -131 14h-123l-135 -587q71 -7 190 -7zM741 1348q100 0 170 -21q141 -37 214 -131t73 -223q0 -205 -152 -346t-409 -142q-119 0 -201 4l-84 -354h187l-31 -135h-502l33 135h162l250 1077h-183l31 136h442z" />
    <glyph glyph-name="Q" unicode="Q" horiz-adv-x="1499" 
d="M727 115q242 0 411 208t169 468q0 190 -110 316t-314 126q-242 0 -411 -208t-169 -468q-1 -190 109 -316t315 -126zM895 1372q265 0 417 -162t152 -430q0 -266 -178 -504t-448 -288q44 -74 120 -118t158 -44t150 37l47 -121q-98 -49 -195 -49q-143 0 -262 79t-188 205
q-244 13 -383 175t-140 403q0 150 58 296q122 314 393 449q141 72 299 72z" />
    <glyph glyph-name="R" unicode="R" horiz-adv-x="1234" 
d="M649 678q182 0 289 84q106 84 106 217q0 92 -61 154q-80 80 -274 79h-107l-123 -528q70 -6 170 -6zM713 1348q266 0 393 -123q92 -92 92 -242q0 -151 -102 -263t-283 -153l205 -432h158l-31 -135h-236l-245 549q-23 -2 -75 -2t-138 4l-99 -416h185l-33 -135h-498l33 135
h162l250 1077h-183l31 136h414z" />
    <glyph glyph-name="S" unicode="S" horiz-adv-x="1128" 
d="M1004 356q0 -164 -129 -272t-325 -107q-196 -1 -332 97t-136 211q0 61 35 101t84 40t79 -31t29 -69q0 -63 -57 -103q35 -47 115 -80q79 -33 195 -33t200 66t84 158t-58 150t-194 137t-216 166t-81 228q0 141 123 249t303 106q180 0 301 -83t121 -189q0 -64 -35 -102
t-82 -38t-77 31q-29 31 -29 79t51 85q-72 84 -244 84q-123 0 -199 -63q-76 -62 -76 -152t59 -148t197 -139q138 -82 216 -167t78 -212z" />
    <glyph glyph-name="T" unicode="T" horiz-adv-x="1284" 
d="M295 0l31 135h174l248 1079h-334l-49 -213h-146l80 347h1112l-80 -347h-145l49 213h-334l-250 -1079h195l-33 -135h-518z" />
    <glyph glyph-name="U" unicode="U" horiz-adv-x="1462" 
d="M684 -23q-206 0 -320 108t-114 288q0 66 20 162l158 677h-180l31 136h497l-31 -136h-165l-158 -686q-18 -92 -19 -143q0 -127 73 -199q74 -72 224 -72t244 92q94 91 129 247l174 761h-186l31 136h497l-30 -136h-162l-178 -780q-105 -455 -535 -455z" />
    <glyph glyph-name="V" unicode="V" horiz-adv-x="1404" 
d="M553 -20l-205 1232h-143l33 136h446l-31 -136h-143l145 -981l590 981h-158l31 136h453l-33 -136h-123l-774 -1232h-88z" />
    <glyph glyph-name="W" unicode="W" horiz-adv-x="1937" 
d="M438 -18l-67 1230h-144l31 136h457l-31 -136h-168l33 -948l528 922h70l133 -926l481 952h-164l33 136h455l-31 -136h-133l-643 -1230h-82l-141 905l-535 -905h-82z" />
    <glyph glyph-name="X" unicode="X" horiz-adv-x="1454" 
d="M-29 0l31 135h150l555 565l-269 512h-168l31 136h502l-31 -136h-162l199 -428l401 428h-163l32 136h506l-33 -136h-155l-523 -532l289 -545h164l-33 -135h-495l30 135h168l-223 465l-438 -465h174l-33 -135h-506z" />
    <glyph glyph-name="Y" unicode="Y" horiz-adv-x="1292" 
d="M254 0l33 135h182l100 408l-233 669h-141l32 136h451l-29 -136h-155l180 -555l450 555h-151l33 136h462l-30 -136h-135l-590 -698l-90 -379h190l-29 -135h-530z" />
    <glyph glyph-name="Z" unicode="Z" horiz-adv-x="1255" 
d="M29 0l-9 74l1084 1147h-649l-49 -213h-144l78 340h993l8 -74l-1083 -1147h682l49 213h144l-80 -340h-1024z" />
    <glyph glyph-name="bracketleft" unicode="[" horiz-adv-x="698" 
d="M12 -410l445 1909h469l-29 -127h-324l-387 -1655h324l-29 -127h-469z" />
    <glyph glyph-name="backslash" unicode="\" horiz-adv-x="636" 
d="M358 -412l-133 1905l131 10l136 -1902z" />
    <glyph glyph-name="bracketright" unicode="]" horiz-adv-x="698" 
d="M-180 -410l30 127h324l387 1655h-325l30 127h467l-442 -1909h-471z" />
    <glyph glyph-name="asciicircum" unicode="^" horiz-adv-x="907" 
d="M270 735l-59 78l385 301l233 -313l-71 -64l-193 181z" />
    <glyph glyph-name="underscore" unicode="_" horiz-adv-x="1056" 
d="M-115 -303l35 137h1108l-31 -137h-1112z" />
    <glyph glyph-name="grave" unicode="`" horiz-adv-x="1130" 
d="M520 1283q0 42 26 68q26 25 68 25t86 -65l160 -252l-47 -39l-240 178q-53 43 -53 85z" />
    <glyph glyph-name="a" unicode="a" horiz-adv-x="1146" 
d="M442 109q143 0 242 130q98 130 98 285q0 110 -57 174t-162 64q-139 0 -232 -125t-93 -289q0 -111 53 -175t151 -64zM395 -16q-137 0 -223 96t-86 258q0 223 137 387t326 164q104 -1 178 -61t94 -156l56 207h137l-158 -641q-14 -61 -14 -86q0 -63 57 -64q61 0 117 137
l71 -24q-70 -215 -219 -215q-74 0 -118 44t-43 115v21q-136 -182 -312 -182z" />
    <glyph glyph-name="b" unicode="b" horiz-adv-x="1081" 
d="M516 111q137 0 232 120q94 121 94 279q0 116 -56 184t-159 68q-139 0 -241 -130t-101 -286q0 -106 61 -170t170 -65zM666 889q147 0 237 -99t90 -262q0 -225 -138 -386t-325 -160q-106 0 -183 58t-99 155l-51 -195h-138l320 1376h-166l31 123h305l-187 -794
q127 184 304 184z" />
    <glyph glyph-name="c" unicode="c" horiz-adv-x="950" 
d="M476 -16q-168 0 -280 102t-112 274q0 209 148 369t352 160q143 0 229 -72t86 -162q0 -51 -31 -87q-32 -36 -72 -36t-67 25t-27 71t41 70q-49 66 -175 66t-232 -116t-107 -279q0 -117 72 -189t193 -71q158 0 290 114l-4 -139q-135 -100 -304 -100z" />
    <glyph glyph-name="d" unicode="d" horiz-adv-x="1150" 
d="M451 109q141 0 238 128t97 285q0 112 -59 176t-166 64q-137 0 -229 -124t-92 -288q0 -111 56 -176t155 -65zM88 338q0 227 136 389t321 162q102 1 178 -59t98 -152l164 698h-166l31 123h307l-295 -1261q-16 -59 -16 -86q0 -63 57 -64q63 0 119 137l72 -24
q-70 -215 -222 -215q-74 0 -116 45t-43 119v18q-133 -184 -312 -184q-137 0 -225 97t-88 257z" />
    <glyph glyph-name="e" unicode="e" horiz-adv-x="974" 
d="M558 764q-101 0 -186 -73t-124 -187h502q14 38 14 100t-52 111q-53 49 -154 49zM223 350q0 -112 80 -178t208 -66t280 80l-31 -139q-129 -63 -289 -63q-161 0 -275 99t-114 269q0 219 143 378t340 159q152 0 243 -86t91 -234q0 -84 -33 -176h-641q-2 -14 -2 -43z" />
    <glyph glyph-name="f" unicode="f" horiz-adv-x="641" 
d="M727 1509q74 1 117 -33t43 -82t-30 -77t-70 -29q-41 0 -69 27t-30 69q-51 -10 -86 -45q-59 -59 -94 -200l-62 -267h228l-31 -124h-225l-172 -748h-142l172 748h-155l31 124h153l66 285q37 166 129 259t227 93z" />
    <glyph glyph-name="g" unicode="g" horiz-adv-x="1081" 
d="M465 131q141 0 235 121t95 276q1 109 -61 171t-169 63q-139 0 -232 -116t-93 -277q0 -109 62 -173t163 -65zM371 -410q-86 0 -172 30t-127 69q-47 49 -47 99t27 81q28 31 73 31t72 -30t27 -66t-17 -58q59 -39 176 -39t190 73t109 226l41 176q-115 -176 -305 -176
q-147 0 -239 96q-91 96 -91 258q0 219 136 374t331 155q111 -1 183 -61t96 -150l53 201h137l-209 -899q-45 -190 -133 -277q-110 -113 -311 -113z" />
    <glyph glyph-name="h" unicode="h" horiz-adv-x="1079" 
d="M651 887q106 0 176 -67t72 -171q0 -63 -22 -137l-76 -283q-26 -92 4 -124q16 -17 43 -17q63 0 115 137l71 -24q-66 -215 -215 -215q-80 0 -127 45t-47 100t14 113l78 286q13 56 13 108t-40 89t-104 37q-94 0 -180 -85t-121 -235l-102 -444h-144l320 1376h-166l31 123h305
l-189 -807q127 195 291 195z" />
    <glyph glyph-name="i" unicode="i" horiz-adv-x="604" 
d="M305 -14q-80 0 -126 45t-46 119q0 33 17 94l137 504h-170l33 124h313l-172 -634q-14 -57 -15 -86q0 -64 64 -64t115 137l71 -24q-69 -215 -221 -215zM520 1145q0 -43 -30 -74t-73 -31q-42 0 -73 31t-31 74t31 74t73 31q43 0 73 -32q30 -30 30 -73z" />
    <glyph glyph-name="j" unicode="j" horiz-adv-x="542" 
d="M434 1040q-43 0 -73 31t-29 74q0 43 29 74q30 31 73 31t73 -32q30 -30 30 -73t-30 -74t-73 -31zM-76 -408q-66 0 -108 33t-43 78q0 45 28 72q29 27 67 27t64 -26t27 -59q47 10 84 52q55 66 94 235l172 744h-176l33 124h313l-203 -884q-53 -223 -143 -314
q-86 -82 -209 -82z" />
    <glyph glyph-name="k" unicode="k" horiz-adv-x="964" 
d="M678 775q0 52 31 83t75 31t75 -32q30 -32 30 -85q0 -90 -98 -180t-263 -168l93 -219q27 -70 46 -92t48 -23q57 0 96 160l76 -23q-53 -242 -197 -241q-68 0 -113 39t-77 118l-99 238q-70 -31 -120 -51l-78 -330h-144l320 1376h-166l31 123h305l-246 -1055q360 147 426 252
q-51 27 -51 79z" />
    <glyph glyph-name="l" unicode="l" horiz-adv-x="569" 
d="M276 -14q-78 0 -124 45t-46 119q0 33 15 90l264 1136h-164l31 123h305l-293 -1259q-14 -76 -14 -86q0 -66 57 -66q66 0 121 137l72 -24q-70 -215 -224 -215z" />
    <glyph glyph-name="m" unicode="m" horiz-adv-x="1619" 
d="M684 887q98 1 160 -59t65 -160q133 219 303 219q98 0 163 -67t65 -171q0 -63 -23 -137l-82 -283q-12 -53 -12 -79t16 -44t43 -18q61 0 117 137l72 -24q-68 -215 -219 -215q-78 0 -125 45t-47 105t16 110l80 280q16 66 16 116t-35 86t-92 36q-88 0 -171 -86t-122 -240
l-112 -438h-144l136 524q16 70 16 118t-36 85t-93 37q-88 0 -173 -86t-122 -238l-111 -440h-143l189 748h-164l30 124h291l-51 -206q135 221 299 221z" />
    <glyph glyph-name="n" unicode="n" horiz-adv-x="1114" 
d="M846 -14q-78 0 -125 45t-47 105t16 110l82 284q14 54 14 108t-38 90q-39 36 -103 36q-92 0 -177 -85t-122 -235l-113 -444h-143l189 748h-164l30 124h291l-49 -206q131 221 307 221q104 0 172 -67t68 -171q0 -63 -23 -137l-80 -283q-14 -47 -14 -77q1 -30 17 -46
q16 -18 43 -18q61 0 116 137l72 -24q-67 -215 -219 -215z" />
    <glyph glyph-name="o" unicode="o" horiz-adv-x="1040" 
d="M469 109q143 0 243 117q99 118 99 282q0 116 -68 186t-172 70q-141 0 -241 -118t-101 -284q0 -117 68 -185t172 -68zM463 -16q-174 0 -277 109q-102 110 -102 272q0 209 143 367t351 157q174 0 276 -111t102 -270q0 -208 -143 -366t-350 -158z" />
    <glyph glyph-name="p" unicode="p" horiz-adv-x="1118" 
d="M553 111q137 1 231 121t94 256t-56 206q-56 68 -158 68q-140 0 -242 -131t-103 -285q1 -106 63 -170t171 -65zM707 889q145 0 234 -99t89 -262q0 -225 -138 -386t-327 -160q-100 0 -176 57t-108 145l-107 -463h178l-30 -122h-455l31 122h131l245 1027h-165l30 124h293
l-41 -182q133 199 316 199z" />
    <glyph glyph-name="q" unicode="q" horiz-adv-x="1081" 
d="M453 109q143 0 241 129t99 284q1 108 -57 174t-165 66q-139 0 -236 -124t-97 -286q0 -111 58 -177t157 -66zM406 -16q-145 0 -233 98q-87 98 -87 260q0 223 139 385t330 162q102 -1 177 -59t99 -148l52 190h137l-266 -1151h182l-31 -122h-323l131 559
q-127 -174 -307 -174z" />
    <glyph glyph-name="r" unicode="r" horiz-adv-x="782" 
d="M678 887q51 0 85 -31t34 -77t-33 -80q-33 -33 -76 -33t-71 24t-35 58q-64 -30 -142 -130t-108 -231l-99 -387h-143l189 748h-164l30 124h291l-57 -241q174 256 299 256z" />
    <glyph glyph-name="s" unicode="s" horiz-adv-x="864" 
d="M313 666q0 -68 89 -117q30 -16 122 -59q92 -44 152 -100q61 -56 61 -146q0 -122 -92 -190t-233 -68q-197 0 -310 112q-51 50 -51 102t28 83q27 31 67 31t65 -26t25 -60t-27 -66q12 -12 35 -25q72 -39 161 -39t139 32t50 79t-29 80t-59 50t-91 46q-60 29 -94 47
q-101 54 -132 117q-17 37 -17 84q0 109 85 179t247 71q162 0 252 -95q49 -49 49 -101t-27 -81q-26 -28 -64 -28t-65 24q-51 46 -4 127q-66 44 -152 44q-86 -1 -133 -33t-47 -74z" />
    <glyph glyph-name="t" unicode="t" horiz-adv-x="692" 
d="M285 173q0 -32 19 -51q19 -20 64 -20t169 82l53 -75q-156 -125 -275 -125q-78 0 -129 45t-51 121q0 39 17 98l122 500h-155l31 124h155l51 205l158 51l-63 -256h266l-31 -124h-266l-123 -500q-12 -43 -12 -75z" />
    <glyph glyph-name="u" unicode="u" horiz-adv-x="1114" 
d="M293 230q0 -54 36 -89t97 -35q94 0 180 86t123 234l111 446h143l-158 -634q-16 -55 -16 -86q0 -63 59 -64q61 0 117 137l72 -24q-70 -215 -221 -215q-72 0 -116 45t-44 121q0 8 4 41q-129 -207 -303 -207q-100 0 -166 60t-66 161q0 57 19 131l106 410h-164l33 124h307
l-141 -546q-12 -42 -12 -96z" />
    <glyph glyph-name="v" unicode="v" horiz-adv-x="964" 
d="M684 782q0 44 31 75q31 32 80 32t83 -38t33 -103q0 -126 -140 -346t-347 -431h-80l-141 777h-158l33 124h254l106 -722q123 137 212 277t116 245q-34 10 -58 38t-24 72z" />
    <glyph glyph-name="w" unicode="w" horiz-adv-x="1368" 
d="M1075 782q0 42 31 75q31 32 79 32t82 -37t33 -98q0 -233 -395 -783h-71l-123 568l-344 -568h-80l-74 777h-160l33 124h252l45 -684l330 578h69l127 -598q231 340 252 508q-35 8 -61 36t-25 70z" />
    <glyph glyph-name="x" unicode="x" horiz-adv-x="1081" 
d="M139 -14q-57 0 -92 32t-35 76q0 43 29 73t68 30q68 0 90 -70q51 12 157 160l115 159l-119 302h-174l31 124h235l113 -319l90 133q133 203 264 203q61 0 97 -33t36 -76q0 -42 -30 -72t-68 -30q-70 0 -92 67q-49 -12 -139 -143l-105 -147l103 -246q31 -73 49 -97t39 -24
q49 0 92 137l72 -20q-55 -219 -191 -219q-61 0 -102 38t-74 126l-74 200l-110 -164q-132 -200 -275 -200z" />
    <glyph glyph-name="y" unicode="y" horiz-adv-x="987" 
d="M-31 -410q-57 0 -97 34t-40 79t29 76t69 31t66 -25q27 -25 31 -66h4q86 0 334 299l-150 730h-156l31 124h252l127 -729q289 375 326 531q-84 29 -84 110q0 43 30 74q31 31 80 31t82 -38t33 -103q0 -104 -94 -270t-312 -438q-218 -274 -338 -362q-119 -88 -223 -88z" />
    <glyph glyph-name="z" unicode="z" horiz-adv-x="966" 
d="M283 39q-115 0 -217 -53l-54 71l721 699h-416l-41 -168h-126l69 284h680l41 -75l-696 -674q60 23 118 23t143 -20t135 -20t81 35t65 138l70 -17q-33 -143 -82 -211t-156 -67q-50 0 -166 28t-169 27z" />
    <glyph glyph-name="braceleft" unicode="{" horiz-adv-x="690" 
d="M66 -113q0 150 174 293q129 109 129 164t-45 94t-140 39h-69l32 139h72q113 0 174 50t61 115q0 66 -64 184q-65 118 -64 213q0 147 135 246t393 106l-16 -105q-188 -12 -282 -82q-94 -69 -93 -149q-1 -80 65 -205t66 -211t-67 -153q-67 -66 -187 -82q86 -17 129 -71
t43 -122q0 -106 -154 -233t-153 -223q0 -174 248 -232l-27 -100q-176 24 -268 112t-92 213z" />
    <glyph glyph-name="bar" unicode="|" horiz-adv-x="552" 
d="M213 -410v1909h127v-1909h-127z" />
    <glyph glyph-name="braceright" unicode="}" horiz-adv-x="690" 
d="M276 -99q0 81 -66 203t-65 212q0 89 67 154t187 81q-86 17 -129 71t-43 121q0 103 154 233t154 226q0 172 -248 230l26 100q177 -20 269 -110t92 -225q0 -134 -174 -284q-129 -107 -129 -163t45 -95t139 -39h70l-33 -139h-72q-113 0 -174 -49q-61 -50 -61 -116
q1 -66 65 -182t64 -214q0 -147 -135 -247q-136 -99 -394 -105l17 104q188 12 281 82t93 151z" />
    <glyph glyph-name="asciitilde" unicode="~" horiz-adv-x="954" 
d="M624 385q-80 1 -150 71t-107 70q-72 0 -125 -131l-97 35q25 104 89 172q65 68 144 68t165 -86q59 -57 94 -58q70 0 123 131l98 -34q-31 -111 -93 -175t-141 -63z" />
    <glyph glyph-name="uni00A0" unicode="&#xa0;" horiz-adv-x="428" 
 />
    <glyph glyph-name="exclamdown" unicode="&#xa1;" horiz-adv-x="501" 
d="M57 0l271 987h69l-157 -987h-183zM412 1122q-49 0 -83 36t-34 85t34 84t83 35t84 -35q34 -35 34 -84t-34 -85t-84 -36z" />
    <glyph glyph-name="cent" unicode="&#xa2;" horiz-adv-x="970" 
d="M250 446q0 -156 131 -223l186 625q-131 -22 -224 -134t-93 -268zM506 70q-43 0 -64 4l-86 -289l-104 27l88 286q-109 41 -172 132t-64 216q0 203 146 360t352 167l64 213l104 -29l-59 -192q106 -20 172 -85q65 -64 65 -126t-30 -97t-72 -35q-41 0 -68 24q-26 24 -26 71
t43 69q-41 51 -125 64l-197 -657q16 -2 49 -3q178 0 312 117l-5 -137q-135 -100 -323 -100z" />
    <glyph glyph-name="sterling" unicode="&#xa3;" horiz-adv-x="1017" 
d="M680 1057q135 0 225 -71t90 -159q1 -53 -29 -88t-70 -35t-67 28q-27 26 -27 69t36 71q-10 23 -58 42t-100 20q-131 0 -201 -91t-69 -247q0 -33 18 -231h356l-28 -117h-330q-16 -193 -164 -311q47 0 164 -39t182 -39q111 0 223 90l66 -80q-119 -133 -297 -133
q-92 0 -228 52t-200 52q-88 -100 -186 -100q-39 0 -65 22t-25 58q0 57 71 93q72 36 174 30q131 123 154 305h-217l26 117h193q-20 204 -21 233q0 201 110 330t294 129z" />
    <glyph glyph-name="yen" unicode="&#xa5;" horiz-adv-x="1013" 
d="M162 471l26 113h213l-147 340h-119l27 116h379l-25 -114h-137l153 -369l322 369h-139l28 114h385l-24 -116h-113l-305 -340h203l-27 -113h-291l-24 -109h291l-27 -112h-289l-28 -135h163l-26 -115h-451l27 115h162l30 135h-286l24 112h287l27 109h-289z" />
    <glyph glyph-name="section" unicode="&#xa7;" horiz-adv-x="860" 
d="M647 504q0 38 -41 66t-125 63l-45 18q-180 -39 -180 -121q0 -56 168 -122l41 -19q182 39 182 115zM560 952q-74 0 -118 -21q-43 -22 -43 -60q0 -39 41 -65q42 -26 144 -70t155 -89t54 -115q0 -147 -232 -194q86 -60 86 -148t-78 -148t-211 -60q-132 0 -206 54t-74 122
q0 36 24 62t60 26t58 -23t22 -53t-17 -47q45 -33 119 -33t116 22t42 58t-41 64q-41 26 -141 70t-156 90q-55 46 -55 118t63 121t172 67q-86 60 -86 148t78 148t208 60t205 -54q75 -56 74 -121q1 -37 -23 -62t-59 -25t-57 24t-22 54t16 48q-44 32 -118 32z" />
    <glyph glyph-name="dieresis" unicode="&#xa8;" horiz-adv-x="1024" 
d="M509 1067q-48 0 -81 34t-33 83t34 84t82 35t82 -35t34 -84t-35 -83t-83 -34zM867 1067q-48 0 -82 34t-33 83q0 49 33 84q34 35 82 35t82 -35t34 -84t-34 -83t-82 -34z" />
    <glyph glyph-name="copyright" unicode="&#xa9;" horiz-adv-x="1239" 
d="M645 256q-125 0 -202 77t-77 195t80 195q80 78 178 78t156 -40q57 -40 58 -87q0 -25 -16 -42q-16 -18 -36 -18t-35 14t-15 34t7 32q-27 35 -107 35t-132 -57q-53 -58 -53 -142t53 -142t138 -58t157 67l47 -53q-76 -88 -201 -88zM618 57q188 -1 316 135t127 330
q0 194 -127 328q-128 135 -316 135t-314 -135t-126 -330t126 -329t314 -134zM618 -16q-224 0 -374 156t-150 380q0 225 151 381t375 156t374 -156q151 -156 151 -381q0 -224 -152 -380t-375 -156z" />
    <glyph glyph-name="ordfeminine" unicode="&#xaa;" horiz-adv-x="718" 
d="M68 610l22 90h563l-22 -90h-563zM348 915q82 0 137 73q55 74 55 148t-32 111q-34 37 -102 37t-122 -71t-54 -147t31 -114q32 -38 87 -37zM317 827q-84 1 -137 59t-53 174t85 216q85 98 198 98q61 0 104 -33t59 -84l29 109h92l-92 -379q-6 -31 -6 -51q0 -33 29 -33
q37 0 71 82l49 -22q-41 -133 -140 -133t-103 100q-72 -103 -185 -103z" />
    <glyph glyph-name="guillemotleft" unicode="&#xab;" horiz-adv-x="989" 
d="M373 219l-289 346l438 344l72 -84l-324 -280l187 -256zM766 219l-287 346l436 344l72 -84l-323 -280l188 -256z" />
    <glyph glyph-name="registered" unicode="&#xae;" horiz-adv-x="802" 
d="M510 1071h35q74 0 73 53q0 53 -75 54h-33v-107zM408 885v55h38v238h-38v55h139q61 0 100 -27q39 -28 39 -86t-65 -86l49 -94h41v-55h-84l-70 131h-47v-76h43v-55h-145zM548 1354q-122 0 -207 -87t-85 -213t85 -213t206 -87t207 87t86 213t-85 213t-207 87zM913 1054
q0 -154 -107 -260t-260 -106t-258 106q-106 106 -106 260q0 153 106 259t259 106q154 0 260 -106t106 -259z" />
    <glyph glyph-name="macron" unicode="&#xaf;" horiz-adv-x="1024" 
d="M358 1096l31 129h615l-27 -129h-619z" />
    <glyph glyph-name="degree" unicode="&#xb0;" horiz-adv-x="663" 
d="M418 942q62 0 114 62t52 132t-35 107t-97 37t-114 -63q-51 -63 -51 -132t35 -106q34 -37 96 -37zM412 848q-110 0 -170 64t-60 172q0 106 82 198t194 92t171 -64t59 -170t-83 -199t-193 -93z" />
    <glyph glyph-name="plusminus" unicode="&#xb1;" horiz-adv-x="858" 
d="M12 33l29 127h678l-29 -127h-678zM639 1004l-64 -277h277l-29 -127h-278l-64 -276h-129l64 276h-275l29 127h276l64 277h129z" />
    <glyph glyph-name="two.sup" unicode="&#xb2;" horiz-adv-x="722" 
d="M731 1440q-1 100 -151 100q-78 0 -115 -47q20 -27 20 -53t-19 -47t-49 -21t-49 22t-20 56q0 70 76 128t181 58t171 -52t66 -136t-60 -139t-182 -121q-199 -106 -258 -217h313l27 116h92l-47 -206h-500l-20 49q47 112 134 190t197 136t152 98q41 39 41 86z" />
    <glyph glyph-name="three.sup" unicode="&#xb3;" horiz-adv-x="722" 
d="M778 1085q0 -99 -82 -157t-192 -58q-108 0 -184 48t-76 120q0 31 20 55q20 23 49 23t47 -18t18 -48t-22 -44q34 -45 128 -45q94 -1 140 35t46 90t-49 91q-49 38 -129 37h-41l22 97h41q94 0 151 36q56 36 56 88q0 53 -41 79t-106 26t-95 -27q15 -9 15 -35t-20 -44t-48 -18
q-29 0 -48 20q-20 20 -20 64t64 89t170 45t174 -55t68 -134t-60 -128t-156 -60q160 -41 160 -172z" />
    <glyph glyph-name="acute" unicode="&#xb4;" horiz-adv-x="1024" 
d="M833 1376q37 0 61 -24t24 -56q0 -61 -76 -98l-369 -168l-35 49l312 258q45 39 83 39z" />
    <glyph glyph-name="paragraph" unicode="&#xb6;" horiz-adv-x="1179" 
d="M586 121h112l203 784h-115zM530 387q-205 0 -301 72q-135 43 -135 207t146 264q146 98 366 98l608 -2l-30 -125h-160l-201 -776h162l-31 -125h-688l31 121h164q68 266 69 266z" />
    <glyph glyph-name="periodcentered" unicode="&#xb7;" horiz-adv-x="421" 
d="M240 426q-53 0 -89 37t-36 90t36 91t89 38t89 -38t36 -91t-36 -90t-89 -37z" />
    <glyph glyph-name="cedilla" unicode="&#xb8;" horiz-adv-x="1024" 
d="M356 -408q-137 0 -239 86l41 60q84 -57 192 -57q39 0 63 18q23 18 23 47t-34 47t-97 8l-31 37l119 207l62 -16l-45 -133q78 -8 120 -50t41 -106q1 -64 -61 -106t-154 -42z" />
    <glyph glyph-name="one.sup" unicode="&#xb9;" horiz-adv-x="722" 
d="M229 881l23 96h203l125 539l-201 -43l-4 96l280 63l52 -24l-146 -631h199l-21 -96h-510z" />
    <glyph glyph-name="ordmasculine" unicode="&#xba;" horiz-adv-x="690" 
d="M596 1128q0 158 -148 158q-72 0 -125 -64q-55 -64 -55 -145q0 -79 38 -119t108 -40t127 65q55 66 55 145zM90 610l25 90h485l-22 -90h-488zM694 1130q0 -112 -84 -206t-200 -93q-116 0 -179 66q-61 67 -61 179t84 205t200 93t179 -65q61 -67 61 -179z" />
    <glyph glyph-name="guillemotright" unicode="&#xbb;" horiz-adv-x="989" 
d="M143 217l-71 84l323 281l-188 258l84 67l289 -346zM537 217l-72 84l323 281l-186 258l84 67l287 -346z" />
    <glyph glyph-name="onequarter" unicode="&#xbc;" horiz-adv-x="1628" 
d="M375 -27l-64 54q23 29 366 428t726 878l63 -53q-23 -29 -381 -447q-359 -418 -710 -860zM137 573l23 97h202l125 538l-200 -43l-4 97l280 63l51 -25l-145 -630h199l-21 -97h-510zM1225 84l32 133h-335l-15 49l488 500l65 -61l-403 -406h221l37 141l106 39l-41 -174h123
l-22 -88h-121l-31 -133h96l-20 -84h-328l19 84h129z" />
    <glyph glyph-name="onehalf" unicode="&#xbd;" horiz-adv-x="1628" 
d="M342 -27l-63 54q23 29 369 433t722 873l64 -53q-23 -29 -378 -442q-354 -412 -714 -865zM115 573l22 97h203l125 538l-201 -43l-4 97l281 63l51 -25l-146 -630h199l-20 -97h-510zM1427 559q0 47 -35 74q-36 27 -96 26q-98 0 -135 -47q43 -58 1 -100q-19 -20 -49 -20
t-49 22t-20 55q0 70 76 128q76 59 182 59t171 -52t65 -137q0 -84 -60 -139t-182 -121q-199 -106 -258 -217h314l26 117h92l-47 -207h-499l-21 49q47 113 134 191t197 136t152 97q41 39 41 86z" />
    <glyph glyph-name="threequarters" unicode="&#xbe;" horiz-adv-x="1628" 
d="M365 -27l-64 54q23 29 366 428t726 878l63 -53q-23 -29 -381 -447q-359 -418 -710 -860zM1217 84l32 133h-336l-14 49l487 500l66 -61l-403 -406h221l37 141l106 39l-41 -174h123l-22 -88h-121l-31 -133h96l-20 -84h-328l18 84h130zM428 563q-108 0 -184 47t-76 121
q0 31 20 55t50 23q30 0 47 -18q18 -19 18 -49t-22 -44q33 -45 127 -45t140 36t46 89t-49 91t-129 38h-41l22 97h41q94 0 151 35q56 36 56 88t-41 79q-42 27 -106 27t-95 -27q15 -10 15 -36t-20 -44t-48 -18q-29 0 -48 20t-19 64t63 90q64 45 170 45t174 -55t68 -134
t-60 -128t-155 -60q160 -41 159 -172q0 -100 -82 -158q-84 -58 -192 -57z" />
    <glyph glyph-name="questiondown" unicode="&#xbf;" horiz-adv-x="925" 
d="M815 264q1 -118 -117 -200t-275 -82t-265 91t-107 253t145 294t404 158l78 217h98l-59 -327q-254 -8 -383 -108t-129 -236q0 -100 67 -156q68 -55 160 -55q92 -1 152 27t73 63q-53 29 -53 76t31 77t75 29q44 0 74 -34t31 -87zM780 1130q-49 0 -84 36t-34 85q0 49 34 84
q35 35 84 35t83 -35t34 -84t-34 -85t-83 -36z" />
    <glyph glyph-name="Agrave" unicode="&#xc0;" horiz-adv-x="1443" 
d="M729 1722q0 42 26 68q27 26 69 25q42 0 85 -66l160 -252l-47 -39l-240 178q-53 44 -53 86zM530 596h453l-80 629zM-55 0l32 135h123l643 1079h-159l30 134h619l-31 -134h-153l143 -1079h143l-32 -135h-441l31 133h149l-41 332h-548l-197 -332h178l-33 -133h-456z" />
    <glyph glyph-name="Aacute" unicode="&#xc1;" horiz-adv-x="1443" 
d="M1263 1815q37 0 61 -24t24 -56q0 -61 -76 -99l-369 -168l-35 50l312 258q45 39 83 39zM530 596h453l-80 629zM-55 0l32 135h123l643 1079h-159l30 134h619l-31 -134h-153l143 -1079h143l-32 -135h-441l31 133h149l-41 332h-548l-197 -332h178l-33 -133h-456z" />
    <glyph glyph-name="Acircumflex" unicode="&#xc2;" horiz-adv-x="1443" 
d="M715 1464l-58 78l383 297l232 -311l-70 -62l-190 185zM530 596h453l-80 629zM-55 0l32 135h123l643 1079h-159l30 134h619l-31 -134h-153l143 -1079h143l-32 -135h-441l31 133h149l-41 332h-548l-197 -332h178l-33 -133h-456z" />
    <glyph glyph-name="Atilde" unicode="&#xc3;" horiz-adv-x="1443" 
d="M1107 1468q-79 0 -149 70t-112 72q-72 0 -125 -129l-92 32q27 104 91 173q64 68 142 68t148 -72q70 -70 114 -70q74 0 127 129l90 -33q-25 -104 -90 -172t-144 -68zM530 596h453l-80 629zM-55 0l32 135h123l643 1079h-159l30 134h619l-31 -134h-153l143 -1079h143
l-32 -135h-441l31 133h149l-41 332h-548l-197 -332h178l-33 -133h-456z" />
    <glyph glyph-name="Adieresis" unicode="&#xc4;" horiz-adv-x="1443" 
d="M818 1505q-48 0 -81 34t-32 83q0 49 33 84q34 35 82 35t82 -35t34 -84t-35 -83t-83 -34zM1292 1622q0 -49 -34 -83t-81 -34q-48 0 -82 34t-34 83t34 84t82 35q47 0 81 -35t34 -84zM530 596h453l-80 629zM-55 0l32 135h123l643 1079h-159l30 134h619l-31 -134h-153
l143 -1079h143l-32 -135h-441l31 133h149l-41 332h-548l-197 -332h178l-33 -133h-456z" />
    <glyph glyph-name="Aring" unicode="&#xc5;" horiz-adv-x="1443" 
d="M530 596h453l-80 629zM936 1376q47 0 84 45t37 99t-25 83q-24 29 -72 29t-86 -46t-36 -98q0 -52 26 -82t72 -30zM733 1491q0 92 71 166t166 74q95 -1 145 -55t50 -124t-32 -126q-33 -54 -84 -78h184l-31 -134h-153l143 -1079h143l-32 -135h-441l31 133h149l-41 332h-548
l-197 -332h178l-33 -133h-456l32 135h123l643 1079h-159l30 134h189q-70 51 -70 143z" />
    <glyph glyph-name="AE" unicode="&#xc6;" horiz-adv-x="1869" 
d="M625 594h370l146 627h-51zM-66 0l33 135h162l805 1077h-176l33 136h1163l-78 -330h-145l45 196h-484l-106 -462h418l-31 -131h-418l-113 -488h484l47 197h145l-76 -330h-948l31 135h164l78 330h-437l-245 -332h184l-31 -133h-504z" />
    <glyph glyph-name="Ccedilla" unicode="&#xc7;" horiz-adv-x="1404" 
d="M590 -408q-137 0 -240 86l41 60q84 -57 193 -57q38 0 62 18t24 47t-34 47t-97 8l-31 37l86 152q-199 40 -323 192t-124 387q-1 324 225 564t537 239q217 0 351 -107q133 -108 133 -223q0 -66 -36 -108t-86 -41q-50 0 -80 30q-30 29 -30 81t60 88q-17 55 -103 99t-215 44
q-252 0 -425 -201t-173 -435t119 -359t315 -125q229 0 422 188l90 -94q-227 -233 -526 -234q-18 0 -55 5l-27 -84q78 -8 120 -50t42 -106q1 -64 -61 -106t-154 -42z" />
    <glyph glyph-name="Egrave" unicode="&#xc8;" horiz-adv-x="1193" 
d="M594 1722q0 42 26 68t68 25q42 0 86 -66l160 -252l-47 -39l-240 178q-53 44 -53 86zM6 0l33 135h162l250 1077h-183l31 136h981l-80 -330h-145l45 196h-498l-106 -462h432l-29 -131h-434l-113 -488h500l47 197h145l-75 -330h-963z" />
    <glyph glyph-name="Eacute" unicode="&#xc9;" horiz-adv-x="1193" 
d="M6 0l33 135h162l250 1077h-183l31 136h981l-80 -330h-145l45 196h-498l-106 -462h432l-29 -131h-434l-113 -488h500l47 197h145l-75 -330h-963zM1128 1815q38 0 62 -24t22 -56q0 -61 -75 -99l-369 -168l-35 50l311 258q46 39 84 39z" />
    <glyph glyph-name="Ecircumflex" unicode="&#xca;" horiz-adv-x="1193" 
d="M6 0l33 135h162l250 1077h-183l31 136h981l-80 -330h-145l45 196h-498l-106 -462h432l-29 -131h-434l-113 -488h500l47 197h145l-75 -330h-963zM580 1464l-58 78l383 297l232 -311l-70 -62l-190 185z" />
    <glyph glyph-name="Edieresis" unicode="&#xcb;" horiz-adv-x="1193" 
d="M6 0l33 135h162l250 1077h-183l31 136h981l-80 -330h-145l45 196h-498l-106 -462h432l-29 -131h-434l-113 -488h500l47 197h145l-75 -330h-963zM683 1505q-48 0 -81 34t-33 83t34 84t82 35t82 -35t34 -84t-35 -83t-83 -34zM1041 1505q-48 0 -82 34t-33 83q0 49 33 84
q34 35 82 35t82 -35t34 -84t-34 -83t-82 -34z" />
    <glyph glyph-name="Igrave" unicode="&#xcc;" horiz-adv-x="722" 
d="M369 1722q-1 42 25 68t69 25q43 0 86 -66l160 -252l-47 -39l-240 178q-53 44 -53 86zM6 0l33 135h180l248 1077h-186l30 136h518l-30 -136h-181l-247 -1077h186l-33 -135h-518z" />
    <glyph glyph-name="Iacute" unicode="&#xcd;" horiz-adv-x="722" 
d="M900 1815q38 0 62 -24t23 -56q0 -61 -76 -99l-368 -168l-35 50l311 258q45 39 83 39zM6 0l33 135h180l248 1077h-186l30 136h518l-30 -136h-181l-247 -1077h186l-33 -135h-518z" />
    <glyph glyph-name="Icircumflex" unicode="&#xce;" horiz-adv-x="722" 
d="M354 1464l-57 78l383 297l231 -311l-69 -62l-191 185zM6 0l33 135h180l248 1077h-186l30 136h518l-30 -136h-181l-247 -1077h186l-33 -135h-518z" />
    <glyph glyph-name="Idieresis" unicode="&#xcf;" horiz-adv-x="722" 
d="M458 1505q-48 0 -81 34t-33 83t34 84t82 35t82 -35t34 -84t-36 -83q-34 -34 -82 -34zM816 1505q-48 0 -82 34t-34 83t34 84t82 35t82 -35t34 -84t-34 -83t-82 -34zM6 0l33 135h180l248 1077h-186l30 136h518l-30 -136h-181l-247 -1077h186l-33 -135h-518z" />
    <glyph glyph-name="Eth" unicode="&#xd0;" horiz-adv-x="1449" 
d="M514 135q365 0 561 201q176 174 176 444q0 182 -108 287q-141 145 -430 145h-111l-106 -458h278l-31 -127h-278l-113 -492h162zM727 1348q354 0 543 -189q141 -145 141 -373q0 -319 -211 -530q-254 -256 -711 -256h-483l33 135h162l112 492h-174l31 127h174l107 458h-183
l31 136h428z" />
    <glyph glyph-name="Ntilde" unicode="&#xd1;" horiz-adv-x="1540" 
d="M1152 1468q-78 0 -148 70t-113 72q-72 0 -125 -129l-92 32q27 104 91 173q65 68 143 68t148 -72q70 -70 113 -70q74 0 127 129l90 -33q-25 -104 -90 -172t-144 -68zM1122 -6l-553 1100l-221 -959h187l-31 -135h-498l33 135h162l250 1077h-183l31 136h309l518 -1031
l207 895h-188l33 136h489l-31 -136h-157l-281 -1218h-76z" />
    <glyph glyph-name="Ograve" unicode="&#xd2;" horiz-adv-x="1499" 
d="M754 1722q0 42 26 68t68 25q43 0 86 -66l160 -252l-47 -39l-240 178q-53 44 -53 86zM727 115q242 0 411 208t169 468q0 190 -110 316t-314 126q-242 0 -411 -208t-169 -468q-1 -190 109 -316t315 -126zM715 -25q-264 0 -417 163t-153 417q0 150 58 296q122 314 393 449
q141 72 299 72q264 0 417 -163t152 -416q0 -150 -57 -296q-123 -314 -393 -450q-141 -72 -299 -72z" />
    <glyph glyph-name="Oacute" unicode="&#xd3;" horiz-adv-x="1499" 
d="M727 115q242 0 411 208t169 468q0 190 -110 316t-314 126q-242 0 -411 -208t-169 -468q-1 -190 109 -316t315 -126zM715 -25q-264 0 -417 163t-153 417q0 150 58 296q122 314 393 449q141 72 299 72q264 0 417 -163t152 -416q0 -150 -57 -296q-123 -314 -393 -450
q-141 -72 -299 -72zM1287 1815q38 0 62 -24t23 -56q0 -61 -76 -99l-368 -168l-35 50l311 258q45 39 83 39z" />
    <glyph glyph-name="Ocircumflex" unicode="&#xd4;" horiz-adv-x="1499" 
d="M727 115q242 0 411 208t169 468q0 190 -110 316t-314 126q-242 0 -411 -208t-169 -468q-1 -190 109 -316t315 -126zM715 -25q-264 0 -417 163t-153 417q0 150 58 296q122 314 393 449q141 72 299 72q264 0 417 -163t152 -416q0 -150 -57 -296q-123 -314 -393 -450
q-141 -72 -299 -72zM739 1464l-57 78l383 297l231 -311l-69 -62l-191 185z" />
    <glyph glyph-name="Otilde" unicode="&#xd5;" horiz-adv-x="1499" 
d="M1130 1468q-78 0 -148 70t-114 72q-72 0 -125 -129l-92 32q27 104 91 173q65 68 143 68q79 0 149 -72q70 -70 113 -70q74 0 127 129l90 -33q-25 -104 -90 -172t-144 -68zM727 115q242 0 411 208t169 468q0 190 -110 316t-314 126q-242 0 -411 -208t-169 -468
q-1 -190 109 -316t315 -126zM715 -25q-264 0 -417 163t-153 417q0 150 58 296q122 314 393 449q141 72 299 72q264 0 417 -163t152 -416q0 -150 -57 -296q-123 -314 -393 -450q-141 -72 -299 -72z" />
    <glyph glyph-name="Odieresis" unicode="&#xd6;" horiz-adv-x="1499" 
d="M727 115q242 0 411 208t169 468q0 190 -110 316t-314 126q-242 0 -411 -208t-169 -468q-1 -190 109 -316t315 -126zM715 -25q-264 0 -417 163t-153 417q0 150 58 296q122 314 393 449q141 72 299 72q264 0 417 -163t152 -416q0 -150 -57 -296q-123 -314 -393 -450
q-141 -72 -299 -72zM843 1505q-48 0 -81 34t-33 83t34 84t82 35t82 -35t34 -84t-35 -83t-83 -34zM1201 1505q-48 0 -82 34t-34 83t34 84t82 35t82 -35t34 -84t-34 -83t-82 -34z" />
    <glyph glyph-name="multiply" unicode="&#xd7;" horiz-adv-x="858" 
d="M309 870l166 -221l256 211l80 -100l-258 -213l168 -223l-107 -86l-168 223l-256 -211l-79 100l258 213l-166 223z" />
    <glyph glyph-name="Oslash" unicode="&#xd8;" horiz-adv-x="1499" 
d="M731 113q242 0 411 208t169 470q0 109 -41 206l-862 -751q116 -133 323 -133zM305 557q0 -121 41 -211l862 752q-115 137 -323 137q-242 0 -411 -208t-169 -470zM719 -25q-268 0 -422 170l-193 -168l-84 99l201 174q-71 134 -71 294t56 306q120 313 392 450
q141 72 299 72q270 0 424 -174l201 174l84 -96l-211 -184q71 -138 71 -320t-95 -368t-269 -308q-174 -121 -383 -121z" />
    <glyph glyph-name="Ugrave" unicode="&#xd9;" horiz-adv-x="1462" 
d="M723 1722q0 42 26 68q27 26 69 25q42 0 85 -66l160 -252l-47 -39l-240 178q-53 44 -53 86zM684 -23q-206 0 -320 108t-114 288q0 66 20 162l158 677h-180l31 136h497l-31 -136h-165l-158 -686q-18 -92 -19 -143q0 -127 73 -199q74 -72 224 -72t244 92q94 91 129 247
l174 761h-186l31 136h497l-30 -136h-162l-178 -780q-105 -455 -535 -455z" />
    <glyph glyph-name="Uacute" unicode="&#xda;" horiz-adv-x="1462" 
d="M684 -23q-206 0 -320 108t-114 288q0 66 20 162l158 677h-180l31 136h497l-31 -136h-165l-158 -686q-18 -92 -19 -143q0 -127 73 -199q74 -72 224 -72t244 92q94 91 129 247l174 761h-186l31 136h497l-30 -136h-162l-178 -780q-105 -455 -535 -455zM1257 1815
q37 0 61 -24t23 -56q0 -61 -75 -99l-369 -168l-35 50l312 258q45 39 83 39z" />
    <glyph glyph-name="Ucircumflex" unicode="&#xdb;" horiz-adv-x="1462" 
d="M684 -23q-206 0 -320 108t-114 288q0 66 20 162l158 677h-180l31 136h497l-31 -136h-165l-158 -686q-18 -92 -19 -143q0 -127 73 -199q74 -72 224 -72t244 92q94 91 129 247l174 761h-186l31 136h497l-30 -136h-162l-178 -780q-105 -455 -535 -455zM711 1464l-58 78
l383 297l232 -311l-70 -62l-190 185z" />
    <glyph glyph-name="Udieresis" unicode="&#xdc;" horiz-adv-x="1462" 
d="M684 -23q-206 0 -320 108t-114 288q0 66 20 162l158 677h-180l31 136h497l-31 -136h-165l-158 -686q-18 -92 -19 -143q0 -127 73 -199q74 -72 224 -72t244 92q94 91 129 247l174 761h-186l31 136h497l-30 -136h-162l-178 -780q-105 -455 -535 -455zM812 1505
q-48 0 -81 34t-33 83t34 84t82 35t82 -35t34 -84t-35 -83t-83 -34zM1170 1505q-48 0 -82 34t-33 83q0 49 34 84q33 35 81 35t82 -35t34 -84t-34 -83t-82 -34z" />
    <glyph glyph-name="Yacute" unicode="&#xdd;" horiz-adv-x="1292" 
d="M1158 1815q38 0 62 -24t23 -56q0 -61 -76 -99l-368 -168l-35 50l311 258q45 39 83 39zM254 0l33 135h182l100 408l-233 669h-141l32 136h451l-29 -136h-155l180 -555l450 555h-151l33 136h462l-30 -136h-135l-590 -698l-90 -379h190l-29 -135h-530z" />
    <glyph glyph-name="Thorn" unicode="&#xde;" horiz-adv-x="1171" 
d="M989 717q0 221 -311 221h-139l-117 -508q160 -6 201 -6q180 0 273 81t93 212zM698 1067q244 0 357 -113q88 -86 88 -229q1 -193 -143 -311t-392 -119q-145 0 -217 6l-39 -168h187l-31 -133h-502l33 135h162l250 1077h-183l31 136h502l-33 -134h-166l-33 -147h129z" />
    <glyph glyph-name="germandbls" unicode="&#xdf;" horiz-adv-x="1122" 
d="M702 -14q-100 0 -180 55t-80 135q0 43 28 74t68 31t66 -27q26 -26 27 -60q0 -34 -25 -63q8 -12 38 -22t63 -11q82 0 131 52t49 116q0 66 -33 113t-96 104q-74 72 -110 126t-36 130t40 128q40 53 106 99t93 70q28 24 55 73q28 48 28 112q0 65 -54 113t-137 48t-149 -70
t-92 -194l-256 -1118h-142l172 748h-155l31 124h153l60 263q39 178 140 276t247 98t233 -83q88 -83 88 -206q0 -122 -53 -194t-132 -126t-109 -88q-29 -34 -29 -84t137 -178t137 -264t-83 -218t-239 -82z" />
    <glyph glyph-name="agrave" unicode="&#xe0;" horiz-adv-x="1146" 
d="M739 1020l-239 178q-54 43 -54 85t26 68q26 25 68 25t87 -65l159 -252zM442 109q143 0 242 130q98 130 98 285q0 110 -57 174t-162 64q-139 0 -232 -125t-93 -289q0 -111 53 -175t151 -64zM395 -16q-137 0 -223 96t-86 258q0 223 137 387t326 164q104 -1 178 -61t94 -156
l56 207h137l-158 -641q-14 -61 -14 -86q0 -63 57 -64q61 0 117 137l71 -24q-70 -215 -219 -215q-74 0 -118 44t-43 115v21q-136 -182 -312 -182z" />
    <glyph glyph-name="aacute" unicode="&#xe1;" horiz-adv-x="1146" 
d="M978 1376q38 0 62 -24t23 -56q0 -61 -76 -98l-369 -168l-34 49l311 258q45 39 83 39zM442 109q143 0 242 130q98 130 98 285q0 110 -57 174t-162 64q-139 0 -232 -125t-93 -289q0 -111 53 -175t151 -64zM395 -16q-137 0 -223 96t-86 258q0 223 137 387t326 164
q104 -1 178 -61t94 -156l56 207h137l-158 -641q-14 -61 -14 -86q0 -63 57 -64q61 0 117 137l71 -24q-70 -215 -219 -215q-74 0 -118 44t-43 115v21q-136 -182 -312 -182z" />
    <glyph glyph-name="acircumflex" unicode="&#xe2;" horiz-adv-x="1146" 
d="M430 1026l-57 78l383 297l231 -311l-69 -62l-191 184zM442 109q143 0 242 130q98 130 98 285q0 110 -57 174t-162 64q-139 0 -232 -125t-93 -289q0 -111 53 -175t151 -64zM395 -16q-137 0 -223 96t-86 258q0 223 137 387t326 164q104 -1 178 -61t94 -156l56 207h137
l-158 -641q-14 -61 -14 -86q0 -63 57 -64q61 0 117 137l71 -24q-70 -215 -219 -215q-74 0 -118 44t-43 115v21q-136 -182 -312 -182z" />
    <glyph glyph-name="atilde" unicode="&#xe3;" horiz-adv-x="1146" 
d="M820 1030q-78 0 -148 70t-113 71q-72 0 -125 -129l-92 33q27 104 91 172q65 68 143 68q78 -1 148 -71t114 -70q74 0 127 129l90 -33q-25 -104 -91 -172t-144 -68zM442 109q143 0 242 130q98 130 98 285q0 110 -57 174t-162 64q-139 0 -232 -125t-93 -289q0 -111 53 -175
t151 -64zM395 -16q-137 0 -223 96t-86 258q0 223 137 387t326 164q104 -1 178 -61t94 -156l56 207h137l-158 -641q-14 -61 -14 -86q0 -63 57 -64q61 0 117 137l71 -24q-70 -215 -219 -215q-74 0 -118 44t-43 115v21q-136 -182 -312 -182z" />
    <glyph glyph-name="adieresis" unicode="&#xe4;" horiz-adv-x="1146" 
d="M531 1067q-49 0 -81 34t-32 83t34 84t82 35t82 -35t33 -84q0 -49 -35 -83t-83 -34zM890 1067q-48 0 -82 34t-34 83t34 84t82 35t82 -35t34 -84t-34 -83t-82 -34zM442 109q143 0 242 130q98 130 98 285q0 110 -57 174t-162 64q-139 0 -232 -125t-93 -289q0 -111 53 -175
t151 -64zM395 -16q-137 0 -223 96t-86 258q0 223 137 387t326 164q104 -1 178 -61t94 -156l56 207h137l-158 -641q-14 -61 -14 -86q0 -63 57 -64q61 0 117 137l71 -24q-70 -215 -219 -215q-74 0 -118 44t-43 115v21q-136 -182 -312 -182z" />
    <glyph glyph-name="aring" unicode="&#xe5;" horiz-adv-x="1146" 
d="M718 1120q48 0 85 46t37 98t-26 83q-26 29 -72 29t-86 -45q-38 -45 -38 -98t26 -83t74 -30zM512 1224q0 94 71 172t167 79q96 -1 147 -55t51 -148t-72 -172t-167 -78t-146 54t-51 148zM442 109q143 0 242 130q98 130 98 285q0 110 -57 174t-162 64q-139 0 -232 -125
t-93 -289q0 -111 53 -175t151 -64zM395 -16q-137 0 -223 96t-86 258q0 223 137 387t326 164q104 -1 178 -61t94 -156l56 207h137l-158 -641q-14 -61 -14 -86q0 -63 57 -64q61 0 117 137l71 -24q-70 -215 -219 -215q-74 0 -118 44t-43 115v21q-136 -182 -312 -182z" />
    <glyph glyph-name="ae" unicode="&#xe6;" horiz-adv-x="1622" 
d="M1206 764q-102 0 -187 -73t-122 -187h502q14 47 14 86q0 76 -52 125q-53 49 -155 49zM352 106q127 0 240 82t143 209h-164q-367 0 -366 -184q-1 -47 39 -77t108 -30zM872 350q0 -112 80 -178t208 -66t278 80l-31 -139q-127 -63 -273 -63t-237 72q-92 72 -125 190
q-59 -119 -176 -191q-117 -71 -250 -71t-207 66t-73 151q0 145 124 223q125 78 342 78h216q-4 118 -73 194t-186 76q-59 0 -100 -22q14 -25 14 -55q-1 -29 -27 -57t-66 -28t-66 30t-27 73q0 88 107 143q66 33 159 33q287 0 342 -260q61 119 167 189t242 71q134 0 224 -86
t90 -234q0 -78 -35 -176h-639q-2 -14 -2 -43z" />
    <glyph glyph-name="ccedilla" unicode="&#xe7;" horiz-adv-x="950" 
d="M563 -260q1 -64 -61 -106t-154 -42q-137 0 -239 86l41 60q84 -57 192 -57q38 0 62 18t24 47t-34 47t-97 8l-31 37l92 160q-126 31 -200 126t-74 236q0 209 148 369t352 160q143 0 229 -72t86 -162q0 -51 -31 -87q-32 -36 -72 -36t-67 25t-27 71t41 70q-49 66 -175 66
t-232 -116t-107 -279q0 -117 72 -189t193 -71q158 0 290 114l-4 -139q-135 -100 -303 -100l-45 2l-31 -90q78 -8 120 -50t42 -106z" />
    <glyph glyph-name="egrave" unicode="&#xe8;" horiz-adv-x="974" 
d="M688 1020l-239 178q-53 43 -53 85t25 68q27 25 69 25t85 -65l160 -252zM558 764q-101 0 -186 -73t-124 -187h502q14 38 14 100t-52 111q-53 49 -154 49zM223 350q0 -112 80 -178t208 -66t280 80l-31 -139q-129 -63 -289 -63q-161 0 -275 99t-114 269q0 219 143 378
t340 159q152 0 243 -86t91 -234q0 -84 -33 -176h-641q-2 -14 -2 -43z" />
    <glyph glyph-name="eacute" unicode="&#xe9;" horiz-adv-x="974" 
d="M927 1376q37 0 61 -24t24 -56q0 -61 -76 -98l-369 -168l-35 49l312 258q45 39 83 39zM558 764q-101 0 -186 -73t-124 -187h502q14 38 14 100t-52 111q-53 49 -154 49zM223 350q0 -112 80 -178t208 -66t280 80l-31 -139q-129 -63 -289 -63q-161 0 -275 99t-114 269
q0 219 143 378t340 159q152 0 243 -86t91 -234q0 -84 -33 -176h-641q-2 -14 -2 -43z" />
    <glyph glyph-name="ecircumflex" unicode="&#xea;" horiz-adv-x="974" 
d="M381 1026l-57 78l383 297l231 -311l-70 -62l-190 184zM558 764q-101 0 -186 -73t-124 -187h502q14 38 14 100t-52 111q-53 49 -154 49zM223 350q0 -112 80 -178t208 -66t280 80l-31 -139q-129 -63 -289 -63q-161 0 -275 99t-114 269q0 219 143 378t340 159q152 0 243 -86
t91 -234q0 -84 -33 -176h-641q-2 -14 -2 -43z" />
    <glyph glyph-name="edieresis" unicode="&#xeb;" horiz-adv-x="974" 
d="M841 1067q-48 0 -82 34t-34 83t34 84t82 35t82 -35q33 -35 33 -84t-34 -83t-81 -34zM482 1067q-48 0 -81 34t-32 83q0 49 33 84q34 35 82 35t82 -35t34 -84t-35 -83t-83 -34zM558 764q-101 0 -186 -73t-124 -187h502q14 38 14 100t-52 111q-53 49 -154 49zM223 350
q0 -112 80 -178t208 -66t280 80l-31 -139q-129 -63 -289 -63q-161 0 -275 99t-114 269q0 219 143 378t340 159q152 0 243 -86t91 -234q0 -84 -33 -176h-641q-2 -14 -2 -43z" />
    <glyph glyph-name="igrave" unicode="&#xec;" horiz-adv-x="604" 
d="M477 1020l-239 178q-54 43 -54 85t26 68q26 25 68 25t87 -65l159 -252zM305 -14q-80 0 -126 45t-46 119q0 33 17 94l137 504h-170l33 124h313l-172 -634q-14 -57 -15 -86q0 -64 64 -64t115 137l71 -24q-69 -215 -221 -215z" />
    <glyph glyph-name="iacute" unicode="&#xed;" horiz-adv-x="604" 
d="M305 -14q-80 0 -126 45t-46 119q0 33 17 94l137 504h-170l33 124h313l-172 -634q-14 -57 -15 -86q0 -64 64 -64t115 137l71 -24q-69 -215 -221 -215zM718 1376q38 0 62 -24t23 -56q0 -61 -76 -98l-369 -168l-34 49l311 258q45 39 83 39z" />
    <glyph glyph-name="icircumflex" unicode="&#xee;" horiz-adv-x="604" 
d="M305 -14q-80 0 -126 45t-46 119q0 33 17 94l137 504h-170l33 124h313l-172 -634q-14 -57 -15 -86q0 -64 64 -64t115 137l71 -24q-69 -215 -221 -215zM170 1026l-57 78l383 297l231 -311l-70 -62l-190 184z" />
    <glyph glyph-name="idieresis" unicode="&#xef;" horiz-adv-x="604" 
d="M305 -14q-80 0 -126 45t-46 119q0 33 17 94l137 504h-170l33 124h313l-172 -634q-14 -57 -15 -86q0 -64 64 -64t115 137l71 -24q-69 -215 -221 -215zM271 1067q-48 0 -81 34t-32 83q0 49 33 84q34 35 82 35t82 -35t34 -84t-35 -83t-83 -34zM630 1067q-48 0 -82 34t-34 83
t34 84t82 35t82 -35t34 -84t-34 -83t-82 -34z" />
    <glyph glyph-name="eth" unicode="&#xf0;" horiz-adv-x="1046" 
d="M466 111q116 -1 215 103t99 261q0 111 -66 177t-184 67q-120 0 -214 -110t-95 -238q0 -128 65 -194q64 -66 180 -66zM453 -14q-175 0 -276 104t-101 280t136 326t314 150q231 0 299 -205q8 57 9 143q0 223 -103 390l-237 -216l-76 82l246 224q-78 84 -183 114
q-25 -76 -94 -75q-41 -1 -70 27t-29 71t36 75q35 32 98 31q178 0 334 -161l182 165l76 -81l-189 -170q135 -207 136 -490q0 -453 -201 -653q-132 -131 -307 -131z" />
    <glyph glyph-name="ntilde" unicode="&#xf1;" horiz-adv-x="1114" 
d="M835 1030q-79 0 -149 70t-113 71q-72 0 -124 -129l-93 33q27 104 91 172q65 68 143 68q78 -1 148 -71t114 -70q74 0 127 129l90 -33q-25 -104 -90 -172t-144 -68zM846 -14q-78 0 -125 45t-47 105t16 110l82 284q14 54 14 108t-38 90q-39 36 -103 36q-92 0 -177 -85
t-122 -235l-113 -444h-143l189 748h-164l30 124h291l-49 -206q131 221 307 221q104 0 172 -67t68 -171q0 -63 -23 -137l-80 -283q-14 -47 -14 -77q1 -30 17 -46q16 -18 43 -18q61 0 116 137l72 -24q-67 -215 -219 -215z" />
    <glyph glyph-name="ograve" unicode="&#xf2;" horiz-adv-x="1040" 
d="M426 1283q0 42 26 68q26 25 68 25t86 -65l160 -252l-47 -39l-240 178q-53 43 -53 85zM469 109q143 0 243 117q99 118 99 282q0 116 -68 186t-172 70q-141 0 -241 -118t-101 -284q0 -117 68 -185t172 -68zM463 -16q-174 0 -277 109q-102 110 -102 272q0 209 143 367
t351 157q174 0 276 -111t102 -270q0 -208 -143 -366t-350 -158z" />
    <glyph glyph-name="oacute" unicode="&#xf3;" horiz-adv-x="1040" 
d="M469 109q143 0 243 117q99 118 99 282q0 116 -68 186t-172 70q-141 0 -241 -118t-101 -284q0 -117 68 -185t172 -68zM463 -16q-174 0 -277 109q-102 110 -102 272q0 209 143 367t351 157q174 0 276 -111t102 -270q0 -208 -143 -366t-350 -158zM958 1376q38 0 62 -24
t22 -56q0 -61 -75 -98l-369 -168l-35 49l311 258q46 39 84 39z" />
    <glyph glyph-name="ocircumflex" unicode="&#xf4;" horiz-adv-x="1040" 
d="M469 109q143 0 243 117q99 118 99 282q0 116 -68 186t-172 70q-141 0 -241 -118t-101 -284q0 -117 68 -185t172 -68zM463 -16q-174 0 -277 109q-102 110 -102 272q0 209 143 367t351 157q174 0 276 -111t102 -270q0 -208 -143 -366t-350 -158zM410 1026l-58 78l383 297
l232 -311l-70 -62l-190 184z" />
    <glyph glyph-name="otilde" unicode="&#xf5;" horiz-adv-x="1040" 
d="M802 1030q-78 0 -148 70t-113 71q-72 0 -125 -129l-92 33q27 104 91 172q65 68 143 68q78 -1 148 -71t113 -70q74 0 127 129l90 -33q-25 -104 -90 -172t-144 -68zM469 109q143 0 243 117q99 118 99 282q0 116 -68 186t-172 70q-141 0 -241 -118t-101 -284q0 -117 68 -185
t172 -68zM463 -16q-174 0 -277 109q-102 110 -102 272q0 209 143 367t351 157q174 0 276 -111t102 -270q0 -208 -143 -366t-350 -158z" />
    <glyph glyph-name="odieresis" unicode="&#xf6;" horiz-adv-x="1040" 
d="M469 109q143 0 243 117q99 118 99 282q0 116 -68 186t-172 70q-141 0 -241 -118t-101 -284q0 -117 68 -185t172 -68zM463 -16q-174 0 -277 109q-102 110 -102 272q0 209 143 367t351 157q174 0 276 -111t102 -270q0 -208 -143 -366t-350 -158zM511 1067q-48 0 -81 34
t-33 83t34 84t82 35t82 -35t34 -84t-35 -83t-83 -34zM869 1067q-48 0 -82 34t-33 83q0 49 33 84q34 35 82 35t82 -35t34 -84t-34 -83t-82 -34z" />
    <glyph glyph-name="divide" unicode="&#xf7;" horiz-adv-x="858" 
d="M395 172q-41 0 -71 30t-29 70q0 40 31 72q30 31 70 31t70 -31t30 -72q0 -40 -30 -70t-71 -30zM526 733q-42 0 -72 31t-30 72q0 42 31 72t71 30t71 -31q30 -31 30 -71t-30 -72q-30 -31 -71 -31zM104 492l31 124h680l-29 -124h-682z" />
    <glyph glyph-name="oslash" unicode="&#xf8;" horiz-adv-x="1056" 
d="M485 109q143 0 243 116q99 117 99 283q0 49 -14 98l-498 -436q68 -61 170 -61zM242 365q0 -66 18 -115l502 446q-68 68 -176 68q-144 0 -244 -116t-100 -283zM481 -16q-160 0 -264 94l-131 -117l-74 86l135 117q-51 92 -51 203q0 209 142 365t352 157q162 0 268 -103
l137 123l76 -84l-145 -129q47 -88 47 -190q-1 -210 -143 -366t-349 -156z" />
    <glyph glyph-name="ugrave" unicode="&#xf9;" horiz-adv-x="1114" 
d="M739 1020l-239 178q-54 43 -54 85t26 68q26 25 68 25t87 -65l159 -252zM293 230q0 -54 36 -89t97 -35q94 0 180 86t123 234l111 446h143l-158 -634q-16 -55 -16 -86q0 -63 59 -64q61 0 117 137l72 -24q-70 -215 -221 -215q-72 0 -116 45t-44 121q0 8 4 41
q-129 -207 -303 -207q-100 0 -166 60t-66 161q0 57 19 131l106 410h-164l33 124h307l-141 -546q-12 -42 -12 -96z" />
    <glyph glyph-name="uacute" unicode="&#xfa;" horiz-adv-x="1114" 
d="M978 1376q38 0 62 -24t23 -56q0 -61 -76 -98l-369 -168l-34 49l311 258q45 39 83 39zM293 230q0 -54 36 -89t97 -35q94 0 180 86t123 234l111 446h143l-158 -634q-16 -55 -16 -86q0 -63 59 -64q61 0 117 137l72 -24q-70 -215 -221 -215q-72 0 -116 45t-44 121q0 8 4 41
q-129 -207 -303 -207q-100 0 -166 60t-66 161q0 57 19 131l106 410h-164l33 124h307l-141 -546q-12 -42 -12 -96z" />
    <glyph glyph-name="ucircumflex" unicode="&#xfb;" horiz-adv-x="1114" 
d="M428 1026l-57 78l383 297l231 -311l-70 -62l-190 184zM293 230q0 -54 36 -89t97 -35q94 0 180 86t123 234l111 446h143l-158 -634q-16 -55 -16 -86q0 -63 59 -64q61 0 117 137l72 -24q-70 -215 -221 -215q-72 0 -116 45t-44 121q0 8 4 41q-129 -207 -303 -207
q-100 0 -166 60t-66 161q0 57 19 131l106 410h-164l33 124h307l-141 -546q-12 -42 -12 -96z" />
    <glyph glyph-name="udieresis" unicode="&#xfc;" horiz-adv-x="1114" 
d="M890 1067q-48 0 -82 34t-34 83t34 84t82 35t82 -35t34 -84t-34 -83t-82 -34zM531 1067q-49 0 -81 34t-32 83t34 84t82 35t82 -35t33 -84q0 -49 -35 -83t-83 -34zM293 230q0 -54 36 -89t97 -35q94 0 180 86t123 234l111 446h143l-158 -634q-16 -55 -16 -86q0 -63 59 -64
q61 0 117 137l72 -24q-70 -215 -221 -215q-72 0 -116 45t-44 121q0 8 4 41q-129 -207 -303 -207q-100 0 -166 60t-66 161q0 57 19 131l106 410h-164l33 124h307l-141 -546q-12 -42 -12 -96z" />
    <glyph glyph-name="yacute" unicode="&#xfd;" horiz-adv-x="987" 
d="M919 1376q37 0 61 -24t24 -56q0 -61 -76 -98l-369 -168l-35 49l312 258q45 39 83 39zM-31 -410q-57 0 -97 34t-40 79t29 76t69 31t66 -25q27 -25 31 -66h4q86 0 334 299l-150 730h-156l31 124h252l127 -729q289 375 326 531q-84 29 -84 110q0 43 30 74q31 31 80 31
t82 -38t33 -103q0 -104 -94 -270t-312 -438q-218 -274 -338 -362q-119 -88 -223 -88z" />
    <glyph glyph-name="thorn" unicode="&#xfe;" horiz-adv-x="1081" 
d="M516 111q137 0 232 120q94 121 94 279q0 116 -56 184t-159 68q-139 0 -241 -131t-103 -285q0 -106 62 -170t171 -65zM670 889q145 0 234 -99t89 -262q0 -225 -138 -386t-327 -160q-100 0 -179 57t-105 147l-107 -465h178l-30 -122h-455l31 122h131l391 1655h-166l31 123
h307l-186 -788q125 178 301 178z" />
    <glyph glyph-name="ydieresis" unicode="&#xff;" horiz-adv-x="987" 
d="M832 1067q-48 0 -82 34t-33 83q0 49 34 84t82 35q47 0 81 -35t34 -84t-34 -83t-82 -34zM474 1067q-48 0 -81 34t-33 83t34 84t82 35t82 -35t34 -84t-35 -83t-83 -34zM-31 -410q-57 0 -97 34t-40 79t29 76t69 31t66 -25q27 -25 31 -66h4q86 0 334 299l-150 730h-156
l31 124h252l127 -729q289 375 326 531q-84 29 -84 110q0 43 30 74q31 31 80 31t82 -38t33 -103q0 -104 -94 -270t-312 -438q-218 -274 -338 -362q-119 -88 -223 -88z" />
    <glyph glyph-name="Amacron" unicode="&#x100;" horiz-adv-x="1443" 
d="M670 1534l30 129h615l-27 -129h-618zM530 596h453l-80 629zM-55 0l32 135h123l643 1079h-159l30 134h619l-31 -134h-153l143 -1079h143l-32 -135h-441l31 133h149l-41 332h-548l-197 -332h178l-33 -133h-456z" />
    <glyph glyph-name="amacron" unicode="&#x101;" horiz-adv-x="1146" 
d="M383 1096l31 129h614l-27 -129h-618zM442 109q143 0 242 130q98 130 98 285q0 110 -57 174t-162 64q-139 0 -232 -125t-93 -289q0 -111 53 -175t151 -64zM395 -16q-137 0 -223 96t-86 258q0 223 137 387t326 164q104 -1 178 -61t94 -156l56 207h137l-158 -641
q-14 -61 -14 -86q0 -63 57 -64q61 0 117 137l71 -24q-70 -215 -219 -215q-74 0 -118 44t-43 115v21q-136 -182 -312 -182z" />
    <glyph glyph-name="Abreve" unicode="&#x102;" horiz-adv-x="1443" 
d="M972 1477q-110 1 -180 79t-81 211l94 31q39 -182 191 -182t264 180l83 -45q-61 -127 -160 -201q-101 -73 -211 -73zM530 596h453l-80 629zM-55 0l32 135h123l643 1079h-159l30 134h619l-31 -134h-153l143 -1079h143l-32 -135h-441l31 133h149l-41 332h-548l-197 -332h178
l-33 -133h-456z" />
    <glyph glyph-name="abreve" unicode="&#x103;" horiz-adv-x="1146" 
d="M686 1038q-110 0 -182 79q-70 79 -80 212l94 31q39 -182 192 -182t263 180l84 -45q-61 -127 -161 -201t-210 -74zM442 109q143 0 242 130q98 130 98 285q0 110 -57 174t-162 64q-139 0 -232 -125t-93 -289q0 -111 53 -175t151 -64zM395 -16q-137 0 -223 96t-86 258
q0 223 137 387t326 164q104 -1 178 -61t94 -156l56 207h137l-158 -641q-14 -61 -14 -86q0 -63 57 -64q61 0 117 137l71 -24q-70 -215 -219 -215q-74 0 -118 44t-43 115v21q-136 -182 -312 -182z" />
    <glyph glyph-name="Aogonek" unicode="&#x104;" horiz-adv-x="1443" 
d="M530 596h453l-80 629zM985 -217q0 -76 90 -76q57 0 105 19l-25 -103q-53 -35 -131 -35t-124 41t-46 111q0 133 172 260h-164l31 133h149l-41 332h-548l-197 -332h178l-33 -133h-456l32 135h123l643 1079h-159l30 134h619l-31 -134h-153l143 -1079h143l-32 -135h-160
q-158 -119 -158 -217z" />
    <glyph glyph-name="aogonek" unicode="&#x105;" horiz-adv-x="1146" 
d="M442 109q143 0 242 130q98 130 98 285q0 110 -57 174t-162 64q-139 0 -232 -125t-93 -289q0 -111 53 -175t151 -64zM707 152v14q-135 -182 -312 -182q-137 0 -223 96t-86 258q0 223 137 387t326 164q104 -1 178 -61t94 -156l56 207h137l-158 -641q-14 -61 -14 -86
q0 -61 53 -62q68 0 121 135l71 -24q-29 -96 -92 -160q-19 -19 -83 -73t-94 -96t-30 -89q0 -76 91 -76q57 0 104 19l-22 -103q-53 -35 -133 -35t-125 41q-46 41 -46 111q0 133 168 252q-70 14 -100 76q-18 37 -18 84z" />
    <glyph glyph-name="Cacute" unicode="&#x106;" horiz-adv-x="1404" 
d="M725 -25q-246 0 -412 160t-166 434q-1 324 225 564t537 239q217 0 351 -107q133 -108 133 -223q0 -66 -36 -108t-86 -41q-50 0 -80 30q-30 29 -30 81t60 88q-17 55 -103 99t-215 44q-252 0 -425 -201t-173 -435t119 -359t315 -125q229 0 422 188l90 -94
q-227 -234 -526 -234zM1252 1815q38 0 62 -24t23 -56q0 -61 -75 -99l-369 -168l-35 50l311 258q45 39 83 39z" />
    <glyph glyph-name="cacute" unicode="&#x107;" horiz-adv-x="950" 
d="M476 -16q-168 0 -280 102t-112 274q0 209 148 369t352 160q143 0 229 -72t86 -162q0 -51 -31 -87q-32 -36 -72 -36t-67 25t-27 71t41 70q-49 66 -175 66t-232 -116t-107 -279q0 -117 72 -189t193 -71q158 0 290 114l-4 -139q-135 -100 -304 -100zM947 1376q38 0 62 -24
t23 -56q0 -61 -76 -98l-368 -168l-35 49l311 258q45 39 83 39z" />
    <glyph glyph-name="Cdotaccent" unicode="&#x10a;" horiz-adv-x="1404" 
d="M987 1501q-49 0 -84 36t-35 86t35 85t84 35t84 -35t35 -85t-35 -86t-84 -36zM725 -25q-246 0 -412 160t-166 434q-1 324 225 564t537 239q217 0 351 -107q133 -108 133 -223q0 -66 -36 -108t-86 -41q-50 0 -80 30q-30 29 -30 81t60 88q-17 55 -103 99t-215 44
q-252 0 -425 -201t-173 -435t119 -359t315 -125q229 0 422 188l90 -94q-227 -234 -526 -234z" />
    <glyph glyph-name="cdotaccent" unicode="&#x10b;" horiz-adv-x="950" 
d="M682 1063q-49 0 -84 36t-35 86t35 85t84 35t84 -35t35 -85t-35 -86t-84 -36zM476 -16q-168 0 -280 102t-112 274q0 209 148 369t352 160q143 0 229 -72t86 -162q0 -51 -31 -87q-32 -36 -72 -36t-67 25t-27 71t41 70q-49 66 -175 66t-232 -116t-107 -279q0 -117 72 -189
t193 -71q158 0 290 114l-4 -139q-135 -100 -304 -100z" />
    <glyph glyph-name="Ccaron" unicode="&#x10c;" horiz-adv-x="1404" 
d="M725 -25q-246 0 -412 160t-166 434q-1 324 225 564t537 239q217 0 351 -107q133 -108 133 -223q0 -66 -36 -108t-86 -41q-50 0 -80 30q-30 29 -30 81t60 88q-17 55 -103 99t-215 44q-252 0 -425 -201t-173 -435t119 -359t315 -125q229 0 422 188l90 -94
q-227 -234 -526 -234zM954 1464l-231 312l72 61l188 -184l297 186l57 -76z" />
    <glyph glyph-name="ccaron" unicode="&#x10d;" horiz-adv-x="950" 
d="M476 -16q-168 0 -280 102t-112 274q0 209 148 369t352 160q143 0 229 -72t86 -162q0 -51 -31 -87q-32 -36 -72 -36t-67 25t-27 71t41 70q-49 66 -175 66t-232 -116t-107 -279q0 -117 72 -189t193 -71q158 0 290 114l-4 -139q-135 -100 -304 -100zM649 1026l-231 311
l71 62l189 -185l297 187l57 -76z" />
    <glyph glyph-name="Dcaron" unicode="&#x10e;" horiz-adv-x="1449" 
d="M514 135q365 0 561 201q176 174 176 444q0 182 -108 287q-141 145 -430 145h-111l-250 -1077h162zM727 1348q354 0 543 -189q141 -145 141 -373q0 -319 -211 -530q-254 -256 -711 -256h-483l33 135h162l250 1077h-183l31 136h428zM893 1464l-231 312l71 61l189 -184
l297 186l57 -76z" />
    <glyph glyph-name="dcaron" unicode="&#x10f;" horiz-adv-x="1150" 
d="M1360 1520q38 0 60 -24t22 -62q0 -169 -273 -400l-41 39q96 104 123 205q6 27 9 80q2 53 8 80q18 82 92 82zM451 109q141 0 238 128t97 285q0 112 -59 176t-166 64q-137 0 -229 -124t-92 -288q0 -111 56 -176t155 -65zM88 338q0 227 136 389t321 162q102 1 178 -59
t98 -152l164 698h-166l31 123h307l-295 -1261q-16 -59 -16 -86q0 -63 57 -64q63 0 119 137l72 -24q-70 -215 -222 -215q-74 0 -116 45t-43 119v18q-133 -184 -312 -184q-137 0 -225 97t-88 257z" />
    <glyph glyph-name="Dcroat" unicode="&#x110;" horiz-adv-x="1449" 
d="M514 135q365 0 561 201q176 174 176 444q0 182 -108 287q-141 145 -430 145h-111l-106 -458h278l-31 -127h-278l-113 -492h162zM727 1348q354 0 543 -189q141 -145 141 -373q0 -319 -211 -530q-254 -256 -711 -256h-483l33 135h162l112 492h-174l31 127h174l107 458h-183
l31 136h428z" />
    <glyph glyph-name="dcroat" unicode="&#x111;" horiz-adv-x="1150" 
d="M451 109q141 0 238 128t97 285q0 112 -59 176t-166 64q-137 0 -229 -124t-92 -288q0 -111 56 -176t155 -65zM846 152q0 -63 57 -64q63 0 119 137l72 -24q-70 -215 -222 -215q-74 0 -116 45t-43 119v18q-133 -184 -312 -184q-137 0 -225 97t-88 257q0 227 136 389t321 162
q102 1 178 -59t98 -152l90 385h-315l27 125h317l45 188h-166l31 123h307l-74 -311h158l-27 -125h-159l-193 -825q-16 -59 -16 -86z" />
    <glyph glyph-name="Emacron" unicode="&#x112;" horiz-adv-x="1193" 
d="M532 1534l31 129h615l-27 -129h-619zM6 0l33 135h162l250 1077h-183l31 136h981l-80 -330h-145l45 196h-498l-106 -462h432l-29 -131h-434l-113 -488h500l47 197h145l-75 -330h-963z" />
    <glyph glyph-name="emacron" unicode="&#x113;" horiz-adv-x="974" 
d="M336 1096l31 129h614l-27 -129h-618zM558 764q-101 0 -186 -73t-124 -187h502q14 38 14 100t-52 111q-53 49 -154 49zM223 350q0 -112 80 -178t208 -66t280 80l-31 -139q-129 -63 -289 -63q-161 0 -275 99t-114 269q0 219 143 378t340 159q152 0 243 -86t91 -234
q0 -84 -33 -176h-641q-2 -14 -2 -43z" />
    <glyph glyph-name="Ebreve" unicode="&#x114;" horiz-adv-x="1193" 
d="M836 1477q-110 1 -182 79q-71 78 -81 211l95 31q40 -182 192 -182t262 180l84 -45q-61 -127 -160 -201q-100 -73 -210 -73zM6 0l33 135h162l250 1077h-183l31 136h981l-80 -330h-145l45 196h-498l-106 -462h432l-29 -131h-434l-113 -488h500l47 197h145l-75 -330h-963z
" />
    <glyph glyph-name="ebreve" unicode="&#x115;" horiz-adv-x="974" 
d="M638 1038q-110 0 -180 79t-81 212l94 31q39 -182 192 -182t263 180l84 -45q-61 -127 -161 -201q-101 -74 -211 -74zM558 764q-101 0 -186 -73t-124 -187h502q14 38 14 100t-52 111q-53 49 -154 49zM223 350q0 -112 80 -178t208 -66t280 80l-31 -139q-129 -63 -289 -63
q-161 0 -275 99t-114 269q0 219 143 378t340 159q152 0 243 -86t91 -234q0 -84 -33 -176h-641q-2 -14 -2 -43z" />
    <glyph glyph-name="Edotaccent" unicode="&#x116;" horiz-adv-x="1193" 
d="M862 1501q-49 0 -84 36t-35 86t35 85t84 35t84 -35t35 -85t-35 -86t-84 -36zM6 0l33 135h162l250 1077h-183l31 136h981l-80 -330h-145l45 196h-498l-106 -462h432l-29 -131h-434l-113 -488h500l47 197h145l-75 -330h-963z" />
    <glyph glyph-name="edotaccent" unicode="&#x117;" horiz-adv-x="974" 
d="M664 1063q-49 0 -84 36t-35 86t35 85t84 35t84 -35q34 -35 34 -85t-34 -86t-84 -36zM558 764q-101 0 -186 -73t-124 -187h502q14 38 14 100t-52 111q-53 49 -154 49zM223 350q0 -112 80 -178t208 -66t280 80l-31 -139q-129 -63 -289 -63q-161 0 -275 99t-114 269
q0 219 143 378t340 159q152 0 243 -86t91 -234q0 -84 -33 -176h-641q-2 -14 -2 -43z" />
    <glyph glyph-name="Eogonek" unicode="&#x118;" horiz-adv-x="1193" 
d="M803 -293q57 0 104 19l-24 -103q-51 -35 -130 -35t-125 41t-46 111q0 133 172 260h-748l33 135h162l250 1077h-183l31 136h981l-80 -330h-145l45 196h-498l-106 -462h432l-29 -131h-434l-113 -488h500l47 197h145l-75 -330h-99q-158 -119 -157 -217q0 -76 90 -76z" />
    <glyph glyph-name="eogonek" unicode="&#x119;" horiz-adv-x="974" 
d="M558 764q-101 0 -186 -73t-124 -187h502q14 38 14 100t-52 111q-53 49 -154 49zM82 352q0 219 143 378t340 159q152 0 243 -86t91 -234q0 -84 -33 -176h-641q-2 -14 -2 -43q0 -112 80 -178t208 -66t280 80l-31 -139q-104 -49 -184 -121t-80 -143q0 -76 90 -76
q57 0 104 19l-22 -103q-53 -35 -132 -35t-125 41t-46 111q0 135 161 246l-53 -2q-163 0 -277 99t-114 269z" />
    <glyph glyph-name="Ecaron" unicode="&#x11a;" horiz-adv-x="1193" 
d="M6 0l33 135h162l250 1077h-183l31 136h981l-80 -330h-145l45 196h-498l-106 -462h432l-29 -131h-434l-113 -488h500l47 197h145l-75 -330h-963zM829 1464l-231 312l72 61l188 -184l297 186l57 -76z" />
    <glyph glyph-name="ecaron" unicode="&#x11b;" horiz-adv-x="974" 
d="M631 1026l-232 311l72 62l188 -185l297 187l58 -76zM558 764q-101 0 -186 -73t-124 -187h502q14 38 14 100t-52 111q-53 49 -154 49zM223 350q0 -112 80 -178t208 -66t280 80l-31 -139q-129 -63 -289 -63q-161 0 -275 99t-114 269q0 219 143 378t340 159q152 0 243 -86
t91 -234q0 -84 -33 -176h-641q-2 -14 -2 -43z" />
    <glyph glyph-name="Gbreve" unicode="&#x11e;" horiz-adv-x="1470" 
d="M978 1477q-110 1 -180 79t-81 211l94 31q39 -182 192 -182t263 180l84 -45q-61 -127 -161 -201q-101 -74 -211 -73zM946 1370q258 0 404 -137q78 -77 78 -151t-36 -112t-85 -38t-79 29t-30 77t53 86q-6 10 -26 31q-99 78 -283 78t-332 -100q-148 -99 -226 -259
q-79 -160 -79 -344t108 -300t287 -115q225 0 404 137l67 274h-376l30 129h527l-156 -655h-133l22 131q-188 -151 -415 -151t-376 151q-148 152 -149 399q-1 338 233 589t568 251z" />
    <glyph glyph-name="gbreve" unicode="&#x11f;" horiz-adv-x="1081" 
d="M688 1038q-110 0 -182 79q-70 79 -80 212l94 31q39 -182 192 -182t263 180l84 -45q-61 -127 -161 -201t-210 -74zM465 131q141 0 235 121t95 276q1 109 -61 171t-169 63q-139 0 -232 -116t-93 -277q0 -109 62 -173t163 -65zM371 -410q-86 0 -172 30t-127 69
q-47 49 -47 99t27 81q28 31 73 31t72 -30t27 -66t-17 -58q59 -39 176 -39t190 73t109 226l41 176q-115 -176 -305 -176q-147 0 -239 96q-91 96 -91 258q0 219 136 374t331 155q111 -1 183 -61t96 -150l53 201h137l-209 -899q-45 -190 -133 -277q-110 -113 -311 -113z" />
    <glyph glyph-name="Gdotaccent" unicode="&#x120;" horiz-adv-x="1470" 
d="M1006 1501q-49 0 -84 36t-35 86t35 85t84 35t84 -35q34 -35 34 -85t-34 -86t-84 -36zM946 1370q258 0 404 -137q78 -77 78 -151t-36 -112t-85 -38t-79 29t-30 77t53 86q-6 10 -26 31q-99 78 -283 78t-332 -100q-148 -99 -226 -259q-79 -160 -79 -344t108 -300t287 -115
q225 0 404 137l67 274h-376l30 129h527l-156 -655h-133l22 131q-188 -151 -415 -151t-376 151q-148 152 -149 399q-1 338 233 589t568 251z" />
    <glyph glyph-name="gdotaccent" unicode="&#x121;" horiz-adv-x="1081" 
d="M713 1063q-49 0 -84 36t-35 86t35 85t84 35t84 -35t35 -85t-36 -86q-34 -36 -83 -36zM465 131q141 0 235 121t95 276q1 109 -61 171t-169 63q-139 0 -232 -116t-93 -277q0 -109 62 -173t163 -65zM371 -410q-86 0 -172 30t-127 69q-47 49 -47 99t27 81q28 31 73 31t72 -30
t27 -66t-17 -58q59 -39 176 -39t190 73t109 226l41 176q-115 -176 -305 -176q-147 0 -239 96q-91 96 -91 258q0 219 136 374t331 155q111 -1 183 -61t96 -150l53 201h137l-209 -899q-45 -190 -133 -277q-110 -113 -311 -113z" />
    <glyph glyph-name="Gcommaaccent" unicode="&#x122;" horiz-adv-x="1470" 
d="M498 -206q0 36 30 67q31 31 77 31t79 -34t33 -89q0 -95 -88 -189t-246 -149l-27 51q100 49 157 108q56 59 60 97q-35 12 -55 41q-20 30 -20 66zM946 1370q258 0 404 -137q78 -77 78 -151t-36 -112t-85 -38t-79 29t-30 77t53 86q-6 10 -26 31q-99 78 -283 78t-332 -100
q-148 -99 -226 -259q-79 -160 -79 -344t108 -300t287 -115q225 0 404 137l67 274h-376l30 129h527l-156 -655h-133l22 131q-188 -151 -415 -151t-376 151q-148 152 -149 399q-1 338 233 589t568 251z" />
    <glyph glyph-name="gcommaaccent" unicode="&#x123;" horiz-adv-x="1081" 
d="M817 1168q0 -36 -31 -68q-30 -31 -76 -31t-79 34t-33 89q0 94 88 188t246 150l26 -51q-100 -49 -156 -109t-61 -96q35 -12 55 -41t21 -65zM465 131q141 0 235 121t95 276q1 109 -61 171t-169 63q-139 0 -232 -116t-93 -277q0 -109 62 -173t163 -65zM371 -410
q-86 0 -172 30t-127 69q-47 49 -47 99t27 81q28 31 73 31t72 -30t27 -66t-17 -58q59 -39 176 -39t190 73t109 226l41 176q-115 -176 -305 -176q-147 0 -239 96q-91 96 -91 258q0 219 136 374t331 155q111 -1 183 -61t96 -150l53 201h137l-209 -899q-45 -190 -133 -277
q-110 -113 -311 -113z" />
    <glyph glyph-name="Hbar" unicode="&#x126;" horiz-adv-x="1570" 
d="M494 743h731l41 185h-731zM1583 1049l-27 -121h-139l-182 -793h182l-33 -135h-499l30 135h166l113 475h-731l-111 -475h187l-31 -135h-502l33 135h162l182 793h-133l26 121h136l39 168h-183l31 131h500l-31 -131h-166l-39 -168h731l39 168h-188l33 131h499l-30 -131h-162
l-39 -168h137z" />
    <glyph glyph-name="hbar" unicode="&#x127;" horiz-adv-x="1079" 
d="M651 887q106 0 176 -67t72 -171q0 -63 -22 -137l-76 -283q-26 -92 4 -124q16 -17 43 -17q63 0 115 137l71 -24q-66 -215 -215 -215q-80 0 -127 45t-47 100t14 113l78 286q13 56 13 108t-40 89t-104 37q-94 0 -180 -85t-121 -235l-102 -444h-144l246 1063h-160l27 125h162
l45 188h-166l31 123h305l-74 -311h320l-29 -125h-320l-86 -371q127 195 291 195z" />
    <glyph glyph-name="Imacron" unicode="&#x12a;" horiz-adv-x="722" 
d="M309 1534l31 129h614l-26 -129h-619zM6 0l33 135h180l248 1077h-186l30 136h518l-30 -136h-181l-247 -1077h186l-33 -135h-518z" />
    <glyph glyph-name="imacron" unicode="&#x12b;" horiz-adv-x="604" 
d="M125 1096l31 129h614l-27 -129h-618zM305 -14q-80 0 -126 45t-46 119q0 33 17 94l137 504h-170l33 124h313l-172 -634q-14 -57 -15 -86q0 -64 64 -64t115 137l71 -24q-69 -215 -221 -215z" />
    <glyph glyph-name="Ibreve" unicode="&#x12c;" horiz-adv-x="722" 
d="M612 1477q-110 1 -182 79q-70 78 -80 211l94 31q39 -182 192 -182t263 180l84 -45q-61 -127 -161 -201t-210 -73zM6 0l33 135h180l248 1077h-186l30 136h518l-30 -136h-181l-247 -1077h186l-33 -135h-518z" />
    <glyph glyph-name="ibreve" unicode="&#x12d;" horiz-adv-x="604" 
d="M428 1038q-110 0 -182 79q-70 79 -80 212l94 31q39 -182 192 -182t263 180l84 -45q-61 -127 -161 -201t-210 -74zM305 -14q-80 0 -126 45t-46 119q0 33 17 94l137 504h-170l33 124h313l-172 -634q-14 -57 -15 -86q0 -64 64 -64t115 137l71 -24q-69 -215 -221 -215z" />
    <glyph glyph-name="Iogonek" unicode="&#x12e;" horiz-adv-x="722" 
d="M164 -217q0 -76 90 -76q57 0 104 19l-24 -103q-53 -35 -131 -35t-124 41t-46 111q0 133 172 260h-199l33 135h180l248 1077h-186l30 136h518l-30 -136h-181l-247 -1077h186l-33 -135h-202q-158 -119 -158 -217z" />
    <glyph glyph-name="iogonek" unicode="&#x12f;" horiz-adv-x="604" 
d="M520 1145q0 -43 -30 -74t-73 -31q-42 0 -73 31t-31 74t31 74t73 31q43 0 73 -32q30 -30 30 -73zM227 -217q0 -76 90 -76q57 0 105 19l-23 -103q-51 -35 -131 -35t-126 41t-46 111q0 129 164 250q-59 10 -93 53t-34 91t17 110l137 504h-170l33 124h313l-172 -634
q-14 -57 -15 -86q0 -63 58 -64q70 0 121 137l71 -24q-31 -100 -92 -160q-20 -19 -84 -73t-93 -96q-30 -42 -30 -89z" />
    <glyph glyph-name="Idotaccent" unicode="&#x130;" horiz-adv-x="722" 
d="M639 1501q-49 0 -84 36t-35 86t35 85t84 35t84 -35t35 -85t-35 -86t-84 -36zM6 0l33 135h180l248 1077h-186l30 136h518l-30 -136h-181l-247 -1077h186l-33 -135h-518z" />
    <glyph glyph-name="dotlessi" unicode="&#x131;" horiz-adv-x="604" 
d="M305 -14q-80 0 -126 45t-46 119q0 33 17 94l137 504h-170l33 124h313l-172 -634q-14 -57 -15 -86q0 -64 64 -64t115 137l71 -24q-69 -215 -221 -215z" />
    <glyph glyph-name="Kcommaaccent" unicode="&#x136;" horiz-adv-x="1345" 
d="M449 -206q0 36 30 67q31 31 77 31t79 -34t33 -89q0 -95 -88 -189t-246 -149l-27 51q100 49 157 108q56 59 60 97q-35 12 -55 41q-20 30 -20 66zM1313 1212l-539 -454l297 -623h184l-30 -135h-262l-308 666l-223 -189l-80 -342h187l-33 -135h-500l33 135h162l250 1077
h-183l31 136h492l-31 -134h-158l-131 -567l655 567h-174l29 134h510l-31 -136h-147z" />
    <glyph glyph-name="kcommaaccent" unicode="&#x137;" horiz-adv-x="964" 
d="M209 -206q0 36 31 67q30 31 76 31t79 -34t33 -89q0 -95 -88 -189t-246 -149l-26 51q100 49 156 108t61 97q-35 12 -56 41q-20 30 -20 66zM678 775q0 52 31 83t75 31t75 -32q30 -32 30 -85q0 -90 -98 -180t-263 -168l93 -219q27 -70 46 -92t48 -23q57 0 96 160l76 -23
q-53 -242 -197 -241q-68 0 -113 39t-77 118l-99 238q-70 -31 -120 -51l-78 -330h-144l320 1376h-166l31 123h305l-246 -1055q360 147 426 252q-51 27 -51 79z" />
    <glyph glyph-name="Lacute" unicode="&#x139;" horiz-adv-x="1124" 
d="M6 0l33 135h162l250 1077h-183l31 136h512l-31 -136h-178l-250 -1079h459l49 207h146l-78 -340h-922zM919 1837q37 1 61 -23t24 -57q0 -61 -76 -98l-369 -168l-35 49l312 258q45 39 83 39z" />
    <glyph glyph-name="lacute" unicode="&#x13a;" horiz-adv-x="569" 
d="M276 -14q-78 0 -124 45t-46 119q0 33 15 90l264 1136h-164l31 123h305l-293 -1259q-14 -76 -14 -86q0 -66 57 -66q66 0 121 137l72 -24q-70 -215 -224 -215zM833 1931q37 1 61 -23t24 -57q0 -61 -76 -98l-369 -168l-35 49l312 258q45 39 83 39z" />
    <glyph glyph-name="Lcommaaccent" unicode="&#x13b;" horiz-adv-x="1124" 
d="M6 0l33 135h162l250 1077h-183l31 136h512l-31 -136h-178l-250 -1079h459l49 207h146l-78 -340h-922zM197 -569l-27 51q100 49 157 108q56 59 60 97q-35 12 -55 41q-20 30 -20 66t30 67q31 31 77 31t79 -34t32 -89q0 -95 -88 -189t-245 -149z" />
    <glyph glyph-name="lcommaaccent" unicode="&#x13c;" horiz-adv-x="569" 
d="M276 -14q-78 0 -124 45t-46 119q0 33 15 90l264 1136h-164l31 123h305l-293 -1259q-14 -76 -14 -86q0 -66 57 -66q66 0 121 137l72 -24q-70 -215 -224 -215zM-20 -569l-27 51q100 49 157 108q56 59 60 97q-35 12 -55 41q-21 30 -21 66t31 67t77 31t79 -34t32 -89
q1 -95 -87 -189t-246 -149z" />
    <glyph glyph-name="Lcaron" unicode="&#x13d;" horiz-adv-x="1124" 
d="M6 0l33 135h162l250 1077h-183l31 136h512l-31 -136h-178l-250 -1079h459l49 207h146l-78 -340h-922zM1030 1348q37 0 60 -24t22 -62q0 -170 -272 -400l-41 39q96 104 123 205q6 27 8 80t8 80q18 82 92 82z" />
    <glyph glyph-name="lcaron" unicode="&#x13e;" horiz-adv-x="569" 
d="M276 -14q-78 0 -124 45t-46 119q0 33 15 90l264 1136h-164l31 123h305l-293 -1259q-14 -76 -14 -86q0 -66 57 -66q66 0 121 137l72 -24q-70 -215 -224 -215zM760 1520q38 0 60 -24t22 -62q0 -169 -273 -400l-41 39q96 104 123 205q6 27 8 80t9 80q18 82 92 82z" />
    <glyph glyph-name="Ldot" unicode="&#x13f;" horiz-adv-x="1124" 
d="M989 606q-49 0 -84 36t-35 86t35 85t84 35t84 -35t35 -85t-35 -86t-84 -36zM6 0l33 135h162l250 1077h-183l31 136h512l-31 -136h-178l-250 -1079h459l49 207h146l-78 -340h-922z" />
    <glyph glyph-name="ldot" unicode="&#x140;" horiz-adv-x="667" 
d="M635 573q-49 0 -84 36t-35 86t35 85t84 35t84 -35t35 -85t-35 -86t-84 -36zM276 -14q-78 0 -124 45t-46 119q0 33 15 90l264 1136h-164l31 123h305l-293 -1259q-14 -76 -14 -86q0 -66 57 -66q66 0 121 137l72 -24q-70 -215 -224 -215z" />
    <glyph glyph-name="Lslash" unicode="&#x141;" horiz-adv-x="1142" 
d="M25 0l32 135h162l98 428l-190 -76l-45 109l268 106l119 510h-182l30 136h512l-30 -136h-178l-105 -446l256 100l43 -108l-332 -133l-112 -492h458l50 207h145l-78 -340h-921z" />
    <glyph glyph-name="lslash" unicode="&#x142;" horiz-adv-x="641" 
d="M311 -14q-78 0 -124 45t-46 119q0 33 15 90l114 499l-182 -77l-45 104l260 111l117 499h-164l31 123h305l-129 -555l219 96l45 -104l-297 -131l-131 -565q-14 -76 -14 -86q0 -66 57 -66q66 0 121 137l72 -24q-70 -215 -224 -215z" />
    <glyph glyph-name="Nacute" unicode="&#x143;" horiz-adv-x="1540" 
d="M1122 -6l-553 1100l-221 -959h187l-31 -135h-498l33 135h162l250 1077h-183l31 136h309l518 -1031l207 895h-188l33 136h489l-31 -136h-157l-281 -1218h-76zM1310 1815q38 0 62 -24t23 -56q0 -61 -76 -99l-369 -168l-35 50l312 258q45 39 83 39z" />
    <glyph glyph-name="nacute" unicode="&#x144;" horiz-adv-x="1114" 
d="M846 -14q-78 0 -125 45t-47 105t16 110l82 284q14 54 14 108t-38 90q-39 36 -103 36q-92 0 -177 -85t-122 -235l-113 -444h-143l189 748h-164l30 124h291l-49 -206q131 221 307 221q104 0 172 -67t68 -171q0 -63 -23 -137l-80 -283q-14 -47 -14 -77q1 -30 17 -46
q16 -18 43 -18q61 0 116 137l72 -24q-67 -215 -219 -215zM992 1376q38 0 62 -24t23 -56q0 -61 -76 -98l-368 -168l-35 49l311 258q45 39 83 39z" />
    <glyph glyph-name="Ncommaaccent" unicode="&#x145;" horiz-adv-x="1540" 
d="M1122 -6l-553 1100l-221 -959h187l-31 -135h-498l33 135h162l250 1077h-183l31 136h309l518 -1031l207 895h-188l33 136h489l-31 -136h-157l-281 -1218h-76zM541 -206q0 36 30 67q31 31 77 31t79 -34t33 -89q0 -95 -88 -189t-246 -149l-27 51q100 49 157 108q56 59 60 97
q-35 12 -55 41q-20 30 -20 66z" />
    <glyph glyph-name="ncommaaccent" unicode="&#x146;" horiz-adv-x="1114" 
d="M846 -14q-78 0 -125 45t-47 105t16 110l82 284q14 54 14 108t-38 90q-39 36 -103 36q-92 0 -177 -85t-122 -235l-113 -444h-143l189 748h-164l30 124h291l-49 -206q131 221 307 221q104 0 172 -67t68 -171q0 -63 -23 -137l-80 -283q-14 -47 -14 -77q1 -30 17 -46
q16 -18 43 -18q61 0 116 137l72 -24q-67 -215 -219 -215zM197 -569l-27 51q100 49 157 108q56 59 60 97q-35 12 -55 41q-20 30 -20 66t30 67q31 31 77 31t79 -34t32 -89q0 -95 -88 -189t-245 -149z" />
    <glyph glyph-name="Ncaron" unicode="&#x147;" horiz-adv-x="1540" 
d="M1122 -6l-553 1100l-221 -959h187l-31 -135h-498l33 135h162l250 1077h-183l31 136h309l518 -1031l207 895h-188l33 136h489l-31 -136h-157l-281 -1218h-76zM1014 1464l-232 312l72 61l188 -184l297 186l58 -76z" />
    <glyph glyph-name="ncaron" unicode="&#x148;" horiz-adv-x="1114" 
d="M846 -14q-78 0 -125 45t-47 105t16 110l82 284q14 54 14 108t-38 90q-39 36 -103 36q-92 0 -177 -85t-122 -235l-113 -444h-143l189 748h-164l30 124h291l-49 -206q131 221 307 221q104 0 172 -67t68 -171q0 -63 -23 -137l-80 -283q-14 -47 -14 -77q1 -30 17 -46
q16 -18 43 -18q61 0 116 137l72 -24q-67 -215 -219 -215zM694 1026l-231 311l72 62l188 -185l297 187l57 -76z" />
    <glyph glyph-name="Omacron" unicode="&#x14c;" horiz-adv-x="1499" 
d="M727 115q242 0 411 208t169 468q0 190 -110 316t-314 126q-242 0 -411 -208t-169 -468q-1 -190 109 -316t315 -126zM715 -25q-264 0 -417 163t-153 417q0 150 58 296q122 314 393 449q141 72 299 72q264 0 417 -163t152 -416q0 -150 -57 -296q-123 -314 -393 -450
q-141 -72 -299 -72zM694 1534l31 129h614l-26 -129h-619z" />
    <glyph glyph-name="omacron" unicode="&#x14d;" horiz-adv-x="1040" 
d="M469 109q143 0 243 117q99 118 99 282q0 116 -68 186t-172 70q-141 0 -241 -118t-101 -284q0 -117 68 -185t172 -68zM463 -16q-174 0 -277 109q-102 110 -102 272q0 209 143 367t351 157q174 0 276 -111t102 -270q0 -208 -143 -366t-350 -158zM362 1096l31 129h615
l-27 -129h-619z" />
    <glyph glyph-name="Obreve" unicode="&#x14e;" horiz-adv-x="1499" 
d="M994 1477q-110 1 -180 79t-81 211l94 31q39 -182 192 -182t263 180l84 -45q-61 -127 -161 -201q-101 -74 -211 -73zM727 115q242 0 411 208t169 468q0 190 -110 316t-314 126q-242 0 -411 -208t-169 -468q-1 -190 109 -316t315 -126zM715 -25q-264 0 -417 163t-153 417
q0 150 58 296q122 314 393 449q141 72 299 72q264 0 417 -163t152 -416q0 -150 -57 -296q-123 -314 -393 -450q-141 -72 -299 -72z" />
    <glyph glyph-name="obreve" unicode="&#x14f;" horiz-adv-x="1040" 
d="M666 1038q-110 0 -182 79q-71 79 -81 212l95 31q40 -182 192 -182t262 180l84 -45q-60 -127 -160 -201t-210 -74zM469 109q143 0 243 117q99 118 99 282q0 116 -68 186t-172 70q-141 0 -241 -118t-101 -284q0 -117 68 -185t172 -68zM463 -16q-174 0 -277 109
q-102 110 -102 272q0 209 143 367t351 157q174 0 276 -111t102 -270q0 -208 -143 -366t-350 -158z" />
    <glyph glyph-name="Ohungarumlaut" unicode="&#x150;" horiz-adv-x="1499" 
d="M727 115q242 0 411 208t169 468q0 190 -110 316t-314 126q-242 0 -411 -208t-169 -468q-1 -190 109 -316t315 -126zM715 -25q-264 0 -417 163t-153 417q0 150 58 296q122 314 393 449q141 72 299 72q264 0 417 -163t152 -416q0 -150 -57 -296q-123 -314 -393 -450
q-141 -72 -299 -72zM1457 1808q38 0 60 -24t21 -58q0 -57 -78 -92l-319 -155l-35 51l268 237q45 41 83 41zM1058 1817q36 0 60 -23q24 -22 23 -66q0 -44 -74 -86l-313 -172l-37 50l256 252q49 45 85 45z" />
    <glyph glyph-name="ohungarumlaut" unicode="&#x151;" horiz-adv-x="1040" 
d="M469 109q143 0 243 117q99 118 99 282q0 116 -68 186t-172 70q-141 0 -241 -118t-101 -284q0 -117 68 -185t172 -68zM463 -16q-174 0 -277 109q-102 110 -102 272q0 209 143 367t351 157q174 0 276 -111t102 -270q0 -208 -143 -366t-350 -158zM1127 1370q38 0 60 -24
t21 -58q0 -57 -78 -92l-319 -156l-35 52l268 237q45 41 83 41zM728 1378q36 0 60 -22t23 -67q0 -44 -74 -85l-313 -172l-37 49l256 252q49 45 85 45z" />
    <glyph glyph-name="OE" unicode="&#x152;" horiz-adv-x="1908" 
d="M836 135h79l248 1077h-129q-365 0 -561 -200q-176 -174 -176 -445q0 -180 106 -286q146 -146 433 -146zM821 0q-354 0 -542 188q-141 141 -142 373q0 319 211 531q254 256 711 256h934l-78 -330h-146l46 196h-498l-107 -462h432l-30 -131h-432l-113 -488h498l47 197h145
l-76 -330h-860z" />
    <glyph glyph-name="oe" unicode="&#x153;" horiz-adv-x="1685" 
d="M1273 764q-101 0 -187 -73t-125 -187h501q14 38 14 100t-50 111q-52 49 -153 49zM471 109q143 0 244 117q100 118 100 282q0 116 -69 186t-175 70q-141 0 -241 -118t-101 -284q0 -117 69 -185t173 -68zM1206 -16q-138 0 -230 62q-93 62 -128 165q-145 -227 -387 -227
q-174 0 -276 109q-101 110 -101 272q0 207 142 365t347 159q129 -1 214 -63t120 -171q135 233 377 234q150 0 239 -86t89 -234q0 -84 -33 -176h-641q-2 -14 -2 -43q0 -112 80 -178t208 -66t279 80l-30 -139q-129 -63 -267 -63z" />
    <glyph glyph-name="Racute" unicode="&#x154;" horiz-adv-x="1234" 
d="M649 678q182 0 289 84q106 84 106 217q0 92 -61 154q-80 80 -274 79h-107l-123 -528q70 -6 170 -6zM713 1348q266 0 393 -123q92 -92 92 -242q0 -151 -102 -263t-283 -153l205 -432h158l-31 -135h-236l-245 549q-23 -2 -75 -2t-138 4l-99 -416h185l-33 -135h-498l33 135
h162l250 1077h-183l31 136h414zM1123 1815q38 0 62 -24t23 -56q0 -61 -75 -99l-369 -168l-35 50l311 258q45 39 83 39z" />
    <glyph glyph-name="racute" unicode="&#x155;" horiz-adv-x="782" 
d="M872 1376q38 0 62 -24t22 -56q0 -61 -75 -98l-369 -168l-35 49l311 258q46 39 84 39zM678 887q51 0 85 -31t34 -77t-33 -80q-33 -33 -76 -33t-71 24t-35 58q-64 -30 -142 -130t-108 -231l-99 -387h-143l189 748h-164l30 124h291l-57 -241q174 256 299 256z" />
    <glyph glyph-name="Rcommaaccent" unicode="&#x156;" horiz-adv-x="1234" 
d="M649 678q182 0 289 84q106 84 106 217q0 92 -61 154q-80 80 -274 79h-107l-123 -528q70 -6 170 -6zM713 1348q266 0 393 -123q92 -92 92 -242q0 -151 -102 -263t-283 -153l205 -432h158l-31 -135h-236l-245 549q-23 -2 -75 -2t-138 4l-99 -416h185l-33 -135h-498l33 135
h162l250 1077h-183l31 136h414zM408 -206q0 36 30 67q31 31 77 31t79 -34t33 -89q0 -95 -88 -189t-246 -149l-27 51q100 49 157 108q56 59 60 97q-35 12 -55 41q-20 30 -20 66z" />
    <glyph glyph-name="rcommaaccent" unicode="&#x157;" horiz-adv-x="782" 
d="M238 -231q0 -95 -88 -189t-246 -149l-27 51q100 49 157 108q56 59 60 97q-35 12 -55 41q-21 30 -21 66t31 67t77 31t79 -34t33 -89zM678 887q51 0 85 -31t34 -77t-33 -80q-33 -33 -76 -33t-71 24t-35 58q-64 -30 -142 -130t-108 -231l-99 -387h-143l189 748h-164l30 124
h291l-57 -241q174 256 299 256z" />
    <glyph glyph-name="Rcaron" unicode="&#x158;" horiz-adv-x="1234" 
d="M649 678q182 0 289 84q106 84 106 217q0 92 -61 154q-80 80 -274 79h-107l-123 -528q70 -6 170 -6zM713 1348q266 0 393 -123q92 -92 92 -242q0 -151 -102 -263t-283 -153l205 -432h158l-31 -135h-236l-245 549q-23 -2 -75 -2t-138 4l-99 -416h185l-33 -135h-498l33 135
h162l250 1077h-183l31 136h414zM827 1464l-231 312l72 61l188 -184l297 186l57 -76z" />
    <glyph glyph-name="rcaron" unicode="&#x159;" horiz-adv-x="782" 
d="M575 1026l-231 311l72 62l188 -185l297 187l57 -76zM678 887q51 0 85 -31t34 -77t-33 -80q-33 -33 -76 -33t-71 24t-35 58q-64 -30 -142 -130t-108 -231l-99 -387h-143l189 748h-164l30 124h291l-57 -241q174 256 299 256z" />
    <glyph glyph-name="Sacute" unicode="&#x15a;" horiz-adv-x="1128" 
d="M1004 356q0 -164 -129 -272t-325 -107q-196 -1 -332 97t-136 211q0 61 35 101t84 40t79 -31t29 -69q0 -63 -57 -103q35 -47 115 -80q79 -33 195 -33t200 66t84 158t-58 150t-194 137t-216 166t-81 228q0 141 123 249t303 106q180 0 301 -83t121 -189q0 -64 -35 -102
t-82 -38t-77 31q-29 31 -29 79t51 85q-72 84 -244 84q-123 0 -199 -63q-76 -62 -76 -152t59 -148t197 -139q138 -82 216 -167t78 -212zM1121 1815q38 0 62 -24t23 -56q0 -61 -76 -99l-368 -168l-35 50l311 258q45 39 83 39z" />
    <glyph glyph-name="sacute" unicode="&#x15b;" horiz-adv-x="864" 
d="M313 666q0 -68 89 -117q30 -16 122 -59q92 -44 152 -100q61 -56 61 -146q0 -122 -92 -190t-233 -68q-197 0 -310 112q-51 50 -51 102t28 83q27 31 67 31t65 -26t25 -60t-27 -66q12 -12 35 -25q72 -39 161 -39t139 32t50 79t-29 80t-59 50t-91 46q-60 29 -94 47
q-101 54 -132 117q-17 37 -17 84q0 109 85 179t247 71q162 0 252 -95q49 -49 49 -101t-27 -81q-26 -28 -64 -28t-65 24q-51 46 -4 127q-66 44 -152 44q-86 -1 -133 -33t-47 -74zM886 1376q38 0 62 -24t23 -56q0 -61 -76 -98l-369 -168l-34 49l311 258q45 39 83 39z" />
    <glyph glyph-name="Scedilla" unicode="&#x15e;" horiz-adv-x="1128" 
d="M481 -408q-137 0 -239 86l41 60q84 -57 192 -57q39 0 63 18t24 47t-35 47q-34 18 -97 8l-31 37l82 144q-171 18 -285 109t-114 194q0 61 35 101t84 40t79 -31t29 -69q0 -63 -57 -103q35 -47 115 -80q79 -33 195 -33t200 66t84 158t-58 150t-194 137t-216 166t-81 228
q0 141 123 249t303 106q180 0 301 -83t121 -189q0 -64 -35 -102t-82 -38t-77 31q-29 31 -29 79t51 85q-72 84 -244 84q-123 0 -199 -63q-76 -62 -76 -152t59 -148t197 -139q138 -82 216 -167t78 -212q0 -160 -125 -268t-318 -111l-26 -81q77 -8 119 -50t42 -106t-62 -106
t-153 -42z" />
    <glyph glyph-name="scedilla" unicode="&#x15f;" horiz-adv-x="864" 
d="M313 666q0 -68 89 -117q30 -16 122 -59q92 -44 152 -100q61 -56 61 -146q0 -123 -92 -191t-233 -67h-4l-31 -90q78 -8 120 -50t42 -106q1 -64 -61 -106t-154 -42q-137 0 -240 86l41 60q84 -57 192 -57q39 0 63 18t24 47t-34 47t-98 8l-30 37l88 154q-143 23 -228 106
q-51 50 -51 102t28 83q27 31 67 31t65 -26t25 -60t-27 -66q12 -12 35 -25q72 -39 161 -39t139 32t50 79t-29 80t-59 50t-91 46q-60 29 -94 47q-101 54 -132 117q-17 37 -17 84q0 109 85 179t247 71q162 0 252 -95q49 -49 49 -101t-27 -81q-26 -28 -64 -28t-65 24
q-51 46 -4 127q-66 44 -152 44q-86 -1 -133 -33t-47 -74z" />
    <glyph glyph-name="Scaron" unicode="&#x160;" horiz-adv-x="1128" 
d="M1004 356q0 -164 -129 -272t-325 -107q-196 -1 -332 97t-136 211q0 61 35 101t84 40t79 -31t29 -69q0 -63 -57 -103q35 -47 115 -80q79 -33 195 -33t200 66t84 158t-58 150t-194 137t-216 166t-81 228q0 141 123 249t303 106q180 0 301 -83t121 -189q0 -64 -35 -102
t-82 -38t-77 31q-29 31 -29 79t51 85q-72 84 -244 84q-123 0 -199 -63q-76 -62 -76 -152t59 -148t197 -139q138 -82 216 -167t78 -212zM823 1464l-231 312l72 61l188 -184l297 186l57 -76z" />
    <glyph glyph-name="scaron" unicode="&#x161;" horiz-adv-x="864" 
d="M313 666q0 -68 89 -117q30 -16 122 -59q92 -44 152 -100q61 -56 61 -146q0 -122 -92 -190t-233 -68q-197 0 -310 112q-51 50 -51 102t28 83q27 31 67 31t65 -26t25 -60t-27 -66q12 -12 35 -25q72 -39 161 -39t139 32t50 79t-29 80t-59 50t-91 46q-60 29 -94 47
q-101 54 -132 117q-17 37 -17 84q0 109 85 179t247 71q162 0 252 -95q49 -49 49 -101t-27 -81q-26 -28 -64 -28t-65 24q-51 46 -4 127q-66 44 -152 44q-86 -1 -133 -33t-47 -74zM590 1026l-232 311l72 62l188 -185l297 187l58 -76z" />
    <glyph glyph-name="Tcommaaccent" unicode="&#x162;" horiz-adv-x="1284" 
d="M295 0l31 135h174l248 1079h-334l-49 -213h-146l80 347h1112l-80 -347h-145l49 213h-334l-250 -1079h195l-33 -135h-518zM285 -569l-27 51q100 49 157 108q56 59 60 97q-35 12 -55 41q-20 30 -20 66t30 67q31 31 77 31t79 -34t32 -89q0 -95 -88 -189t-245 -149z" />
    <glyph glyph-name="tcommaaccent" unicode="&#x163;" horiz-adv-x="692" 
d="M367 -231q0 -95 -88 -189t-246 -149l-27 51q100 49 157 108q56 59 60 97q-35 12 -55 41q-20 30 -20 66t30 67q31 31 77 31t79 -34t33 -89zM285 173q0 -32 19 -51q19 -20 64 -20t169 82l53 -75q-156 -125 -275 -125q-78 0 -129 45t-51 121q0 39 17 98l122 500h-155l31 124
h155l51 205l158 51l-63 -256h266l-31 -124h-266l-123 -500q-12 -43 -12 -75z" />
    <glyph glyph-name="Tcaron" unicode="&#x164;" horiz-adv-x="1284" 
d="M295 0l31 135h174l248 1079h-334l-49 -213h-146l80 347h1112l-80 -347h-145l49 213h-334l-250 -1079h195l-33 -135h-518zM885 1464l-232 312l72 61l188 -184l297 186l58 -76z" />
    <glyph glyph-name="tcaron" unicode="&#x165;" horiz-adv-x="692" 
d="M788 1448q37 0 60 -24t22 -62q0 -169 -272 -399l-41 38q96 104 123 205q6 27 8 80t8 80q18 82 92 82zM285 173q0 -32 19 -51q19 -20 64 -20t169 82l53 -75q-156 -125 -275 -125q-78 0 -129 45t-51 121q0 39 17 98l122 500h-155l31 124h155l51 205l158 51l-63 -256h266
l-31 -124h-266l-123 -500q-12 -43 -12 -75z" />
    <glyph glyph-name="Umacron" unicode="&#x16a;" horiz-adv-x="1462" 
d="M664 1534l30 129h615l-27 -129h-618zM684 -23q-206 0 -320 108t-114 288q0 66 20 162l158 677h-180l31 136h497l-31 -136h-165l-158 -686q-18 -92 -19 -143q0 -127 73 -199q74 -72 224 -72t244 92q94 91 129 247l174 761h-186l31 136h497l-30 -136h-162l-178 -780
q-105 -455 -535 -455z" />
    <glyph glyph-name="umacron" unicode="&#x16b;" horiz-adv-x="1114" 
d="M383 1096l31 129h614l-27 -129h-618zM293 230q0 -54 36 -89t97 -35q94 0 180 86t123 234l111 446h143l-158 -634q-16 -55 -16 -86q0 -63 59 -64q61 0 117 137l72 -24q-70 -215 -221 -215q-72 0 -116 45t-44 121q0 8 4 41q-129 -207 -303 -207q-100 0 -166 60t-66 161
q0 57 19 131l106 410h-164l33 124h307l-141 -546q-12 -42 -12 -96z" />
    <glyph glyph-name="Ubreve" unicode="&#x16c;" horiz-adv-x="1462" 
d="M966 1477q-110 1 -181 79t-80 211l94 31q39 -182 191 -182t263 180l84 -45q-61 -127 -160 -201q-101 -73 -211 -73zM684 -23q-206 0 -320 108t-114 288q0 66 20 162l158 677h-180l31 136h497l-31 -136h-165l-158 -686q-18 -92 -19 -143q0 -127 73 -199q74 -72 224 -72
t244 92q94 91 129 247l174 761h-186l31 136h497l-30 -136h-162l-178 -780q-105 -455 -535 -455z" />
    <glyph glyph-name="ubreve" unicode="&#x16d;" horiz-adv-x="1114" 
d="M686 1038q-110 0 -182 79q-70 79 -80 212l94 31q39 -182 192 -182t263 180l84 -45q-61 -127 -161 -201t-210 -74zM293 230q0 -54 36 -89t97 -35q94 0 180 86t123 234l111 446h143l-158 -634q-16 -55 -16 -86q0 -63 59 -64q61 0 117 137l72 -24q-70 -215 -221 -215
q-72 0 -116 45t-44 121q0 8 4 41q-129 -207 -303 -207q-100 0 -166 60t-66 161q0 57 19 131l106 410h-164l33 124h307l-141 -546q-12 -42 -12 -96z" />
    <glyph glyph-name="Uring" unicode="&#x16e;" horiz-adv-x="1462" 
d="M684 -23q-206 0 -320 108t-114 288q0 66 20 162l158 677h-180l31 136h497l-31 -136h-165l-158 -686q-18 -92 -19 -143q0 -127 73 -199q74 -72 224 -72t244 92q94 91 129 247l174 761h-186l31 136h497l-30 -136h-162l-178 -780q-105 -455 -535 -455zM1020 1815
q-47 1 -85 -45t-38 -99q-1 -53 25 -83t74 -29q48 0 85 46t37 98t-25 82q-26 30 -73 30zM988 1460q-95 0 -146 54t-51 148t70 173q71 78 167 78t148 -54q52 -55 51 -149q0 -94 -72 -172t-167 -78z" />
    <glyph glyph-name="uring" unicode="&#x16f;" horiz-adv-x="1114" 
d="M716 1120q48 0 85 46t37 98t-26 83q-26 29 -72 29t-86 -45q-38 -45 -38 -98t26 -83t74 -30zM707 1022q-95 0 -146 54t-51 148t71 172t167 79q96 -1 147 -55t51 -148t-72 -172t-167 -78zM293 230q0 -54 36 -89t97 -35q94 0 180 86t123 234l111 446h143l-158 -634
q-16 -55 -16 -86q0 -63 59 -64q61 0 117 137l72 -24q-70 -215 -221 -215q-72 0 -116 45t-44 121q0 8 4 41q-129 -207 -303 -207q-100 0 -166 60t-66 161q0 57 19 131l106 410h-164l33 124h307l-141 -546q-12 -42 -12 -96z" />
    <glyph glyph-name="Uhungarumlaut" unicode="&#x170;" horiz-adv-x="1462" 
d="M1429 1808q37 0 59 -24t21 -58q0 -57 -77 -92l-320 -155l-35 51l269 237q45 41 83 41zM1029 1817q36 0 60 -23q23 -22 23 -66t-74 -86l-313 -172l-37 50l256 252q49 45 85 45zM684 -23q-206 0 -320 108t-114 288q0 66 20 162l158 677h-180l31 136h497l-31 -136h-165
l-158 -686q-18 -92 -19 -143q0 -127 73 -199q74 -72 224 -72t244 92q94 91 129 247l174 761h-186l31 136h497l-30 -136h-162l-178 -780q-105 -455 -535 -455z" />
    <glyph glyph-name="uhungarumlaut" unicode="&#x171;" horiz-adv-x="1114" 
d="M1148 1370q38 0 60 -24t21 -58q0 -57 -78 -92l-320 -156l-34 52l268 237q45 41 83 41zM749 1378q35 0 59 -22t24 -67q0 -44 -74 -85l-314 -172l-36 49l256 252q49 45 85 45zM293 230q0 -54 36 -89t97 -35q94 0 180 86t123 234l111 446h143l-158 -634q-16 -55 -16 -86
q0 -63 59 -64q61 0 117 137l72 -24q-70 -215 -221 -215q-72 0 -116 45t-44 121q0 8 4 41q-129 -207 -303 -207q-100 0 -166 60t-66 161q0 57 19 131l106 410h-164l33 124h307l-141 -546q-12 -42 -12 -96z" />
    <glyph glyph-name="Uogonek" unicode="&#x172;" horiz-adv-x="1462" 
d="M487 -260q0 121 144 240q-182 14 -282 119q-99 105 -99 274q0 66 20 162l158 677h-180l31 136h497l-31 -136h-165l-158 -686q-18 -92 -19 -143q0 -127 73 -199q74 -72 224 -72t244 92q94 91 129 247l174 761h-186l31 136h497l-30 -136h-162l-178 -780q-98 -420 -467 -450
q-133 -109 -134 -199q0 -76 91 -76q57 0 104 19l-25 -103q-53 -35 -131 -35t-124 41t-46 111z" />
    <glyph glyph-name="uogonek" unicode="&#x173;" horiz-adv-x="1114" 
d="M848 -293q57 0 104 19l-24 -103q-51 -35 -131 -35t-125 41t-45 111q0 131 164 252q-53 12 -84 55t-31 105q0 8 4 41q-129 -207 -303 -207q-100 0 -166 60t-66 161q0 57 19 131l106 410h-164l33 124h307l-141 -546q-12 -42 -12 -96t36 -89t97 -35q94 0 180 86t123 234
l111 446h143l-158 -634q-16 -55 -16 -86q0 -63 57 -64q64 0 119 137l72 -24q-29 -96 -92 -160q-18 -17 -84 -73t-95 -97t-28 -88q0 -76 90 -76z" />
    <glyph glyph-name="Wcircumflex" unicode="&#x174;" horiz-adv-x="1937" 
d="M438 -18l-67 1230h-144l31 136h457l-31 -136h-168l33 -948l528 922h70l133 -926l481 952h-164l33 136h455l-31 -136h-133l-643 -1230h-82l-141 905l-535 -905h-82zM944 1464l-57 78l383 297l231 -311l-69 -62l-191 185z" />
    <glyph glyph-name="wcircumflex" unicode="&#x175;" horiz-adv-x="1368" 
d="M573 1026l-57 78l383 297l231 -311l-69 -62l-191 184zM1075 782q0 42 31 75q31 32 79 32t82 -37t33 -98q0 -233 -395 -783h-71l-123 568l-344 -568h-80l-74 777h-160l33 124h252l45 -684l330 578h69l127 -598q231 340 252 508q-35 8 -61 36t-25 70z" />
    <glyph glyph-name="Ycircumflex" unicode="&#x176;" horiz-adv-x="1292" 
d="M610 1464l-57 78l383 297l231 -311l-69 -62l-191 185zM254 0l33 135h182l100 408l-233 669h-141l32 136h451l-29 -136h-155l180 -555l450 555h-151l33 136h462l-30 -136h-135l-590 -698l-90 -379h190l-29 -135h-530z" />
    <glyph glyph-name="ycircumflex" unicode="&#x177;" horiz-adv-x="987" 
d="M371 1026l-58 78l383 297l232 -311l-70 -62l-190 184zM-31 -410q-57 0 -97 34t-40 79t29 76t69 31t66 -25q27 -25 31 -66h4q86 0 334 299l-150 730h-156l31 124h252l127 -729q289 375 326 531q-84 29 -84 110q0 43 30 74q31 31 80 31t82 -38t33 -103q0 -104 -94 -270
t-312 -438q-218 -274 -338 -362q-119 -88 -223 -88z" />
    <glyph glyph-name="Ydieresis" unicode="&#x178;" horiz-adv-x="1292" 
d="M714 1505q-48 0 -81 34t-33 83t34 84t82 35t82 -35t34 -84t-36 -83q-34 -34 -82 -34zM1072 1505q-48 0 -82 34t-34 83t34 84t82 35t82 -35t34 -84t-34 -83t-82 -34zM254 0l33 135h182l100 408l-233 669h-141l32 136h451l-29 -136h-155l180 -555l450 555h-151l33 136h462
l-30 -136h-135l-590 -698l-90 -379h190l-29 -135h-530z" />
    <glyph glyph-name="Zacute" unicode="&#x179;" horiz-adv-x="1255" 
d="M29 0l-9 74l1084 1147h-649l-49 -213h-144l78 340h993l8 -74l-1083 -1147h682l49 213h144l-80 -340h-1024zM1162 1815q38 0 62 -24t23 -56q0 -61 -76 -99l-368 -168l-35 50l311 258q45 39 83 39z" />
    <glyph glyph-name="zacute" unicode="&#x17a;" horiz-adv-x="966" 
d="M283 39q-115 0 -217 -53l-54 71l721 699h-416l-41 -168h-126l69 284h680l41 -75l-696 -674q60 23 118 23t143 -20t135 -20t81 35t65 138l70 -17q-33 -143 -82 -211t-156 -67q-50 0 -166 28t-169 27zM914 1376q38 0 62 -24t23 -56q0 -61 -75 -98l-369 -168l-35 49l311 258
q45 39 83 39z" />
    <glyph glyph-name="Zdotaccent" unicode="&#x17b;" horiz-adv-x="1255" 
d="M899 1501q-49 0 -84 36t-35 86t35 85t84 35t84 -35t35 -85t-35 -86t-84 -36zM29 0l-9 74l1084 1147h-649l-49 -213h-144l78 340h993l8 -74l-1083 -1147h682l49 213h144l-80 -340h-1024z" />
    <glyph glyph-name="zdotaccent" unicode="&#x17c;" horiz-adv-x="966" 
d="M651 1063q-49 0 -84 36t-35 86t35 85t84 35t84 -35t35 -85t-35 -86t-84 -36zM283 39q-115 0 -217 -53l-54 71l721 699h-416l-41 -168h-126l69 284h680l41 -75l-696 -674q60 23 118 23t143 -20t135 -20t81 35t65 138l70 -17q-33 -143 -82 -211t-156 -67q-50 0 -166 28
t-169 27z" />
    <glyph glyph-name="Zcaron" unicode="&#x17d;" horiz-adv-x="1255" 
d="M29 0l-9 74l1084 1147h-649l-49 -213h-144l78 340h993l8 -74l-1083 -1147h682l49 213h144l-80 -340h-1024zM866 1464l-231 312l72 61l188 -184l297 186l57 -76z" />
    <glyph glyph-name="zcaron" unicode="&#x17e;" horiz-adv-x="966" 
d="M283 39q-115 0 -217 -53l-54 71l721 699h-416l-41 -168h-126l69 284h680l41 -75l-696 -674q60 23 118 23t143 -20t135 -20t81 35t65 138l70 -17q-33 -143 -82 -211t-156 -67q-50 0 -166 28t-169 27zM618 1026l-231 311l72 62l188 -185l297 187l57 -76z" />
    <glyph glyph-name="Aringacute" unicode="&#x1fa;" horiz-adv-x="1443" 
d="M530 596h453l-80 629zM936 1376q47 0 84 45t37 99t-25 83q-24 29 -72 29t-86 -46t-36 -98q0 -52 26 -82t72 -30zM733 1491q0 92 71 166t166 74q95 -1 145 -55t50 -124t-32 -126q-33 -54 -84 -78h184l-31 -134h-153l143 -1079h143l-32 -135h-441l31 133h149l-41 332h-548
l-197 -332h178l-33 -133h-456l32 135h123l643 1079h-159l30 134h189q-70 51 -70 143zM1357 2189q37 1 61 -23t24 -57q0 -61 -76 -98l-369 -168l-34 49l311 258q45 39 83 39z" />
    <glyph glyph-name="aringacute" unicode="&#x1fb;" horiz-adv-x="1146" 
d="M718 1120q48 0 85 46t37 98t-26 83q-26 29 -72 29t-86 -45q-38 -45 -38 -98t26 -83t74 -30zM1138 1948q38 0 62 -24t23 -56q0 -61 -76 -99l-369 -167l-35 49l312 258q45 39 83 39zM512 1224q0 94 71 172t167 79q96 -1 147 -55t51 -148t-72 -172t-167 -78t-146 54t-51 148
zM442 109q143 0 242 130q98 130 98 285q0 110 -57 174t-162 64q-139 0 -232 -125t-93 -289q0 -111 53 -175t151 -64zM395 -16q-137 0 -223 96t-86 258q0 223 137 387t326 164q104 -1 178 -61t94 -156l56 207h137l-158 -641q-14 -61 -14 -86q0 -63 57 -64q61 0 117 137
l71 -24q-70 -215 -219 -215q-74 0 -118 44t-43 115v21q-136 -182 -312 -182z" />
    <glyph glyph-name="AEacute" unicode="&#x1fc;" horiz-adv-x="1869" 
d="M625 594h370l146 627h-51zM-66 0l33 135h162l805 1077h-176l33 136h1163l-78 -330h-145l45 196h-484l-106 -462h418l-31 -131h-418l-113 -488h484l47 197h145l-76 -330h-948l31 135h164l78 330h-437l-245 -332h184l-31 -133h-504zM1623 1815q37 0 61 -24t24 -56
q0 -61 -76 -99l-368 -168l-35 50l311 258q45 39 83 39z" />
    <glyph glyph-name="aeacute" unicode="&#x1fd;" horiz-adv-x="1622" 
d="M1248 1376q38 0 62 -24t23 -56q0 -61 -76 -98l-368 -168l-35 49l311 258q45 39 83 39zM1206 764q-102 0 -187 -73t-122 -187h502q14 47 14 86q0 76 -52 125q-53 49 -155 49zM352 106q127 0 240 82t143 209h-164q-367 0 -366 -184q-1 -47 39 -77t108 -30zM872 350
q0 -112 80 -178t208 -66t278 80l-31 -139q-127 -63 -273 -63t-237 72q-92 72 -125 190q-59 -119 -176 -191q-117 -71 -250 -71t-207 66t-73 151q0 145 124 223q125 78 342 78h216q-4 118 -73 194t-186 76q-59 0 -100 -22q14 -25 14 -55q-1 -29 -27 -57t-66 -28t-66 30
t-27 73q0 88 107 143q66 33 159 33q287 0 342 -260q61 119 167 189t242 71q134 0 224 -86t90 -234q0 -78 -35 -176h-639q-2 -14 -2 -43z" />
    <glyph glyph-name="Oslashacute" unicode="&#x1fe;" horiz-adv-x="1499" 
d="M1298 1815q38 0 62 -24t22 -56q0 -61 -75 -99l-369 -168l-35 50l311 258q46 39 84 39zM731 113q242 0 411 208t169 470q0 109 -41 206l-862 -751q116 -133 323 -133zM305 557q0 -121 41 -211l862 752q-115 137 -323 137q-242 0 -411 -208t-169 -470zM719 -25
q-268 0 -422 170l-193 -168l-84 99l201 174q-71 134 -71 294t56 306q120 313 392 450q141 72 299 72q270 0 424 -174l201 174l84 -96l-211 -184q71 -138 71 -320t-95 -368t-269 -308q-174 -121 -383 -121z" />
    <glyph glyph-name="oslashacute" unicode="&#x1ff;" horiz-adv-x="1056" 
d="M978 1376q38 0 62 -24t23 -56q0 -61 -76 -98l-369 -168l-34 49l311 258q45 39 83 39zM485 109q143 0 243 116q99 117 99 283q0 49 -14 98l-498 -436q68 -61 170 -61zM242 365q0 -66 18 -115l502 446q-68 68 -176 68q-144 0 -244 -116t-100 -283zM481 -16q-160 0 -264 94
l-131 -117l-74 86l135 117q-51 92 -51 203q0 209 142 365t352 157q162 0 268 -103l137 123l76 -84l-145 -129q47 -88 47 -190q-1 -210 -143 -366t-349 -156z" />
    <glyph glyph-name="Scommaaccent" unicode="&#x218;" horiz-adv-x="1128" 
d="M1004 356q0 -164 -129 -272t-325 -107q-196 -1 -332 97t-136 211q0 61 35 101t84 40t79 -31t29 -69q0 -63 -57 -103q35 -47 115 -80q79 -33 195 -33t200 66t84 158t-58 150t-194 137t-216 166t-81 228q0 141 123 249t303 106q180 0 301 -83t121 -189q0 -64 -35 -102
t-82 -38t-77 31q-29 31 -29 79t51 85q-72 84 -244 84q-123 0 -199 -63q-76 -62 -76 -152t59 -148t197 -139q138 -82 216 -167t78 -212zM332 -206q0 36 30 67q31 31 77 31t79 -34t33 -89q0 -95 -88 -189t-246 -149l-27 51q100 49 157 108q56 59 61 97q-35 12 -56 41
q-20 30 -20 66z" />
    <glyph glyph-name="scommaaccent" unicode="&#x219;" horiz-adv-x="864" 
d="M313 666q0 -68 89 -117q30 -16 122 -59q92 -44 152 -100q61 -56 61 -146q0 -122 -92 -190t-233 -68q-197 0 -310 112q-51 50 -51 102t28 83q27 31 67 31t65 -26t25 -60t-27 -66q12 -12 35 -25q72 -39 161 -39t139 32t50 79t-29 80t-59 50t-91 46q-60 29 -94 47
q-101 54 -132 117q-17 37 -17 84q0 109 85 179t247 71q162 0 252 -95q49 -49 49 -101t-27 -81q-26 -28 -64 -28t-65 24q-51 46 -4 127q-66 44 -152 44q-86 -1 -133 -33t-47 -74zM205 -206q0 36 31 67q30 31 76 31t79 -34t33 -89q0 -95 -88 -189t-246 -149l-27 51
q100 49 157 108q56 59 61 97q-35 12 -56 41q-20 30 -20 66z" />
    <glyph glyph-name="schwa" unicode="&#x259;" horiz-adv-x="974" 
d="M211 283q1 -77 53 -127t153 -50t187 73t123 190h-502q-14 -49 -14 -86zM464 766q-128 0 -278 -80l29 139q129 63 289 63t274 -98q114 -99 115 -270q0 -219 -143 -378t-338 -158q-154 0 -245 86t-91 231q0 78 35 178h639l2 43q0 112 -80 178t-208 66z" />
    <glyph glyph-name="circumflex" unicode="&#x2c6;" horiz-adv-x="1024" 
d="M410 1026l-58 78l383 297l232 -311l-70 -62l-190 184z" />
    <glyph glyph-name="caron" unicode="&#x2c7;" horiz-adv-x="1024" 
d="M647 1026l-231 311l71 62l189 -185l297 187l57 -76z" />
    <glyph glyph-name="breve" unicode="&#x2d8;" horiz-adv-x="1024" 
d="M648 1038q-110 0 -180 79t-81 212l94 31q39 -182 192 -182t263 180l84 -45q-61 -127 -161 -201q-101 -74 -211 -74z" />
    <glyph glyph-name="dotaccent" unicode="&#x2d9;" horiz-adv-x="1024" 
d="M682 1063q-49 0 -84 36t-35 86t35 85t84 35t84 -35t35 -85t-35 -86t-84 -36z" />
    <glyph glyph-name="ring" unicode="&#x2da;" horiz-adv-x="1024" 
d="M588 1233q0 -53 26 -83t73 -30q48 0 85 46t37 98t-26 83q-27 29 -73 29t-84 -45t-38 -98zM679 1022q-95 0 -147 54q-51 54 -51 148t71 172t167 79q96 -1 147 -55q52 -54 52 -148t-72 -172t-167 -78z" />
    <glyph glyph-name="ogonek" unicode="&#x2db;" horiz-adv-x="1026" 
d="M356 -217q0 -76 90 -76q57 0 105 19l-25 -103q-53 -35 -131 -35t-124 41t-46 111q0 190 332 358l57 -30q-258 -160 -258 -285z" />
    <glyph glyph-name="tilde" unicode="&#x2dc;" horiz-adv-x="1024" 
d="M810 1030q-78 0 -148 70t-113 71q-72 0 -125 -129l-92 33q27 104 91 172q65 68 143 68q78 -1 148 -71t113 -70q74 0 127 129l90 -33q-25 -104 -90 -172t-144 -68z" />
    <glyph glyph-name="hungarumlaut" unicode="&#x2dd;" horiz-adv-x="1024" 
d="M1007 1370q37 0 59 -24t21 -58q0 -57 -77 -92l-320 -156l-35 52l269 237q45 41 83 41zM607 1378q36 0 60 -22q23 -22 23 -67q0 -44 -74 -85l-313 -172l-37 49l256 252q49 45 85 45z" />
    <glyph glyph-name="commaaccent" unicode="&#x326;" horiz-adv-x="428" 
d="M160 -206q0 36 30 67q31 31 77 31t79 -34t33 -89q0 -95 -88 -189t-246 -149l-27 51q100 49 157 108q56 59 61 97q-35 12 -56 41q-20 30 -20 66z" />
    <glyph glyph-name="Wgrave" unicode="&#x1e80;" horiz-adv-x="1937" 
d="M1050 1815q42 0 87 -66l159 -252l-47 -39l-239 178q-54 44 -54 86t26 68t68 25zM438 -18l-67 1230h-144l31 136h457l-31 -136h-168l33 -948l528 922h70l133 -926l481 952h-164l33 136h455l-31 -136h-133l-643 -1230h-82l-141 905l-535 -905h-82z" />
    <glyph glyph-name="wgrave" unicode="&#x1e81;" horiz-adv-x="1368" 
d="M588 1283q0 42 25 68q26 25 69 25t86 -65l160 -252l-47 -39l-240 178q-53 43 -53 85zM1075 782q0 42 31 75q31 32 79 32t82 -37t33 -98q0 -233 -395 -783h-71l-123 568l-344 -568h-80l-74 777h-160l33 124h252l45 -684l330 578h69l127 -598q231 340 252 508q-35 8 -61 36
t-25 70z" />
    <glyph glyph-name="Wacute" unicode="&#x1e82;" horiz-adv-x="1937" 
d="M438 -18l-67 1230h-144l31 136h457l-31 -136h-168l33 -948l528 922h70l133 -926l481 952h-164l33 136h455l-31 -136h-133l-643 -1230h-82l-141 905l-535 -905h-82zM1490 1815q38 0 62 -24t23 -56q0 -61 -76 -99l-369 -168l-34 50l311 258q45 39 83 39z" />
    <glyph glyph-name="wacute" unicode="&#x1e83;" horiz-adv-x="1368" 
d="M1121 1376q38 0 62 -24t23 -56q0 -61 -76 -98l-368 -168l-35 49l311 258q45 39 83 39zM1075 782q0 42 31 75q31 32 79 32t82 -37t33 -98q0 -233 -395 -783h-71l-123 568l-344 -568h-80l-74 777h-160l33 124h252l45 -684l330 578h69l127 -598q231 340 252 508
q-35 8 -61 36t-25 70z" />
    <glyph glyph-name="Wdieresis" unicode="&#x1e84;" horiz-adv-x="1937" 
d="M438 -18l-67 1230h-144l31 136h457l-31 -136h-168l33 -948l528 922h70l133 -926l481 952h-164l33 136h455l-31 -136h-133l-643 -1230h-82l-141 905l-535 -905h-82zM1163 1622q-1 -49 -35 -83t-82 -34t-81 34t-33 83t34 84t82 35t82 -35t33 -84zM1404 1505q-48 0 -82 34
t-34 83t34 84t82 35t82 -35t34 -84t-34 -83t-82 -34z" />
    <glyph glyph-name="wdieresis" unicode="&#x1e85;" horiz-adv-x="1368" 
d="M1035 1067q-48 0 -82 34t-33 83q0 49 33 84q34 35 82 35t82 -35t34 -84t-34 -83t-82 -34zM677 1067q-48 0 -81 34t-33 83t34 84t82 35t82 -35t34 -84t-35 -83t-83 -34zM1075 782q0 42 31 75q31 32 79 32t82 -37t33 -98q0 -233 -395 -783h-71l-123 568l-344 -568h-80
l-74 777h-160l33 124h252l45 -684l330 578h69l127 -598q231 340 252 508q-35 8 -61 36t-25 70z" />
    <glyph glyph-name="Ygrave" unicode="&#x1ef2;" horiz-adv-x="1292" 
d="M625 1722q-1 42 25 68t69 25q43 0 86 -66l160 -252l-47 -39l-240 178q-53 44 -53 86zM254 0l33 135h182l100 408l-233 669h-141l32 136h451l-29 -136h-155l180 -555l450 555h-151l33 136h462l-30 -136h-135l-590 -698l-90 -379h190l-29 -135h-530z" />
    <glyph glyph-name="ygrave" unicode="&#x1ef3;" horiz-adv-x="987" 
d="M387 1283q0 42 26 68q27 25 69 25t85 -65l160 -252l-47 -39l-240 178q-53 43 -53 85zM-31 -410q-57 0 -97 34t-40 79t29 76t69 31t66 -25q27 -25 31 -66h4q86 0 334 299l-150 730h-156l31 124h252l127 -729q289 375 326 531q-84 29 -84 110q0 43 30 74q31 31 80 31
t82 -38t33 -103q0 -104 -94 -270t-312 -438q-218 -274 -338 -362q-119 -88 -223 -88z" />
    <glyph glyph-name="enspace" unicode="&#x2002;" horiz-adv-x="1024" 
 />
    <glyph glyph-name="emspace" unicode="&#x2003;" horiz-adv-x="2048" 
 />
    <glyph glyph-name="threeperemspace" unicode="&#x2004;" horiz-adv-x="681" 
 />
    <glyph glyph-name="fourperemspace" unicode="&#x2005;" horiz-adv-x="512" 
 />
    <glyph glyph-name="figurespace" unicode="&#x2007;" horiz-adv-x="1085" 
 />
    <glyph glyph-name="thinspace" unicode="&#x2009;" horiz-adv-x="272" 
 />
    <glyph glyph-name="hairspace" unicode="&#x200a;" horiz-adv-x="153" 
 />
    <glyph glyph-name="endash" unicode="&#x2013;" horiz-adv-x="946" 
d="M63 500l33 139h828l-31 -139h-830z" />
    <glyph glyph-name="emdash" unicode="&#x2014;" horiz-adv-x="1441" 
d="M63 500l33 139h1323l-30 -139h-1326z" />
    <glyph glyph-name="quoteleft" unicode="&#x2018;" horiz-adv-x="452" 
d="M326 827q-55 0 -93 40q-37 40 -36 104q1 109 111 227t282 184l31 -59q-117 -68 -178 -137q-60 -70 -70 -117q37 -14 59 -46t23 -76q0 -44 -37 -82t-92 -38z" />
    <glyph glyph-name="quoteright" unicode="&#x2019;" horiz-adv-x="452" 
d="M293 1249q0 53 37 91t92 38t92 -40t37 -105q1 -109 -109 -225t-282 -187l-31 62q115 65 175 135t73 117q-84 37 -84 114z" />
    <glyph glyph-name="quotesinglbase" unicode="&#x201a;" horiz-adv-x="442" 
d="M51 126q0 42 36 79t90 37t91 -40t37 -104q1 -108 -101 -218t-282 -173l-31 60q115 57 179 124q63 68 69 113q-41 12 -65 46t-23 76z" />
    <glyph glyph-name="quotedblleft" unicode="&#x201c;" horiz-adv-x="856" 
d="M325 831q-54 0 -92 40q-37 40 -36 102q1 109 109 225t280 182l30 -59q-117 -67 -176 -135t-69 -115q80 -33 80 -113q0 -53 -36 -90t-90 -37zM732 831q-54 0 -91 40t-37 102q0 109 109 225t280 182l31 -59q-115 -67 -174 -135t-72 -115q82 -33 82 -113q0 -53 -37 -90
t-91 -37z" />
    <glyph glyph-name="quotedblright" unicode="&#x201d;" horiz-adv-x="856" 
d="M293 1251q0 53 36 90t91 37t91 -40t36 -103q-1 -109 -109 -225t-278 -181l-31 60q115 67 174 135t72 115q-82 33 -82 112zM700 1251q0 53 36 90t91 37t91 -40t36 -103q0 -109 -108 -225t-279 -181l-30 60q115 67 174 135t71 115q-82 33 -82 112z" />
    <glyph glyph-name="quotedblbase" unicode="&#x201e;" horiz-adv-x="837" 
d="M49 123q0 41 35 77t87 36t89 -39t37 -101q1 -106 -99 -214t-278 -171l-29 60q113 55 176 123q62 68 68 110q-41 12 -63 45t-23 74zM574 236q52 0 90 -39t36 -101q0 -106 -99 -214t-277 -171l-31 60q115 55 177 123t69 110q-41 12 -65 45t-24 74t36 77t88 36z" />
    <glyph glyph-name="dagger" unicode="&#x2020;" horiz-adv-x="954" 
d="M198 696q-44 0 -73 30t-29 77t37 82t83 35t87 -11l213 -41l19 318q6 125 98 125q61 0 79 -49t-7 -103l-121 -299l213 47q45 8 61 8q55 1 88 -31t33 -79t-28 -78q-27 -31 -71 -31t-74 34t-28 83l-174 -25l-229 -792h-74l162 803l-164 16q2 -51 -28 -85q-29 -34 -73 -34z
" />
    <glyph glyph-name="daggerdbl" unicode="&#x2021;" horiz-adv-x="995" 
d="M340 -254q-57 0 -76 46q-18 46 6 102l101 241l-164 -39q-41 -8 -80 -8t-75 31t-36 75t28 72t71 29q43 0 71 -31t27 -78l145 19l109 327l33 322l-140 18q2 -50 -26 -80t-72 -30q-43 0 -71 29q-27 29 -27 73t36 75q36 32 95 32q20 0 70 -8l178 -39l16 268q6 119 94 119
q57 0 75 -46t-5 -102l-100 -243l163 38q94 28 154 -22q37 -31 37 -74q0 -44 -29 -72q-28 -28 -70 -28t-72 31t-28 77l-145 -18l-107 -328l-34 -321l141 -19q-2 49 26 80q29 31 71 31t71 -29q29 -28 29 -72t-38 -76q-36 -32 -96 -32q-18 0 -67 8l-178 39l-17 -268
q-6 -119 -94 -119z" />
    <glyph glyph-name="bullet" unicode="&#x2022;" horiz-adv-x="598" 
d="M530 555q0 -87 -56 -145t-141 -58t-141 58t-57 145q0 86 56 146q55 61 141 61t142 -60t56 -147z" />
    <glyph glyph-name="ellipsis" unicode="&#x2026;" horiz-adv-x="1247" 
d="M137 -16q-51 0 -87 36t-36 88q0 54 36 90t87 36t86 -36t35 -89t-35 -89t-86 -36zM553 -16q-51 0 -87 36t-36 88q0 54 36 90t87 36t86 -36t35 -89t-35 -89t-86 -36zM969 -16q-51 0 -87 36t-36 88q0 54 36 90t87 36t86 -36t35 -89t-35 -89t-86 -36z" />
    <glyph glyph-name="perthousand" unicode="&#x2030;" horiz-adv-x="1789" 
d="M1470 -16q-106 0 -163 60t-57 165t79 193q81 88 185 87q104 0 161 -60t57 -165q0 -104 -78 -192t-184 -88zM1358 210q0 -134 112 -134q55 0 106 60q50 60 50 126q0 136 -112 136q-54 0 -106 -61q-50 -61 -50 -127zM922 -16q-106 0 -162 60q-58 60 -58 165t79 193t185 87
q106 0 162 -60q58 -60 58 -165q0 -104 -79 -192t-185 -88zM809 210q0 -134 115 -134q55 0 105 60t50 126q0 136 -114 136q-55 0 -105 -61t-51 -127zM356 553q-104 0 -161 61t-57 165t78 192t184 88q106 -1 163 -61t57 -164t-79 -193q-81 -88 -185 -88zM244 780
q0 -136 113 -135q57 1 107 61t50 126t-30 101q-30 34 -84 34q-54 1 -106 -59q-50 -60 -50 -128zM143 -12l-63 73q410 357 751 671q340 314 361 333l63 -74q-133 -113 -511 -453t-601 -550z" />
    <glyph glyph-name="guilsinglleft" unicode="&#x2039;" horiz-adv-x="595" 
d="M373 219l-289 346l438 344l72 -84l-324 -280l187 -256z" />
    <glyph glyph-name="guilsinglright" unicode="&#x203a;" horiz-adv-x="595" 
d="M143 217l-71 84l323 281l-188 258l84 67l289 -346z" />
    <glyph glyph-name="fraction" unicode="&#x2044;" horiz-adv-x="1024" 
d="M-8 -27l-64 54q23 29 366 428t726 878l63 -53q-23 -29 -381 -447q-359 -418 -710 -860z" />
    <glyph glyph-name="zero.sup" unicode="&#x2070;" horiz-adv-x="722" 
d="M502 963q94 -1 160 117t65 263q0 91 -34 143t-99 52q-96 0 -161 -118t-64 -263q0 -194 133 -194zM496 866q-111 0 -173 78t-63 213q0 193 97 335t243 142q111 0 173 -78t63 -213q0 -193 -98 -335t-242 -142z" />
    <glyph glyph-name="four.sup" unicode="&#x2074;" horiz-adv-x="722" 
d="M543 965l32 133h-335l-15 49l488 500l65 -62l-403 -405h221l37 141l106 39l-41 -174h123l-22 -88h-121l-31 -133h96l-20 -84h-328l19 84h129z" />
    <glyph glyph-name="five.sup" unicode="&#x2075;" horiz-adv-x="722" 
d="M482 866q-112 0 -181 44q-68 44 -68 100q-1 32 19 54t50 22t49 -19t19 -41t-12 -39q43 -29 121 -29t139 52q62 52 62 118t-38 100t-112 34t-149 -33l-55 39l114 354h408l-23 -100h-321l-66 -199q66 27 146 27t140 -56t60 -160t-95 -186t-207 -82z" />
    <glyph glyph-name="six.sup" unicode="&#x2076;" horiz-adv-x="722" 
d="M552 1262q-68 0 -123 -52q-54 -52 -54 -113q0 -60 38 -98q39 -38 109 -38t122 51q52 50 52 114t-38 100t-106 36zM520 866q-114 0 -183 71t-69 193t44 230t122 180q102 96 228 96q80 0 136 -40t56 -95q0 -31 -20 -53t-48 -21q-28 -1 -48 19q-19 20 -19 44t14 38
q-25 20 -69 20q-90 0 -174 -80t-113 -223q81 105 191 105t173 -60t63 -160t-85 -182t-199 -82z" />
    <glyph glyph-name="seven.sup" unicode="&#x2077;" horiz-adv-x="722" 
d="M328 881l446 651h-313l-31 -131h-98l53 221h498l26 -53l-460 -688h-121z" />
    <glyph glyph-name="eight.sup" unicode="&#x2078;" horiz-adv-x="722" 
d="M528 1219q-74 0 -120 -38q-46 -37 -48 -93q0 -56 43 -92t114 -35t120 39t49 94t-42 90q-42 35 -116 35zM592 1305q62 -1 106 35t43 88q0 52 -40 82q-39 32 -103 32t-106 -35t-43 -86q0 -51 39 -84q42 -32 104 -32zM522 868q-120 0 -196 60t-76 141q0 82 54 137t140 72
q-104 49 -104 154q0 78 73 139t185 61t182 -55t70 -133q0 -150 -170 -191q115 -51 115 -152t-76 -167t-197 -66z" />
    <glyph glyph-name="nine.sup" unicode="&#x2079;" horiz-adv-x="722" 
d="M594 1542q-72 0 -124 -51t-52 -115t37 -99q37 -36 105 -36t123 52q54 53 54 113t-37 97q-34 39 -106 39zM544 1153q-110 -1 -172 59t-63 160q0 100 85 182t199 82q115 0 183 -70t68 -193t-44 -231t-122 -179q-102 -96 -227 -97q-80 0 -137 40q-56 40 -56 95q0 31 20 53
t49 22q28 0 47 -20q19 -19 19 -44t-14 -37q25 -20 72 -21q90 0 163 74q86 80 121 229q-81 -104 -191 -104z" />
    <glyph glyph-name="zero.inf" unicode="&#x2080;" horiz-adv-x="722" 
d="M233 -205q94 0 160 118t66 263q0 90 -34 142t-99 53q-96 0 -161 -118t-65 -263q0 -195 133 -195zM227 -301q-111 0 -173 78t-62 213q0 193 97 335t243 142q111 0 173 -78t62 -213q1 -193 -97 -335t-243 -142z" />
    <glyph glyph-name="one.inf" unicode="&#x2081;" horiz-adv-x="722" 
d="M-39 -287l23 97h202l125 538l-200 -43l-5 96l281 64l51 -25l-145 -630h199l-21 -97h-510z" />
    <glyph glyph-name="two.inf" unicode="&#x2082;" horiz-adv-x="722" 
d="M463 272q-1 101 -151 101q-78 0 -115 -47q20 -27 20 -54t-19 -47t-49 -20t-50 21q-19 22 -19 57q0 70 76 128t181 58t171 -52q66 -53 66 -137t-61 -139q-60 -55 -181 -121q-199 -106 -258 -217h313l27 117h92l-47 -207h-500l-20 49q47 113 134 191t197 136t152 97
q41 39 41 86z" />
    <glyph glyph-name="three.inf" unicode="&#x2083;" horiz-adv-x="722" 
d="M510 -82q0 -100 -83 -158t-191 -57q-108 0 -185 47q-76 47 -76 121q1 31 21 55t49 23t47 -19t18 -48t-22 -44q33 -45 127 -45t140 36t46 89t-49 91t-129 38h-41l23 96h41q94 0 150 36t56 88t-40 79q-41 27 -106 27t-95 -27q14 -10 14 -36t-19 -44t-48 -18t-48 20
q-20 20 -20 64t64 90q64 45 170 45t174 -55t68 -134t-60 -128q-59 -49 -156 -60q160 -41 160 -172z" />
    <glyph glyph-name="four.inf" unicode="&#x2084;" horiz-adv-x="722" 
d="M274 -203l33 133h-336l-14 50l487 499l66 -61l-404 -406h222l37 142l106 39l-41 -175h123l-23 -88h-120l-31 -133h96l-20 -84h-328l18 84h129z" />
    <glyph glyph-name="five.inf" unicode="&#x2085;" horiz-adv-x="722" 
d="M516 -34q0 -104 -95 -186t-207 -81q-112 0 -181 44q-68 44 -68 99q-1 33 19 55q20 21 50 21t49 -18t19 -40t-12 -40q43 -29 121 -29t139 52q62 51 62 117t-38 100t-112 34t-149 -33l-56 39l115 355h408l-23 -101h-321l-66 -198q66 26 146 26t140 -56t60 -160z" />
    <glyph glyph-name="six.inf" unicode="&#x2086;" horiz-adv-x="722" 
d="M254 -207q70 0 122 51q52 50 52 114t-38 100t-106 36t-123 -52t-55 -112t38 -99q40 -38 110 -38zM299 182q109 0 173 -59t64 -160t-85 -183t-199 -81q-114 0 -183 71q-69 70 -69 192t44 231t122 180q102 96 227 96q80 0 136 -40q57 -40 57 -83q0 -42 -20 -64t-49 -22
q-28 0 -47 20t-19 42q0 24 14 38q-25 20 -70 21q-88 0 -173 -81t-113 -222q80 104 190 104z" />
    <glyph glyph-name="seven.inf" unicode="&#x2087;" horiz-adv-x="722" 
d="M59 -287l447 652h-313l-31 -132h-99l54 222h497l27 -54l-461 -688h-121z" />
    <glyph glyph-name="eight.inf" unicode="&#x2088;" horiz-adv-x="722" 
d="M249 -207q71 0 120 39t49 94t-42 90t-116 35t-121 -38t-47 -93t43 -91t114 -36zM322 137q62 0 107 36q44 36 44 87t-40 83q-39 32 -103 32t-107 -35t-43 -86t40 -84t102 -33zM254 -299q-121 0 -197 59q-75 60 -75 142t54 137t140 72q-104 49 -104 153q0 78 72 139
q74 61 186 61t182 -54q70 -56 70 -134q0 -149 -170 -190q114 -50 114 -152t-76 -168t-196 -65z" />
    <glyph glyph-name="nine.inf" unicode="&#x2089;" horiz-adv-x="722" 
d="M326 375q-72 0 -124 -51q-52 -50 -52 -114t36 -100t106 -36q69 0 123 52t54 112t-37 98q-34 39 -106 39zM41 206q0 100 85 182t199 81q115 0 183 -71q68 -70 68 -192t-45 -231q-44 -109 -121 -180q-102 -96 -228 -96q-80 0 -136 40t-56 95q0 30 20 52t48 22t47 -20
t19 -44q0 -25 -13 -37q25 -20 71 -20q90 0 171 79t114 224q-81 -104 -191 -104t-173 59q-62 61 -62 161z" />
    <glyph glyph-name="Euro" unicode="&#x20ac;" horiz-adv-x="1204" 
d="M199 449q0 68 20 145h-131l27 113h143q76 155 221 251t319 96t274 -86q101 -87 102 -190q0 -57 -33 -96t-78 -39t-73 27q-28 26 -28 60q1 66 52 95q-51 100 -221 101q-121 0 -223 -60t-162 -161h372l-26 -111h-394q-23 -74 -22 -145h401l-26 -111h-367q29 -113 117 -170
t209 -57q174 0 325 118l72 -100q-188 -147 -414 -147q-165 0 -291 91t-159 263h-158l27 113h125z" />
    <glyph glyph-name="published" unicode="&#x2117;" horiz-adv-x="1239" 
d="M778 610q0 49 -36 78t-91 29h-65v-215l69 -2q57 0 90 30t33 80zM442 246v67h66v404h-66v67h213q89 0 145 -47t56 -130t-55 -129t-152 -46h-63v-119h69v-67h-213zM618 57q188 -1 316 135t127 330q0 194 -127 328q-128 135 -316 135t-314 -135t-126 -330t126 -329t314 -134
zM618 -16q-224 0 -374 156t-150 380q0 225 151 381t375 156t374 -156q151 -156 151 -381q0 -224 -152 -380t-375 -156z" />
    <glyph glyph-name="servicemark" unicode="&#x2120;" horiz-adv-x="1308" 
d="M643 842l14 71h74l103 363h-76l16 72h170l68 -314l213 314h182l-16 -72h-76l-70 -363h74l-16 -71h-213l14 71h63l62 318l-223 -322h-39l-74 322l-86 -318h65l-16 -71h-213zM415 829q-81 0 -135 38t-54 79q0 40 16 60q18 20 45 20q53 0 53 -49q0 -29 -18 -43
q25 -31 81 -31q109 0 109 68q0 42 -44 67q-14 8 -56 29q-111 61 -111 143q0 60 51 104t129 44t126 -36t48 -73q0 -75 -59 -75q-53 0 -53 49q0 23 16 39q-19 22 -69 22t-74 -18t-25 -36q0 -18 3 -28q3 -12 20 -28t41 -28t34 -20q113 -61 113 -136t-53 -118t-134 -43z" />
    <glyph glyph-name="trademark" unicode="&#x2122;" horiz-adv-x="1320" 
d="M244 842l14 71h76l88 367h-119l-20 -84h-76l35 152h473l-35 -152h-80l23 84h-117l-88 -367h74l-17 -71h-231zM655 842l17 71h71l103 363h-76l16 72h170l68 -314l213 314h182l-16 -72h-76l-70 -363h76l-16 -71h-215l14 71h64l63 318l-223 -322h-39l-74 322l-88 -318h66
l-17 -71h-213z" />
    <glyph glyph-name="onethird" unicode="&#x2153;" horiz-adv-x="1628" 
d="M1483 205q0 -99 -83 -157q-84 -58 -192 -58t-184 47t-76 121q0 30 20 54t50 24q29 0 47 -18t18 -49q0 -30 -22 -44q33 -45 127 -45t140 36t46 89t-49 91t-129 38h-41l23 96h41q94 0 150 36t56 88t-41 79q-42 27 -106 27t-94 -27q14 -10 14 -36t-19 -44t-48 -18t-49 20
q-19 20 -19 53q0 54 63 100q64 46 170 46t174 -56t68 -134q0 -79 -59 -128t-156 -59q160 -41 160 -172zM365 -27l-64 54q23 29 366 428t726 878l63 -53q-23 -29 -381 -447q-359 -418 -710 -860zM137 573l23 97h202l125 538l-200 -43l-4 97l280 63l51 -25l-145 -630h199
l-21 -97h-510z" />
    <glyph glyph-name="twothirds" unicode="&#x2154;" horiz-adv-x="1628" 
d="M369 -27l-64 54q23 29 366 428t726 878l63 -53q-23 -29 -381 -447q-359 -418 -710 -860zM1485 205q0 -99 -83 -157q-84 -58 -192 -58t-184 47t-76 121q0 30 20 54t50 24q29 0 47 -18t18 -49q0 -30 -22 -44q33 -45 127 -45t140 36t46 89t-49 91t-129 38h-41l23 96h41
q94 0 150 36t56 88t-41 79q-42 27 -106 27t-94 -27q14 -10 14 -36t-19 -44t-48 -18t-49 20q-19 20 -19 53q0 54 63 100q64 46 170 46t174 -56t68 -134q0 -79 -59 -128t-156 -59q160 -41 160 -172zM651 1133q-1 100 -151 100q-78 0 -115 -47q43 -57 1 -101q-19 -20 -49 -20
q-30 -1 -49 21t-20 57q0 70 76 128t181 58t171 -52t66 -136q0 -83 -60 -139t-182 -121q-199 -106 -258 -217h313l27 116h92l-47 -207h-500l-20 50q47 113 134 191t197 136t152 97q41 39 41 86z" />
    <glyph glyph-name="onefifth" unicode="&#x2155;" horiz-adv-x="1628" 
d="M356 -27l-63 54q23 29 381 446t710 860l64 -53q-23 -29 -378 -442q-354 -412 -714 -865zM135 573l23 97h202l125 538l-200 -43l-4 97l280 63l51 -25l-145 -630h199l-21 -97h-510zM1378 248q0 134 -150 133q-74 0 -149 -33l-55 39l115 354h407l-22 -100h-322l-65 -199
q65 27 145 27t140 -56t60 -160q0 -103 -94 -185q-96 -82 -208 -82t-181 44q-68 44 -67 99q0 33 19 55t49 21t50 -19t19 -40q0 -22 -12 -40q43 -28 121 -28t139 52t61 118z" />
    <glyph glyph-name="twofifths" unicode="&#x2156;" horiz-adv-x="1628" 
d="M389 -27l-63 54q23 29 381 446t710 860l64 -53q-23 -29 -378 -442q-354 -412 -714 -865zM1294 469q80 0 140 -56t61 -160q0 -103 -95 -185q-96 -82 -208 -82t-180 44t-68 99q0 33 20 55t49 21q30 -1 49 -19t19 -40t-12 -40q43 -28 121 -28t139 52t61 118t-37 99
q-38 34 -112 34t-149 -33l-56 39l115 354h408l-23 -100h-322l-65 -199q65 27 145 27zM684 1133q0 100 -150 100q-78 0 -116 -47q20 -28 20 -54t-19 -46t-49 -21t-49 21t-20 57q0 70 76 128t181 58t171 -52t66 -136q-1 -83 -61 -139t-181 -121q-199 -106 -258 -217h313
l27 116h92l-47 -207h-500l-20 50q47 113 134 191q88 78 198 136t151 97t41 86z" />
    <glyph glyph-name="threefifths" unicode="&#x2157;" horiz-adv-x="1628" 
d="M709 778q0 -100 -83 -158q-84 -58 -192 -57q-108 0 -184 47t-76 121q0 31 20 55t50 23q29 0 47 -18q18 -19 18 -49t-22 -44q33 -45 127 -45t140 36t46 89t-49 91t-129 38h-41l22 97h41q94 0 151 35q56 36 56 88t-41 79q-42 27 -106 27t-94 -27q14 -10 14 -36t-20 -44
t-48 -18q-29 0 -48 20t-19 64t63 90q64 45 170 45t174 -55t68 -134t-59 -128t-156 -60q160 -41 160 -172zM348 -27l-63 54q23 29 381 446t710 860l64 -53q-23 -29 -378 -442q-354 -412 -714 -865zM1376 248q0 134 -150 133q-74 0 -149 -33l-55 39l115 354h407l-22 -100h-322
l-65 -199q65 27 145 27t140 -56t60 -160q0 -103 -94 -185q-96 -82 -208 -82t-181 44q-68 44 -67 99q0 33 19 55t49 21t50 -19t19 -40q0 -22 -12 -40q43 -28 121 -28t139 52t61 118z" />
    <glyph glyph-name="fourfifths" unicode="&#x2158;" horiz-adv-x="1628" 
d="M367 -27l-64 54q23 29 366 428t726 878l63 -53q-23 -29 -381 -447q-359 -418 -710 -860zM475 657l33 134h-336l-14 49l487 499l66 -61l-404 -406h221l37 142l107 39l-41 -174h123l-23 -88h-121l-30 -134h96l-21 -84h-327l18 84h129zM1294 469q80 0 140 -56t61 -160
q0 -103 -95 -185q-96 -82 -208 -82t-180 44t-68 99q0 33 20 55t49 21q30 -1 49 -19t19 -40t-12 -40q43 -28 121 -28t139 52t61 118t-37 99q-38 34 -112 34t-149 -33l-56 39l115 354h408l-23 -100h-322l-65 -199q65 27 145 27z" />
    <glyph glyph-name="onesixth" unicode="&#x2159;" horiz-adv-x="1628" 
d="M1051 216q0 -60 38 -98q39 -38 109 -38t122 51t52 115t-38 99q-38 36 -106 36t-123 -52q-54 -53 -54 -113zM346 -27l-63 54q23 29 381 446t710 860l64 -53q-23 -29 -378 -442q-354 -412 -714 -865zM123 573l22 97h203l125 538l-201 -43l-4 97l281 63l51 -25l-145 -630
h198l-20 -97h-510zM1243 469q109 0 173 -59t64 -160q0 -100 -85 -182t-199 -82t-183 70q-69 71 -69 193q0 123 44 231t122 179q102 96 227 97q81 0 137 -40t56 -95q0 -31 -20 -53t-49 -22q-28 0 -47 20q-19 18 -19 42t14 39q-25 20 -70 21q-89 0 -173 -81t-113 -222
q80 104 190 104z" />
    <glyph glyph-name="fivesixths" unicode="&#x215a;" horiz-adv-x="1628" 
d="M1192 80q70 0 122 51t52 115t-38 99q-38 36 -106 36t-123 -52q-55 -53 -55 -113t38 -98q40 -38 110 -38zM334 -27l-64 54q23 29 366 428t726 878l63 -53q-23 -29 -381 -447q-359 -418 -710 -860zM604 820q0 134 -150 134q-74 0 -149 -32l-55 39l115 354h407l-22 -101
h-322l-66 -198q66 26 146 26t140 -56t60 -160t-94 -185q-96 -82 -208 -82t-181 44q-68 44 -67 99q0 33 19 55q19 21 49 21t49 -18q39 -37 8 -80q43 -29 121 -29t139 52q61 51 61 117zM1237 469q109 0 173 -59t64 -160q0 -100 -85 -182t-199 -82t-183 70q-69 71 -69 193
q0 123 44 231t122 179q102 96 227 97q80 0 136 -40q57 -40 57 -83t-20 -65t-49 -22q-28 0 -47 20q-19 18 -19 42t14 39q-25 20 -70 21q-88 0 -173 -81t-113 -222q80 104 190 104z" />
    <glyph glyph-name="oneeighth" unicode="&#x215b;" horiz-adv-x="1628" 
d="M1199 80q71 0 120 39t49 94t-42 90t-116 35t-120 -38t-48 -93q0 -55 43 -91t114 -36zM1280 662q-64 0 -106 -35t-44 -86q0 -51 40 -84t104 -33q62 0 106 36t43 87q0 51 -40 83q-39 32 -103 32zM1477 220q0 -102 -76 -166q-76 -66 -197 -66q-120 0 -196 59t-76 141t54 138
t140 71q-104 49 -104 154q0 78 73 139q73 62 185 62t182 -56t70 -133q0 -78 -46 -125t-124 -65q115 -51 115 -153zM336 -27l-64 54q23 29 366 428t726 878l63 -53q-23 -29 -381 -447q-359 -418 -710 -860zM129 573l23 97h202l125 538l-200 -43l-5 97l281 63l51 -25
l-145 -630h198l-20 -97h-510z" />
    <glyph glyph-name="threeeighths" unicode="&#x215c;" horiz-adv-x="1628" 
d="M707 778q0 -100 -83 -158q-84 -58 -192 -57q-108 0 -184 47t-76 121q0 31 20 55t50 23q29 0 47 -18q18 -19 18 -49t-22 -44q33 -45 127 -45t140 36t46 89t-49 91t-129 38h-41l22 97h41q94 0 151 35q56 36 56 88t-41 79q-42 27 -106 27t-94 -27q14 -10 14 -36t-20 -44
t-48 -18q-29 0 -48 20t-19 64t63 90q64 45 170 45t174 -55t68 -134t-60 -128t-155 -60q160 -41 160 -172zM340 -27l-64 54q23 29 366 428t726 878l64 -53q-23 -29 -378 -442q-354 -412 -714 -865zM1055 207q1 -55 43 -91t113 -36t120 39t49 94t-42 90t-116 35t-120 -38
q-47 -38 -47 -93zM1286 424q62 0 106 36t44 87t-40 83t-104 32t-106 -35t-43 -86q0 -51 40 -84q41 -33 103 -33zM1489 220q0 -102 -76 -166q-76 -66 -197 -66q-120 0 -196 59t-76 141t54 138t141 71q-104 49 -105 154q0 78 73 139q73 62 185 62t182 -56t70 -133
q0 -78 -46 -125t-124 -65q115 -51 115 -153z" />
    <glyph glyph-name="fiveeighths" unicode="&#x215d;" horiz-adv-x="1628" 
d="M1187 80q71 0 120 39t49 94t-42 90t-116 35t-121 -38t-47 -93t43 -91t114 -36zM1260 424q62 0 107 36q44 36 44 87t-40 83q-39 32 -103 32t-107 -35t-43 -86t40 -84t102 -33zM1192 -12q-121 0 -197 59q-75 59 -75 141t54 138t140 71q-104 49 -104 154q0 78 72 139
q74 62 186 62t182 -56t70 -133q0 -78 -46 -125t-124 -65q114 -51 114 -153t-75 -167q-76 -65 -197 -65zM319 -27l-63 54q23 29 377 442t715 864l63 -53q-23 -29 -388 -455q-366 -426 -704 -852zM606 820q0 134 -150 134q-74 0 -149 -32l-55 39l115 354h407l-22 -101h-322
l-65 -198q65 26 145 26t140 -56t60 -160t-94 -185q-96 -82 -208 -82t-181 44q-68 44 -67 99q0 33 19 55q19 21 49 21t50 -18t19 -40q0 -22 -12 -40q43 -29 121 -29t139 52q61 51 61 117z" />
    <glyph glyph-name="seveneighths" unicode="&#x215e;" horiz-adv-x="1628" 
d="M268 -27l-63 54q23 29 381 446t710 860l64 -53q-23 -29 -378 -442q-354 -412 -714 -865zM1181 80q71 0 119 39t50 94q0 55 -42 90t-116 35t-121 -38t-47 -93t43 -91t114 -36zM1254 424q62 0 107 36q44 36 44 87t-40 83q-39 32 -103 32t-107 -35t-43 -86t40 -84t102 -33z
M1458 220q0 -102 -76 -166q-76 -66 -196 -66q-121 0 -197 59t-76 141q1 82 55 138t140 71q-104 49 -104 154q0 78 72 139q74 62 186 62t182 -56t70 -133q0 -78 -47 -125q-46 -47 -124 -65q115 -51 115 -153zM279 573l446 652h-313l-31 -131h-98l53 221h498l26 -53l-461 -689
h-120z" />
    <glyph glyph-name="minus" unicode="&#x2212;" horiz-adv-x="858" 
d="M104 492l31 124h680l-29 -124h-682z" />
    <glyph glyph-name="Q.alt" horiz-adv-x="1499" 
d="M727 115q88 0 176 32l-94 267l127 43l86 -244q129 94 207 252t78 337t-110 305t-314 126q-242 0 -411 -208t-169 -468q-1 -190 109 -316t315 -126zM715 -25q-264 0 -417 163t-153 417q0 150 58 296q122 314 393 449q141 72 299 72q264 0 417 -163t152 -416
q0 -209 -106 -405t-283 -306l99 -268l-127 -43l-91 249q-118 -45 -241 -45z" />
    <glyph glyph-name="zero.lin" horiz-adv-x="1292" 
d="M606 115q141 -1 255 109t176 278q63 168 63 343t-81 281t-222 106t-255 -109t-176 -277t-62 -343t80 -281q81 -106 222 -107zM1260 860q0 -232 -88 -437q-88 -204 -240 -326t-342 -122q-190 1 -319 141q-128 140 -128 372t88 436t240 326q153 122 343 122t318 -140
t128 -372z" />
    <glyph glyph-name="one.lin" horiz-adv-x="884" 
d="M12 0l31 135h272l244 1061l-266 -66l-6 140l387 96l69 -35l-276 -1196h266l-31 -135h-690z" />
    <glyph glyph-name="two.lin" horiz-adv-x="1138" 
d="M971 1029q0 93 -72 149q-71 56 -183 57q-112 0 -184 -34t-100 -77q47 -47 47 -92t-32 -76q-33 -30 -79 -30t-77 35t-31 90q0 115 131 218t323 103t304 -94t112 -240t-105 -248t-319 -218t-326 -216t-173 -225h600l47 209h139l-78 -340h-876l-27 68q82 201 224 338
q142 136 359 254q216 118 296 197t80 172z" />
    <glyph glyph-name="three.lin" horiz-adv-x="1081" 
d="M977 371q-1 -173 -147 -281t-340 -108t-321 84q-128 84 -128 192q0 53 32 93t80 40q49 0 77 -29t28 -67q0 -61 -59 -86q31 -37 105 -66t205 -29q130 0 220 74t90 188t-100 184t-258 71h-51l30 135h54q190 0 302 74t112 179t-80 161t-212 55q-132 0 -196 -68
q43 -25 43 -69t-32 -71q-32 -28 -75 -28q-42 0 -74 33t-32 84q0 100 114 177t292 77t295 -95q116 -95 116 -239t-105 -232q-105 -89 -266 -114q125 -33 203 -117t78 -202z" />
    <glyph glyph-name="four.lin" horiz-adv-x="1138" 
d="M950 870l-80 -346h230l-29 -129h-231l-60 -264h185l-29 -131h-578l31 129h242l61 268h-618l-15 64l899 921l99 -90l-758 -770h422l65 283z" />
    <glyph glyph-name="five.lin" horiz-adv-x="1056" 
d="M428 -25q-150 0 -266 73t-117 167q0 51 31 86t76 35q46 0 74 -28t28 -70t-29 -64q61 -66 225 -66t271 103q106 103 106 235q-1 132 -75 200t-202 67q-128 0 -259 -54l-72 54l209 635h674l-33 -142h-549l-137 -405q96 41 209 41q170 0 278 -102t109 -288t-153 -332
t-398 -145z" />
    <glyph glyph-name="six.lin" horiz-adv-x="1150" 
d="M578 111q134 0 239 105q105 104 105 234t-72 198t-207 69q-135 -1 -244 -107t-109 -228t77 -198q77 -73 211 -73zM133 477q0 199 84 404t246 349t373 142q137 0 233 -68t96 -159q1 -53 -31 -86t-75 -33t-74 28t-31 72t35 72q-51 47 -155 47q-160 0 -297 -127
q-88 -80 -156 -210t-90 -269q59 84 159 146t226 63q178 0 290 -108t111 -265q-1 -197 -153 -349t-348 -151q-196 0 -319 123q-124 123 -124 379z" />
    <glyph glyph-name="seven.lin" horiz-adv-x="1017" 
d="M125 0l823 1217h-569l-51 -220h-142l82 351h850l37 -66l-854 -1282h-176z" />
    <glyph glyph-name="eight.lin" horiz-adv-x="1138" 
d="M895 379q0 111 -85 183t-226 73q-142 0 -234 -78q-92 -79 -92 -189t85 -182t222 -71q137 0 234 76q96 77 96 188zM691 760q122 0 209 72t87 172q0 102 -77 166q-78 64 -204 65q-126 0 -212 -69t-86 -171t80 -169q81 -66 203 -66zM573 -20q-205 0 -337 108t-134 258
q0 150 98 248t249 129q-90 43 -142 121q-51 78 -51 164q0 143 124 252q124 108 318 108t319 -100q126 -100 126 -240t-84 -225q-84 -84 -228 -121q93 -37 155 -120t63 -187q1 -167 -135 -281t-341 -114z" />
    <glyph glyph-name="nine.lin" horiz-adv-x="1150" 
d="M969 967q0 123 -78 196q-74 74 -209 74q-136 0 -240 -105q-104 -104 -104 -234t72 -199t206 -69t244 108q109 106 109 229zM182 872q0 197 153 349q153 151 348 151t319 -123t124 -379q0 -200 -84 -404t-246 -348t-372 -143q-137 0 -234 68q-96 68 -96 160q0 53 32 86
t75 33t73 -28t31 -72q0 -44 -35 -72q51 -47 156 -48q160 0 297 127q88 78 156 209t90 271q-59 -85 -159 -147t-226 -62q-178 0 -290 107t-112 265z" />
    <glyph glyph-name="bullet.alt" horiz-adv-x="1292" 
d="M647 -98q-240 0 -388 158t-148 385q0 228 149 386q150 158 388 158q238 -1 390 -157q150 -156 150 -384t-150 -388q-150 -158 -391 -158z" />
    <glyph glyph-name="hyphen.lin" horiz-adv-x="552" 
d="M123 625l35 137h407l-28 -137h-414z" />
    <glyph glyph-name="endash.lin" horiz-adv-x="882" 
d="M98 629l33 131h791l-29 -131h-795z" />
    <glyph glyph-name="emdash.lin" horiz-adv-x="1347" 
d="M98 629l33 131h1255l-28 -131h-1260z" />
    <glyph glyph-name="parenleft.lin" horiz-adv-x="747" 
d="M166 504q0 379 209 686t549 471l57 -107q-309 -162 -486 -442t-178 -610q-1 -216 91 -406t254 -334l-80 -92q-190 154 -303 366t-113 468z" />
    <glyph glyph-name="parenright.lin" horiz-adv-x="747" 
d="M547 829q0 434 -342 740l78 94q190 -154 304 -367t113 -469q0 -379 -208 -685t-549 -470l-60 105q311 162 488 442q176 281 176 610z" />
    <glyph glyph-name="bracketleft.lin" horiz-adv-x="698" 
d="M66 -287l444 1909h463l-29 -119h-326l-389 -1671h324l-27 -119h-460z" />
    <glyph glyph-name="bracketright.lin" horiz-adv-x="698" 
d="M-147 -287l26 119h326l391 1671h-326l29 119h461l-445 -1909h-462z" />
    <glyph glyph-name="braceleft.lin" horiz-adv-x="681" 
d="M111 10q0 150 174 293q129 109 129 164t-45 94t-140 39h-69l33 139h71q113 0 174 49q62 50 62 116t-65 184t-64 212q0 146 135 246t393 107l-16 -105q-187 -12 -281 -82t-94 -150t66 -204q66 -125 65 -212q0 -86 -67 -152t-187 -82q86 -18 129 -72t43 -121
q0 -106 -154 -233t-153 -224q0 -174 248 -231l-27 -100q-176 23 -268 111t-92 214z" />
    <glyph glyph-name="braceright.lin" horiz-adv-x="681" 
d="M297 24q0 82 -66 204q-128 238 1 365q67 65 188 81q-86 18 -129 71t-43 121q0 104 154 234t153 225q0 172 -248 229l27 101q176 -21 268 -111t92 -224t-174 -284q-129 -106 -129 -162t45 -96q45 -39 139 -39h70l-33 -139h-71q-113 0 -174 -49t-61 -115t64 -183
q65 -116 64 -214q0 -147 -135 -247t-393 -105l16 104q188 12 282 82q93 70 93 151z" />
    <glyph glyph-name="registered.alt" horiz-adv-x="1239" 
d="M551 539h59q59 0 96 26q36 27 35 72q0 94 -129 94h-61v-192zM410 260v70h65v401h-65v68h204q96 0 152 -41t55 -117q0 -109 -110 -147l98 -164h63v-70h-114l-121 213h-86v-143h70v-70h-211zM618 57q188 -1 316 135t127 330q0 194 -127 328q-128 135 -316 135t-314 -135
t-126 -330t126 -329t314 -134zM618 -16q-224 0 -374 156t-150 380q0 225 151 381t375 156t374 -156q151 -156 151 -381q0 -224 -152 -380t-375 -156z" />
    <glyph glyph-name="copyright.lin" horiz-adv-x="1601" 
d="M848 336q-158 0 -257 99t-99 249t103 250t231 100t202 -52t74 -114q0 -34 -22 -56t-50 -22t-48 19q-19 18 -19 46t16 36q-41 49 -141 49t-170 -74t-70 -179t69 -180t181 -75t194 88l66 -71q-102 -113 -260 -113zM223 674q0 -258 173 -440t424 -181q251 0 423 181
q172 182 172 440t-172 439t-423 181t-424 -181t-173 -439zM819 -25q-287 0 -485 204t-199 495q0 290 199 494q200 204 486 204t485 -204t199 -494t-200 -495q-198 -204 -485 -204z" />
    <glyph glyph-name="published.lin" horiz-adv-x="1601" 
d="M850 920h-82v-265l84 -2q70 0 110 37q40 36 40 98t-44 97q-43 35 -108 35zM586 336v92h80v492h-80v90h268q108 0 180 -60t72 -162q0 -104 -71 -162t-191 -59h-76v-139h86v-92h-268zM223 674q0 -258 173 -440t424 -181q251 0 423 181q172 182 172 440t-172 439t-423 181
t-424 -181t-173 -439zM819 -25q-287 0 -485 204t-199 495q0 290 199 494q200 204 486 204t485 -204t199 -494t-200 -495q-198 -204 -485 -204z" />
    <glyph glyph-name="registered.lin" horiz-adv-x="1601" 
d="M741 698h76q70 0 113 32t43 89q0 115 -154 115h-78v-236zM559 350v90h82v494h-82v90h260q117 0 188 -51t70 -148q0 -139 -133 -184l117 -201h78v-90h-144l-143 262h-111v-172h86v-90h-268zM223 674q0 -258 173 -440t424 -181q251 0 423 181q172 182 172 440t-172 439
t-423 181t-424 -181t-173 -439zM819 -25q-287 0 -485 204t-199 495q0 290 199 494q200 204 486 204t485 -204t199 -494t-200 -495q-198 -204 -485 -204z" />
    <glyph glyph-name="dollar.lin" horiz-adv-x="1126" 
d="M432 1012q0 -86 47 -136t135 -98l138 439q-10 2 -31 2q-125 0 -207 -61t-82 -146zM868 358q0 78 -51 130t-153 104l-142 -463h39q135 -1 221 61t86 168zM1050 940q-48 0 -78 31t-30 79t55 87q-51 45 -141 65l-145 -471q237 -112 287 -234q24 -56 24 -128
q0 -165 -129 -267t-342 -102q-43 0 -66 2l-63 -215l-117 35l60 205q-133 39 -218 116q-84 79 -84 151t35 112t84 38q49 0 79 -30t30 -82q0 -51 -58 -92q49 -63 181 -95l153 492q-133 67 -210 147t-77 218t127 242q126 103 328 104l51 -2l58 190l114 -35l-53 -178
q113 -35 187 -103t74 -136t-34 -106t-82 -38z" />
    <glyph glyph-name="sterling.lin" horiz-adv-x="1148" 
d="M369 879q0 215 123 354t323 139q131 0 229 -72t99 -167q0 -59 -32 -95t-78 -34q-46 0 -76 30q-29 30 -29 76q0 47 35 74q-7 20 -51 38t-99 17q-141 0 -221 -103t-80 -257q0 -47 11 -130t14 -116h358l-27 -119h-329q-14 -211 -174 -321q81 -7 123 -21t73 -26t68 -22
q37 -11 128 -11q92 0 201 84l72 -86q-119 -135 -305 -136q-97 -1 -181 31q-85 32 -87 33q-94 37 -195 39q-33 -47 -86 -76t-96 -29t-71 24t-27 60q0 55 62 93t179 40q164 137 174 324h-231l29 119h200q-26 208 -26 246z" />
    <glyph glyph-name="Euro.lin" horiz-adv-x="1490" 
d="M827 115q221 0 408 186l94 -92q-219 -233 -514 -234q-205 0 -346 128t-170 335h-231l30 127h195q4 102 26 197h-176l29 127h190q88 215 266 348t388 133q211 0 330 -105t118 -225q0 -66 -36 -106t-86 -41q-50 0 -80 29q-30 30 -29 80q0 50 59 88q-20 57 -89 100t-208 43
t-271 -95t-206 -253h504l-29 -121h-520q-23 -90 -27 -201h502l-30 -121h-465q25 -150 121 -238t253 -89z" />
    <glyph glyph-name="yen.lin" horiz-adv-x="1292" 
d="M229 551l27 119h279l-203 549h-144l31 129h455l-31 -129h-156l191 -543l434 543h-154l31 129h463l-31 -129h-133l-465 -549h264l-26 -119h-342l-33 -139h344l-26 -119h-345l-38 -170h194l-29 -123h-530l29 123h188l39 170h-340l27 119h340l32 139h-342z" />
    <glyph glyph-name="cent.lin" horiz-adv-x="972" 
d="M260 626q0 -155 129 -227l189 625q-134 -25 -226 -134t-92 -264zM516 246q-43 0 -63 4l-88 -289l-103 27l86 286q-109 42 -171 134t-62 217q0 203 147 361t352 165l66 225l104 -28l-61 -205q104 -20 170 -85q65 -65 65 -126t-30 -97t-72 -36q-41 1 -68 25q-26 24 -26 70
t43 71q-39 49 -125 61l-197 -657q16 -2 49 -2q178 0 312 116l-4 -137q-136 -100 -324 -100z" />
    <glyph glyph-name="numbersign.lin" horiz-adv-x="1208" 
d="M569 842l-100 -357h260l98 357h-258zM1104 1346l-107 -379h252l-37 -127h-251l-97 -351h256l-35 -129h-258l-100 -360h-137l102 360h-256l-98 -360h-137l100 360h-250l35 129h252l98 351h-256l35 127h256l107 379h137l-109 -379h254l107 379h137z" />
    <glyph glyph-name="paragraph.lin" horiz-adv-x="1404" 
d="M766 127h147l252 1094h-145zM637 483q-231 1 -353 103t-122 296t163 329q163 136 420 137h773l-31 -136h-174l-250 -1077h174l-31 -135h-803l31 135h182l82 348h-61z" />
    <glyph glyph-name="section.lin" horiz-adv-x="1042" 
d="M297 688q0 -58 62 -97q62 -40 231 -104q129 23 203 68q73 45 73 103t-57 97q-57 37 -129 63t-113 44q-127 -24 -199 -70t-71 -104zM338 1110q0 114 103 188t285 74t280 -106q51 -54 51 -108t-28 -85t-70 -31q-43 0 -69 28t-26 65t27 69q-9 14 -57 33t-136 19t-149 -36
t-61 -84q-1 -79 108 -135q41 -20 119 -52t121 -52q180 -84 180 -225q0 -92 -84 -154t-227 -90q121 -78 121 -190t-104 -188q-103 -75 -265 -75q-203 0 -303 111q-50 56 -50 106t28 82t71 31q43 1 69 -27t27 -66q0 -38 -27 -67q4 -11 50 -31t139 -20q92 0 152 35q61 35 61 91
t-56 94t-152 77t-138 59q-180 86 -181 220q0 184 308 250q-117 76 -117 190z" />
    <glyph glyph-name="ordfeminine.lin" horiz-adv-x="718" 
d="M96 748l23 90h563l-23 -90h-563zM377 1053q82 1 137 73t55 146q0 148 -125 149q-78 -1 -132 -71t-54 -146t32 -114q32 -37 87 -37zM346 965q-84 0 -137 58t-53 175t85 215t197 98q61 0 105 -32q43 -33 59 -84l29 108h92l-92 -379q-6 -31 -6 -51q0 -33 28 -33q37 0 72 82
l49 -22q-41 -133 -140 -133t-104 100q-71 -102 -184 -102z" />
    <glyph glyph-name="ordmasculine.lin" horiz-adv-x="690" 
d="M297 1214q1 -159 147 -159q70 -1 125 65t55 145t-37 119q-38 40 -110 39t-126 -65t-54 -144zM119 748l24 90h486l-23 -90h-487zM438 969q-116 0 -178 65q-61 66 -61 178t84 206q85 93 201 93t178 -65q61 -66 61 -178t-84 -206q-85 -93 -201 -93z" />
    <glyph glyph-name="degree.lin" horiz-adv-x="663" 
d="M446 1079q62 1 114 63t52 132t-34 106q-35 37 -98 37q-64 0 -114 -63t-50 -132t34 -106t96 -37zM440 985q-110 0 -170 65q-59 65 -59 171t82 198q81 92 193 92q112 -1 171 -65t59 -170t-82 -198q-84 -93 -194 -93z" />
    <glyph glyph-name="percent.lin" horiz-adv-x="1419" 
d="M1052 477q-72 -1 -130 -71t-58 -150t40 -124t112 -44t129 71t57 151t-39 123q-39 44 -111 44zM324 1038q0 -80 39 -124t111 -44t130 71t58 151t-39 124t-112 44t-130 -71t-57 -151zM1008 -16q-122 0 -190 72t-66 195q0 122 93 226q93 105 215 105t190 -72t67 -194
q0 -122 -93 -228q-94 -104 -216 -104zM147 -14l-73 69q59 57 309 305t352 348l238 235q135 134 266 267t154 156l73 -70q-246 -236 -641 -629q-394 -393 -521 -522q-128 -130 -157 -159zM468 766q-122 0 -190 73t-67 195q0 122 93 226t215 104t190 -72q67 -72 67 -194
t-93 -228q-93 -104 -215 -104z" />
    <glyph glyph-name="perthousand.lin" horiz-adv-x="2107" 
d="M2003 312q0 -120 -92 -224t-214 -104t-190 72q-67 72 -67 192q0 121 92 225q92 105 214 105t190 -73t67 -193zM1704 88q72 0 130 71t58 149t-40 120q-40 43 -112 43t-130 -70q-58 -71 -58 -149t40 -121t112 -43zM1008 -16q-122 0 -190 72t-66 192q0 121 93 225
q93 105 215 105t190 -73t67 -193q0 -120 -93 -224q-94 -104 -216 -104zM1016 88q74 0 131 71t57 149t-40 120q-40 43 -112 43t-130 -70q-58 -71 -58 -149t40 -121q38 -43 112 -43zM468 766q-122 0 -190 72t-67 192q0 120 93 223q93 105 214 105t190 -72q68 -72 68 -192
t-93 -224t-215 -104zM511 1253q-73 -1 -130 -71t-57 -148t39 -121t111 -43t130 71t58 149t-39 120t-112 43zM147 -14l-73 69q59 57 309 305t352 348l238 235q135 134 266 267t154 156l73 -70q-246 -236 -641 -629q-394 -393 -521 -522q-128 -130 -157 -159z" />
    <glyph glyph-name="quotedbl.lin" horiz-adv-x="673" 
d="M465 1421q0 -33 -14 -65l-175 -359h-57l43 398q6 55 36 85t71 30t69 -28t27 -61zM537 997l43 398q6 55 35 85q30 30 71 30t69 -28q47 -47 13 -126l-174 -359h-57z" />
    <glyph glyph-name="quotesingle.lin" horiz-adv-x="358" 
d="M465 1421q0 -33 -14 -65l-175 -359h-57l43 398q6 55 36 85t71 30t69 -28t27 -61z" />
    <glyph glyph-name="plus.lin" horiz-adv-x="849" 
d="M631 1024l-64 -270h277l-29 -125h-276l-70 -299h-129l70 299h-277l31 125h274l64 270h129z" />
    <glyph glyph-name="minus.lin" horiz-adv-x="858" 
d="M133 629l31 125h680l-29 -125h-682z" />
    <glyph glyph-name="divide.lin" horiz-adv-x="858" 
d="M424 309q-41 0 -71 30t-29 71q0 42 30 72t71 30q40 0 70 -31q29 -31 29 -71t-30 -71q-30 -30 -70 -30zM555 870q-41 0 -72 31t-30 72t31 71t71 31q41 0 71 -31q30 -32 30 -72t-30 -71t-71 -31zM133 629l31 125h680l-29 -125h-682z" />
    <glyph glyph-name="equal.lin" horiz-adv-x="849" 
d="M115 451l28 127h613l-29 -127h-612zM193 778l28 127h613l-29 -127h-612z" />
    <glyph glyph-name="multiply.lin" horiz-adv-x="858" 
d="M309 1008l166 -222l256 211l80 -100l-258 -213l168 -223l-107 -86l-168 223l-256 -211l-79 100l258 213l-166 224z" />
    <glyph glyph-name="less.lin" horiz-adv-x="837" 
d="M573 299l-436 348l17 68l585 342l62 -99l-494 -288l346 -277z" />
    <glyph glyph-name="greater.lin" horiz-adv-x="837" 
d="M201 305l-64 96l494 289l-346 279l80 94l436 -348l-17 -68z" />
    <glyph glyph-name="plusminus.lin" horiz-adv-x="858" 
d="M29 170l28 127h678l-28 -127h-678zM655 1141l-63 -277h276l-28 -127h-279l-63 -276h-129l63 276h-274l28 127h277l63 277h129z" />
    <glyph glyph-name="zero.tab" horiz-adv-x="1085" 
d="M279 479q0 -172 57 -268t169 -96q112 1 209 115t151 289q55 175 55 347t-58 269q-58 96 -169 96q-112 0 -209 -115t-151 -290t-54 -347zM1077 885q0 -367 -175 -639t-417 -273q-172 0 -268 131t-96 365q0 233 79 443t216 335t302 125t262 -131t97 -356z" />
    <glyph glyph-name="one.tab" horiz-adv-x="1085" 
d="M51 0l33 135h332l250 1061l-328 -80l-6 137l446 113l70 -35l-281 -1196h328l-31 -135h-813z" />
    <glyph glyph-name="two.tab" horiz-adv-x="1085" 
d="M926 1029q0 93 -66 151t-169 57q-103 0 -170 -35t-95 -80q47 -43 47 -90t-32 -78q-33 -30 -79 -30t-77 34t-31 91q0 115 125 219t308 104t289 -93t107 -241q0 -100 -54 -186t-134 -146q-79 -60 -243 -156t-271 -195t-164 -224h555l49 209h140l-80 -340h-832l-26 68
q80 203 215 340q136 138 338 252t276 195t74 174z" />
    <glyph glyph-name="three.tab" horiz-adv-x="1085" 
d="M973 371q-1 -174 -145 -282q-144 -107 -334 -107t-315 85q-124 85 -124 195q0 55 32 95t80 40q48 -1 76 -29t27 -67q0 -63 -59 -86q82 -100 283 -100q145 -1 233 73t88 189t-94 185t-254 69h-55l30 135h60q188 0 294 74q105 74 105 179t-78 161q-77 56 -205 55
q-128 0 -194 -74q43 -25 43 -69t-31 -71q-30 -28 -74 -28t-75 33t-31 84q0 102 113 181t287 79t290 -94q115 -94 115 -238q1 -144 -103 -231q-104 -88 -264 -117q127 -37 203 -119t76 -200z" />
    <glyph glyph-name="four.tab" horiz-adv-x="1085" 
d="M911 870l-80 -346h220l-31 -129h-217l-62 -266h179l-29 -129h-567l30 127h240l61 270h-583l-15 64l850 921l101 -90l-719 -770h395l66 283z" />
    <glyph glyph-name="five.tab" horiz-adv-x="1085" 
d="M442 -25q-154 0 -270 75t-117 171q0 51 32 86t77 35t74 -28q28 -28 28 -70t-30 -66q72 -72 234 -72t270 104t108 238q0 132 -75 198t-206 67q-131 0 -268 -54l-72 54l209 635h684l-30 -142h-562l-135 -405q96 41 211 41q174 0 285 -100t110 -269q1 -205 -155 -351
t-402 -147z" />
    <glyph glyph-name="six.tab" horiz-adv-x="1085" 
d="M870 450q0 130 -66 198t-188 69q-122 -1 -222 -107t-101 -227t69 -197t194 -75q124 0 219 105q95 104 95 234zM795 1245q-147 0 -275 -127q-80 -78 -141 -206t-84 -265q57 82 148 141t208 60q167 0 273 -108t106 -265q0 -197 -144 -349t-332 -151q-188 0 -296 119
q-121 127 -121 383q0 199 80 404q81 205 233 349t353 142q131 0 222 -68t91 -159q0 -51 -33 -85t-75 -34t-73 28q-32 28 -32 72t35 72q-43 47 -143 47z" />
    <glyph glyph-name="seven.tab" horiz-adv-x="1085" 
d="M164 0l829 1217h-598l-51 -220h-141l82 351h880l35 -66l-860 -1282h-176z" />
    <glyph glyph-name="eight.tab" horiz-adv-x="1085" 
d="M844 379q0 111 -79 183t-209 73q-130 0 -215 -78q-85 -79 -85 -189t78 -182t206 -72t216 78q88 76 88 187zM997 375q0 -166 -129 -281q-130 -114 -326 -114t-319 104t-123 258t96 252t244 129q-86 43 -136 122t-50 165q0 143 118 251q118 107 301 107t301 -99t118 -239
t-82 -226q-82 -85 -219 -122q88 -37 147 -120t59 -187zM936 1006q0 100 -70 164t-186 65q-116 0 -196 -69q-78 -69 -78 -171t74 -169q74 -66 184 -66q112 0 192 73t80 173z" />
    <glyph glyph-name="nine.tab" horiz-adv-x="1085" 
d="M658 1237q-124 0 -220 -105q-96 -104 -96 -234t66 -199t190 -69t222 107q100 107 100 229t-68 196t-194 75zM561 500q-168 0 -272 108t-105 264q0 197 144 349q144 151 330 151q188 0 296 -119q123 -125 123 -383q0 -200 -80 -404t-221 -337q-168 -154 -366 -154
q-129 0 -221 68q-91 68 -91 160q0 53 33 86t75 33t73 -28t31 -72t-36 -72q47 -47 146 -48q150 0 272 127q80 78 143 207q62 129 85 266q-58 -84 -150 -143t-209 -59z" />
    <glyph glyph-name="period.tab" horiz-adv-x="542" 
d="M227 -18q-55 0 -92 38t-37 94t37 94t92 38t93 -38t38 -94t-37 -95q-39 -37 -94 -37z" />
    <glyph glyph-name="comma.tab" horiz-adv-x="542" 
d="M100 127q0 43 36 80t92 37t94 -40t38 -106q0 -108 -104 -220t-283 -175l-30 59q115 57 178 126t69 114q-42 12 -66 47t-24 78z" />
    <glyph glyph-name="colon.tab" horiz-adv-x="542" 
d="M351 518q-54 0 -91 39t-37 93t37 92t91 38t91 -38t37 -93t-37 -93t-91 -38zM356 113q0 -55 -37 -93t-91 -38t-91 38t-37 92t37 93t91 39t91 -38t37 -93z" />
    <glyph glyph-name="semicolon.tab" horiz-adv-x="542" 
d="M351 518q-54 0 -91 39t-37 93t37 92t91 38t91 -38t37 -93t-37 -93t-91 -38zM100 125q0 43 36 79t91 36t93 -39t38 -105q0 -106 -102 -217t-281 -174l-30 59q115 57 177 125t68 113q-42 12 -66 46t-24 77z" />
    <glyph glyph-name="twodotleader.tab" horiz-adv-x="1085" 
d="M770 -18q-55 0 -92 38t-37 94t37 94t92 38t93 -38t38 -94t-38 -94t-93 -38zM227 -18q-55 0 -92 38t-37 94t37 94t92 38t93 -38t38 -94t-37 -95q-39 -37 -94 -37z" />
    <glyph glyph-name="periodcentered.tab" horiz-adv-x="542" 
d="M301 422q-55 0 -92 38t-37 94t37 94t92 38t92 -38t37 -94t-37 -94t-92 -38z" />
    <glyph glyph-name="slash.tab" horiz-adv-x="1085" 
d="M-51 -432l-111 74l1307 1882l110 -76z" />
    <glyph glyph-name="bar.tab" horiz-adv-x="542" 
d="M209 -410v1909h127v-1909h-127z" />
    <glyph glyph-name="underscore.tab" horiz-adv-x="1085" 
d="M-115 -303l35 137h1137l-31 -137h-1141z" />
    <glyph glyph-name="dollar.tab" horiz-adv-x="1085" 
d="M428 1006q0 -127 168 -226l131 441h-27q-120 -3 -196 -61t-76 -154zM831 338q0 92 -48 145t-140 105l-137 -461h35q129 0 210 59q80 60 80 152zM1014 940q-47 0 -78 31t-31 79t56 87q-45 45 -127 65l-144 -473q128 -68 188 -124t83 -113t22 -130q0 -162 -124 -262
t-329 -100q-41 0 -59 2l-63 -215l-117 33l57 207q-127 39 -208 117t-81 150t35 112t84 38q49 0 80 -30t31 -81q0 -50 -60 -93q45 -63 168 -97l152 494q-123 69 -197 151t-74 219t121 239q121 101 316 102l47 -2l55 190l117 -33l-53 -182q109 -35 179 -101t68 -136
q0 -68 -34 -106t-80 -38z" />
    <glyph glyph-name="sterling.tab" horiz-adv-x="1085" 
d="M496 899q0 -49 13 -142t15 -124h328l-27 -119h-299q-14 -211 -168 -321q66 -6 170 -43t191 -37q86 0 190 84l74 -86q-117 -135 -291 -136q-70 -1 -118 15t-58 19t-42 15q-132 51 -216 54q-33 -47 -86 -76t-95 -29t-70 24t-27 60q0 55 62 93t177 40q156 129 166 324h-225
l28 119h195q-3 31 -17 120t-14 146q0 209 117 341t311 132q127 0 220 -72t94 -167q0 -59 -32 -95t-77 -34q-45 0 -76 30t-31 76q0 47 35 74q-6 20 -46 38t-91 17q-131 0 -206 -96q-74 -97 -74 -244z" />
    <glyph glyph-name="Euro.tab" horiz-adv-x="1085" 
d="M602 113q143 0 264 184l101 -90q-166 -233 -383 -234q-164 0 -262 124t-103 349h-153l28 127h129q6 80 27 183h-115l31 127h121q76 219 215 354q138 135 290 135t233 -88t81 -209q0 -71 -35 -113t-84 -42t-78 28t-28 74q0 72 67 102q-39 111 -150 111q-110 0 -202 -98
t-150 -258h281l-29 -121h-288q-25 -92 -31 -187h274l-28 -120h-250q4 -158 63 -248t164 -90z" />
    <glyph glyph-name="yen.tab" horiz-adv-x="1085" 
d="M166 551l27 119h251l-149 549h-129l31 129h440l-31 -129h-160l134 -535l381 535h-164l30 129h449l-31 -129h-117l-415 -549h239l-26 -119h-308l-30 -139h307l-27 -119h-307l-39 -170h195l-29 -123h-532l30 123h189l39 170h-305l26 119h305l33 139h-307z" />
    <glyph glyph-name="cent.tab" horiz-adv-x="1085" 
d="M301 620q0 -158 150 -227l188 631q-139 -25 -239 -135q-99 -111 -99 -269zM578 246q-43 0 -64 2l-86 -287l-104 27l86 284q-117 42 -186 134t-68 219q0 203 154 359t366 167l67 225l103 -28l-62 -203q113 -18 185 -85t71 -140q0 -49 -30 -85t-72 -36q-41 1 -68 25
q-26 24 -26 69t43 72q-45 51 -146 63l-196 -659q16 -2 47 -2q191 -1 336 116l-6 -137q-143 -100 -344 -100z" />
    <glyph glyph-name="numbersign.tab" horiz-adv-x="1085" 
d="M522 842l-98 -357h229l99 357h-230zM1026 1346l-106 -379h215l-35 -127h-217l-97 -351h222l-35 -129h-223l-101 -360h-135l100 360h-225l-98 -360h-135l100 360h-213l35 129h215l98 351h-221l35 127h221l106 379h136l-107 -379h223l107 379h135z" />
    <glyph glyph-name="paragraph.tab" horiz-adv-x="1085" 
d="M575 127h99l254 1094h-99zM522 485q-172 -1 -280 101t-107 274q0 217 159 352t406 136h531l-31 -136h-145l-250 -1077h145l-28 -135h-668l31 135h168l82 350h-13z" />
    <glyph glyph-name="section.tab" horiz-adv-x="1085" 
d="M301 688q0 -58 58 -93q58 -37 126 -61t129 -47q291 47 291 177q1 88 -189 152q-68 22 -96 32t-34 12q-133 -22 -209 -68t-76 -104zM150 678q0 90 87 150t230 90q-125 78 -125 192t109 188t276 74q211 0 317 -106q54 -58 54 -110t-28 -83t-70 -31t-70 28t-27 66
q0 38 31 68q-29 18 -73 35t-140 17t-163 -36q-66 -36 -66 -92t58 -94q58 -37 164 -77t149 -60q44 -20 95 -53q99 -64 99 -172q0 -176 -322 -244q129 -78 129 -190t-108 -188q-108 -75 -277 -75q-215 0 -319 109q-51 52 -51 106q-1 54 27 84t70 31t70 -27t27 -66
q0 -38 -29 -67q6 -11 56 -31t151 -20q102 0 168 35t66 91q1 56 -59 94t-164 77t-150 59q-128 58 -169 131q-23 42 -23 97z" />
    <glyph glyph-name="degree.tab" horiz-adv-x="1085" 
d="M627 885q123 0 211 98q88 99 88 211t-58 172t-151 59q-123 0 -211 -98q-88 -99 -88 -211t58 -172q59 -59 151 -59zM618 786q-141 0 -225 90t-84 220q0 166 121 297t295 131q141 0 225 -89t84 -238t-121 -280t-295 -131z" />
    <glyph glyph-name="percent.tab" horiz-adv-x="1085" 
d="M760 88q61 0 106 90t45 184q0 119 -88 119q-61 0 -105 -90t-44 -184q0 -119 86 -119zM750 -16q-84 0 -136 59q-51 59 -51 158q0 155 80 269t195 114q82 0 133 -58t51 -157q0 -157 -78 -271t-194 -114zM383 868q61 0 105 89t44 186q0 119 -86 119q-61 0 -106 -90t-45 -185
q0 -119 88 -119zM373 764q-86 0 -137 59t-52 158q0 155 81 269t196 114q82 0 133 -58t51 -157q-1 -157 -79 -271t-193 -114zM117 -16l-76 63l528 660l523 663l71 -63l-524 -658z" />
    <glyph glyph-name="quotedbl.tab" horiz-adv-x="1085" 
d="M776 905l55 484q6 57 39 89t76 32t70 -28q48 -49 10 -136l-192 -441h-58zM643 1418q0 -36 -16 -72l-193 -441h-57l55 484q6 57 39 89t76 32t69 -28t27 -64z" />
    <glyph glyph-name="quotesingle.tab" horiz-adv-x="542" 
d="M303 905l55 484q6 57 39 89t76 32t70 -28q48 -49 10 -136l-193 -441h-57z" />
    <glyph glyph-name="plus.tab" horiz-adv-x="1085" 
d="M762 1067l-74 -311h318l-31 -127h-316l-79 -340h-129l79 340h-317l31 127h315l74 311h129z" />
    <glyph glyph-name="minus.tab" horiz-adv-x="1085" 
d="M209 629l29 127h763l-30 -127h-762z" />
    <glyph glyph-name="divide.tab" horiz-adv-x="1085" 
d="M528 268q-40 0 -70 31t-30 72t31 71t71 29q40 0 70 -30q29 -31 29 -71t-30 -71t-71 -31zM680 911q-41 0 -71 31t-29 72q0 42 30 72t71 30q40 0 70 -31q29 -31 29 -71t-30 -72q-30 -31 -70 -31zM209 629l29 127h763l-30 -127h-762z" />
    <glyph glyph-name="equal.tab" horiz-adv-x="1085" 
d="M188 430l29 127h694l-28 -127h-695zM272 799l29 129h696l-28 -129h-697z" />
    <glyph glyph-name="multiply.tab" horiz-adv-x="1085" 
d="M383 1059l205 -273l299 250l80 -100l-301 -250l204 -268l-106 -86l-205 266l-301 -250l-78 101l303 251l-207 273z" />
    <glyph glyph-name="less.tab" horiz-adv-x="1085" 
d="M721 254l-508 399l10 49l682 398l62 -94l-568 -336l402 -324z" />
    <glyph glyph-name="greater.tab" horiz-adv-x="1085" 
d="M481 1110l508 -401l-10 -50l-684 -395l-59 92l567 336l-402 324z" />
    <glyph glyph-name="plusminus.tab" horiz-adv-x="1085" 
d="M92 143l27 127h762l-29 -127h-760zM782 1202l-73 -317h319l-31 -127h-317l-74 -318h-129l74 318h-315l28 127h316l73 317h129z" />
    <glyph glyph-name="zero.idx_P2D" horiz-adv-x="2252" 
d="M1126 254q115 0 185 103q69 103 69 269t-69 271q-70 104 -186 104q-115 0 -185 -103t-70 -269q0 -167 70 -271t186 -104zM1518 628q0 -218 -114 -358t-278 -139q-164 0 -278 140q-114 139 -113 357q0 218 114 357q115 139 279 139t277 -139t113 -357zM1126 1534
q-381 0 -641 -269t-260 -651t260 -650q260 -269 641 -269t641 269t261 650q0 380 -260 650t-642 270zM1126 1628q276 0 508 -136t366 -370t134 -508t-133 -508t-365 -369q-232 -136 -510 -136q-276 0 -509 136q-232 136 -365 369q-133 234 -133 508t133 508t365 370
q233 136 509 136z" />
    <glyph glyph-name="one.idx_P2D" horiz-adv-x="2252" 
d="M1413 150h-563v118h217v701l-205 -43l-26 116l299 68h65v-842h213v-118zM1126 1534q-381 0 -641 -269t-260 -651t260 -650q260 -269 641 -269t641 269t261 650q0 380 -260 650t-642 270zM1126 1628q276 0 508 -136t366 -370t134 -508t-133 -508t-365 -369
q-232 -136 -510 -136q-276 0 -509 136q-232 136 -365 369q-133 234 -133 508t133 508t365 370q233 136 509 136z" />
    <glyph glyph-name="two.idx_P2D" horiz-adv-x="2252" 
d="M989 868q1 -46 -25 -70t-66 -24t-66 32t-25 84q0 52 31 97q88 137 309 137q117 0 209 -76t92 -188t-58 -179t-178 -144q-209 -137 -270 -275h410v154h114v-266h-649l-37 59q48 141 138 235t199 170t152 122q42 48 42 116q-1 68 -55 111t-155 43t-159 -68q47 -25 47 -70z
M1126 1534q-381 0 -641 -269t-260 -651t260 -650q260 -269 641 -269t641 269t261 650q0 380 -260 650t-642 270zM1126 1628q276 0 508 -136t366 -370t134 -508t-133 -508t-365 -369q-232 -136 -510 -136q-276 0 -509 136q-232 136 -365 369q-133 234 -133 508t133 508
t365 370q233 136 509 136z" />
    <glyph glyph-name="three.idx_P2D" horiz-adv-x="2252" 
d="M1309 866q0 140 -198 140q-93 0 -142 -45q29 -23 29 -59t-26 -60t-61 -25q-35 0 -63 30t-27 76q0 46 35 87q84 111 272 110q135 0 226 -68q90 -69 90 -182t-105 -180q-49 -33 -98 -41q53 -12 94 -37q131 -74 131 -200t-99 -201q-99 -76 -247 -76q-186 0 -284 109
q-48 51 -48 100t27 79t64 30t61 -26q24 -25 25 -63q0 -38 -29 -57q48 -57 162 -57t175 46q60 46 60 116q0 100 -104 147q-68 29 -170 29h-43v112h49q104 0 174 47t70 119zM1126 1534q-381 0 -641 -269t-260 -651t260 -650q260 -269 641 -269t641 269t261 650q0 380 -260 650
t-642 270zM1126 1628q276 0 508 -136t366 -370t134 -508t-133 -508t-365 -369q-232 -136 -510 -136q-276 0 -509 136q-232 136 -365 369q-133 234 -133 508t133 508t365 370q233 136 509 136z" />
    <glyph glyph-name="four.idx_P2D" horiz-adv-x="2252" 
d="M1006 150v108h170v172h-443l-31 57l510 648l99 -74l-422 -529h287v185l127 51v-233h157v-109h-157v-166h122v-110h-419zM1126 1534q-381 0 -641 -269t-260 -651t260 -650q260 -269 641 -269t641 269t261 650q0 380 -260 650t-642 270zM1126 1628q276 0 508 -136t366 -370
t134 -508t-133 -508t-365 -369q-232 -136 -510 -136q-276 0 -509 136q-232 136 -365 369q-133 234 -133 508t133 508t365 370q233 136 509 136z" />
    <glyph glyph-name="five.idx_P2D" horiz-adv-x="2252" 
d="M1122 131q-139 0 -232 56t-93 126q0 39 24 66q25 27 64 27t63 -26t25 -56q0 -30 -15 -45q40 -31 146 -31t162 59q55 59 55 147t-53 139q-53 52 -170 52t-203 -45l-57 33l45 473h510v-125h-402l-24 -238q67 21 185 21t209 -83t91 -226t-95 -234q-96 -90 -235 -90z
M1126 1534q-381 0 -641 -269t-260 -651t260 -650q260 -269 641 -269t641 269t261 650q0 380 -260 650t-642 270zM1126 1628q276 0 508 -136t366 -370t134 -508t-133 -508t-365 -369q-232 -136 -510 -136q-276 0 -509 136q-232 136 -365 369q-133 234 -133 508t133 508
t365 370q233 136 509 136z" />
    <glyph glyph-name="six.idx_P2D" horiz-adv-x="2252" 
d="M911 443q0 -79 66 -138q68 -57 156 -57t146 55t58 137t-59 135q-58 53 -150 53t-154 -52q-62 -54 -63 -133zM1338 862q-38 0 -62 25t-23 53q0 28 11 47q-45 20 -97 21q-113 0 -189 -106t-81 -273q39 51 105 84t139 32q143 0 237 -87t94 -217t-96 -220q-98 -90 -246 -90
q-148 -1 -256 105q-106 106 -106 355t117 391t284 142q100 0 177 -45q80 -53 79 -127q-1 -42 -25 -66t-62 -24zM1126 1534q-381 0 -641 -269t-260 -651t260 -650q260 -269 641 -269t641 269t261 650q0 380 -260 650t-642 270zM1126 1628q276 0 508 -136t366 -370t134 -508
t-133 -508t-365 -369q-232 -136 -510 -136q-276 0 -509 136q-232 136 -365 369q-133 234 -133 508t133 508t365 370q233 136 509 136z" />
    <glyph glyph-name="seven.idx_P2D" horiz-adv-x="2252" 
d="M946 993v-168h-121v281h639l29 -64l-416 -892h-141l401 843h-391zM1126 1534q-381 0 -641 -269t-260 -651t260 -650q260 -269 641 -269t641 269t261 650q0 380 -260 650t-642 270zM1126 1628q276 0 508 -136t366 -370t134 -508t-133 -508t-365 -369q-232 -136 -510 -136
q-276 0 -509 136q-232 136 -365 369q-133 234 -133 508t133 508t365 370q233 136 509 136z" />
    <glyph glyph-name="eight.idx_P2D" horiz-adv-x="2252" 
d="M1125 250q93 0 153 48q59 48 59 119t-61 122q-60 51 -150 51t-151 -51t-61 -122t58 -119q60 -48 153 -48zM1126 692q78 0 134 46q55 46 55 113t-54 112q-55 45 -137 45t-135 -44t-53 -112t56 -114t134 -46zM1124 135q-156 0 -251 78t-95 195q0 84 58 150t139 87
q-82 25 -129 83t-47 128q0 119 93 192q93 72 233 72t234 -73q93 -74 93 -191q0 -70 -48 -128t-128 -83q84 -20 140 -87t57 -150q-1 -117 -97 -195t-252 -78zM1126 1534q-381 0 -641 -269t-260 -651t260 -650q260 -269 641 -269t641 269t261 650q0 380 -260 650t-642 270z
M1126 1628q276 0 508 -136t366 -370t134 -508t-133 -508t-365 -369q-232 -136 -510 -136q-276 0 -509 136q-232 136 -365 369q-133 234 -133 508t133 508t365 370q233 136 509 136z" />
    <glyph glyph-name="nine.idx_P2D" horiz-adv-x="2252" 
d="M1343 810q0 81 -63 140q-66 60 -156 60t-148 -56t-58 -141q0 -84 59 -137t151 -53t154 53q61 53 61 134zM827 299q0 47 25 71q26 24 62 24t60 -26q24 -24 24 -53t-13 -45q35 -23 105 -22q114 0 190 102t78 271q-39 -49 -106 -81t-138 -32q-143 0 -236 85t-94 218
q0 133 96 223t246 90q148 0 246 -98q115 -114 115 -364t-114 -390q-113 -140 -271 -141q-158 0 -234 80q-41 41 -41 88zM1126 1534q-381 0 -641 -269t-260 -651t260 -650q260 -269 641 -269t641 269t261 650q0 380 -260 650t-642 270zM1126 1628q276 0 508 -136t366 -370
t134 -508t-133 -508t-365 -369q-232 -136 -510 -136q-276 0 -509 136q-232 136 -365 369q-133 234 -133 508t133 508t365 370q233 136 509 136z" />
    <glyph glyph-name="space.tab" horiz-adv-x="542" 
 />
    <glyph glyph-name="NUL" 
 />
    <glyph glyph-name="hfjslug" horiz-adv-x="1421" 
d="M872 580q-33 0 -32 34q0 12 9 24t23 11q14 0 24 -11t9 -24q0 -34 -33 -34zM997 612h-22v35h22q20 0 21 -16q-1 -19 -21 -19zM659 823q-33 0 -33 45t33 78l41 -80q-16 -43 -41 -43zM645 1056q0 30 29 29q27 -1 27 -35t-31 -69q-25 45 -25 75zM494 662l28 -97h17l22 70h2
l23 -70h16l29 97h-17l-20 -72h-2l-23 72h-14l-23 -72h-2l-20 72h-16zM270 662v-95h17v66l51 -66h14v95h-16v-66l-51 66h-15zM395 662v-95h70v15h-53v26h47v15h-47v24h53v15h-70zM750 567h16v35l37 60h-19l-26 -46l-27 46h-18l37 -60v-35zM872 565q20 1 34 15q33 33 1 68
q-15 16 -35 16t-34 -16t-14 -34q0 -20 14 -34t34 -15zM1034 631q0 31 -35 31h-41v-95h17v31h24l21 -31h18l-24 35q20 8 20 29zM1071 662v-95h16v25l17 16l31 -41h20l-41 54l37 41h-21l-40 -50h-3v50h-16zM729 1038q0 72 -55 72q-25 0 -41 -19q-17 -19 -17 -45t29 -79
q-47 -37 -47 -83q0 -91 59 -89q39 0 60 49h2l24 -49l25 12l-35 65q13 29 27 80l-27 6q-8 -37 -16 -61h-2l-33 64q47 43 47 77zM985 799q63 0 64 73v281h-33v-281q0 -45 -33 -45q-16 0 -41 11v-31q20 -8 43 -8zM377 1153v-352h31v162h96v-162h31v352h-31v-162h-96v162h-31z
M819 1153v-352h31v160h78v28h-78v135h88v29h-119zM1319 -410h-426l-16 29h-334l-17 -29h-424v621q29 0 48 19q18 19 18 46q0 26 -20 46t-46 20v1135h205l62 161h684l59 -161h207v-1887z" />
    <glyph glyph-name="i.dot" horiz-adv-x="604" 
d="M305 -14q-80 0 -126 45t-46 119q0 33 17 94l137 504h-170l33 124h313l-172 -634q-14 -57 -15 -86q0 -64 64 -64t115 137l71 -24q-69 -215 -221 -215zM520 1145q0 -43 -30 -74t-73 -31q-42 0 -73 31t-31 74t31 74t73 31q43 0 73 -32q30 -30 30 -73z" />
    <glyph glyph-name="zero.num" horiz-adv-x="722" 
d="M377 655q94 0 160 118t65 263q0 90 -34 142t-99 53q-96 0 -161 -118t-64 -263q0 -195 133 -195zM371 559q-111 0 -173 78t-63 213q0 193 97 335t243 142q111 0 173 -78t63 -213q1 -193 -97 -335t-243 -142z" />
    <glyph glyph-name="one.num" horiz-adv-x="722" 
d="M104 573l23 97h203l125 538l-201 -43l-4 97l280 63l52 -25l-146 -630h199l-21 -97h-510z" />
    <glyph glyph-name="two.num" horiz-adv-x="722" 
d="M606 1133q0 100 -150 100q-78 0 -116 -47q20 -28 20 -54t-19 -46t-49 -21t-49 21t-20 57q0 70 76 128t181 58t171 -52t66 -136q-1 -83 -61 -139t-181 -121q-199 -106 -258 -217h313l27 116h92l-47 -207h-500l-20 50q47 113 134 191q88 78 198 136t151 97t41 86z" />
    <glyph glyph-name="three.num" horiz-adv-x="722" 
d="M380 563q-108 0 -185 47q-76 47 -76 121q0 31 20 55t49 23q30 0 48 -18q18 -19 18 -49t-23 -44q33 -45 127 -45t141 36q46 36 46 89t-49 91t-129 38h-41l22 97h41q94 0 151 35q56 36 56 88t-41 79t-105 27t-96 -27q14 -10 14 -36t-18 -44q-20 -18 -49 -18t-48 20t-19 64
t62 90q64 45 170 45t175 -55q68 -55 68 -134q1 -79 -59 -128t-156 -60q160 -41 159 -172q-1 -100 -83 -158t-190 -57z" />
    <glyph glyph-name="four.num" horiz-adv-x="722" 
d="M418 657l33 134h-336l-15 49l488 499l65 -61l-403 -406h221l37 142l106 39l-41 -174h123l-22 -88h-121l-31 -134h96l-20 -84h-328l19 84h129z" />
    <glyph glyph-name="five.num" horiz-adv-x="722" 
d="M555 820q1 134 -149 134q-74 0 -150 -32l-55 39l114 354h408l-23 -101h-321l-66 -198q66 26 146 26t140 -56t60 -160t-95 -185q-96 -82 -208 -82t-180 44t-67 99q0 33 19 55q19 21 49 21t49 -18q20 -18 20 -40t-13 -40q43 -29 121 -29t140 52q61 51 61 117z" />
    <glyph glyph-name="six.num" horiz-adv-x="722" 
d="M250 790q0 -60 38 -99q38 -38 108 -38q70 -1 123 51q52 52 52 115t-37 100q-38 35 -107 35t-123 -52t-54 -112zM394 559q-114 0 -182 71q-69 70 -69 192t44 231t122 180q102 96 228 96q80 0 136 -40t56 -95q0 -30 -20 -52q-21 -22 -49 -22t-47 20t-19 42q0 24 14 39
q-25 20 -69 20q-88 0 -173 -81t-114 -222q80 104 190 104t174 -59t64 -159t-86 -183q-86 -82 -200 -82z" />
    <glyph glyph-name="seven.num" horiz-adv-x="722" 
d="M203 573l446 652h-313l-31 -131h-98l53 221h498l26 -53l-460 -689h-121z" />
    <glyph glyph-name="eight.num" horiz-adv-x="722" 
d="M236 780q0 -55 42 -91t114 -36q71 0 120 39t49 94q0 54 -42 90q-41 36 -115 36t-121 -39q-47 -38 -47 -93zM466 997q62 0 106 36t44 87t-39 83q-40 32 -104 32q-65 0 -107 -35t-42 -86t40 -84t102 -33zM670 794q0 -102 -76 -168t-197 -65q-121 -1 -197 59t-75 142
q0 82 54 137t140 72q-104 49 -104 153q0 78 73 140t185 61q112 0 182 -55q70 -56 70 -134q0 -149 -170 -190q115 -50 115 -152z" />
    <glyph glyph-name="nine.num" horiz-adv-x="722" 
d="M469 1235q-72 0 -124 -51q-52 -50 -52 -114t37 -100q38 -36 106 -36t122 52t54 112t-37 98q-34 39 -106 39zM420 846q-110 0 -173 60t-63 160t85 182t199 81t182 -71t69 -192q0 -122 -44 -230t-122 -181q-102 -96 -227 -96q-80 0 -137 40q-56 40 -56 95q1 30 21 52t48 22
t47 -19t19 -45t-14 -36q25 -20 72 -21q90 0 163 74q86 80 121 229q-80 -104 -190 -104z" />
    <glyph glyph-name="zero.den" horiz-adv-x="722" 
d="M244 82q94 0 160 118t65 263q0 90 -34 142t-99 52q-96 1 -161 -117t-64 -264q0 -194 133 -194zM238 -14q-111 0 -173 78t-63 212q0 193 97 335t243 143q111 0 173 -78t63 -213q0 -193 -98 -335t-242 -142z" />
    <glyph glyph-name="one.den" horiz-adv-x="722" 
d="M-29 0l23 96h203l125 539l-201 -43l-4 96l280 64l52 -25l-146 -631h199l-21 -96h-510z" />
    <glyph glyph-name="two.den" horiz-adv-x="722" 
d="M473 559q0 47 -36 74t-95 26q-98 0 -135 -47q20 -28 20 -54t-19 -46t-49 -20t-49 22t-20 55q0 70 76 128q76 59 181 59t171 -52t66 -137q0 -84 -60 -139t-182 -121q-199 -106 -258 -217h313l27 117h92l-47 -207h-500l-20 49q47 113 134 191t197 136t152 97q41 39 41 86z
" />
    <glyph glyph-name="three.den" horiz-adv-x="722" 
d="M520 205q0 -99 -82 -157t-192 -58q-108 0 -185 47q-76 47 -75 121q0 30 20 54t49 24t47 -18t18 -49q0 -30 -22 -44q34 -45 128 -45t140 36t46 89t-50 91t-129 38h-40l22 96h41q94 0 151 36q56 36 56 88t-41 79t-106 27t-95 -27q15 -10 15 -36t-20 -44t-48 -18
q-29 0 -48 20q-20 20 -20 64q0 43 64 89t170 46t174 -56t68 -134q0 -79 -60 -128q-59 -49 -156 -59q160 -41 160 -172z" />
    <glyph glyph-name="four.den" horiz-adv-x="722" 
d="M285 84l32 133h-335l-15 49l488 500l65 -61l-403 -406h221l37 141l106 39l-41 -174h123l-22 -88h-121l-31 -133h96l-20 -84h-328l19 84h129z" />
    <glyph glyph-name="five.den" horiz-adv-x="722" 
d="M326 469q80 0 140 -56t60 -160q0 -103 -95 -185t-207 -82t-181 44q-68 44 -68 99q-1 33 19 55t50 21t49 -19q39 -38 7 -80q43 -28 121 -28t139 52q62 52 62 118t-38 99q-38 34 -112 34t-149 -33l-55 39l114 354h408l-23 -100h-321l-66 -199q66 27 146 27z" />
    <glyph glyph-name="six.den" horiz-adv-x="722" 
d="M117 216q0 -60 38 -98q39 -38 109 -38t122 51t52 115t-38 99q-38 36 -106 36t-123 -52q-54 -53 -54 -113zM10 249q0 123 44 231t122 179q102 96 227 97q81 0 137 -40t56 -95q0 -31 -20 -53t-49 -22q-28 0 -47 20q-19 18 -19 42t14 39q-25 20 -69 21q-90 0 -174 -81
t-113 -222q81 104 191 104t173 -59t63 -160q0 -100 -85 -182t-199 -82t-183 70q-69 71 -69 193z" />
    <glyph glyph-name="seven.den" horiz-adv-x="722" 
d="M70 0l446 651h-313l-31 -131h-98l53 221h498l26 -53l-461 -688h-120z" />
    <glyph glyph-name="eight.den" horiz-adv-x="722" 
d="M259 80q71 0 120 39t49 94t-42 90t-116 35t-120 -38t-48 -93q0 -55 43 -91t114 -36zM190 541q0 -51 40 -84t104 -33q62 0 106 36t43 87q0 51 -40 83q-39 32 -103 32t-107 -35t-43 -86zM537 220q0 -102 -76 -166q-76 -66 -197 -66q-120 0 -196 59t-76 141t54 138t140 71
q-104 49 -104 154q0 78 73 139q73 62 185 62t182 -56t70 -133q0 -78 -46 -125t-124 -65q115 -51 115 -153z" />
    <glyph glyph-name="nine.den" horiz-adv-x="722" 
d="M302 360q68 0 123 52q54 52 54 113q1 61 -35 99t-108 38t-124 -52t-52 -114q0 -64 37 -100t105 -36zM51 492q0 100 85 182t199 82q115 0 183 -71t68 -193t-44 -230t-122 -180q-102 -96 -227 -96q-80 0 -137 40q-56 40 -56 95q0 31 20 53t48 21q28 1 48 -19q19 -20 19 -45
t-14 -37q25 -20 72 -20q90 0 163 73q86 80 121 230q-81 -105 -191 -105t-172 60t-63 160z" />
    <glyph glyph-name="caron.alt" horiz-adv-x="1024" 
d="M559 1491q37 0 59 -24t23 -62q0 -169 -272 -399l-41 38q96 104 123 205q6 27 8 80t8 80q18 82 92 82z" />
    <glyph glyph-name="g.sc" 
 />
    <glyph glyph-name="gbreve.sc" 
 />
    <glyph glyph-name="i.sc" 
 />
    <glyph glyph-name="iacute.sc" 
 />
    <glyph glyph-name="ibreve.sc" 
 />
    <glyph glyph-name="icircumflex.sc" 
 />
    <glyph glyph-name="idieresis.sc" 
 />
    <glyph glyph-name="igrave.sc" 
 />
    <glyph glyph-name="imacron.sc" 
 />
    <glyph glyph-name="iogonek.sc" 
 />
    <glyph glyph-name="S.sc" 
 />
    <glyph glyph-name="Sacute.sc" 
 />
    <glyph glyph-name="Aring.sc" 
 />
    <glyph glyph-name="Aringacute.sc" 
 />
    <glyph glyph-name="E.sc" 
 />
    <glyph glyph-name="Eacute.sc" 
 />
    <glyph glyph-name="Ebreve.sc" 
 />
    <glyph glyph-name="Ecircumflex.sc" 
 />
    <glyph glyph-name="Edieresis.sc" 
 />
    <glyph glyph-name="Egrave.sc" 
 />
    <glyph glyph-name="Emacron.sc" 
 />
    <glyph glyph-name="Eogonek.sc" 
 />
    <glyph glyph-name="N.sc" 
 />
    <glyph glyph-name="Nacute.sc" 
 />
    <glyph glyph-name="Ntilde.sc" 
 />
    <glyph glyph-name="a.sc" 
 />
    <glyph glyph-name="aogonek.sc" 
 />
    <glyph glyph-name="L.sc" 
 />
    <glyph glyph-name="Lacute.sc" 
 />
    <glyph glyph-name="s.sc" 
 />
    <glyph glyph-name="sacute.sc" 
 />
    <glyph glyph-name="aring.sc" 
 />
    <glyph glyph-name="aringacute.sc" 
 />
    <glyph glyph-name="C.sc" 
 />
    <glyph glyph-name="Cacute.sc" 
 />
    <glyph glyph-name="e.sc" 
 />
    <glyph glyph-name="eacute.sc" 
 />
    <glyph glyph-name="ebreve.sc" 
 />
    <glyph glyph-name="ecircumflex.sc" 
 />
    <glyph glyph-name="edieresis.sc" 
 />
    <glyph glyph-name="egrave.sc" 
 />
    <glyph glyph-name="emacron.sc" 
 />
    <glyph glyph-name="eogonek.sc" 
 />
    <glyph glyph-name="n.sc" 
 />
    <glyph glyph-name="nacute.sc" 
 />
    <glyph glyph-name="ntilde.sc" 
 />
    <glyph glyph-name="l.sc" 
 />
    <glyph glyph-name="lacute.sc" 
 />
    <glyph glyph-name="c.sc" 
 />
    <glyph glyph-name="cacute.sc" 
 />
    <glyph glyph-name="R.sc" 
 />
    <glyph glyph-name="Racute.sc" 
 />
    <glyph glyph-name="G.sc" 
 />
    <glyph glyph-name="Gbreve.sc" 
 />
    <glyph glyph-name="I.sc" 
 />
    <glyph glyph-name="Iacute.sc" 
 />
    <glyph glyph-name="Ibreve.sc" 
 />
    <glyph glyph-name="Icircumflex.sc" 
 />
    <glyph glyph-name="Idieresis.sc" 
 />
    <glyph glyph-name="Igrave.sc" 
 />
    <glyph glyph-name="Imacron.sc" 
 />
    <glyph glyph-name="Iogonek.sc" 
 />
    <glyph glyph-name="r.sc" 
 />
    <glyph glyph-name="racute.sc" 
 />
    <glyph glyph-name="A.sc" 
 />
    <glyph glyph-name="Aogonek.sc" 
 />
    </font>
</defs>
</svg>
